<svg width="35" height="22" viewBox="0 0 35 22" fill="none" xmlns="http://www.w3.org/2000/svg">
<g clip-path="url(#clip0_49_231)">
<path d="M31.8656 0H3.13441C3.01475 0 2.89488 0 2.77543 0.000685131C2.67446 0.00139102 2.57372 0.00249139 2.47299 0.00519039C2.25329 0.0110244 2.0317 0.0237512 1.81475 0.0620355C1.59433 0.100984 1.38922 0.164515 1.18912 0.264544C0.992409 0.362767 0.812314 0.491239 0.656243 0.644542C0.500103 0.797846 0.369256 0.974381 0.269239 1.16773C0.167339 1.3642 0.102592 1.56565 0.0631984 1.78223C0.023997 1.99531 0.0109482 2.21283 0.00502752 2.42831C0.00232091 2.52722 0.00116003 2.62613 0.000502413 2.72502C-0.000195383 2.84255 3.72158e-05 2.96 3.72158e-05 3.07773V18.9225C3.72158e-05 19.0402 -0.000195383 19.1575 0.000502413 19.2752C0.00116003 19.3741 0.00232091 19.473 0.00502752 19.5719C0.0109482 19.7872 0.023997 20.0048 0.0631984 20.2178C0.102592 20.4344 0.167339 20.6358 0.269239 20.8323C0.369256 21.0256 0.500103 21.2024 0.656243 21.3555C0.812314 21.509 0.992409 21.6375 1.18912 21.7355C1.38922 21.8358 1.59433 21.8993 1.81475 21.9382C2.0317 21.9763 2.25329 21.9892 2.47299 21.9951C2.57372 21.9973 2.67446 21.9986 2.77543 21.9991C2.89488 22 3.01475 22 3.13441 22H31.8656C31.9851 22 32.1049 22 32.2244 21.9991C32.3251 21.9986 32.4259 21.9973 32.5271 21.9951C32.7463 21.9892 32.9678 21.9763 33.1853 21.9382C33.4054 21.8993 33.6106 21.8358 33.8107 21.7355C34.0076 21.6375 34.1872 21.509 34.3436 21.3555C34.4995 21.2024 34.6303 21.0256 34.7306 20.8323C34.8327 20.6358 34.8974 20.4344 34.9366 20.2178C34.9758 20.0048 34.9886 19.7872 34.9945 19.5719C34.9972 19.473 34.9986 19.3741 34.9991 19.2752C35 19.1575 35 19.0402 35 18.9225V3.07773C35 2.96 35 2.84255 34.9991 2.72502C34.9986 2.62613 34.9972 2.52722 34.9945 2.42831C34.9886 2.21283 34.9758 1.99531 34.9366 1.78223C34.8974 1.56565 34.8327 1.3642 34.7306 1.16773C34.6303 0.974381 34.4995 0.797846 34.3436 0.644542C34.1872 0.491239 34.0076 0.362767 33.8107 0.264544C33.6106 0.164515 33.4054 0.100984 33.1853 0.0620355C32.9678 0.0237512 32.7463 0.0110244 32.5271 0.00519039C32.4259 0.00249139 32.3251 0.00139102 32.2244 0.000685131C32.1049 0 31.9851 0 31.8656 0Z" fill="black"/>
<path d="M31.8636 0.732422L32.2171 0.733086C32.3128 0.733751 32.4086 0.734768 32.5048 0.737342C32.6723 0.741785 32.8682 0.750692 33.0508 0.782831C33.2096 0.810901 33.3427 0.853586 33.4705 0.917449C33.5966 0.980377 33.7122 1.06284 33.8131 1.16177C33.9143 1.26136 33.9984 1.37501 34.0634 1.50023C34.1281 1.62469 34.1713 1.75478 34.1997 1.91178C34.2323 2.08913 34.2414 2.282 34.2459 2.44745C34.2485 2.54084 34.2498 2.63422 34.2503 2.72983C34.2512 2.84545 34.2511 2.96101 34.2511 3.07686V18.9216C34.2511 19.0375 34.2512 19.1528 34.2502 19.2709C34.2498 19.3643 34.2485 19.4577 34.2459 19.5512C34.2414 19.7164 34.2323 19.9092 34.1993 20.0886C34.1713 20.2435 34.1281 20.3736 34.063 20.4987C33.9983 20.6236 33.9143 20.7371 33.8135 20.8361C33.712 20.9357 33.5968 21.0179 33.4692 21.0814C33.3424 21.145 33.2095 21.1876 33.0523 21.2154C32.866 21.248 32.6619 21.257 32.5082 21.2611C32.4114 21.2632 32.3152 21.2645 32.2166 21.265C32.0991 21.2658 31.9812 21.2658 31.8636 21.2658H3.13241C3.13085 21.2658 3.12933 21.2658 3.12774 21.2658C3.01157 21.2658 2.89516 21.2658 2.77688 21.2649C2.68043 21.2645 2.5842 21.2632 2.49116 21.2612C2.33392 21.257 2.12968 21.248 1.94489 21.2156C1.78637 21.1876 1.65347 21.145 1.52499 21.0806C1.39856 21.0177 1.28347 20.9355 1.18195 20.8357C1.08121 20.7369 0.997496 20.6238 0.932771 20.4987C0.867981 20.3737 0.824633 20.2432 0.796132 20.0865C0.763185 19.9074 0.754135 19.7154 0.749612 19.5514C0.74703 19.4574 0.745951 19.3635 0.745338 19.2701L0.744873 18.9944L0.744894 18.9216V3.07686L0.744873 3.00407L0.745317 2.72896C0.745951 2.63501 0.74703 2.54109 0.749612 2.44722C0.754135 2.28298 0.763185 2.09089 0.796404 1.91031C0.824654 1.75503 0.867981 1.62453 0.933109 1.49894C0.997327 1.37481 1.08119 1.26149 1.18246 1.16208C1.28332 1.06301 1.39879 0.980647 1.52602 0.917117C1.65313 0.853565 1.78628 0.810901 1.94481 0.782893C2.12746 0.750671 2.3235 0.741785 2.49139 0.737322C2.5871 0.734768 2.6828 0.733751 2.77779 0.733107L3.13241 0.732422H31.8636Z" fill="white"/>
<path d="M9.55303 7.40036C9.85271 7.03233 10.0561 6.53817 10.0024 6.0332C9.56375 6.05462 9.02841 6.31737 8.71848 6.68569C8.44019 7.0011 8.19388 7.51595 8.25809 7.99975C8.75054 8.04169 9.24254 7.75807 9.55303 7.40036Z" fill="black"/>
<path d="M9.99746 8.09265C9.2823 8.05082 8.67424 8.49117 8.33272 8.49117C7.99101 8.49117 7.46802 8.11372 6.90237 8.1239C6.16613 8.13451 5.483 8.54323 5.10939 9.19328C4.34094 10.4937 4.9066 12.4227 5.65387 13.4818C6.01676 14.0058 6.45411 14.5827 7.03038 14.562C7.57486 14.541 7.78828 14.2158 8.45011 14.2158C9.11147 14.2158 9.30371 14.562 9.88007 14.5515C10.4778 14.541 10.8514 14.0273 11.2143 13.5028C11.6306 12.9055 11.8011 12.3287 11.8118 12.2971C11.8011 12.2866 10.6592 11.8565 10.6487 10.5669C10.6379 9.48706 11.5451 8.97344 11.5878 8.94159C11.0755 8.19761 10.275 8.11372 9.99746 8.09265Z" fill="black"/>
<path d="M16.2239 6.63281C17.7782 6.63281 18.8606 7.68482 18.8606 9.21646C18.8606 10.7536 17.756 11.811 16.1849 11.811H14.4639V14.4982H13.2205V6.63281H16.2239V6.63281ZM14.4639 10.7863H15.8906C16.9732 10.7863 17.5894 10.214 17.5894 9.22193C17.5894 8.22995 16.9732 7.66305 15.8962 7.66305H14.4639V10.7863Z" fill="black"/>
<path d="M19.1853 12.8682C19.1853 11.8652 19.9681 11.2493 21.356 11.1729L22.9548 11.0803V10.6388C22.9548 10.0011 22.5162 9.61954 21.7835 9.61954C21.0894 9.61954 20.6564 9.94651 20.551 10.459H19.4185C19.4851 9.42324 20.3844 8.66016 21.8278 8.66016C23.2435 8.66016 24.1483 9.39601 24.1483 10.5461V14.4979H22.9991V13.5549H22.9715C22.6329 14.1927 21.8945 14.596 21.1284 14.596C19.9848 14.596 19.1853 13.8983 19.1853 12.8682ZM22.9548 12.3504V11.898L21.5169 11.9851C20.8007 12.0342 20.3955 12.3449 20.3955 12.8355C20.3955 13.3369 20.8174 13.664 21.4614 13.664C22.2996 13.664 22.9548 13.0971 22.9548 12.3504Z" fill="black"/>
<path d="M25.2314 16.6073V15.6534C25.3201 15.6752 25.5199 15.6752 25.6199 15.6752C26.175 15.6752 26.4749 15.4463 26.658 14.8576C26.658 14.8467 26.7635 14.5088 26.7635 14.5033L24.6541 8.76367H25.9529L27.4298 13.4296H27.4519L28.9287 8.76367H30.1944L28.007 14.7976C27.5075 16.1876 26.9302 16.6346 25.7199 16.6346C25.6199 16.6346 25.3201 16.6236 25.2314 16.6073Z" fill="black"/>
</g>
<defs>
<clipPath id="clip0_49_231">
<rect width="35" height="22" fill="white"/>
</clipPath>
</defs>
</svg>
