<svg width="32" height="32" viewBox="0 0 32 32" fill="none" xmlns="http://www.w3.org/2000/svg">
<path d="M22 14V12H10V14H22ZM22 16H10V20H22V16ZM9 11.995C9.00065 11.8635 9.02724 11.7335 9.07822 11.6123C9.12921 11.491 9.2036 11.3811 9.29713 11.2887C9.39067 11.1962 9.50151 11.1232 9.62332 11.0737C9.74513 11.0241 9.87551 10.9991 10.007 11H21.993C22.55 11 23 11.456 23 11.995V20.005C22.9993 20.1365 22.9728 20.2666 22.9218 20.3878C22.8708 20.509 22.7964 20.619 22.7029 20.7114C22.6093 20.8038 22.4985 20.8769 22.3767 20.9264C22.2549 20.9759 22.1245 21.0009 21.993 21H10.007C9.74207 20.9998 9.48789 20.8953 9.29944 20.709C9.11099 20.5228 9.00342 20.2699 9 20.005V11.995ZM20 17C20.2652 17 20.5196 17.1054 20.7071 17.2929C20.8946 17.4805 21 17.7348 21 18C21 18.2652 20.8946 18.5196 20.7071 18.7071C20.5196 18.8947 20.2652 19 20 19C19.7348 19 19.4804 18.8947 19.2929 18.7071C19.1054 18.5196 19 18.2652 19 18C19 17.7348 19.1054 17.4805 19.2929 17.2929C19.4804 17.1054 19.7348 17 20 17Z" fill="#59606D"/>
</svg>
