<svg width="32" height="32" viewBox="0 0 32 32" fill="none" xmlns="http://www.w3.org/2000/svg">
<path fill-rule="evenodd" clip-rule="evenodd" d="M18.0854 15H9V16H18.0854C18.2913 16.5826 18.8469 17 19.5 17C20.1531 17 20.7087 16.5826 20.9146 16H23V15H20.9146C20.7087 14.4174 20.1531 14 19.5 14C18.8469 14 18.2913 14.4174 18.0854 15ZM11.0854 19H9V20H11.0854C11.2913 20.5826 11.8469 21 12.5 21C13.1531 21 13.7087 20.5826 13.9146 20H23V19H13.9146C13.7087 18.4174 13.1531 18 12.5 18C11.8469 18 11.2913 18.4174 11.0854 19ZM11.0854 11H9V12H11.0854C11.2913 12.5826 11.8469 13 12.5 13C13.1531 13 13.7087 12.5826 13.9146 12H23V11H13.9146C13.7087 10.4174 13.1531 10 12.5 10C11.8469 10 11.2913 10.4174 11.0854 11Z" fill="#59606D"/>
</svg>
