<svg width="32" height="32" viewBox="0 0 32 32" fill="none" xmlns="http://www.w3.org/2000/svg">
<g clip-path="url(#clip0_4801_2083)">
<path d="M22.875 19.125V21.625C22.875 22.6605 22.0355 23.5 21 23.5H11C9.96446 23.5 9.125 22.6605 9.125 21.625V19.125C9.125 18.7798 9.40485 18.5 9.75 18.5C10.0952 18.5 10.375 18.7798 10.375 19.125V21.625C10.375 21.9702 10.6548 22.25 11 22.25H21C21.3452 22.25 21.625 21.9702 21.625 21.625V19.125C21.625 18.7798 21.9048 18.5 22.25 18.5C22.5952 18.5 22.875 18.7798 22.875 19.125ZM15.5581 20.192C15.8022 20.436 16.1978 20.436 16.4419 20.192L20.192 16.442C20.436 16.198 20.436 15.8022 20.192 15.5581C19.9479 15.3141 19.5521 15.314 19.308 15.5581L16.625 18.2412V9.125C16.625 8.77981 16.3452 8.5 16 8.5C15.6548 8.5 15.375 8.77981 15.375 9.125V18.2412L12.6919 15.5581C12.4479 15.314 12.0521 15.314 11.8081 15.5581C11.564 15.8021 11.5639 16.1979 11.808 16.442L15.5581 20.192Z" fill="#1E3145"/>
</g>
<defs>
<clipPath id="clip0_4801_2083">
<rect width="13.75" height="15" fill="white" transform="translate(9.125 8.5)"/>
</clipPath>
</defs>
</svg>
