<svg width="16" height="26" viewBox="0 0 16 26" fill="none" xmlns="http://www.w3.org/2000/svg">
<path fill-rule="evenodd" clip-rule="evenodd" d="M3 19H13V10L9 6H3V19ZM9 6L13 10H9V6ZM10 5H3C2.5 5 2 5.54545 2.01 6.09091L2.00695 10H3V16H2.00227L2 18.9091C2 19.4545 2.5 20 3 20H13C13.5 20 14 19.4545 14 18.9091V9L10 5Z" fill="#000A1E"/>
<path fill-rule="evenodd" clip-rule="evenodd" d="M5 9.57812V16.6492L8.53553 13.1137L5 9.57812Z" fill="#000A1E"/>
<path fill-rule="evenodd" clip-rule="evenodd" d="M0 12.1172H5V14.1172H0V12.1172Z" fill="#000A1E"/>
</svg>
