<svg width="35" height="22" viewBox="0 0 35 22" fill="none" xmlns="http://www.w3.org/2000/svg">
<rect width="35" height="22" rx="2" fill="#19DFB6"/>
<path d="M8.26367 5.62873C8.26367 4.98933 8.73485 4.46875 9.32511 4.46875C9.91018 4.46875 10.3813 4.98933 10.3865 5.62873C10.3865 6.26813 9.91018 6.7887 9.32511 6.7887C8.74004 6.7887 8.26367 6.26813 8.26367 5.62873Z" fill="#1D3944"/>
<path d="M4.61597 4.59375H6.51098V17.1159H4.61597V4.59375Z" fill="#1D3944"/>
<path d="M30.2214 8.1812C29.1289 10.7332 27.9071 12.5835 27.9071 12.5835L30.5009 17.1159H28.2641L26.6695 14.3263C25.0645 16.3237 23.4749 17.3026 21.9423 17.3026C20.0732 17.3026 19.3121 15.8427 19.3121 14.1848C19.3121 14.0007 19.3135 13.7743 19.3148 13.5556V13.555L19.3148 13.554C19.316 13.3498 19.3173 13.1523 19.3173 13.0022C19.3173 10.8124 19.105 10.19 18.4319 10.2918C17.1375 10.4842 15.1648 13.7095 13.8807 17.1159H12.0996V8.1812H13.9946V12.6401C15.0767 10.6483 16.0605 8.9451 17.6552 8.28305C18.582 7.89828 19.3638 8.06238 19.7677 8.26043C21.233 8.96773 21.233 10.6992 21.2123 13.0135C21.2123 13.1609 21.2111 13.3135 21.2098 13.4714V13.4719V13.4723C21.2085 13.6415 21.2071 13.8168 21.2071 13.9981C21.2071 14.8412 21.4194 15.209 21.9423 15.2656C22.4497 15.3222 22.838 15.0506 22.838 15.0506V4.59375H24.728V13.5624C24.728 13.5624 26.3744 11.9214 28.1088 8.1812H30.2214Z" fill="#1D3944"/>
<path d="M10.2729 8.18164H8.37793V17.1163H10.2729V8.18164Z" fill="#1D3944"/>
</svg>
