<svg width="35" height="22" viewBox="0 0 35 22" fill="none" xmlns="http://www.w3.org/2000/svg">
<path d="M0.973633 0.0693359H34.0264C34.5255 0.0693359 34.9307 0.474454 34.9307 0.973633V21.0264C34.9307 21.5255 34.5255 21.9307 34.0264 21.9307H0.973633C0.474454 21.9307 0.0693359 21.5255 0.0693359 21.0264V0.973633C0.0693359 0.474454 0.474454 0.0693359 0.973633 0.0693359Z" fill="black" stroke="black" stroke-width="0.139053"/>
<path d="M20.6648 5.35059H14.2871V16.7113H20.6648V5.35059Z" fill="#FF5F00"/>
<path d="M14.6977 11.0366C14.6967 9.94251 14.9468 8.8625 15.4291 7.87836C15.9115 6.89422 16.6133 6.03176 17.4816 5.35625C16.4064 4.51847 15.115 3.99747 13.7552 3.85279C12.3953 3.70811 11.0218 3.94559 9.79172 4.5381C8.5616 5.13061 7.52446 6.05424 6.79886 7.20341C6.07326 8.35258 5.68848 9.68093 5.68848 11.0366C5.68848 12.3923 6.07326 13.7207 6.79886 14.8698C7.52446 16.019 8.5616 16.9426 9.79172 17.5352C11.0218 18.1277 12.3953 18.3651 13.7552 18.2205C15.115 18.0758 16.4064 17.5548 17.4816 16.717C16.6133 16.0415 15.9115 15.179 15.4292 14.1949C14.9468 13.2108 14.6967 12.1307 14.6977 11.0366Z" fill="#EB001B"/>
<path d="M29.2684 11.0366C29.2684 12.3923 28.8837 13.7206 28.1581 14.8698C27.4326 16.019 26.3955 16.9426 25.1654 17.5351C23.9353 18.1277 22.5618 18.3651 21.202 18.2205C19.8421 18.0758 18.5508 17.5548 17.4756 16.717C18.3431 16.0408 19.0444 15.1782 19.5267 14.1942C20.0089 13.2102 20.2595 12.1306 20.2595 11.0366C20.2595 9.94268 20.0089 8.86301 19.5267 7.87903C19.0444 6.89504 18.3431 6.03244 17.4756 5.35625C18.5508 4.51847 19.8421 3.99746 21.202 3.85279C22.5618 3.70811 23.9353 3.9456 25.1654 4.53812C26.3955 5.13064 27.4326 6.05426 28.1581 7.20344C28.8837 8.35261 29.2684 9.68095 29.2684 11.0366Z" fill="#F79E1B"/>
<path d="M28.5838 15.508V15.2754H28.6785V15.228H28.4375V15.2754H28.5322V15.508H28.5838ZM29.0516 15.508V15.2275H28.9778L28.8928 15.4204L28.8079 15.2275H28.734V15.508H28.7861V15.2964L28.8658 15.4788H28.9199L28.9995 15.296V15.508H29.0516Z" fill="#F79E1B"/>
</svg>
