<svg width="60" height="60" viewBox="0 0 60 60" fill="none" xmlns="http://www.w3.org/2000/svg">
<path d="M60 30.0001C60 13.4315 46.5685 0 30.0001 0C13.4315 0 0 13.4315 0 30.0001C0 46.5685 13.4315 60 30.0001 60C46.5685 60 60 46.5685 60 30.0001Z" fill="#13B5EA"/>
<path d="M19.4798 26.406C19.6495 26.233 19.7443 26.0039 19.7443 25.7611C19.7443 25.2549 19.3327 24.8438 18.8266 24.8438C18.58 24.8438 18.3487 24.9404 18.1744 25.117C18.174 25.1178 13.0592 30.2295 13.0592 30.2295L7.9213 25.1092C7.74759 24.938 7.51763 24.8438 7.2737 24.8438C6.76797 24.8438 6.35645 25.2546 6.35645 25.7603C6.35645 26.0071 6.45484 26.2386 6.63171 26.413L11.7509 31.5312L6.63447 36.6573C6.45443 36.8343 6.35645 37.0665 6.35645 37.3141C6.35645 37.8201 6.76797 38.231 7.2737 38.231C7.51804 38.231 7.7482 38.136 7.9213 37.9629L13.0514 32.8398L18.162 37.9442C18.3431 38.1316 18.5769 38.2316 18.8266 38.2316C19.3322 38.2316 19.7437 37.8201 19.7437 37.3141C19.7437 37.07 19.6492 36.8406 19.477 36.6673L14.36 31.5385L19.4798 26.406Z" fill="white"/>
<path d="M44.7959 31.5371C44.7959 32.4563 45.5432 33.2042 46.4636 33.2042C47.3818 33.2042 48.1296 32.4563 48.1296 31.5371C48.1296 30.6177 47.3818 29.8701 46.4636 29.8701C45.5432 29.8701 44.7959 30.6177 44.7959 31.5371" fill="white"/>
<path fill-rule="evenodd" clip-rule="evenodd" d="M46.4628 38.2644C42.7537 38.2644 39.7363 35.2474 39.7363 31.539C39.7363 27.83 42.7537 24.812 46.4628 24.812C50.1718 24.812 53.1909 27.83 53.1909 31.539C53.1909 35.2474 50.1718 38.2644 46.4628 38.2644ZM46.4631 26.7105C43.8009 26.7105 41.6354 28.8762 41.6354 31.5382C41.6354 34.1994 43.8009 36.3644 46.4631 36.3644C49.1241 36.3644 51.2898 34.1994 51.2898 31.5382C51.2898 28.8762 49.1241 26.7105 46.4631 26.7105Z" fill="white"/>
<path d="M38.9757 24.9253C38.1285 24.9253 37.3114 25.1925 36.629 25.7184C36.5388 25.3068 36.171 24.9974 35.7329 24.9974C35.2286 24.9974 34.8245 25.4013 34.8232 25.9066C34.8232 25.9084 34.8263 37.2358 34.8263 37.2358C34.8276 37.7401 35.2392 38.1502 35.7437 38.1502C36.2483 38.1502 36.6595 37.7401 36.6608 37.2345C36.6608 37.2325 36.6614 30.2686 36.6614 30.2686C36.6614 27.9467 36.8736 27.0092 38.8623 26.7607C39.0464 26.7379 39.2462 26.7414 39.247 26.7414C39.7913 26.7228 40.178 26.3487 40.178 25.8434C40.178 25.3375 39.7651 24.9261 39.258 24.9261L38.9757 24.9253Z" fill="white"/>
<path fill-rule="evenodd" clip-rule="evenodd" d="M29.9838 25.8617C31.5442 26.8489 32.5687 28.3862 32.9639 30.2577C33.1592 31.3174 32.4528 32.2439 31.14 32.2711C31.14 32.2711 22.117 32.2731 21.5652 32.2731C21.567 32.317 21.5717 32.3648 21.5778 32.4146C21.6256 32.6795 21.694 32.9372 21.7827 33.1851C22.2906 34.5146 23.7183 36.3772 26.3866 36.4071C27.2016 36.4024 27.9685 36.1969 28.6413 35.8374C29.1702 35.5419 29.6114 35.1611 29.9671 34.7681C30.0853 34.627 30.1926 34.4864 30.2887 34.3493C30.7359 33.7764 31.3046 33.8816 31.6432 34.1412C32.0447 34.4488 32.1124 35.0931 31.747 35.5462C31.7409 35.5538 31.7347 35.5606 31.7284 35.5674C31.724 35.5722 31.7196 35.577 31.7153 35.582C31.1885 36.2423 30.645 36.7938 29.9944 37.2121C29.3675 37.6137 28.6871 37.899 27.984 38.0699C27.1657 38.282 26.3757 38.3291 25.5639 38.2309C22.8281 37.8958 20.5335 35.8754 19.855 33.2061C19.7194 32.6694 19.6543 32.1243 19.6543 31.5842C19.6543 29.4299 20.6916 27.3386 22.4884 26.0603C24.6915 24.4937 27.7032 24.4137 29.9838 25.8617ZM21.6475 30.3699C21.6464 30.3903 21.6453 30.4108 21.6453 30.4304H31.0863C30.5806 28.2864 28.6565 26.6902 26.3583 26.6902C24.0877 26.6902 22.1811 28.248 21.6484 30.3534C21.6482 30.3589 21.6479 30.3644 21.6475 30.3699Z" fill="white"/>
</svg>
