<svg width="36" height="45" viewBox="0 0 36 45" fill="none" xmlns="http://www.w3.org/2000/svg">
<path fill-rule="evenodd" clip-rule="evenodd" d="M10.779 0.75H33.817C34.341 0.75 34.765 1.193 34.765 1.739V42.281C34.765 42.827 34.341 43.271 33.817 43.271H1.698C1.174 43.271 0.75 42.827 0.75 42.281V11.212C0.75 10.949 10.779 0.75 10.779 0.75Z" stroke="#59606D" stroke-width="1.5"/>
<path fill-rule="evenodd" clip-rule="evenodd" d="M7.29297 33.751H28.223Z" fill="#59606D"/>
<path d="M7.29297 33.751H28.223" stroke="#59606D" stroke-width="1.5" stroke-linecap="round"/>
<path fill-rule="evenodd" clip-rule="evenodd" d="M10.6143 37.7529H24.7883Z" fill="#59606D"/>
<path d="M10.6143 37.7529H24.7883" stroke="#59606D" stroke-width="1.5" stroke-linecap="round"/>
<path fill-rule="evenodd" clip-rule="evenodd" d="M17.7622 21.2227L17.7302 13.7017C16.8532 13.7027 15.9632 13.8517 15.0952 14.1797C11.2192 15.6487 9.27115 19.9917 10.7432 23.8807C12.2162 27.7697 16.5532 29.7327 20.4302 28.2647C23.4472 27.1217 25.2862 24.2367 25.2642 21.1807L17.7622 21.2227Z" stroke="#59606D" stroke-width="1.5"/>
<path fill-rule="evenodd" clip-rule="evenodd" d="M20.4229 11.9238L20.4489 17.8278L24.7689 13.8158C23.6509 12.6098 22.0689 11.9208 20.4229 11.9238" fill="#59606D"/>
<path d="M0.75 11.33H11.329V0.75" stroke="#59606D" stroke-width="1.5"/>
</svg>
