<svg width="36" height="45" viewBox="0 0 36 45" fill="none" xmlns="http://www.w3.org/2000/svg">
<path fill-rule="evenodd" clip-rule="evenodd" d="M20.0938 26.3736C21.4338 25.4996 22.2508 23.8956 21.9778 22.1286C21.6908 20.2736 20.1318 18.7846 18.2678 18.5686C15.6798 18.2696 13.4868 20.2816 13.4868 22.8066C13.4868 24.2996 14.2578 25.6126 15.4198 26.3736C12.3258 27.3506 10.6868 29.5746 10.5508 32.7136H17.7578H19.4888H24.9628C24.8268 29.5746 23.1888 27.3506 20.0938 26.3736Z" stroke="#59606D" stroke-width="1.5" stroke-linecap="round" stroke-linejoin="round"/>
<path d="M20.5 6.10596H29.666C32.483 6.10596 34.766 8.38896 34.766 11.206V38.164C34.766 40.984 32.48 43.27 29.66 43.27H5.84998C3.03398 43.27 0.750977 40.986 0.750977 38.169V11.211C0.750977 8.39196 3.03598 6.10596 5.85598 6.10596H15" stroke="#59606D" stroke-width="1.5" stroke-linecap="round" stroke-linejoin="round"/>
<path d="M10.6709 37.5269H24.8439" stroke="#59606D" stroke-width="1.5" stroke-linecap="round"/>
<path d="M15.2061 9.90234V11.4033L15.9248 9.90234H23.8535V12.9014H11.0977V9.90234H15.2061Z" fill="#59606D"/>
<path d="M20.3091 11.403V0.75H15.2061V11.403" stroke="#59606D" stroke-width="1.5" stroke-linecap="round" stroke-linejoin="round"/>
</svg>
