<svg width="32" height="32" viewBox="0 0 32 32" fill="none" xmlns="http://www.w3.org/2000/svg">
<path fill-rule="evenodd" clip-rule="evenodd" d="M8 16C8 13.7909 9.79086 12 12 12H15.75C15.3358 12 15 12.3358 15 12.75C15 13.1642 14.6642 13.5 14.25 13.5H12C10.5 13.5 9.5 14.5 9.5 16C9.5 17.5 10.5 18.4761 12 18.5H14.25C14.6642 18.5 15 18.8358 15 19.25C15 19.6642 15.3358 20 15.75 20H12C9.79086 20 8 18.2091 8 16ZM17 12.75C17 12.3358 16.6642 12 16.25 12H20C22.2091 12 24 13.7909 24 16C24 18.2091 22.2091 20 20 20H16.25C16.6642 20 17 19.6642 17 19.25C17 18.8358 17.3358 18.5 17.75 18.5H20C21.5 18.5 22.5 17.25 22.5 16C22.5 14.75 21.5 13.5 20 13.5H17.75C17.3358 13.5 17 13.1642 17 12.75ZM19 15H13V17H19V15Z" fill="#59606D"/>
</svg>
