<svg width="20" height="20" viewBox="0 0 20 20" fill="none" xmlns="http://www.w3.org/2000/svg">
<path d="M2.51342 10.9652C2.84444 11.7441 3.32563 12.4502 3.92952 13.0431C4.53341 13.636 5.24817 14.1042 6.03299 14.4209C6.81782 14.7376 7.65733 14.8966 8.50361 14.8889C9.34989 14.8811 10.1863 14.7067 10.9652 14.3757C11.7441 14.0447 12.4502 13.5635 13.0431 12.9596C13.636 12.3557 14.1042 11.641 14.4209 10.8561C14.7376 10.0713 14.8966 9.2318 14.8888 8.38552C14.8811 7.53924 14.7067 6.70278 14.3757 5.92389C14.0447 5.145 13.5635 4.43894 12.9596 3.84601C12.3557 3.25309 11.6409 2.78491 10.8561 2.46822C10.0713 2.15153 9.23178 1.99252 8.3855 2.00027C7.53923 2.00802 6.70277 2.18239 5.92388 2.51341C5.14499 2.84443 4.43892 3.32562 3.846 3.92951C3.25307 4.53341 2.7849 5.24817 2.46821 6.03299C2.15152 6.81782 1.99251 7.65734 2.00027 8.50361C2.00803 9.34989 2.18239 10.1864 2.51342 10.9652Z" stroke="#002A46" stroke-width="1.3" stroke-linecap="round" stroke-linejoin="round"/>
<path d="M13.0017 13.001L17.9999 17.9999" stroke="#002A46" stroke-width="1.3" stroke-linecap="round" stroke-linejoin="round"/>
</svg>
