<svg width="36" height="36" viewBox="0 0 36 36" fill="none" xmlns="http://www.w3.org/2000/svg">
<path d="M17.0047 11.3025C17.1338 11.4458 17.2915 11.5603 17.4677 11.6388C17.6439 11.7172 17.8346 11.7577 18.0275 11.7577C18.2203 11.7577 18.4111 11.7172 18.5872 11.6388C18.7634 11.5603 18.9212 11.4458 19.0503 11.3025L19.7157 10.5723C19.9064 10.3613 20.1578 10.2144 20.4353 10.1519C20.7128 10.0893 21.0029 10.1142 21.2657 10.2231C21.5285 10.332 21.7512 10.5196 21.9031 10.7601C22.0551 11.0006 22.1289 11.2822 22.1144 11.5663L22.0645 12.5511C22.0548 12.7432 22.0855 12.9352 22.1546 13.1147C22.2236 13.2943 22.3295 13.4573 22.4654 13.5935C22.6014 13.7296 22.7643 13.8357 22.9437 13.905C23.1231 13.9743 23.3151 14.0053 23.5072 13.9959L24.492 13.946C24.776 13.932 25.0573 14.0061 25.2974 14.1583C25.5375 14.3104 25.7247 14.5331 25.8333 14.7958C25.942 15.0585 25.9667 15.3483 25.9041 15.6256C25.8416 15.9029 25.6948 16.1541 25.4839 16.3447L24.7509 17.0059C24.6078 17.1352 24.4934 17.293 24.4151 17.4693C24.3368 17.6455 24.2963 17.8362 24.2963 18.0291C24.2963 18.2219 24.3368 18.4126 24.4151 18.5889C24.4934 18.7651 24.6078 18.923 24.7509 19.0522L25.4839 19.7134C25.6949 19.9042 25.8418 20.1555 25.9043 20.433C25.9669 20.7106 25.942 21.0006 25.8331 21.2634C25.7242 21.5262 25.5366 21.7489 25.2961 21.9008C25.0556 22.0528 24.774 22.1266 24.4899 22.1122L23.5051 22.0622C23.3126 22.0523 23.1201 22.0829 22.9402 22.1521C22.7602 22.2213 22.5968 22.3275 22.4605 22.4638C22.3241 22.6001 22.2179 22.7635 22.1488 22.9435C22.0796 23.1235 22.049 23.3159 22.0589 23.5085L22.1088 24.4933C22.1214 24.7759 22.0467 25.0556 21.8948 25.2944C21.7429 25.5331 21.5212 25.7193 21.2598 25.8276C20.9984 25.936 20.71 25.9612 20.4337 25.8999C20.1575 25.8386 19.9068 25.6938 19.7157 25.4851L19.0538 24.7528C18.9246 24.6097 18.7668 24.4954 18.5906 24.4171C18.4144 24.3388 18.2238 24.2983 18.031 24.2983C17.8382 24.2983 17.6476 24.3388 17.4714 24.4171C17.2952 24.4954 17.1374 24.6097 17.0082 24.7528L16.3435 25.4851C16.1527 25.6948 15.9019 25.8405 15.6253 25.9025C15.3487 25.9644 15.0597 25.9396 14.7977 25.8313C14.5357 25.723 14.3135 25.5365 14.1614 25.2973C14.0093 25.0581 13.9346 24.7779 13.9476 24.4947L13.9982 23.5099C14.0081 23.3173 13.9775 23.1249 13.9083 22.9449C13.8391 22.765 13.733 22.6015 13.5966 22.4652C13.4603 22.3289 13.2969 22.2227 13.1169 22.1535C12.937 22.0843 12.7445 22.0537 12.552 22.0636L11.5672 22.1136C11.2832 22.1284 11.0016 22.0549 10.761 21.9033C10.5204 21.7517 10.3327 21.5293 10.2235 21.2667C10.1144 21.0041 10.0892 20.7142 10.1514 20.4367C10.2137 20.1592 10.3603 19.9078 10.5711 19.717L11.3034 19.0557C11.4465 18.9265 11.5609 18.7686 11.6392 18.5924C11.7175 18.4161 11.7579 18.2254 11.7579 18.0326C11.7579 17.8397 11.7175 17.649 11.6392 17.4728C11.5609 17.2966 11.4465 17.1387 11.3034 17.0094L10.5711 16.3447C10.3609 16.1541 10.2148 15.9032 10.1526 15.6264C10.0905 15.3495 10.1153 15.0602 10.2238 14.7981C10.3322 14.5359 10.519 14.3136 10.7586 14.1616C10.9982 14.0096 11.2788 13.9353 11.5622 13.9488L12.547 13.9988C12.7399 14.0089 12.9328 13.9783 13.1131 13.9091C13.2935 13.8398 13.4572 13.7334 13.5937 13.5968C13.7303 13.4601 13.8365 13.2963 13.9056 13.1159C13.9747 12.9355 14.005 12.7426 13.9947 12.5497L13.9476 11.5642C13.9343 11.2809 14.0087 11.0004 14.1607 10.7609C14.3128 10.5215 14.535 10.3348 14.797 10.2264C15.059 10.1179 15.3482 10.0929 15.6249 10.1548C15.9017 10.2167 16.1526 10.3625 16.3435 10.5723L17.0047 11.3025Z" stroke="#002A46" stroke-linecap="round" stroke-linejoin="round"/>
<path d="M14.8621 18.0295C14.8621 18.869 15.1956 19.6741 15.7892 20.2678C16.3828 20.8614 17.188 21.1949 18.0275 21.1949C18.867 21.1949 19.6722 20.8614 20.2658 20.2678C20.8595 19.6741 21.193 18.869 21.193 18.0295C21.193 17.1899 20.8595 16.3848 20.2658 15.7912C19.6722 15.1975 18.867 14.864 18.0275 14.864C17.188 14.864 16.3828 15.1975 15.7892 15.7912C15.1956 16.3848 14.8621 17.1899 14.8621 18.0295Z" stroke="#002A46" stroke-linecap="round" stroke-linejoin="round"/>
</svg>
