<svg width="20" height="20" viewBox="0 0 20 20" fill="none" xmlns="http://www.w3.org/2000/svg">
<g clip-path="url(#clip0_8898_6768)">
<path d="M14.192 12.0581C13.9479 11.8141 13.5522 11.814 13.3081 12.0581L10.625 14.7412V3.75C10.625 3.40481 10.3452 3.125 10 3.125C9.65486 3.125 9.37503 3.40481 9.37503 3.75V14.7412L6.69197 12.0581C6.4479 11.814 6.05217 11.814 5.80808 12.0581C5.564 12.3022 5.56396 12.6979 5.80804 12.942L9.5581 16.692C9.80217 16.936 10.1979 16.936 10.442 16.692L14.192 12.942C14.4361 12.698 14.4361 12.3022 14.192 12.0581Z" fill="#1E3145"/>
</g>
<defs>
<clipPath id="clip0_8898_6768">
<rect width="8.75007" height="13.75" fill="white" transform="translate(5.625 3.125)"/>
</clipPath>
</defs>
</svg>
