<svg width="35" height="22" viewBox="0 0 35 22" fill="none" xmlns="http://www.w3.org/2000/svg">
<path d="M35 20.7031C35 21.4236 34.4215 22 33.6983 22H1.30165C0.578511 22 0 21.4236 0 20.7031V1.29695C0 0.576421 0.578511 0 1.30165 0H33.6983C34.4215 0 35 0.576421 35 1.29695V20.7031Z" fill="#1A1F71"/>
<path d="M13.3058 6.38922L9.40081 15.66H6.84571L4.91733 8.26259C4.82091 7.83027 4.67629 7.63813 4.33882 7.44599C3.76031 7.15778 2.79612 6.82154 1.97656 6.67743L2.02477 6.38922H6.12257C6.65287 6.38922 7.13497 6.72547 7.23138 7.34992L8.24378 12.7298L10.7507 6.43726H13.3058V6.38922ZM23.2851 12.6338C23.2851 10.184 19.9104 10.0399 19.9104 8.98311C19.9104 8.64687 20.2479 8.31062 20.9228 8.21455C21.2603 8.16651 22.2245 8.11848 23.2851 8.64686L23.719 6.67743C23.1405 6.48529 22.4173 6.24512 21.4531 6.24512C19.0909 6.24512 17.4036 7.49403 17.4036 9.31935C17.4036 10.6643 18.6088 11.3849 19.5248 11.8172C20.4408 12.2495 20.7782 12.5377 20.7782 12.97C20.7782 13.5945 20.0551 13.8827 19.3319 13.8827C18.1267 13.8827 17.4036 13.5464 16.8733 13.3063L16.4394 15.3237C17.0179 15.5639 18.0303 15.8041 19.0909 15.8041C21.5978 15.8041 23.2369 14.5552 23.2851 12.6338ZM29.5523 15.66H31.77L29.8416 6.38922H27.7686C27.2865 6.38922 26.9008 6.67743 26.7562 7.06171L23.1405 15.66H25.6474L26.1295 14.267H29.2149L29.5523 15.66ZM26.8526 12.3936L28.106 8.93507L28.8292 12.3936H26.8526ZM16.7286 6.38922L14.752 15.66H12.3416L14.3182 6.38922H16.7286Z" fill="white"/>
</svg>
