<svg width="32" height="32" viewBox="0 0 32 32" fill="none" xmlns="http://www.w3.org/2000/svg">
<path fill-rule="evenodd" clip-rule="evenodd" d="M18 8V9H19C20 9 20 10 20 10V14.1C22.2822 14.5633 24 16.581 24 19C24 21.7614 21.7614 24 19 24C16.9497 24 15.1876 22.7659 14.416 21H9C8 21 8 20 8 20V10C8 10 8 9 9 9H10V8H12V9H16V8H18ZM14.1 20C14.0344 19.6769 14 19.3425 14 19C14 16.2386 16.2386 14 19 14V12H9V20H14.1ZM19 23C21.2091 23 23 21.2091 23 19C23 16.7909 21.2091 15 19 15C16.7909 15 15 16.7909 15 19C15 21.2091 16.7909 23 19 23ZM19 17H18V20H21V19H19V17Z" fill="#59606D"/>
</svg>
