<svg width="32" height="32" viewBox="0 0 32 32" fill="none" xmlns="http://www.w3.org/2000/svg">
<path fill-rule="evenodd" clip-rule="evenodd" d="M9 16C9 19.8656 12.1344 23 16 23C16 23 17 23 17 22C17 21.5058 16.7558 21.2675 16.5087 21.0265C16.2559 20.7797 16 20.53 16 20C16 19 17 19 19 19C22 19 23 17 23 15.2222C23 11.5 20 9 16 9C12 9 9 12.1344 9 16ZM20 16C20.5523 16 21 15.5523 21 15C21 14.4477 20.5523 14 20 14C19.4477 14 19 14.4477 19 15C19 15.5523 19.4477 16 20 16ZM19 12C19 12.5523 18.5523 13 18 13C17.4477 13 17 12.5523 17 12C17 11.4477 17.4477 11 18 11C18.5523 11 19 11.4477 19 12ZM14 13C14.5523 13 15 12.5523 15 12C15 11.4477 14.5523 11 14 11C13.4477 11 13 11.4477 13 12C13 12.5523 13.4477 13 14 13ZM13 15C13 15.5523 12.5523 16 12 16C11.4477 16 11 15.5523 11 15C11 14.4477 11.4477 14 12 14C12.5523 14 13 14.4477 13 15Z" fill="#59606D"/>
</svg>
