<svg width="32" height="32" viewBox="0 0 32 32" fill="none" xmlns="http://www.w3.org/2000/svg">
<path fill-rule="evenodd" clip-rule="evenodd" d="M17 16.5C17 18.9853 14.9853 21 12.5 21C10.0147 21 8 18.9853 8 16.5C8 14.0147 10.0147 12 12.5 12C14.9853 12 17 14.0147 17 16.5ZM18.5 21C18.0962 21 17.7049 20.9468 17.3326 20.8471C18.3691 19.6955 19 18.1714 19 16.5C19 14.8286 18.3691 13.3045 17.3326 12.1529C17.7049 12.0532 18.0962 12 18.5 12C20.9853 12 23 14.0147 23 16.5C23 18.9853 20.9853 21 18.5 21Z" fill="#59606D"/>
</svg>
