<svg width="32" height="32" viewBox="0 0 32 32" fill="none" xmlns="http://www.w3.org/2000/svg">
<g clip-path="url(#clip0_24723_47434)">
<path d="M22.875 16C23.2202 16 23.5 15.7202 23.5 15.375V14.8762C23.5 14.5627 23.3434 14.27 23.0825 14.0961L16.625 9.79108V9.125H17.25C17.5952 9.125 17.875 8.84517 17.875 8.5C17.875 8.15481 17.5952 7.875 17.25 7.875H16C15.6548 7.875 15.375 8.15481 15.375 8.5V9.79108L8.91748 14.0961C8.65663 14.27 8.5 14.5627 8.5 14.8762V15.375C8.5 15.7202 8.77985 16 9.125 16H10.375V20.375H9.125C8.77985 20.375 8.5 20.6548 8.5 21V23.5C8.5 23.8452 8.77985 24.125 9.125 24.125H22.875C23.2202 24.125 23.5 23.8452 23.5 23.5V21C23.5 20.6548 23.2202 20.375 22.875 20.375H21.625V16H22.875ZM22.25 21.625V22.875H9.75V21.625H22.25ZM11.625 20.375V16H12.875V20.375H11.625ZM14.125 20.375V16H15.375V20.375H14.125ZM16.625 20.375V16H17.875V20.375H16.625ZM19.125 20.375V16H20.375V20.375H19.125ZM10.1901 14.75L16 10.8767L21.8099 14.75H10.1901Z" fill="white"/>
</g>
<defs>
<clipPath id="clip0_24723_47434">
<rect width="15" height="16.25" fill="white" transform="translate(8.5 7.875)"/>
</clipPath>
</defs>
</svg>
