<svg width="20" height="20" viewBox="0 0 20 20" fill="none" xmlns="http://www.w3.org/2000/svg">
<g clip-path="url(#clip0_24748_3826)">
<path d="M10 2.5C5.85785 2.5 2.5 5.85787 2.5 10C2.5 14.1421 5.85785 17.5 10 17.5C14.1422 17.5 17.5 14.1421 17.5 10C17.5 5.85787 14.1422 2.5 10 2.5ZM10 5.9375C10.5178 5.9375 10.9375 6.35723 10.9375 6.875C10.9375 7.39277 10.5178 7.8125 10 7.8125C9.48223 7.8125 9.0625 7.39277 9.0625 6.875C9.0625 6.35723 9.48223 5.9375 10 5.9375ZM11.25 14.375H8.75C8.40485 14.375 8.125 14.0952 8.125 13.75C8.125 13.4048 8.40485 13.125 8.75 13.125H9.375V10H8.75C8.40485 10 8.125 9.72017 8.125 9.375C8.125 9.02981 8.40485 8.75 8.75 8.75H10C10.3452 8.75 10.625 9.02981 10.625 9.375V13.125H11.25C11.5952 13.125 11.875 13.4048 11.875 13.75C11.875 14.0952 11.5952 14.375 11.25 14.375Z" fill="#1E3145"/>
</g>
<defs>
<clipPath id="clip0_24748_3826">
<rect width="15" height="15" fill="white" transform="translate(2.5 2.5)"/>
</clipPath>
</defs>
</svg>
