<svg width="32" height="32" viewBox="0 0 32 32" fill="none" xmlns="http://www.w3.org/2000/svg">
<g clip-path="url(#clip0_4764_86902)">
<circle cx="16" cy="16" r="15" fill="white"/>
<path fill-rule="evenodd" clip-rule="evenodd" d="M24.9594 13.3328C26.3994 13.3328 27.5736 14.5071 27.5203 15.8938C27.5201 17.3335 26.3992 18.4531 24.9594 18.4531C23.5731 18.4528 22.4002 17.3333 22.4 15.8938C22.4 14.5073 23.573 13.3332 24.9594 13.3328ZM24.9062 14.9328C24.3731 14.933 24 15.3608 24 15.8406C24.0004 16.3202 24.4266 16.6935 24.9062 16.6938C25.386 16.6938 25.7591 16.3203 25.7594 15.8406C25.7594 15.3606 25.3862 14.9328 24.9062 14.9328Z" fill="#1E3145"/>
<path d="M14.2391 13.3328C15.4657 13.3328 16.4802 14.1863 16.7469 15.3063H11.7328C11.9995 14.1865 13.0127 13.333 14.2391 13.3328Z" fill="#1E3145"/>
<path fill-rule="evenodd" clip-rule="evenodd" d="M16 0C24.8533 0 32 7.14667 32 16C32 24.8533 24.8533 32 16 32C7.14667 32 0 24.8533 0 16C0 7.14667 7.14667 0 16 0ZM24.9062 12.2672C22.9329 12.2672 21.3328 13.8673 21.3328 15.8406C21.3331 17.8137 22.9331 19.4672 24.9062 19.4672C26.8794 19.4671 28.5325 17.8137 28.5328 15.8406C28.5328 13.8673 26.8795 12.2672 24.9062 12.2672ZM16.1609 12.8C14.9878 12.0534 13.3342 12.1066 12.1609 12.9062C11.2009 13.5996 10.6672 14.7204 10.6672 15.8938C10.6672 16.1212 10.7055 16.3488 10.75 16.6094L10.7734 16.7469C11.1468 18.1869 12.3741 19.2541 13.8141 19.4141C14.2406 19.4674 14.6672 19.4662 15.0938 19.3062C15.4671 19.2529 15.8409 19.093 16.1609 18.8797C16.4583 18.7096 16.6883 18.4718 16.9312 18.2203C16.993 18.1564 17.0555 18.0914 17.1203 18.0266V17.9734C17.2803 17.7601 17.2805 17.3866 17.0672 17.2266C16.8539 17.1199 16.5869 17.0132 16.3203 17.3328C16.267 17.4394 16.2142 17.4936 16.1609 17.5469C15.9477 17.7601 15.7337 17.9728 15.4672 18.1328C15.0939 18.3461 14.6673 18.4531 14.2406 18.4531C12.8008 18.4531 12.0542 17.4402 11.7875 16.7469C11.763 16.6735 11.7498 16.5995 11.7375 16.5312C11.723 16.4511 11.7099 16.3779 11.6813 16.3203V16.2141H16.8C17.4933 16.2141 17.8675 15.7335 17.7609 15.1469C17.5476 14.187 17.0141 13.3333 16.1609 12.8ZM9.86719 12.2672C9.70732 12.2672 9.60033 12.3201 9.49375 12.4266L6.77344 15.1469L4.05312 12.4266C3.94651 12.32 3.83961 12.2672 3.67969 12.2672C3.41317 12.2674 3.2 12.4803 3.2 12.7469C3.20005 12.9067 3.25286 13.0137 3.35938 13.1203L6.07969 15.8406L3.35938 18.5594C3.25282 18.6659 3.20012 18.7731 3.2 18.9328C3.2 19.1994 3.41317 19.4139 3.67969 19.4141C3.83969 19.4141 3.94646 19.3598 4.05312 19.2531L6.77344 16.5328L9.49375 19.2531C9.60038 19.3597 9.70724 19.4141 9.86719 19.4141C10.1336 19.4138 10.3469 19.1993 10.3469 18.9328C10.3468 18.7731 10.2925 18.6659 10.1859 18.5594L7.46719 15.8406L10.1859 13.1203C10.2926 13.0137 10.3468 12.9068 10.3469 12.7469C10.3469 12.4804 10.1336 12.2675 9.86719 12.2672ZM20.8531 12.2672C20.4267 12.2674 19.9997 12.4272 19.6266 12.6938C19.5732 12.4804 19.3602 12.3203 19.1469 12.3203C18.8804 12.3205 18.6673 12.5335 18.6672 12.8V18.8266C18.6672 19.0931 18.8804 19.3061 19.1469 19.3062C19.4135 19.3062 19.6266 19.0932 19.6266 18.8266V15.0938C19.6266 13.8673 19.7871 13.3866 20.8 13.2266H21.0141C21.3339 13.2265 21.4937 13.0134 21.4937 12.7469C21.4937 12.4803 21.2806 12.2673 21.0141 12.2672H20.8531Z" fill="#1E3145"/>
</g>
<defs>
<clipPath id="clip0_4764_86902">
<rect width="32" height="32" fill="white"/>
</clipPath>
</defs>
</svg>
