<svg width="120" height="120" viewBox="0 0 120 120" fill="none" xmlns="http://www.w3.org/2000/svg">
<g clip-path="url(#clip0_177_4053)">
<path d="M60.0097 120.019C93.1522 120.019 120.019 93.1522 120.019 60.0097C120.019 26.8673 93.1522 0 60.0097 0C26.8673 0 0 26.8673 0 60.0097C0 93.1522 26.8673 120.019 60.0097 120.019Z" fill="#F1F4F6"/>
<path d="M96.4127 34.5137H24.1907C21.5028 34.5137 19.3408 36.6951 19.3408 39.3635V88.836H101.282V39.3635C101.282 36.6951 99.1006 34.5137 96.4127 34.5137Z" fill="#CDD7E0"/>
<path d="M22.165 86.0313V39.3635C22.165 38.2533 23.0805 37.3379 24.1907 37.3379H96.4127C97.5229 37.3379 98.4384 38.2533 98.4384 39.3635V86.0118H22.165V86.0313Z" fill="#9DDAF3"/>
<mask id="mask0_177_4053" style="mask-type:luminance" maskUnits="userSpaceOnUse" x="22" y="37" width="77" height="50">
<path d="M22.165 86.0313V39.3635C22.165 38.2533 23.0805 37.3379 24.1907 37.3379H96.4127C97.5229 37.3379 98.4384 38.2533 98.4384 39.3635V86.0118H22.165V86.0313Z" fill="white"/>
</mask>
<g mask="url(#mask0_177_4053)">
<path d="M60.3023 97.9904C79.0949 97.9904 94.3293 82.756 94.3293 63.9635C94.3293 45.1709 79.0949 29.9365 60.3023 29.9365C41.5098 29.9365 26.2754 45.1709 26.2754 63.9635C26.2754 82.756 41.5098 97.9904 60.3023 97.9904Z" fill="white"/>
</g>
<path d="M60.3021 83.5974C71.1452 83.5974 79.9353 74.8073 79.9353 63.9642C79.9353 53.1211 71.1452 44.3311 60.3021 44.3311C49.459 44.3311 40.6689 53.1211 40.6689 63.9642C40.6689 74.8073 49.459 83.5974 60.3021 83.5974Z" fill="white"/>
<path d="M101.438 89.2061H19.127" stroke="white" stroke-width="0.56572" stroke-miterlimit="10"/>
<path d="M16.2445 93.8617H104.789C107.009 93.8617 108.801 92.0698 108.801 89.8494V89.4209H11.8037C11.8037 91.875 13.7904 93.8617 16.2445 93.8617Z" fill="#CED8E1"/>
<path d="M53.3681 91.1933H67.2554C68.2293 91.1933 69.0279 90.3948 69.0279 89.4209H51.5762C51.5762 90.3948 52.3747 91.1933 53.3681 91.1933Z" fill="#9AA9B8"/>
<path d="M54.9266 25.7296L51.3428 22.1458M65.6781 25.7296L69.2814 22.1458M60.3803 24.1519V19.0684" stroke="#FDCC08" stroke-width="1.94774" stroke-miterlimit="10" stroke-linecap="round"/>
<mask id="mask1_177_4053" style="mask-type:luminance" maskUnits="userSpaceOnUse" x="0" y="0" width="121" height="121">
<path d="M60.0097 120.019C93.1522 120.019 120.019 93.1522 120.019 60.0097C120.019 26.8673 93.1522 0 60.0097 0C26.8673 0 0 26.8673 0 60.0097C0 93.1522 26.8673 120.019 60.0097 120.019Z" fill="white"/>
</mask>
<g mask="url(#mask1_177_4053)">
<path d="M57.3613 60.1655C62.1528 58.7826 66.8858 57.2829 71.6188 55.7247C73.9755 54.9456 76.3323 54.147 78.689 53.3484C81.0458 52.5499 83.4026 51.7708 85.7593 50.9527L99.8804 46.1028L106.951 43.6682L110.476 42.4606L112.249 41.8568C112.833 41.662 113.417 41.4478 114.021 41.2725L119.689 59.3085C119.105 59.5033 118.501 59.6786 117.897 59.8344L116.105 60.3408L112.521 61.3731L105.334 63.4182L90.9793 67.5085C88.5835 68.1902 86.2073 68.8914 83.8116 69.5925C81.4159 70.2937 79.0396 70.9754 76.6439 71.6961C71.872 73.1179 67.1195 74.5788 62.406 76.1954L57.3613 60.1655Z" fill="#EB6C00"/>
<path d="M75.8454 54.459L65.1328 63.029L71.1513 65.9701L74.0534 62.7369C76.0596 60.497 76.7413 57.3416 75.8454 54.459Z" fill="#EB6C00"/>
<path d="M46.3369 73.7411L44.2724 72.0465C43.5712 71.4622 43.2206 70.5468 43.3764 69.6508L46.5902 69.4561L46.3369 73.7411ZM52.0828 75.085L50.0182 73.3905C49.317 72.8062 48.9664 71.8907 49.1222 70.9948L52.336 70.8L52.0828 75.085Z" fill="#6D2C00"/>
<path d="M71.6382 68.1123L58.3936 64.022L61.6073 53.6211C62.1527 51.8292 64.0615 50.8164 65.8534 51.3812L75.8453 54.4586L71.6382 68.1123Z" fill="#EB6C00"/>
<path d="M68.9894 66.6521L55.9785 62.6398L58.4716 54.5762L65.4835 56.7382C68.7946 57.7705 70.6644 61.2764 69.6321 64.5875L68.9894 66.6521Z" fill="#6D2C00"/>
<path d="M71.9497 61.4321L65.8922 58.1793C64.6262 57.4976 63.0486 57.9651 62.3668 59.2311C61.6851 60.4972 62.1526 62.0748 63.4186 62.7565L69.4761 66.0092C70.7421 66.6909 72.3198 66.2235 73.0015 64.9575C73.6832 63.672 73.2157 62.0943 71.9497 61.4321Z" fill="#BA5602"/>
<path d="M70.8589 66.4955L64.8014 63.2428C63.5354 62.5611 61.9577 63.0286 61.276 64.2946C60.5943 65.5606 61.0618 67.1383 62.3278 67.82L68.3853 71.0727C69.6513 71.7544 71.229 71.287 71.9107 70.0209C72.5924 68.7549 72.1054 67.1772 70.8589 66.4955Z" fill="#BA5602"/>
<path d="M67.937 70.7416L61.8796 67.4889C60.6135 66.8072 59.0359 67.2747 58.3542 68.5407C57.6724 69.8067 58.1399 71.3844 59.4059 72.0661L65.4634 75.3188C66.7294 76.0005 68.3071 75.5331 68.9888 74.267C69.6705 73.001 69.203 71.4233 67.937 70.7416Z" fill="#BA5602"/>
<path d="M65.4048 72.9428L59.3473 69.6901C58.0813 69.0084 56.5036 69.4758 55.8219 70.7419C55.1402 72.0079 55.6077 73.5856 56.8737 74.2673L62.9312 77.52C64.1972 78.2017 65.7749 77.7342 66.4566 76.4682C67.1383 75.2022 66.6708 73.6245 65.4048 72.9428Z" fill="#BA5602"/>
<path d="M54.79 75.2408L37.4941 67.3136L40.6884 53.4457L47.4276 50.8747C49.7649 49.9787 52.3748 50.193 54.5368 51.4395L70.3524 60.6328L69.5344 66.7098L54.79 75.2408Z" fill="#BA5602"/>
<path d="M56.0946 57.6534L70.5858 56.4263L69.3976 54.4396C68.19 52.414 66.106 51.0505 63.7687 50.7584C62.678 50.622 61.5677 50.7194 60.4965 51.0311L51.2642 53.8748C50.4851 54.0501 51.4395 58.0624 56.0946 57.6534Z" fill="#EB6C00"/>
<path d="M54.9457 52.9395C54.8483 53.5822 54.3614 54.1471 53.6797 54.3223C52.998 54.4976 52.2968 54.225 51.9072 53.6991" stroke="#BA5602" stroke-width="0.286317" stroke-miterlimit="10"/>
<path d="M54.6539 65.795L51.5375 72.0472C50.8948 73.3522 51.4207 74.9299 52.7256 75.5726C54.0306 76.2154 55.6083 75.6895 56.251 74.3845L59.3674 68.1323C60.0102 66.8273 59.4843 65.2496 58.1793 64.6069C56.8938 63.9641 55.3161 64.49 54.6539 65.795Z" fill="#EB6C00"/>
<path d="M58.5106 67.781C59.0365 66.6319 58.8028 65.8528 58.0432 65.4243C57.2641 64.9958 56.3097 65.0931 55.6475 66.2034L58.5106 67.781Z" stroke="#BA5602" stroke-width="0.286317" stroke-miterlimit="10"/>
<path d="M50.0761 65.931L45.9859 69.768C44.9731 70.8198 45.012 72.4949 46.0638 73.4882C47.1156 74.501 48.7906 74.4621 49.784 73.4103L53.8742 69.5733C54.887 68.5215 54.8481 66.8464 53.7963 65.8531C52.7445 64.8403 51.0695 64.8792 50.0761 65.931Z" fill="#EB6C00"/>
<path d="M53.1539 68.9698C53.9914 68.0349 54.0109 67.2169 53.4071 66.5741C52.8033 65.9314 51.8489 65.7366 50.8945 66.5936L53.1539 68.9698Z" stroke="#BA5602" stroke-width="0.286317" stroke-miterlimit="10"/>
<path d="M59.3668 67.5088L56.2504 73.7611C55.6077 75.0661 56.1336 76.6437 57.4385 77.2865C58.7435 77.9292 60.3212 77.4033 60.9639 76.0984L64.0803 69.8461C64.7231 68.5411 64.1972 66.9635 62.8922 66.3207C61.5872 65.678 60.0095 66.2039 59.3668 67.5088Z" fill="#EB6C00"/>
<path d="M63.204 69.4949C63.7299 68.3457 63.4962 67.5666 62.7365 67.1381C61.9574 66.7096 61.0031 66.807 60.3408 67.9172L63.204 69.4949Z" stroke="#BA5602" stroke-width="0.286317" stroke-miterlimit="10"/>
<path d="M63.2627 70.5277L61.4708 75.1828C60.9449 76.5462 61.6266 78.0654 62.9706 78.5913C64.334 79.1172 65.8532 78.4355 66.3791 77.0915L68.171 72.4364C68.6969 71.073 68.0152 69.5538 66.6713 69.0279C65.3079 68.502 63.7886 69.1643 63.2627 70.5277Z" fill="#EB6C00"/>
<path d="M67.2749 72.1439C67.6839 70.9558 67.3918 70.1961 66.5932 69.8455C65.7946 69.495 64.8402 69.6703 64.2754 70.8389L67.2749 72.1439Z" stroke="#BA5602" stroke-width="0.286317" stroke-miterlimit="10"/>
<path d="M32.488 69.9237L34.5137 70.1574C35.1759 70.2353 35.7797 69.8068 35.916 69.1446L39.6167 51.7708C39.7726 51.0696 39.3051 50.3684 38.6039 50.2515L36.5977 49.8815C35.916 49.7646 35.2538 50.1931 35.1175 50.8748L31.3778 68.3655C31.222 69.1251 31.7284 69.8458 32.488 69.9237Z" fill="#371F38"/>
<path d="M43.8442 70.0797L26.0029 68.054L29.5673 49.8232L45.5777 52.6669L43.8442 70.0797Z" fill="#BA5602"/>
<path d="M33.404 70.0411L35.4297 70.2748C36.0724 70.3527 36.6762 69.9242 36.8126 69.2815L40.4938 51.9661C40.6496 51.2649 40.1822 50.5832 39.481 50.4468L37.4943 50.0768C36.8126 49.9599 36.1698 50.3884 36.014 51.0701L32.2938 68.5024C32.138 69.2425 32.6444 69.9437 33.404 70.0411Z" fill="#371F38"/>
<path d="M37.572 65.7358C37.3967 65.7358 37.2214 65.7163 37.0461 65.6774L34.0466 65.093C33.3259 64.9567 32.7026 64.5282 32.2936 63.9244C31.8846 63.3206 31.7288 62.5805 31.8846 61.8598L32.9364 56.4646C33.1896 55.1791 34.3192 54.2441 35.6437 54.2441C35.819 54.2441 35.9943 54.2636 36.1696 54.3026L39.1691 54.8869C40.6494 55.1791 41.6427 56.6204 41.3506 58.1201L40.2988 63.5154C40.0261 64.8009 38.8964 65.7358 37.572 65.7358Z" fill="#DAE5ED"/>
<path d="M37.2017 64.9185L34.2022 64.3342C33.1309 64.1199 32.4297 63.0876 32.644 62.0164L33.6958 56.6211C33.91 55.5499 34.9423 54.8487 36.0136 55.0629L39.0131 55.6473C40.0843 55.8615 40.7855 56.8938 40.5713 57.9651L39.5195 63.3603C39.3053 64.4316 38.273 65.1327 37.2017 64.9185Z" fill="#371F38"/>
<path d="M36.6758 62.0548C37.8376 62.0548 38.7794 61.113 38.7794 59.9512C38.7794 58.7894 37.8376 57.8477 36.6758 57.8477C35.5141 57.8477 34.5723 58.7894 34.5723 59.9512C34.5723 61.113 35.5141 62.0548 36.6758 62.0548Z" fill="#13B5EA"/>
<path d="M28.612 70.3524L28.1835 70.294L27.8524 70.255L27.268 70.1771L26.1773 70.0018C25.4566 69.885 24.7749 69.7681 24.0737 69.6512C22.7103 69.398 21.3664 69.1254 20.0225 68.8527C18.698 68.5605 17.3735 68.2489 16.0491 67.9372C14.7441 67.6061 13.4196 67.2555 12.1147 66.9049C9.50469 66.1648 6.9142 65.3662 4.36266 64.4118C1.81113 63.4769 -0.720926 62.4251 -3.23351 61.276C-5.74609 60.1268 -8.18075 58.8413 -10.6154 57.4779C-11.823 56.7767 -13.0306 56.0755 -14.2187 55.3159C-15.4069 54.5758 -16.5755 53.7772 -17.7441 52.9981C-18.3285 52.6086 -18.8933 52.1801 -19.4776 51.771C-20.0425 51.362 -20.6268 50.953 -21.1916 50.505L-22.8862 49.2C-23.1783 48.9858 -23.451 48.752 -23.7237 48.5378L-24.5417 47.8561L-25.3598 47.1744L-26.1778 46.4732L-27.775 45.0319C-28.3203 44.5644 -28.8268 44.058 -29.3526 43.5516L-30.1317 42.8114L-30.5213 42.4414L-30.7161 42.2466L-30.8134 42.1492L-30.8524 42.1103L-30.8719 42.0908L-30.8914 42.0713C-31.6315 41 -29.2358 44.4281 -32.5664 39.6951L-5.96034 24.6196C-9.27149 19.8866 -6.87577 23.3146 -7.61591 22.2628L-7.59643 22.2823L-7.57696 22.3213L-7.51852 22.3992L-7.42113 22.555L-7.22636 22.8472L-6.81734 23.4315L-6.40832 24.0158C-6.27197 24.2106 -6.11615 24.4053 -5.97981 24.5806L-5.10333 25.7298C-4.96699 25.9246 -4.81117 26.0999 -4.65535 26.2946L-4.18789 26.8595L-3.72044 27.4243C-3.56462 27.6191 -3.4088 27.7944 -3.25298 27.9697L-2.27911 29.0604C-1.96748 29.4305 -1.61688 29.7616 -1.26629 30.1122C-0.915699 30.4628 -0.584583 30.8134 -0.23399 31.164C0.467194 31.8457 1.16838 32.5274 1.92799 33.1702C2.64865 33.8324 3.42775 34.4557 4.18737 35.0984C4.57692 35.41 4.96646 35.7022 5.35601 36.0138L5.94033 36.4813L6.54413 36.9293L7.77121 37.8058L9.01775 38.6628C12.3873 40.8832 16.0101 42.8699 19.7887 44.4865C20.7431 44.8955 21.6975 45.2851 22.6519 45.6357C23.1388 45.811 23.6258 45.9863 24.1127 46.1421L25.5735 46.6095L26.3136 46.8238L27.0538 47.0186C27.307 47.077 27.5407 47.1549 27.7744 47.2133C28.0082 47.2718 28.2614 47.3302 28.4951 47.3886C28.982 47.486 29.4495 47.6029 29.917 47.6808L30.2481 47.7392L30.5792 47.7976L30.8714 47.8366L30.9882 47.8561L28.612 70.3524Z" fill="#FF6469"/>
<path d="M76.7334 53.4858L82.6559 51.543L88.9455 70.7167L83.023 72.6595L76.7334 53.4858Z" fill="#9DDAF3"/>
<path d="M85.0574 69.7486C85.6813 69.7486 86.1871 69.2429 86.1871 68.6189C86.1871 67.995 85.6813 67.4893 85.0574 67.4893C84.4335 67.4893 83.9277 67.995 83.9277 68.6189C83.9277 69.2429 84.4335 69.7486 85.0574 69.7486Z" fill="white"/>
<path d="M82.2529 51.3622C84.8629 50.6026 87.4534 49.765 90.0439 48.9275L91.9721 48.2848L93.9004 47.642L94.8743 47.3109L95.3612 47.1551L95.8287 46.9993L97.6595 46.3565C98.8866 45.928 100.094 45.4605 101.302 44.9931L103.113 44.2724L104.009 43.9218L104.905 43.5518L106.697 42.8116L108.489 42.052C109.677 41.5456 110.865 41.0197 112.034 40.4743C116.747 38.3124 121.363 35.9751 125.902 33.482C128.161 32.2159 130.401 30.9499 132.621 29.606C133.167 29.2749 133.732 28.9437 134.277 28.6126L135.933 27.5998C136.478 27.2687 137.023 26.9181 137.569 26.5675C138.114 26.2169 138.64 25.8663 139.205 25.5547L151.086 45.1489C150.482 45.5385 149.859 45.8696 149.236 46.2202C148.612 46.5708 147.989 46.9214 147.366 47.2525L145.476 48.2653C144.853 48.5964 144.21 48.9275 143.587 49.2586C141.055 50.5831 138.504 51.8491 135.933 53.0762L133.985 53.9722L133.011 54.4201L132.037 54.8681L130.089 55.7446L128.122 56.6016C126.817 57.1859 125.493 57.7118 124.188 58.2572C123.525 58.5299 122.863 58.7831 122.201 59.0557C121.539 59.309 120.877 59.5816 120.214 59.8348C117.565 60.8477 114.897 61.88 112.229 62.8149L111.216 63.1655L110.203 63.5161L108.177 64.1978L106.152 64.86C105.47 65.0742 104.808 65.308 104.126 65.5222L100.133 66.7883L98.1854 67.4115L96.2377 68.0348C93.6472 68.8723 91.0762 69.7488 88.5246 70.6642L82.2529 51.3622Z" fill="#0980C6"/>
</g>
</g>
<defs>
<clipPath id="clip0_177_4053">
<rect width="120" height="120" fill="white"/>
</clipPath>
</defs>
</svg>
