<svg width="191" height="120" viewBox="0 0 191 120" fill="none" xmlns="http://www.w3.org/2000/svg">
<g clip-path="url(#clip0_175_4610)">
<path fill-rule="evenodd" clip-rule="evenodd" d="M190.508 78.9816C190.508 56.3612 172.168 38.0219 149.548 38.0219C144.488 38.0186 139.472 38.9568 134.756 40.7883C134.662 18.2456 116.365 0 93.8011 0C71.5718 0 53.4924 17.7095 52.8708 39.7882C49.0091 38.6162 44.9953 38.0218 40.9597 38.0245C18.3393 38.0245 0 56.3637 0 78.9842C0 101.605 18.3393 119.944 40.9597 119.944H151.135V119.904C173.018 119.068 190.508 101.072 190.508 78.9816Z" fill="#9DDAF3"/>
<path fill-rule="evenodd" clip-rule="evenodd" d="M107.28 32.006C107.539 32.2488 107.691 32.5843 107.702 32.9388C107.713 33.2934 107.583 33.6379 107.341 33.8967L103.555 37.9344C103.31 38.1829 102.977 38.3258 102.628 38.3327C102.28 38.3395 101.942 38.2098 101.687 37.9711C101.433 37.7324 101.281 37.4036 101.266 37.055C101.25 36.7064 101.371 36.3655 101.604 36.105L105.39 32.0669C105.633 31.8083 105.968 31.6567 106.323 31.6453C106.677 31.634 107.022 31.7635 107.28 32.006ZM83.6115 31.5282C83.8842 31.3014 84.2358 31.1921 84.589 31.2244C84.9422 31.2567 85.2682 31.4279 85.4952 31.7004L89.3892 36.3778C89.6161 36.6504 89.7255 37.002 89.6932 37.3552C89.661 37.7084 89.4897 38.0344 89.2171 38.2613C88.9446 38.4883 88.593 38.5977 88.2398 38.5654C87.8865 38.5332 87.5606 38.3619 87.3336 38.0893L83.4392 33.4119C83.2124 33.1392 83.1031 32.7876 83.1354 32.4344C83.1677 32.0812 83.339 31.7552 83.6115 31.5282ZM95.9059 27.4551C96.2605 27.4563 96.6002 27.5983 96.8502 27.8499C97.1002 28.1015 97.2401 28.442 97.2392 28.7967L97.2146 36.7041C97.2073 37.0548 97.0626 37.3885 96.8116 37.6334C96.5607 37.8784 96.2236 38.015 95.8729 38.0139C95.5222 38.0128 95.186 37.874 94.9366 37.6274C94.6873 37.3808 94.5447 37.0462 94.5397 36.6955L94.5643 28.7885C94.5655 28.4338 94.7075 28.0941 94.9591 27.8441C95.2107 27.5941 95.5512 27.4542 95.9059 27.4551Z" fill="white"/>
<mask id="mask0_175_4610" style="mask-type:alpha" maskUnits="userSpaceOnUse" x="0" y="0" width="191" height="120">
<path fill-rule="evenodd" clip-rule="evenodd" d="M190.508 78.9816C190.508 56.3612 172.168 38.0219 149.548 38.0219C144.488 38.0186 139.472 38.9568 134.756 40.7883C134.662 18.2456 116.365 0 93.8011 0C71.5718 0 53.4924 17.7095 52.8708 39.7882C49.0091 38.6162 44.9953 38.0218 40.9597 38.0245C18.3393 38.0245 0 56.3637 0 78.9842C0 101.605 18.3393 119.944 40.9597 119.944H151.135V119.904C173.018 119.068 190.508 101.072 190.508 78.9816Z" fill="#9DDAF3"/>
</mask>
<g mask="url(#mask0_175_4610)">
<path d="M107.865 59.0391L99.7901 57.2538C97.3025 56.7121 94.9461 58.5889 94.9163 61.1326C94.9055 62.0552 95.2124 62.9534 95.7856 63.6763C96.3587 64.3993 97.1632 64.9031 98.0639 65.103L112.079 68.3736L107.865 59.0391Z" fill="#BA5602"/>
<path d="M104.548 58.366L139.506 69.3171C141.733 70.0142 144.106 68.7758 144.803 66.5481C145.5 64.3203 144.261 61.9475 142.033 61.2508L107.076 50.2997C104.848 49.6026 102.476 50.841 101.779 53.0688C101.079 55.2965 102.32 57.6689 104.548 58.366Z" fill="#EB6C00"/>
<path d="M143.527 61.72L115.77 53.0234C113.229 52.227 110.663 54.1816 110.754 56.8436C110.79 57.8685 111.142 58.8571 111.764 59.673C112.385 60.4888 113.244 61.0915 114.223 61.398L139.503 69.3171C141.731 70.0142 144.104 68.7758 144.8 66.548C146.286 64.9608 145.602 62.3688 143.527 61.72Z" fill="#BA5602"/>
<path d="M29.9641 171.173L-17.5503 159.305L34.6635 67.7941L73.5647 71.587L29.9641 171.173ZM148.75 63.1668L117.476 55.1699C117.476 55.1699 148.493 91.334 149.64 91.1276C150.109 91.0443 160.382 100.95 160.382 100.95L152.846 67.5472C152.19 65.6332 150.822 63.8721 148.75 63.1668Z" fill="#EA6C00"/>
<path d="M119.283 87.1924L119.979 74.0753C120.032 73.0831 119.689 72.1105 119.025 71.3714C118.361 70.6324 117.43 70.1873 116.438 70.1343C114.371 70.0246 112.607 71.6114 112.497 73.6756L111.8 86.7927C111.747 87.7849 112.091 88.7575 112.755 89.4965C113.419 90.2356 114.349 90.6806 115.342 90.7337C115.833 90.7601 116.325 90.6894 116.789 90.5257C117.253 90.362 117.68 90.1084 118.046 89.7796C118.412 89.4507 118.709 89.0529 118.922 88.609C119.134 88.1651 119.256 87.6837 119.283 87.1924Z" fill="#BA5602"/>
<path d="M112.42 86.6482L118.103 74.8071C118.998 72.9415 118.213 70.7029 116.347 69.8077C115.903 69.5947 115.422 69.4711 114.931 69.4441C114.439 69.4171 113.948 69.4871 113.483 69.6502C113.019 69.8132 112.592 70.0662 112.225 70.3945C111.859 70.7228 111.56 71.12 111.347 71.5636L105.664 83.4043C104.769 85.2704 105.554 87.5089 107.42 88.4042C109.286 89.2995 111.524 88.5143 112.42 86.6482Z" fill="#BA5602"/>
<path d="M106.637 74.5629L121.349 76.3374C123.668 76.6163 125.772 74.9652 126.051 72.6464C126.33 70.3271 124.679 68.2228 122.36 67.9439L107.648 66.1694C105.329 65.8905 103.225 67.542 102.946 69.8609C102.667 72.1771 104.321 74.284 106.637 74.5629Z" fill="#EB6C00"/>
<path d="M110.803 83.0613L121.947 74.6277C122.364 74.3118 122.716 73.9168 122.98 73.4652C123.245 73.0136 123.418 72.5142 123.49 71.9957C123.562 71.4771 123.53 70.9495 123.398 70.443C123.266 69.9365 123.035 69.461 122.719 69.0438C122.403 68.6262 122.008 68.275 121.556 68.0102C121.105 67.7454 120.605 67.5722 120.087 67.5005C119.568 67.4287 119.041 67.4599 118.534 67.5922C118.028 67.7245 117.552 67.9554 117.135 68.2715L105.991 76.7052C105.573 77.021 105.222 77.416 104.957 77.8676C104.692 78.3193 104.519 78.8187 104.447 79.3373C104.376 79.8559 104.407 80.3836 104.539 80.8902C104.671 81.3967 104.902 81.8723 105.219 82.2895C106.545 84.0455 109.047 84.3913 110.803 83.0613Z" fill="#EB6C00"/>
<path d="M114.288 78.0563L123.845 95.5569C126.494 100.406 132.467 102.35 137.458 99.9826L155.704 91.337L141.831 65.875L114.288 78.0563Z" fill="#EA6C00"/>
<path d="M142.926 165.965L180.157 157.239L153.615 79.3271L124.346 80.5012L142.926 165.965Z" fill="#EA6C00"/>
<path d="M116.566 64.5879C116.566 64.5879 120.713 80.3321 127.008 86.6696C134.361 94.0712 149.106 91.2646 146.036 86.7741L130.916 67.8719L116.566 64.5879Z" fill="#BA5602"/>
<path d="M78.9766 60.4196L59.6773 67.6606C57.2113 68.5856 54.4577 67.3364 53.5331 64.87C52.6081 62.4035 53.8573 59.6504 56.3238 58.7254L75.6226 51.4848C78.0891 50.5597 80.8422 51.809 81.7672 54.2754C82.6949 56.7419 81.4426 59.4924 78.9766 60.4196Z" fill="#EA6C00"/>
<path d="M81.783 80.1472L65.0952 86.4092C62.8618 87.2483 60.3716 86.117 59.5325 83.8814L59.4548 83.6721C58.6156 81.4391 59.747 78.9485 61.9825 78.1098L78.6707 71.8473C80.9037 71.0082 83.3943 72.1396 84.233 74.3751L84.3107 74.5845C85.1473 76.8174 84.0159 79.3081 81.783 80.1472Z" fill="#6D2C00"/>
<path d="M83.6249 91.3023L66.3713 95.0926C63.9985 95.6154 61.6503 94.1141 61.1301 91.7391L61.0472 91.361C60.5245 88.9886 62.0258 86.64 64.4008 86.1203L81.6544 82.3295C84.0268 81.8067 86.3754 83.308 86.8952 85.683L86.9785 86.0611C87.5012 88.4335 85.9999 90.7791 83.6249 91.3023Z" fill="#6D2C00"/>
<path d="M62.1112 56.9053L42.8258 64.2322L39.7882 77.9204C39.4901 78.7957 39.5216 79.7497 39.8767 80.6035L42.941 105.449L76.1776 93.024L67.8216 79.3168L62.1112 56.9053Z" fill="#EA6C00"/>
<path d="M62.1112 56.9053L42.8258 64.2322L39.7882 77.9204C39.4901 78.7957 39.5216 79.7497 39.8767 80.6035L41.4855 93.6378C42.2279 99.6615 48.4045 103.407 54.0876 101.281L76.1776 93.024L67.8216 79.3168L62.1112 56.9053Z" fill="#BA5602"/>
<path d="M79.3029 71.0435L62.9531 77.1799C60.626 78.0536 58.0309 76.8743 57.1568 74.5473L56.9427 73.9736C56.0686 71.6465 57.2483 69.0514 59.575 68.1778L75.9252 62.0414C78.2522 61.1673 80.8473 62.347 81.721 64.674L81.9355 65.2477C82.8096 67.5773 81.6299 70.172 79.3029 71.0435Z" fill="#6D2C00"/>
<path d="M84.4802 91.0427C82.4536 91.4929 80.4481 90.2144 79.9979 88.1878L79.6656 86.6917C79.2149 84.665 80.4939 82.66 82.5205 82.2093C84.5471 81.7591 86.5522 83.0381 87.0028 85.0647L87.3352 86.5604C87.5501 87.5333 87.3702 88.5518 86.8349 89.3921C86.2996 90.2325 85.4528 90.8262 84.4802 91.0427Z" fill="#EA6C00"/>
<path fill-rule="evenodd" clip-rule="evenodd" d="M84.2009 84.4616L85.0227 88.2835C85.6879 87.9602 86.0907 87.0766 85.88 86.1002C85.6698 85.1234 84.939 84.4836 84.2009 84.4616ZM83.8763 84.0144C85.0124 83.8271 86.0699 84.75 86.3397 86.0009C86.6095 87.2527 86.0242 88.5278 84.9105 88.8244L84.6722 88.8878L83.6328 84.0546L83.8763 84.0144Z" fill="#FDCC08"/>
<path d="M63.6796 86.3254L55.3323 83.7627L52.2969 93.6502L60.6442 96.2129L63.6796 86.3254Z" fill="#DAE5ED"/>
<path d="M51.7615 62.8877L78.3282 71.0455L73.8752 85.5461C72.4331 90.2425 67.4548 92.8834 62.758 91.4408L53.2037 88.5081C48.5069 87.066 45.8664 82.0877 47.3086 77.3909L51.7615 62.8877Z" fill="#DAE5ED"/>
<path d="M61.9373 55.5973L73.9952 59.2996C78.0031 60.5299 80.2525 64.7735 79.0218 68.7814L76.4133 77.2794C75.1831 81.2873 70.9391 83.5366 66.9316 82.306L54.8733 78.6037C50.8654 77.3735 48.6165 73.1299 49.8467 69.122L52.4552 60.6235C53.6858 56.616 57.932 54.3667 61.9373 55.5973Z" fill="#F1F4F6"/>
<path fill-rule="evenodd" clip-rule="evenodd" d="M56.0601 71.4006L58.7864 62.5215L63.2221 63.8838L60.4957 72.7625L56.0601 71.4006ZM65.5552 74.3147L68.2789 65.4386L72.715 66.8L69.9913 75.6762L65.5552 74.3147Z" fill="#CDD7E0"/>
<path d="M66.7011 76.4875L58.3538 73.9248L55.3184 83.8123L63.6653 86.375L66.7011 76.4875Z" fill="#F1F4F6"/>
<path d="M35.1854 79.7911C34.743 79.4104 34.3566 78.7668 34.0221 77.9786C32.1159 73.5045 33.2339 68.3117 36.6867 64.8913C42.0401 59.5858 50.4738 51.2674 52.4309 49.5434C55.3558 46.9724 57.8192 46.549 60.031 48.4496C62.2428 50.348 62.4276 53.9186 60.4437 56.4226L42.7856 78.6973C40.7991 81.2009 37.3972 81.6917 35.1854 79.7911Z" fill="#EA6C00"/>
<path fill-rule="evenodd" clip-rule="evenodd" d="M57.1246 49.3132C57.7712 49.4591 58.4485 49.8717 59.0385 50.5408C59.5634 51.1361 59.9036 51.8435 60.0206 52.5143C60.1367 53.1808 60.0361 53.8434 59.6321 54.3061L59.6278 54.3113L56.5354 57.4831L52.0073 52.6715L55.4049 49.7043C55.8516 49.2881 56.478 49.1673 57.1246 49.3132ZM57.021 49.7716C56.4896 49.6516 56.0321 49.7608 55.723 50.05L55.72 50.053L52.6837 52.7047L56.541 56.8037L59.282 53.9923C59.5583 53.6725 59.6584 53.1748 59.5574 52.5951C59.4568 52.0162 59.1585 51.3873 58.6863 50.8516M57.021 49.7716C57.5532 49.8916 58.148 50.2417 58.6863 50.8516L57.021 49.7716Z" fill="#FDCC08"/>
<path d="M45.1291 61.8672C45.1291 61.8672 57.4714 75.3383 50.7186 90.643C43.9684 105.948 32.3901 103.404 32.3901 103.404C32.3901 103.404 32.776 70.3281 33.9126 69.4082C35.0522 68.4914 45.1291 61.8672 45.1291 61.8672Z" fill="#EA6C00"/>
<path d="M96.0046 79.0988L99.2857 61.5503C99.7924 58.8482 102.396 57.0711 105.098 57.583L109.883 58.4916C114.003 59.2613 116.716 63.226 115.947 67.3462L113.628 79.745C112.859 83.8656 108.894 86.5785 104.773 85.8089L99.9612 84.8947C97.2724 84.3827 95.5005 81.7906 96.0046 79.0988Z" fill="#CDD7E0"/>
<path d="M100.723 84.9974L105.833 57.6797L112.733 59.0096C116.854 59.7788 119.567 63.744 118.797 67.8641L116.478 80.263C115.709 84.3831 111.744 87.0961 107.624 86.3269L100.723 84.9974Z" fill="#DAE5ED"/>
<path d="M113.035 68.7451L111.43 77.3277L121.597 79.2287L123.201 70.6457L113.035 68.7451Z" fill="#DAE5ED"/>
<path fill-rule="evenodd" clip-rule="evenodd" d="M88.845 71.325L100.223 73.4025L99.6105 76.7543L88.2329 74.6768L88.845 71.325ZM90.3493 63.0977L101.726 65.1752L101.114 68.527L89.7372 66.4495L90.3493 63.0977Z" fill="#DAE5ED"/>
<path d="M99.9161 75.078L96.8682 74.5203M101.42 66.8507L98.4066 66.3008" stroke="#99A8B7" stroke-width="24.6885" stroke-miterlimit="10"/>
<path d="M119.843 66.569L149.353 81.812L139.748 61.1327L115.191 54.5724C113.607 54.0393 111.007 62.3176 119.843 66.569Z" fill="#EA6C00"/>
<path fill-rule="evenodd" clip-rule="evenodd" d="M116.79 54.9521C116.912 56.2156 117.813 57.3612 119.154 57.7626C120.498 58.1645 121.879 57.7035 122.676 56.7168L123.041 57.0124C122.123 58.1486 120.544 58.6691 119.019 58.2129C117.497 57.7566 116.463 56.4522 116.322 54.997L116.79 54.9521Z" fill="#FDCC08"/>
<path fill-rule="evenodd" clip-rule="evenodd" d="M136.492 91.1457C135.047 87.4606 132.752 84.1684 129.796 81.5363C126.839 78.9042 123.303 77.0065 119.476 75.9972L120.489 72.1533C124.921 73.322 129.015 75.5195 132.439 78.5673C135.863 81.6151 138.519 85.4273 140.193 89.6945L147.426 108.141C154.983 127.412 167.576 144.299 183.89 157.04L204.407 173.06L201.96 176.193L181.444 160.173C164.568 146.995 151.542 129.526 143.725 109.592L136.493 91.1461L136.492 91.1457ZM47.5114 115.765L55.6023 90.4503L59.3888 91.6607L51.2983 116.975C46.0934 133.259 32.2342 145.277 15.3786 148.122C8.13565 149.344 1.34397 152.457 -4.30922 157.147V157.147L-24.2758 173.706L-26.814 170.647L-6.84735 154.087V154.087C-0.655458 148.95 6.78356 145.54 14.7168 144.202C30.1057 141.605 42.7597 130.632 47.5114 115.765Z" fill="#DAE5ED"/>
<path d="M80.3171 70.5614C78.2422 71.344 75.9285 70.296 75.1459 68.221L74.5697 66.6904C73.7866 64.6154 74.8347 62.3017 76.9097 61.5191C78.9846 60.7365 81.2983 61.7846 82.0809 63.8596L82.6576 65.3902C83.032 66.3864 82.9959 67.4904 82.5571 68.46C82.1183 69.4295 81.3127 70.1853 80.3171 70.5614Z" fill="#EA6C00"/>
<path fill-rule="evenodd" clip-rule="evenodd" d="M79.0032 63.6339L80.4652 67.587C81.1386 67.1441 81.4386 66.1301 81.0639 65.1179C80.6892 64.1057 79.8017 63.5324 79.0032 63.6339ZM78.619 63.2385C79.7814 62.8737 81.0328 63.6796 81.5046 64.9547C81.9764 66.2298 81.5525 67.6578 80.4302 68.1369L80.2032 68.234L78.3833 63.3123L78.619 63.2385Z" fill="#FDCC08"/>
<path d="M82.58 80.0163C82.087 80.2028 81.5621 80.2902 81.0353 80.2736C80.5085 80.257 79.9901 80.1367 79.5098 79.9196C79.0295 79.7025 78.5968 79.3929 78.2362 79.0084C77.8757 78.6239 77.5945 78.1722 77.4088 77.6789L76.8321 76.1478C76.6458 75.6548 76.5586 75.1299 76.5753 74.6031C76.592 74.0763 76.7123 73.558 76.9294 73.0778C77.1465 72.5975 77.4562 72.1648 77.8406 71.8042C78.225 71.4437 78.6767 71.1625 79.1699 70.9766C79.663 70.7904 80.1879 70.7031 80.7146 70.7198C81.2414 70.7365 81.7597 70.8568 82.24 71.0739C82.7202 71.2911 83.153 71.6007 83.5135 71.9851C83.874 72.3696 84.1553 72.8213 84.3411 73.3145L84.9174 74.8451C85.7004 76.9175 84.6519 79.2337 82.58 80.0163Z" fill="#EA6C00"/>
<path fill-rule="evenodd" clip-rule="evenodd" d="M81.2638 73.089L82.728 77.0421C83.3992 76.5992 83.6988 75.5853 83.3246 74.573C82.9503 73.5595 82.0624 72.9876 81.2638 73.089ZM83.7653 74.4103C83.293 73.1317 82.0417 72.3293 80.8797 72.6936L80.6436 72.7679L82.4664 77.6896L82.6935 77.592C83.8132 77.1129 84.2366 75.685 83.7653 74.4103Z" fill="#FDCC08"/>
</g>
</g>
<defs>
<clipPath id="clip0_175_4610">
<rect width="190.791" height="120" fill="white"/>
</clipPath>
</defs>
</svg>
