<?xml version="1.0" encoding="UTF-8"?>
<svg id="svg33322" xmlns="http://www.w3.org/2000/svg" xmlns:svg="http://www.w3.org/2000/svg" version="1.1" viewBox="0 0 496.06 119.65">
  <!-- Generator: Adobe Illustrator 30.2.1, SVG Export Plug-In . SVG Version: 2.1.1 Build 1)  -->
  <defs>
    <style>
      .st0 {
        fill: #dbb315;
      }
    </style>
  </defs>
  <g id="layer1">
    <path id="path30288" class="st0" d="M474.12,59.09v-.49c9.77-2.92,16.85-7.45,16.85-26.88,0-23.94-13.53-30.72-41.41-30.72h-100.55v117.65h111.27c19.99,0,34.78-6.61,34.78-32.36,0-18.52-5.66-25.27-20.93-27.2M451.71,35.3c0,6.63-3.76,9.35-10.21,9.35h-53.22v-18.65h53.22c6.45,0,10.21,2.5,10.21,9.3M454.88,82.33c0,6.8-5.04,9.94-12.6,9.94h-53.98v-20.41h53.98c7.56,0,12.6,2.54,12.6,10.47M325.13,89.3v-16.07c0-16.2-15.46-29.33-34.54-29.33h-59.35c-6.45,0-10.23-2.4-10.23-9.04s3.77-8.86,10.23-8.86h39.15c5.6,0,9.19,1.54,10.03,6.38.04.15.06.29.06.44.04.28.09.57.11.86h39.91v-3.72s0-.69,0-.69c0-15.61-14.88-28.27-33.27-28.27h-73.87c-18.39,0-33.29,12.66-33.29,28.27v11.66c0,15.62,10.72,31.68,40.32,31.68h52.74c7.56,0,12.59,1.85,12.59,9.8,0,6.8-5.03,9.85-12.59,9.85h-41.77c-7.48,0-12.51-2.99-12.59-9.66h-39.38v3.15c0,16.2,11.11,32.89,41.83,32.89h69.36c19.07,0,34.54-13.14,34.54-29.34M132.47,118.65h39.03L108.61,1h-45.66L1,118.65h39.2l10.26-20.81h71.1l10.91,20.81ZM129.99,41.02l-66.47,37.53v-37.53h66.47ZM1,69.4L37.49,1H1v68.4Z"/>
  </g>
</svg>