<?xml version="1.0" encoding="UTF-8"?>
<svg id="Layer_1" xmlns="http://www.w3.org/2000/svg" version="1.1" viewBox="0 0 300 147">
  <!-- Generator: Adobe Illustrator 30.2.1, SVG Export Plug-In . SVG Version: 2.1.1 Build 1)  -->
  <defs>
    <style>
      .st0 {
        fill: #fff;
      }

      .st1 {
        fill: #e3a417;
      }
    </style>
  </defs>
  <path class="st0" d="M33.26,85.64c3.64-4.13,10.87-6.9,17.04-6.66,13.59.52,22.1,8.05,22.1,22.81,0,28.26-16.76,44.16-41.71,44.16-9.76,0-20.98-2.11-29.69-5.44L15.51,58.66c1.14-6.68,3.77-9.31,11.96-9.31,5.04,0,9.6,0,12.17,0l-6.38,36.28ZM25.89,127.88c2.24.64,2.78.65,5.68.65,10.33,0,17.51-9.84,17.51-23.59,0-6.31-2.94-8.69-7.97-8.69-4.41,0-9.9,3.92-10.66,5.55l-4.56,26.08ZM144.53,142.71c.73,1.6,2.64,3.3,6.97,3.26,4.95,0,10.53-.78,16.61-.78,9.52,0,12.87.62,25.26.81,4.88.08,7.47-1.66,8.58-6.82.66-3.02,1.33-6.56,2.05-11.57-5.02.48-9.9.17-14-.09-5.78-.37-11.9-.71-16.74-.33,2.2-3.4,5.81-7.9,11.86-13.59,2.86-2.69,8.01-7.01,13.47-12.98,5.46-5.96,11.8-12.88,9.87-21.71-6.06.4-10.35.6-18.37.6-9.87,0-22.2-.58-28.78-.58-5.61,0-8.27,1.85-9.31,6.37-.89,3.86-2.44,12.23-2.44,12.23.97-.28,5.37-.54,9.11-.52,3.74.01,13.77.27,15.9.56-.91,2.82-9.81,9.42-15.37,15.59-3.48,3.86-9.29,10.47-12.24,15.43-7.7,4.09-12.07,2.86-11.37-3.09l3.17-17.82c.33-3.42,1.25-7.11,1.07-10.41-.64-11.58-8.05-18.69-20.81-18.69-6.96,0-12.02,3.55-15.82,6.82,0,0-.97-5.38-8.16-5.74.05,0-12.39-.03-12.39-.03l-10.03,56.88c-1.39,7.44,1.23,8.5,7.84,8.5.05,0,12.63.03,12.63.03l7.64-42.68c.94-2.05,5.4-6.44,10.98-6.44,3.6,0,6.73,1.76,5.97,6.42-.23,1.45-3.89,22.98-3.89,22.98-1.01,7.39,1.52,13.29,4.01,15.53,3.29,3.42,7.94,4.95,12.6,5.14,5.42.22,11.24-1.02,14.13-3.28"/>
  <path class="st1" d="M258.36.98q1.6,10.31,1.6,10.31c.16.99,1,1.68,2.01,1.68h10.85q-9.84,6.38-9.84,6.38c-.95.61-1.5,1.74-1.35,2.7.01.02,1.61,10.33,1.61,10.33h-.02c-7.69-6.38-7.67-6.38-7.69-6.38-.73-.61-1.92-.6-2.83-.01-.02.01-9.86,6.38-9.86,6.38q5.08-10.31,5.08-10.31c.49-.99.31-2.12-.4-2.72,0-.01-7.7-6.39-7.7-6.39h10.84c1.04,0,2.12-.7,2.59-1.66.02,0,5.11-10.31,5.11-10.31M224.63,22.36s-5.09,10.31-5.1,10.33c-.47.96-1.55,1.66-2.59,1.66h-10.85s7.69,6.37,7.7,6.39c.72.6.9,1.72.4,2.71,0,.02,0,0-5.08,10.32,0,0,9.84-6.38,9.86-6.39.91-.6,2.11-.6,2.84,0t7.69,6.38h0s-1.61-10.31-1.61-10.33c-.15-.96.4-2.09,1.35-2.7t9.84-6.38h-10.85c-1.01,0-1.85-.69-2.01-1.68t-1.6-10.32M284.53,22.36s-5.09,10.31-5.1,10.33c-.47.96-1.55,1.66-2.59,1.66h-10.84s7.68,6.37,7.7,6.39c.72.6.9,1.72.4,2.71,0,.02,0,0-5.09,10.32,0,0,9.84-6.38,9.86-6.39.91-.6,2.11-.6,2.84,0t7.68,6.38h.02s-1.6-10.31-1.61-10.33c-.15-.96.4-2.09,1.35-2.7t9.84-6.38h-10.85c-1.01,0-1.85-.69-2.01-1.68t-1.6-10.32M245.98,66.76s-5.09,10.31-5.1,10.33c-.47.96-1.55,1.66-2.59,1.66h-10.85s7.69,6.37,7.7,6.38c.72.6.9,1.72.41,2.71,0,.02,0,0-5.09,10.32,0,0,9.84-6.38,9.86-6.39.92-.59,2.11-.6,2.85.01t7.68,6.38h.02s-1.6-10.31-1.61-10.33c-.15-.96.4-2.09,1.35-2.7t9.84-6.38h-10.85c-1.01,0-1.85-.69-2.01-1.68t-1.61-10.31"/>
</svg>