<?xml version="1.0" encoding="UTF-8"?>
<svg id="Layer_1" xmlns="http://www.w3.org/2000/svg" version="1.1" viewBox="0 0 96 96">
  <!-- Generator: Adobe Illustrator 30.2.1, SVG Export Plug-In . SVG Version: 2.1.1 Build 1)  -->
  <defs>
    <style>
      .st0 {
        fill: #221f1f;
      }

      .st0, .st1, .st2 {
        fill-rule: evenodd;
      }

      .st1 {
        fill: #258752;
      }

      .st3 {
        fill: #fff;
      }

      .st2 {
        fill: #19e480;
      }
    </style>
  </defs>
  <path class="st0" d="M89.76,86.06"/>
  <path class="st1" d="M10.08,10.1l-7.07,7.07C1.08,19.1,0,21.72,0,24.44v71.56h85.86v-10.08H10.08V10.1h0Z"/>
  <path class="st2" d="M10.1,10.08l7.07-7.07C19.1,1.08,21.71,0,24.44,0h71.56v85.86h-10.08V10.08H10.1Z"/>
  <path class="st3" d="M31.81,56.75h-5.01l-6.79-8.87v8.87h-3.94v-19.45h3.94v8.5l6.61-8.5h4.72l-7.54,9.19,8.02,10.26ZM33.11,56.75h3.84v-13.72h-3.84v13.72ZM37.32,39.22c0,1.25-1.01,2.21-2.29,2.21s-2.29-.96-2.29-2.21.99-2.24,2.29-2.24,2.29.99,2.29,2.24ZM57.81,43.03h3.76l-4.77,13.72h-3.65l-3.04-8.55-3.04,8.55h-3.65l-4.77-13.72h3.92l2.85,8.53,2.96-8.53h3.62l2.96,8.53,2.85-8.53ZM63.09,56.75h3.84v-13.72h-3.84v13.72ZM67.3,39.22c0,1.25-1.01,2.21-2.29,2.21s-2.29-.96-2.29-2.21.99-2.24,2.29-2.24,2.29.99,2.29,2.24ZM26.45,72.93c0-2.21-1.36-3.84-3.33-3.84s-3.46,1.63-3.46,3.84,1.41,3.86,3.46,3.86,3.33-1.65,3.33-3.86M30.26,72.95c0,4.08-2.96,7.09-6.56,7.09-1.41,0-2.78-.53-3.81-1.49v1.23h-3.84v-19.45h3.84v7.01c1.02-.98,2.39-1.53,3.81-1.52,3.6,0,6.56,3.04,6.56,7.14M42.22,72.93c0-2.21-1.41-3.84-3.46-3.84s-3.33,1.63-3.33,3.84,1.36,3.86,3.33,3.86,3.46-1.65,3.46-3.86ZM41.98,66.05h3.84v13.72h-3.84v-1.23c-1.03.96-2.4,1.5-3.81,1.49-3.6,0-6.56-3.01-6.56-7.09s2.96-7.14,6.56-7.14c1.49,0,2.8.56,3.81,1.52v-1.28h0ZM60.64,71.06v8.71h-3.84v-7.75c0-1.92-.69-2.93-2.24-2.93s-2.4,1.07-2.4,2.93v7.75h-3.84v-13.72h3.81v1.25c.83-.96,2.16-1.52,3.49-1.52,3.17,0,5.01,2.03,5.01,5.28M76.33,79.77h-4.61l-4.82-6.21v6.21h-3.84v-19.45h3.84v11.11l4.66-5.38h4.61l-5.65,6.34,5.81,7.38ZM81.96,77.67c0,1.28-1.01,2.26-2.29,2.26s-2.29-.99-2.29-2.26.99-2.26,2.29-2.26,2.29.99,2.29,2.26"/>
</svg>