<svg width="32" height="32" viewBox="0 0 32 32" fill="none" xmlns="http://www.w3.org/2000/svg">
<g clip-path="url(#clip0_24723_47493)">
<path d="M22.25 10.375H9.75C8.71446 10.375 7.875 11.2145 7.875 12.25V19.75C7.875 20.7855 8.71446 21.625 9.75 21.625H22.25C23.2855 21.625 24.125 20.7855 24.125 19.75V12.25C24.125 11.2145 23.2855 10.375 22.25 10.375ZM22.875 19.75C22.875 20.0952 22.5952 20.375 22.25 20.375H9.75C9.40485 20.375 9.125 20.0952 9.125 19.75V16H22.875V19.75ZM22.875 13.5H9.125V12.25C9.125 11.9048 9.40485 11.625 9.75 11.625H22.25C22.5952 11.625 22.875 11.9048 22.875 12.25V13.5Z" fill="#1E3145"/>
</g>
<defs>
<clipPath id="clip0_24723_47493">
<rect width="16.25" height="11.25" fill="white" transform="translate(7.875 10.375)"/>
</clipPath>
</defs>
</svg>
