<svg width="22" height="22" viewBox="0 0 22 22" fill="none" xmlns="http://www.w3.org/2000/svg">
<g clip-path="url(#clip0_24738_4589)">
<path d="M11 3.5C6.85785 3.5 3.5 6.85787 3.5 11C3.5 15.1421 6.85785 18.5 11 18.5C15.1422 18.5 18.5 15.1421 18.5 11C18.5 6.85787 15.1422 3.5 11 3.5ZM15.192 9.25449L10.5044 13.9419C10.2603 14.186 9.86467 14.186 9.62057 13.9419L7.12053 11.442C6.87646 11.1979 6.87643 10.8022 7.12053 10.5581C7.36463 10.3141 7.76037 10.314 8.00447 10.5581L10.0625 12.6161L14.308 8.37055C14.5521 8.12646 14.9478 8.12646 15.1919 8.37055C15.436 8.61463 15.436 9.01043 15.192 9.25449Z" fill="#0F7B3D"/>
</g>
<defs>
<clipPath id="clip0_24738_4589">
<rect width="15" height="15" fill="white" transform="translate(3.5 3.5)"/>
</clipPath>
</defs>
</svg>
