<svg width="22" height="22" viewBox="0 0 22 22" fill="none" xmlns="http://www.w3.org/2000/svg">
<g clip-path="url(#clip0_24727_47346)">
<path d="M14.75 11C14.75 11.3452 14.4702 11.625 14.125 11.625H11C10.6548 11.625 10.375 11.3452 10.375 11V6.625C10.375 6.27981 10.6548 6 11 6C11.3452 6 11.625 6.27981 11.625 6.625V10.375H14.125C14.4702 10.375 14.75 10.6548 14.75 11ZM18.5 11C18.5 15.1421 15.1422 18.5 11 18.5C6.85785 18.5 3.5 15.1421 3.5 11C3.5 6.85787 6.85785 3.5 11 3.5C15.1422 3.5 18.5 6.85787 18.5 11ZM17.25 11C17.25 7.54821 14.4518 4.75 11 4.75C7.54823 4.75 4.75 7.54821 4.75 11C4.75 14.4518 7.54823 17.25 11 17.25C14.4518 17.25 17.25 14.4518 17.25 11Z" fill="#1E3145"/>
</g>
<defs>
<clipPath id="clip0_24727_47346">
<rect width="15" height="15" fill="white" transform="translate(3.5 3.5)"/>
</clipPath>
</defs>
</svg>
