<svg width="50" height="14" viewBox="0 0 50 14" fill="none" xmlns="http://www.w3.org/2000/svg">
<path d="M35.1565 1.49567e-05C33.9033 1.49567e-05 32.5673 1.00835 31.8841 3.20342V1.31927C31.8841 0.591808 31.313 0 30.611 0C29.909 0 29.3379 0.591808 29.3379 1.31927L29.3379 12.6807C29.3379 13.4082 29.909 14 30.611 14C31.313 14 31.8841 13.4082 31.8841 12.6807V7.34431C31.8841 4.77768 33.2827 3.25532 35.4303 2.75638C36.1167 2.59691 36.543 2.06007 36.543 1.35527C36.543 0.557303 35.9729 1.49567e-05 35.1565 1.49567e-05Z" fill="#1F65D6"/>
<path d="M43.246 0C39.5214 0 36.4912 3.14018 36.4912 6.99998C36.4912 10.8598 39.5214 14 43.246 14C46.9706 14 50.0008 10.8598 50.0008 6.99998C50.0008 3.14014 46.9706 0 43.246 0ZM43.246 11.3625C40.9248 11.3625 39.0363 9.40544 39.0363 6.99999C39.0363 4.59455 40.9248 2.63756 43.246 2.63756C45.5672 2.63756 47.4557 4.59453 47.4557 6.99999C47.4557 9.40546 45.5672 11.3625 43.246 11.3625Z" fill="#1F65D6"/>
<path d="M43.245 5.25635C42.3172 5.25635 41.5625 6.03847 41.5625 6.99988C41.5625 7.9613 42.3172 8.74342 43.245 8.74342C44.1727 8.74342 44.9274 7.9613 44.9274 6.99988C44.9274 6.03847 44.1727 5.25635 43.245 5.25635Z" fill="#1F65D6"/>
<path d="M20.6297 0C16.9035 0 13.8721 3.14018 13.8721 6.99998C13.8721 10.8947 16.8139 14 20.883 14C22.8691 14 24.5087 13.3742 25.8953 12.0869C26.0451 11.9316 26.3004 11.5952 26.3004 11.1145C26.3004 10.3869 25.778 9.83821 25.0852 9.83821C24.7278 9.83821 24.5261 9.94444 24.2984 10.128C23.297 10.9826 22.1968 11.3986 20.9362 11.3986C18.7861 11.3986 17.0294 10.0878 16.5484 8.11204L25.8844 8.11207C26.7451 8.10865 27.3692 7.38939 27.3692 6.39932C27.3692 4.00516 25.1042 0 20.6297 0ZM16.5446 5.8841C16.9967 3.95193 18.6097 2.57335 20.6297 2.57335C22.6205 2.57335 24.248 3.8057 24.7108 5.8841H16.5446Z" fill="#1F65D6"/>
<path d="M13.5095 1.30306C13.5095 0.581967 12.9455 0 12.2521 0C11.9163 0 11.6005 0.135538 11.363 0.381666L6.75474 5.15707L2.14647 0.381666C1.90898 0.135553 1.59321 0 1.25735 0C0.564007 0 0 0.581967 0 1.30306C0 1.65112 0.130762 1.97834 0.368254 2.22443L4.97649 6.99983L0.368254 11.7752C0.130791 12.0213 0 12.3485 0 12.6966C0 13.4174 0.562506 13.9996 1.25738 13.9996C1.59321 13.9996 1.909 13.8641 2.1465 13.618L6.75474 8.84257L11.363 13.618C11.6005 13.8641 11.9163 13.9996 12.2521 13.9996C12.947 13.9996 13.5095 13.4174 13.5095 12.6966C13.5095 12.3485 13.3787 12.0213 13.1412 11.7752L8.53298 6.99981L13.1412 2.22441C13.3787 1.97833 13.5095 1.65113 13.5095 1.30306Z" fill="#1F65D6"/>
</svg>
