<svg width="28" height="24" viewBox="0 0 28 24" fill="none" xmlns="http://www.w3.org/2000/svg">
<mask id="purchasesOverviewBannerMask" style="mask-type:luminance" maskUnits="userSpaceOnUse" x="0" y="0" width="28" height="24">
<path d="M27.3953 0H0V24H27.3953V0Z" fill="white"/>
</mask>
<g mask="url(#purchasesOverviewBannerMask)">
<path d="M11.3456 18.6814C10.6151 18.1607 9.8857 17.597 9.1649 16.9921C7.8696 15.9053 6.69981 14.768 5.67578 13.6211" stroke="#0078C8" stroke-width="1.53838" stroke-miterlimit="10" stroke-linecap="round"/>
<path d="M15.7852 21.3169C19.9886 23.3154 23.6818 23.6097 25.2607 21.728C26.6393 20.0851 26.1043 17.143 24.1505 13.8984" stroke="#0078C8" stroke-width="1.53838" stroke-miterlimit="10" stroke-linecap="round"/>
<path d="M21.1799 9.95109C20.1822 8.84554 19.0496 7.75034 17.8003 6.70202C17.0646 6.0847 16.3199 5.51006 15.5742 4.98047" stroke="#0078C8" stroke-width="1.53838" stroke-miterlimit="10" stroke-linecap="round"/>
<path d="M2.93526 9.98348C0.885639 6.66277 0.301383 3.63615 1.70729 1.96067C3.26407 0.105369 6.87616 0.365552 11.0064 2.2888" stroke="#0078C8" stroke-width="1.53838" stroke-miterlimit="10" stroke-linecap="round"/>
<path d="M5.83594 22.9513C9.13141 22.6395 13.6119 20.5087 17.8014 16.9932C22.9219 12.6967 26.081 7.61271 26.0295 4.25781" stroke="#13B5EA" stroke-width="1.53838" stroke-miterlimit="10" stroke-linecap="round"/>
<path d="M22.8485 0.757644C19.524 0.302777 14.1417 2.5247 9.16925 6.69702C4.49492 10.6193 1.45511 15.1975 1 18.5178" stroke="#13B5EA" stroke-width="1.53838" stroke-miterlimit="10" stroke-linecap="round"/>
<path d="M1.73817 23.2888C2.50181 23.2888 3.12087 22.6698 3.12087 21.9061C3.12087 21.1425 2.50181 20.5234 1.73817 20.5234C0.974527 20.5234 0.355469 21.1425 0.355469 21.9061C0.355469 22.6698 0.974527 23.2888 1.73817 23.2888Z" fill="#50DCAA"/>
<path d="M25.7304 2.7654C26.494 2.7654 27.113 2.14634 27.113 1.3827C27.113 0.619059 26.494 0 25.7304 0C24.9667 0 24.3477 0.619059 24.3477 1.3827C24.3477 2.14634 24.9667 2.7654 25.7304 2.7654Z" fill="#FDCC08"/>
<path d="M15.7276 8.71861C14.4996 8.6189 13.903 9.50958 13.7657 10.3054C13.76 10.3422 13.7071 10.3422 13.7013 10.3054C13.564 9.50958 12.9675 8.6189 11.7395 8.71861C10.8203 8.79559 9.84078 9.51608 9.83594 10.7009C9.83594 12.6506 12.3174 14.4486 13.6506 15.4146C13.6757 15.4328 13.7042 15.4437 13.7335 15.4478C13.7628 15.4437 13.7913 15.4328 13.8164 15.4146C15.1496 14.4486 17.631 12.6506 17.631 10.7009C17.6262 9.51608 16.6468 8.79559 15.7276 8.71861Z" fill="#FF8CAE"/>
</g>
</svg>
