<svg width="16" height="16" viewBox="0 0 16 16" fill="none" xmlns="http://www.w3.org/2000/svg">
<path d="M12.2105 3.7895H3.7895V12.2105H12.2105V3.7895Z" fill="white"/>
<path d="M12.2104 16L15.9999 12.2105L14.1051 11.8873L12.2105 12.2105L11.8646 13.9436L12.2104 16Z" fill="#EA4335"/>
<path d="M0 12.2105V14.7368C0 15.4348 0.56525 16 1.26312 16H3.7895L4.17856 14.1053L3.7895 12.2105L1.72494 11.8873L0 12.2105Z" fill="#188038"/>
<path d="M15.9999 3.7895V1.26312C15.9999 0.56525 15.4346 0 14.7368 0H12.2104C11.9799 0.93975 11.8646 1.63131 11.8646 2.07475C11.8646 2.51813 11.98 3.08975 12.2105 3.7895C13.0486 4.0295 13.6801 4.1495 14.1051 4.1495C14.5302 4.1495 15.1618 4.0295 15.9999 3.7895Z" fill="#1967D2"/>
<path d="M15.9999 3.7895H12.2105V12.2105L15.9999 12.2105V3.7895Z" fill="#FBBC04"/>
<path d="M12.2105 12.2105H3.7895L3.7895 16H12.2104L12.2105 12.2105Z" fill="#34A853"/>
<path d="M12.2104 0H1.26319C0.56525 0 0 0.56525 0 1.26312V12.2105L3.7895 12.2105V3.7895H12.2105L12.2104 0Z" fill="#4285F4"/>
<path d="M5.51686 10.3221C5.20211 10.1095 4.98417 9.799 4.86523 9.38837L5.5958 9.08737C5.66205 9.34 5.77786 9.53581 5.94317 9.67475C6.10736 9.81369 6.30736 9.88212 6.54105 9.88212C6.77998 9.88212 6.98523 9.8095 7.1568 9.66419C7.32842 9.51894 7.41473 9.33369 7.41473 9.1095C7.41473 8.88 7.32417 8.69262 7.14317 8.54737C6.96211 8.40212 6.73473 8.3295 6.46317 8.3295H6.04105V7.60637H6.41998C6.65367 7.60637 6.85048 7.54319 7.01048 7.41681C7.17048 7.29056 7.25048 7.11787 7.25048 6.89787C7.25048 6.70212 7.17892 6.54631 7.0358 6.4295C6.89267 6.31262 6.71155 6.25369 6.49155 6.25369C6.2768 6.25369 6.1063 6.31056 5.97998 6.42525C5.85374 6.5403 5.75883 6.68556 5.70417 6.84737L4.98105 6.54631C5.0768 6.27475 5.25261 6.03475 5.51048 5.82737C5.76842 5.62 6.09786 5.51581 6.49786 5.51581C6.79367 5.51581 7.05998 5.57269 7.2958 5.68737C7.53155 5.80212 7.7168 5.96106 7.85048 6.16319C7.98423 6.36631 8.05048 6.59369 8.05048 6.84631C8.05048 7.10419 7.98842 7.32212 7.86423 7.50106C7.73998 7.68 7.58736 7.81681 7.4063 7.91262V7.95575C7.64009 8.05214 7.84316 8.21047 7.99367 8.41369C8.1463 8.61894 8.22317 8.86419 8.22317 9.15056C8.22317 9.43681 8.15048 9.69262 8.00523 9.91681C7.85998 10.1411 7.65898 10.3179 7.40417 10.4463C7.14842 10.5747 6.86105 10.6401 6.54211 10.6401C6.17261 10.6411 5.83161 10.5347 5.51686 10.3221ZM10.0042 6.69681L9.20211 7.27681L8.80105 6.66844L10.24 5.6305H10.7915V10.5263H10.0042V6.69681Z" fill="#4285F4"/>
</svg>
