<svg width="87" height="26" viewBox="0 0 87 26" fill="none" xmlns="http://www.w3.org/2000/svg">
<path d="M6.13638 22.9668V12.7005L2.90113 9.78777L0 8.17139V21.1551C0 22.1575 0.825293 22.9668 1.84096 22.9668H6.13638V22.9668Z" fill="#4285F4"/>
<path d="M20.8636 22.9672H25.1591C26.1778 22.9672 27 22.1549 27 21.1555V8.17188L23.714 10.0233L20.8636 12.7009V22.9672V22.9672Z" fill="#34A853"/>
<path d="M6.13633 12.7007L5.69611 8.68934L6.13633 4.8501L13.4999 10.2852L20.8636 4.8501L21.3561 8.48206L20.8636 12.7007L13.4999 18.1357L6.13633 12.7007Z" fill="#EA4335"/>
<path d="M20.8636 4.84998V12.7005L27 8.17139V5.75579C27 3.5154 24.4013 2.23821 22.5819 3.58183L20.8636 4.84998Z" fill="#FBBC04"/>
<path d="M0 8.17144L2.82224 10.2546L6.13638 12.7006V4.85003L4.41808 3.58187C2.59559 2.23816 0 3.51545 0 5.75574V8.17134V8.17144Z" fill="#C5221F"/>
<path d="M43.2549 12.6338H48.3203V19.4434C47.609 19.6784 46.873 19.8608 46.1123 19.9907C45.3516 20.1206 44.498 20.1855 43.5518 20.1855C42.1725 20.1855 41.0036 19.9134 40.0449 19.3691C39.0924 18.8187 38.3688 18.0239 37.874 16.9849C37.3792 15.9396 37.1318 14.681 37.1318 13.209C37.1318 11.7926 37.4071 10.5649 37.9575 9.52588C38.508 8.48063 39.3089 7.6735 40.3604 7.10449C41.4118 6.5293 42.6859 6.2417 44.1826 6.2417C44.9186 6.2417 45.6299 6.31592 46.3164 6.46436C47.0091 6.60661 47.6431 6.80452 48.2183 7.05811L47.439 8.89502C46.9813 8.67855 46.4679 8.49609 45.8989 8.34766C45.3299 8.19922 44.7393 8.125 44.127 8.125C43.1559 8.125 42.3179 8.33529 41.6128 8.75586C40.9139 9.17643 40.3758 9.77018 39.9985 10.5371C39.6213 11.2979 39.4326 12.1978 39.4326 13.2368C39.4326 14.245 39.5841 15.1294 39.8872 15.8901C40.1903 16.6509 40.6634 17.2446 41.3066 17.6714C41.9561 18.092 42.7941 18.3022 43.8208 18.3022C44.3341 18.3022 44.7702 18.2744 45.1289 18.2188C45.4876 18.1631 45.8185 18.1012 46.1216 18.0332V14.5356H43.2549V12.6338ZM62.2807 9.53516C63.4311 9.53516 64.297 9.83203 64.8783 10.4258C65.4659 11.0195 65.7597 11.972 65.7597 13.2832V20H63.5795V13.6729C63.5795 12.8936 63.428 12.306 63.1249 11.9102C62.8219 11.5143 62.3611 11.3164 61.7426 11.3164C60.8767 11.3164 60.252 11.5947 59.8686 12.1514C59.4913 12.7018 59.3027 13.5028 59.3027 14.5542V20H57.1225V13.6729C57.1225 13.1533 57.0544 12.7204 56.9184 12.374C56.7885 12.0215 56.5875 11.7586 56.3154 11.5854C56.0432 11.4061 55.7 11.3164 55.2856 11.3164C54.6856 11.3164 54.2063 11.4525 53.8476 11.7246C53.495 11.9967 53.2415 12.3988 53.0868 12.9307C52.9322 13.4564 52.8549 14.1027 52.8549 14.8696V20H50.6747V9.72998H52.3725L52.6786 11.1123H52.7992C53.0095 10.7536 53.2693 10.4598 53.5785 10.231C53.894 9.99593 54.2434 9.82275 54.6269 9.71143C55.0103 9.59391 55.4093 9.53516 55.8237 9.53516C56.5906 9.53516 57.2369 9.67122 57.7626 9.94336C58.2883 10.2093 58.6811 10.6175 58.9408 11.168H59.1078C59.4294 10.6113 59.8779 10.2 60.453 9.93408C61.0282 9.66813 61.6375 9.53516 62.2807 9.53516ZM72.159 9.53516C73.4579 9.53516 74.4382 9.82275 75.0999 10.3979C75.7679 10.9731 76.1019 11.87 76.1019 13.0884V20H74.5526L74.1351 18.5435H74.0609C73.7702 18.9146 73.4702 19.2207 73.161 19.4619C72.8517 19.7031 72.493 19.8825 72.0848 20C71.6828 20.1237 71.1911 20.1855 70.6097 20.1855C69.9974 20.1855 69.45 20.0742 68.9676 19.8516C68.4852 19.6227 68.1048 19.2764 67.8265 18.8125C67.5482 18.3486 67.409 17.7611 67.409 17.0498C67.409 15.9922 67.8018 15.1974 68.5872 14.6655C69.3789 14.1336 70.5726 13.8398 72.1683 13.7842L73.9496 13.7192V13.1812C73.9496 12.4699 73.7826 11.9627 73.4486 11.6597C73.1208 11.3566 72.6569 11.2051 72.057 11.2051C71.5436 11.2051 71.0457 11.2793 70.5633 11.4277C70.0809 11.5762 69.6108 11.7586 69.1532 11.9751L68.4481 10.4351C68.9491 10.1691 69.5181 9.95264 70.1551 9.78564C70.7983 9.61865 71.4663 9.53516 72.159 9.53516ZM73.9403 15.0923L72.6136 15.1387C71.5251 15.1758 70.7612 15.3613 70.3221 15.6953C69.883 16.0293 69.6634 16.487 69.6634 17.0684C69.6634 17.5755 69.8149 17.9466 70.118 18.1816C70.4211 18.4105 70.82 18.5249 71.3148 18.5249C72.0693 18.5249 72.694 18.3115 73.1888 17.8848C73.6898 17.4518 73.9403 16.8179 73.9403 15.9829V15.0923ZM80.6643 9.72998V20H78.4841V9.72998H80.6643ZM79.5881 5.79639C79.9221 5.79639 80.2097 5.88607 80.4509 6.06543C80.6983 6.24479 80.822 6.55404 80.822 6.99316C80.822 7.42611 80.6983 7.73535 80.4509 7.9209C80.2097 8.10026 79.9221 8.18994 79.5881 8.18994C79.2418 8.18994 78.948 8.10026 78.7068 7.9209C78.4718 7.73535 78.3543 7.42611 78.3543 6.99316C78.3543 6.55404 78.4718 6.24479 78.7068 6.06543C78.948 5.88607 79.2418 5.79639 79.5881 5.79639ZM85.3102 20H83.1208V5.56445H85.3102V20Z" fill="#64686C"/>
</svg>
