<svg width="17" height="17" viewBox="0 0 17 17" fill="none" xmlns="http://www.w3.org/2000/svg">
<path d="M7.5735 13.464H9.2565V11.781H7.5735V13.464ZM8.415 0C3.76992 0 0 3.76992 0 8.415C0 13.0601 3.76992 16.83 8.415 16.83C13.0601 16.83 16.83 13.0601 16.83 8.415C16.83 3.76992 13.0601 0 8.415 0ZM8.415 15.147C4.70399 15.147 1.683 12.126 1.683 8.415C1.683 4.70399 4.70399 1.683 8.415 1.683C12.126 1.683 15.147 4.70399 15.147 8.415C15.147 12.126 12.126 15.147 8.415 15.147ZM8.415 3.366C6.55528 3.366 5.049 4.87228 5.049 6.732H6.732C6.732 5.80635 7.48935 5.049 8.415 5.049C9.34065 5.049 10.098 5.80635 10.098 6.732C10.098 8.415 7.5735 8.20462 7.5735 10.9395H9.2565C9.2565 9.04612 11.781 8.83575 11.781 6.732C11.781 4.87228 10.2747 3.366 8.415 3.366Z" fill="#64676C"/>
</svg>
