<svg width="15" height="15" viewBox="0 0 15 15" fill="none" xmlns="http://www.w3.org/2000/svg">
<path fill-rule="evenodd" clip-rule="evenodd" d="M0 1.70538C0 2.64724 0.763527 3.41077 1.70538 3.41077C2.64724 3.41077 3.41077 2.64724 3.41077 1.70538C3.41077 0.763527 2.64724 0 1.70538 0C0.763527 0 0 0.763527 0 1.70538ZM0 7.39C0 8.33186 0.763527 9.09538 1.70538 9.09538C2.64724 9.09538 3.41077 8.33186 3.41077 7.39C3.41077 6.44814 2.64724 5.68462 1.70538 5.68462C0.763527 5.68462 0 6.44814 0 7.39ZM3.41077 13.0746C3.41077 14.0165 2.64724 14.78 1.70538 14.78C0.763527 14.78 0 14.0165 0 13.0746C0 12.1328 0.763527 11.3692 1.70538 11.3692C2.64724 11.3692 3.41077 12.1328 3.41077 13.0746ZM5.68471 13.0746C5.68471 14.0165 6.44824 14.78 7.3901 14.78C8.33196 14.78 9.09548 14.0165 9.09548 13.0746C9.09548 12.1328 8.33196 11.3692 7.3901 11.3692C6.44824 11.3692 5.68471 12.1328 5.68471 13.0746ZM14.78 7.39C14.78 8.33186 14.0164 9.09538 13.0746 9.09538C12.1327 9.09538 11.3692 8.33186 11.3692 7.39C11.3692 6.44814 12.1327 5.68462 13.0746 5.68462C14.0164 5.68462 14.78 6.44814 14.78 7.39ZM5.68471 7.39C5.68471 8.33186 6.44824 9.09538 7.3901 9.09538C8.33196 9.09538 9.09548 8.33186 9.09548 7.39C9.09548 6.44814 8.33196 5.68462 7.3901 5.68462C6.44824 5.68462 5.68471 6.44814 5.68471 7.39ZM14.78 13.0746C14.78 14.0165 14.0164 14.78 13.0746 14.78C12.1327 14.78 11.3692 14.0165 11.3692 13.0746C11.3692 12.1328 12.1327 11.3692 13.0746 11.3692C14.0164 11.3692 14.78 12.1328 14.78 13.0746ZM13.0746 0C12.1327 0 11.3692 0.763527 11.3692 1.70538C11.3692 2.64724 12.1327 3.41077 13.0746 3.41077C14.0164 3.41077 14.78 2.64724 14.78 1.70538C14.78 0.763527 14.0164 0 13.0746 0ZM9.09548 1.70538C9.09548 2.64724 8.33196 3.41077 7.3901 3.41077C6.44824 3.41077 5.68471 2.64724 5.68471 1.70538C5.68471 0.763527 6.44824 0 7.3901 0C8.33196 0 9.09548 0.763527 9.09548 1.70538Z" fill="#4F4F4F"/>
</svg>
