<svg width="3" height="12" viewBox="0 0 3 12" fill="none" xmlns="http://www.w3.org/2000/svg">
<path d="M2.98926 1.49414C2.98926 2.32096 2.3219 2.9891 1.49512 2.98926C0.6682 2.98926 0 2.32106 0 1.49414C0.000155308 0.667356 0.668296 0 1.49512 0C2.32181 0.00015533 2.9891 0.667453 2.98926 1.49414ZM2.98926 5.97754C2.98926 6.80436 2.3219 7.47152 1.49512 7.47168C0.6682 7.47168 0 6.80446 0 5.97754C7.06652e-05 5.15068 0.668243 4.4834 1.49512 4.4834C2.32186 4.48355 2.98919 5.15078 2.98926 5.97754ZM2.98926 10.4609C2.98926 11.2878 2.3219 11.9549 1.49512 11.9551C0.6682 11.9551 0 11.2879 0 10.4609C1.37166e-05 9.63403 0.668208 8.9668 1.49512 8.9668C2.32189 8.96695 2.98924 9.63413 2.98926 10.4609Z" fill="#64676C"/>
</svg>
