<svg width="14" height="13" viewBox="0 0 14 13" fill="none" xmlns="http://www.w3.org/2000/svg">
<path d="M11.6133 3.41602C12.7472 3.41602 13.6629 4.33094 13.6631 5.46484V9.56445H10.9307V12.2969H2.73242V9.56445H0V5.46484C0.000146422 4.33094 0.91587 3.41602 2.0498 3.41602H11.6133ZM4.09863 10.9307H9.56445V7.51465H4.09863V10.9307ZM11.6133 4.78223C11.2378 4.78237 10.9308 5.08934 10.9307 5.46484C10.9307 5.84049 11.2377 6.1483 11.6133 6.14844C11.989 6.14844 12.2969 5.84058 12.2969 5.46484C12.2967 5.08925 11.9889 4.78223 11.6133 4.78223ZM10.9307 0V2.73242H2.73242V0H10.9307Z" fill="#64676C"/>
</svg>
