<svg width="27" height="27" viewBox="0 0 27 27" fill="none" xmlns="http://www.w3.org/2000/svg">
<path d="M5.92682 22.0928C5.94325 20.839 6.44883 19.6422 7.33416 18.7612C8.21949 17.8802 9.41339 17.3859 10.6576 17.3853H16.3424C17.5866 17.3859 18.7805 17.8802 19.6658 18.7612C20.5512 19.6422 21.0567 20.839 21.0732 22.0928C18.9952 23.9799 16.2972 25.0243 13.5 25.0243C10.7028 25.0243 8.00478 23.9799 5.92682 22.0928ZM17.7636 10.2237C17.7636 11.0735 17.5136 11.9043 17.0451 12.6109C16.5766 13.3176 15.9107 13.8683 15.1316 14.1935C14.3525 14.5188 13.4953 14.6039 12.6682 14.4381C11.8411 14.2723 11.0814 13.863 10.4851 13.2621C9.88886 12.6611 9.48279 11.8955 9.31827 11.062C9.15376 10.2285 9.2382 9.36449 9.5609 8.57933C9.8836 7.79416 10.4301 7.12308 11.1312 6.65092C11.8324 6.17877 12.6567 5.92676 13.5 5.92676C14.6308 5.92676 15.7152 6.37947 16.5148 7.1853C17.3144 7.99113 17.7636 9.08407 17.7636 10.2237Z" fill="white"/>
<path d="M23.8822 22.1109C25.268 20.4449 26.2318 18.4699 26.6922 16.353C27.1525 14.236 27.0958 12.0395 26.5269 9.94909C25.9579 7.8587 24.8934 5.93598 23.4235 4.34358C21.9535 2.75118 20.1214 1.53596 18.082 0.800698C16.0426 0.0654404 13.8559 -0.168215 11.707 0.119497C9.55815 0.407209 7.51023 1.20783 5.7365 2.45362C3.96278 3.69941 2.51545 5.35373 1.51693 7.27662C0.518421 9.19952 -0.00189385 11.3344 5.17964e-06 13.5007C0.000733904 16.6499 1.11141 19.6983 3.13714 22.1109L3.11784 22.1273C3.18539 22.2083 3.26259 22.2777 3.33206 22.3577C3.41891 22.457 3.51251 22.5506 3.60226 22.647C3.87245 22.9401 4.15036 23.2216 4.44178 23.4858C4.53056 23.5668 4.62223 23.642 4.71198 23.7192C5.02077 23.9853 5.33825 24.2379 5.6673 24.4731C5.70976 24.5021 5.74836 24.5397 5.79082 24.5696V24.558C8.05089 26.1471 10.747 27 13.5106 27C16.2742 27 18.9703 26.1471 21.2304 24.558V24.5696C21.2729 24.5397 21.3105 24.5021 21.3539 24.4731C21.682 24.2369 22.0005 23.9853 22.3093 23.7192C22.399 23.642 22.4907 23.5659 22.5795 23.4858C22.8709 23.2207 23.1488 22.9401 23.419 22.647C23.5087 22.5506 23.6014 22.457 23.6892 22.3577C23.7577 22.2777 23.8359 22.2083 23.9034 22.1263L23.8822 22.1109ZM13.5097 5.78728C14.3685 5.78728 15.2081 6.04174 15.9222 6.5185C16.6363 6.99526 17.1928 7.67289 17.5215 8.4657C17.8502 9.25852 17.9362 10.1309 17.7686 10.9726C17.6011 11.8142 17.1875 12.5873 16.5802 13.1941C15.9729 13.8009 15.1992 14.2141 14.3568 14.3816C13.5145 14.549 12.6414 14.463 11.8479 14.1347C11.0544 13.8063 10.3762 13.2501 9.89909 12.5366C9.42194 11.8231 9.16727 10.9842 9.16727 10.1261C9.16727 8.97537 9.62477 7.87178 10.4391 7.05809C11.2535 6.2444 12.358 5.78728 13.5097 5.78728ZM5.79661 22.1109C5.81335 20.8449 6.32826 19.6364 7.22994 18.7468C8.13163 17.8572 9.34758 17.3581 10.6147 17.3575H16.4046C17.6717 17.3581 18.8877 17.8572 19.7894 18.7468C20.691 19.6364 21.206 20.8449 21.2227 22.1109C19.1064 24.0164 16.3585 25.071 13.5097 25.071C10.6608 25.071 7.91295 24.0164 5.79661 22.1109Z" fill="#2F80ED"/>
</svg>
