<svg width="14" height="10" viewBox="0 0 14 10" fill="none" xmlns="http://www.w3.org/2000/svg">
<path fill-rule="evenodd" clip-rule="evenodd" d="M4.05293 6.98768C4.37454 6.65226 4.37454 6.10844 4.05293 5.77302L1.98819 3.61962L4.05293 1.46622C4.37454 1.1308 4.37454 0.586982 4.05293 0.251564C3.73132 -0.0838546 3.20989 -0.0838546 2.88828 0.251564L0.241207 3.01229C-0.0804024 3.34771 -0.0804024 3.89153 0.241207 4.22695L2.88828 6.98768C3.20989 7.32309 3.73132 7.32309 4.05293 6.98768Z" fill="#4F4F4F"/>
<path fill-rule="evenodd" clip-rule="evenodd" d="M13.1765 10C13.6313 10 14 9.61546 14 9.14111V8.27838C14 5.30573 11.734 2.76076 8.85071 2.76076H1.70583C1.251 2.76076 0.882292 3.1453 0.882292 3.61965C0.882292 4.09401 1.251 4.47855 1.70583 4.47855H8.85071C10.7633 4.47855 12.3529 6.18942 12.3529 8.27838V9.14111C12.3529 9.61546 12.7216 10 13.1765 10Z" fill="#4F4F4F"/>
</svg>
