<svg width="16" height="16" viewBox="0 0 16 16" fill="none" xmlns="http://www.w3.org/2000/svg">
<path d="M5.79395 0C8.99356 0.00022907 11.5869 2.59428 11.5869 5.79395C11.5868 7.22876 11.0609 8.54749 10.1875 9.56348L10.4375 9.80469H11.1416L15.5889 14.2607L14.2607 15.5889L9.80469 11.1416V10.4375L9.56348 10.1875C8.54749 11.0609 7.22876 11.5868 5.79395 11.5869C2.59428 11.5869 0.000229068 8.99356 0 5.79395C0 2.59414 2.59414 0 5.79395 0ZM5.79395 1.78223C3.57458 1.78223 1.78223 3.57458 1.78223 5.79395C1.78245 8.01312 3.57472 9.80469 5.79395 9.80469C8.01298 9.80447 9.80447 8.01298 9.80469 5.79395C9.80469 3.57472 8.01312 1.78245 5.79395 1.78223Z" fill="#64676C"/>
</svg>
