<svg width="18" height="19" viewBox="0 0 18 19" fill="none" xmlns="http://www.w3.org/2000/svg">
<path d="M1.37769 6.62352C1.73318 5.53251 2.31622 4.5294 3.08825 3.6805C3.15217 3.61041 3.2354 3.56079 3.32746 3.53789C3.41952 3.515 3.5163 3.51985 3.60561 3.55184L5.44753 4.20735C5.57837 4.25373 5.7177 4.27123 5.85595 4.25865C5.9942 4.24607 6.12808 4.20371 6.2484 4.13448C6.36872 4.06525 6.47263 3.97079 6.55297 3.85758C6.63332 3.74438 6.68821 3.61513 6.71386 3.4787L7.06599 1.56093C7.08317 1.46772 7.12759 1.38169 7.19364 1.31371C7.25969 1.24573 7.3444 1.19886 7.43708 1.179C8.56223 0.940332 9.72492 0.940332 10.8501 1.179C11.0397 1.21964 11.1859 1.36997 11.2212 1.56093L11.5733 3.4787C11.5985 3.61535 11.6531 3.74489 11.7334 3.85834C11.8136 3.97179 11.9176 4.06645 12.038 4.13575C12.1585 4.20506 12.2925 4.24735 12.4309 4.25971C12.5693 4.27208 12.7088 4.25421 12.8396 4.20735L14.6815 3.55184C14.7708 3.51985 14.8676 3.515 14.9597 3.53789C15.0517 3.56079 15.135 3.61041 15.1989 3.6805C15.9695 4.52968 16.5533 5.53191 16.9081 6.62352C16.9374 6.71372 16.9391 6.81062 16.9131 6.90181C16.887 6.99301 16.8344 7.07436 16.7618 7.13546L15.2693 8.39637C15.1631 8.48574 15.0776 8.59727 15.019 8.72314C14.9604 8.84901 14.9301 8.98617 14.9301 9.12501C14.9301 9.26386 14.9604 9.40102 15.019 9.52689C15.0776 9.65276 15.1631 9.76428 15.2693 9.85366L16.7618 11.1146C16.9108 11.2405 16.9677 11.4423 16.9081 11.6265C16.553 12.7174 15.9705 13.7205 15.1989 14.5695C15.135 14.6396 15.0517 14.6892 14.9597 14.7121C14.8676 14.735 14.7708 14.7302 14.6815 14.6982L12.8396 14.0427C12.7088 13.9963 12.5694 13.9788 12.4312 13.9914C12.2929 14.0039 12.1591 14.0463 12.0387 14.1155C11.9184 14.1848 11.8145 14.2792 11.7342 14.3924C11.6538 14.5056 11.5989 14.6349 11.5733 14.7713L11.2212 16.6891C11.2041 16.7826 11.1595 16.8688 11.0932 16.9368C11.0268 17.0049 10.9417 17.0516 10.8487 17.071C9.72402 17.3097 8.56177 17.3097 7.43708 17.071C7.34415 17.0514 7.25914 17.0046 7.19283 16.9366C7.12653 16.8686 7.08191 16.7825 7.06464 16.6891L6.71386 14.7713C6.68863 14.6347 6.63401 14.5051 6.55376 14.3917C6.47352 14.2782 6.36958 14.1836 6.24913 14.1143C6.12869 14.045 5.99462 14.0027 5.85621 13.9903C5.7178 13.9779 5.57836 13.9958 5.44753 14.0427L3.60561 14.6982C3.5163 14.7302 3.41952 14.735 3.32746 14.7121C3.2354 14.6892 3.15217 14.6396 3.08825 14.5695C2.3167 13.7205 1.73413 12.7174 1.37905 11.6265C1.34974 11.5363 1.348 11.4394 1.37406 11.3482C1.40011 11.257 1.45278 11.1757 1.52532 11.1146L3.01782 9.85366C3.12387 9.76415 3.2091 9.65258 3.26757 9.52673C3.32603 9.40088 3.35633 9.26378 3.35633 9.12501C3.35633 8.98624 3.32603 8.84915 3.26757 8.72329C3.2091 8.59744 3.12387 8.48587 3.01782 8.39637L1.52532 7.13546C1.45278 7.07436 1.40011 6.99301 1.37406 6.90181C1.348 6.81062 1.34974 6.71372 1.37905 6.62352H1.37769ZM6.77209 9.12501C6.77209 9.75361 7.0218 10.3565 7.46629 10.8009C7.91077 11.2454 8.51362 11.4951 9.14222 11.4951C9.77081 11.4951 10.3737 11.2454 10.8181 10.8009C11.2626 10.3565 11.5123 9.75361 11.5123 9.12501C11.5123 8.49642 11.2626 7.89357 10.8181 7.44908C10.3737 7.0046 9.77081 6.75489 9.14222 6.75489C8.51362 6.75489 7.91077 7.0046 7.46629 7.44908C7.0218 7.89357 6.77209 8.49642 6.77209 9.12501Z" stroke="#4F4F4F" stroke-width="2"/>
<circle cx="8.53158" cy="9.02023" r="1.61056" fill="#4F4F4F" stroke="#4F4F4F"/>
</svg>
