<svg xmlns="http://www.w3.org/2000/svg" xmlns:xlink="http://www.w3.org/1999/xlink" width="96" height="96" fill="none"><defs><path id="reuse-0" fill="#0C5CD0" d="m22.767-12 75.309 53.348-50.767 71.629L-28 59.628 22.767-12Z"/></defs><mask id="a" width="72" height="72" x="12" y="12" maskUnits="userSpaceOnUse" style="mask-type:alpha"><path fill="#fff" d="M49.645 13.28c-.326-1.707-2.964-1.707-3.29 0-4.38 22.941-10.134 28.696-33.074 33.075-1.708.326-1.708 2.965 0 3.29 22.94 4.38 28.694 10.134 33.074 33.074.326 1.708 2.964 1.708 3.29 0 4.379-22.94 10.133-28.694 33.074-33.074 1.708-.326 1.708-2.964 0-3.29-22.94-4.38-28.695-10.134-33.074-33.074Z"/></mask><g mask="url(#a)"><use xlink:href="#reuse-0"/><use xlink:href="#reuse-0"/><g filter="url(#b)"><ellipse cx="77.524" cy="42.58" fill="#0CC3FF" rx="77.524" ry="42.58" transform="rotate(35.313 63.822 8.528) skewX(-.014)"/></g><g filter="url(#c)"><ellipse cx="29.478" cy="52.054" fill="#0E5CD0" rx="29.478" ry="52.054" transform="matrix(.94892 -.31552 .35971 .93306 -29.526 -17.07)"/></g><g filter="url(#d)"><ellipse cx="29.478" cy="52.054" fill="#2C2CE2" rx="29.478" ry="52.054" transform="matrix(.94892 -.31552 .35971 .93306 -27.91 -10.8)"/></g><g filter="url(#e)"><ellipse cx="29.764" cy="51.56" fill="#1A1A88" rx="29.764" ry="51.56" transform="matrix(.21702 .97617 -.98577 .16809 27.034 -48.682)"/></g><g filter="url(#f)"><ellipse cx="28.73" cy="35.826" fill="#79ACFF" rx="28.73" ry="35.826" transform="matrix(.94455 .32837 -.30216 .95326 28.235 44.756)"/></g><g filter="url(#g)"><ellipse cx="29.687" cy="42.21" fill="#D3EFFF" rx="29.687" ry="42.21" transform="matrix(.87013 .49283 -.48385 .87515 79.685 33.096)"/></g></g><path fill="#1758FF" d="M27.857 26.454c.539.836-.562 1.937-1.399 1.398-6.735-4.335-10.18-4.335-16.916 0-.837.539-1.938-.562-1.4-1.398 4.337-6.734 4.337-10.179 0-16.913-.538-.836.563-1.937 1.4-1.398 6.735 4.334 10.18 4.334 16.916 0 .837-.539 1.938.562 1.4 1.398-4.337 6.734-4.337 10.179 0 16.913Z"/><circle cx="35.5" cy="18.5" r="2.5" fill="#13B5EA"/><circle cx="18" cy="35" r="4" fill="#5E52FF"/><defs><filter id="b" width="160.735" height="138.341" x="-25.057" y="-24.942" color-interpolation-filters="sRGB" filterUnits="userSpaceOnUse"><feFlood flood-opacity="0" result="BackgroundImageFix"/><feBlend in="SourceGraphic" in2="BackgroundImageFix" result="shape"/><feGaussianBlur result="effect1_foregroundBlur_446_12453" stdDeviation="6.233"/></filter><filter id="c" width="90.031" height="121.625" x="-27.846" y="-38.613" color-interpolation-filters="sRGB" filterUnits="userSpaceOnUse"><feFlood flood-opacity="0" result="BackgroundImageFix"/><feBlend in="SourceGraphic" in2="BackgroundImageFix" result="shape"/><feGaussianBlur result="effect1_foregroundBlur_446_12453" stdDeviation="5.676"/></filter><filter id="d" width="90.031" height="121.625" x="-26.229" y="-32.345" color-interpolation-filters="sRGB" filterUnits="userSpaceOnUse"><feFlood flood-opacity="0" result="BackgroundImageFix"/><feBlend in="SourceGraphic" in2="BackgroundImageFix" result="shape"/><feGaussianBlur result="effect1_foregroundBlur_446_12453" stdDeviation="5.676"/></filter><filter id="e" width="127.248" height="85.422" x="-80.957" y="-53.672" color-interpolation-filters="sRGB" filterUnits="userSpaceOnUse"><feFlood flood-opacity="0" result="BackgroundImageFix"/><feBlend in="SourceGraphic" in2="BackgroundImageFix" result="shape"/><feGaussianBlur result="effect1_foregroundBlur_446_12453" stdDeviation="6.192"/></filter><filter id="f" width="83.216" height="95.646" x="2.939" y="40.519" color-interpolation-filters="sRGB" filterUnits="userSpaceOnUse"><feFlood flood-opacity="0" result="BackgroundImageFix"/><feBlend in="SourceGraphic" in2="BackgroundImageFix" result="shape"/><feGaussianBlur result="effect1_foregroundBlur_446_12453" stdDeviation="6.192"/></filter><filter id="g" width="86.502" height="100.125" x="41.842" y="34.604" color-interpolation-filters="sRGB" filterUnits="userSpaceOnUse"><feFlood flood-opacity="0" result="BackgroundImageFix"/><feBlend in="SourceGraphic" in2="BackgroundImageFix" result="shape"/><feGaussianBlur result="effect1_foregroundBlur_446_12453" stdDeviation="5.16"/></filter></defs></svg>