<svg xmlns="http://www.w3.org/2000/svg" width="1440" height="36" fill="none"><path fill="#fff" d="M1440 0H0v36h1440V0Z"/><path fill="#fff" d="M48 0H20v36h28V0ZM268 0H48v36h220V0Z"/><path fill="#1E3145" d="M53.981 20.5h-1.687l3.073-8.727h1.951l3.077 8.727h-1.688l-2.33-6.938h-.069L53.981 20.5Zm.056-3.422h4.602v1.27h-4.602v-1.27Zm10.095 3.55c-.653 0-1.214-.144-1.683-.431a2.87 2.87 0 0 1-1.078-1.188c-.25-.509-.375-1.094-.375-1.756 0-.665.128-1.252.383-1.76.256-.511.617-.91 1.083-1.193.468-.287 1.022-.43 1.662-.43.53 0 1.001.097 1.41.293.412.194.74.468.984.823.245.352.384.764.418 1.236h-1.474a1.41 1.41 0 0 0-.427-.789c-.221-.213-.518-.32-.89-.32-.315 0-.592.086-.831.256-.239.168-.425.41-.558.725-.131.315-.196.693-.196 1.133 0 .446.065.83.196 1.15.13.319.314.565.55.738.238.17.518.256.839.256a1.4 1.4 0 0 0 .61-.128c.181-.088.333-.215.455-.38.122-.164.206-.364.252-.6h1.474a2.57 2.57 0 0 1-.409 1.231 2.426 2.426 0 0 1-.963.836c-.406.198-.884.298-1.432.298Zm6.926 0c-.654 0-1.215-.144-1.683-.431a2.87 2.87 0 0 1-1.079-1.188c-.25-.509-.375-1.094-.375-1.756 0-.665.128-1.252.384-1.76.256-.511.616-.91 1.082-1.193.47-.287 1.023-.43 1.662-.43.532 0 1.002.097 1.41.293.413.194.74.468.985.823.245.352.384.764.418 1.236h-1.475a1.41 1.41 0 0 0-.426-.789c-.221-.213-.518-.32-.89-.32-.316 0-.593.086-.831.256-.239.168-.425.41-.558.725-.131.315-.197.693-.197 1.133 0 .446.066.83.197 1.15.13.319.313.565.55.738.238.17.518.256.839.256a1.4 1.4 0 0 0 .609-.128c.182-.088.334-.215.456-.38.122-.164.206-.364.251-.6h1.475a2.57 2.57 0 0 1-.41 1.231 2.426 2.426 0 0 1-.962.836c-.406.198-.884.298-1.432.298Zm6.926 0c-.64 0-1.194-.141-1.662-.422a2.866 2.866 0 0 1-1.091-1.18c-.256-.506-.384-1.097-.384-1.773 0-.676.128-1.269.384-1.777a2.858 2.858 0 0 1 1.09-1.185c.47-.281 1.023-.422 1.663-.422.639 0 1.193.14 1.662.422a2.83 2.83 0 0 1 1.086 1.185c.259.508.388 1.1.388 1.777 0 .676-.13 1.267-.388 1.773-.255.505-.618.899-1.086 1.18-.47.281-1.023.422-1.662.422Zm.008-1.236c.347 0 .637-.095.87-.285a1.72 1.72 0 0 0 .52-.776 3.18 3.18 0 0 0 .174-1.082c0-.401-.058-.763-.175-1.087a1.719 1.719 0 0 0-.52-.78c-.232-.193-.522-.29-.869-.29-.355 0-.65.097-.886.29a1.75 1.75 0 0 0-.524.78c-.114.324-.17.686-.17 1.087 0 .397.056.758.17 1.082.116.324.29.582.524.776.236.19.531.285.886.285Zm8.61-1.645v-3.793h1.542V20.5h-1.496v-1.163h-.068c-.148.366-.39.666-.729.899-.335.233-.748.349-1.24.349-.429 0-.808-.095-1.138-.285a1.985 1.985 0 0 1-.767-.84c-.184-.37-.277-.815-.277-1.338v-4.168h1.543v3.93c0 .414.114.744.34.988.228.244.526.367.896.367.227 0 .447-.056.66-.167.213-.11.388-.275.524-.494.14-.221.21-.498.21-.83Zm4.67-1.082V20.5H89.73v-6.546h1.474v1.113h.077c.15-.367.39-.658.72-.874.333-.216.743-.324 1.232-.324.452 0 .845.097 1.18.29.338.193.6.473.784.84.188.366.28.81.277 1.333V20.5h-1.542v-3.929c0-.438-.114-.78-.341-1.027-.224-.247-.536-.37-.933-.37-.27 0-.51.059-.72.178a1.24 1.24 0 0 0-.49.507c-.117.222-.175.49-.175.806Zm9.039-2.71v1.193h-3.763v-1.194h3.763Zm-2.834-1.569h1.543v6.145c0 .208.031.367.094.478.065.107.15.181.255.221a.98.98 0 0 0 .35.06c.096 0 .184-.007.264-.021.082-.015.145-.027.187-.039l.26 1.206c-.082.028-.2.06-.353.094a2.86 2.86 0 0 1-.554.059 2.503 2.503 0 0 1-1.044-.174 1.629 1.629 0 0 1-.737-.605c-.18-.273-.268-.614-.265-1.023v-6.4Z"/><path fill="#A6AAB1" d="M268 0h-1v36h1V0Z"/><path fill="#fff" d="M390.333 0H268v36h122.333V0Z"/><path fill="#1E3145" d="M272.861 20.5v-8.727h3.273c.67 0 1.232.116 1.687.35.457.232.803.559 1.036.98.235.417.353.904.353 1.46 0 .56-.119 1.046-.358 1.458-.236.41-.584.726-1.044.95-.46.222-1.025.333-1.696.333h-2.331v-1.312h2.118c.392 0 .713-.055.963-.163.25-.11.435-.27.554-.481.122-.213.183-.474.183-.784 0-.31-.061-.574-.183-.793a1.164 1.164 0 0 0-.558-.503c-.25-.116-.572-.174-.967-.174h-1.449V20.5h-1.581Zm4.508-3.954 2.161 3.954h-1.764l-2.123-3.954h1.726Zm6.032 4.082c-.656 0-1.223-.137-1.7-.409a2.776 2.776 0 0 1-1.095-1.168c-.256-.505-.384-1.1-.384-1.785 0-.674.128-1.265.384-1.773.258-.511.619-.91 1.082-1.193.463-.287 1.007-.43 1.632-.43.404 0 .784.065 1.142.195.361.128.679.327.955.597.278.27.497.614.656 1.031.159.415.239.91.239 1.483v.473h-5.365v-1.04h3.886a1.661 1.661 0 0 0-.192-.788 1.39 1.39 0 0 0-.524-.55c-.221-.133-.48-.2-.775-.2a1.5 1.5 0 0 0-.831.23 1.59 1.59 0 0 0-.559.597c-.13.244-.197.512-.2.805v.908c0 .38.07.707.209.98.139.27.334.477.584.622.25.142.542.213.878.213.224 0 .427-.031.609-.094.182-.065.339-.16.473-.285.133-.125.234-.28.303-.465l1.44.162c-.091.381-.264.713-.52.997-.253.282-.577.5-.972.657-.394.153-.846.23-1.355.23Zm4.216 2.327v-9h1.517v1.082h.089c.08-.16.192-.328.337-.507a1.79 1.79 0 0 1 .588-.465c.247-.13.563-.196.946-.196.506 0 .962.13 1.368.388.409.256.733.635.972 1.138.241.5.362 1.114.362 1.84 0 .72-.118 1.33-.354 1.833-.236.503-.557.886-.963 1.151a2.477 2.477 0 0 1-1.381.396c-.375 0-.686-.062-.933-.187a1.893 1.893 0 0 1-.596-.452 2.957 2.957 0 0 1-.346-.507h-.064v3.486h-1.542Zm1.513-5.728c0 .424.059.794.179 1.113.122.318.296.566.524.745.23.176.508.264.835.264.341 0 .626-.09.857-.272.23-.185.403-.436.519-.755.12-.32.179-.686.179-1.095 0-.406-.058-.767-.174-1.082a1.63 1.63 0 0 0-.52-.742c-.23-.179-.517-.268-.861-.268-.33 0-.609.087-.84.26-.23.173-.404.416-.524.729a3.17 3.17 0 0 0-.174 1.103Zm8.842 3.401c-.639 0-1.193-.141-1.662-.422a2.867 2.867 0 0 1-1.091-1.18c-.256-.506-.383-1.097-.383-1.773 0-.676.127-1.269.383-1.777a2.86 2.86 0 0 1 1.091-1.185c.469-.281 1.023-.422 1.662-.422s1.193.14 1.662.422c.469.281.831.676 1.087 1.185.258.508.387 1.1.387 1.777 0 .676-.129 1.267-.387 1.773-.256.505-.618.899-1.087 1.18-.469.281-1.023.422-1.662.422Zm.008-1.236c.347 0 .637-.095.87-.285.233-.194.406-.452.52-.776.116-.324.174-.685.174-1.082 0-.401-.058-.763-.174-1.087a1.722 1.722 0 0 0-.52-.78c-.233-.193-.523-.29-.87-.29-.355 0-.65.097-.886.29a1.745 1.745 0 0 0-.524.78c-.114.324-.17.686-.17 1.087 0 .397.056.758.17 1.082.116.324.291.582.524.776.236.19.531.285.886.285Zm4.438 1.108v-6.546h1.495v1.091h.069c.119-.377.323-.669.613-.873a1.691 1.691 0 0 1 1.002-.311c.085 0 .18.004.285.013.108.005.198.015.269.03v1.418a1.63 1.63 0 0 0-.312-.06 2.854 2.854 0 0 0-.404-.029c-.282 0-.534.061-.759.183-.221.12-.396.286-.524.499a1.403 1.403 0 0 0-.192.737V20.5h-1.542Zm8.377-6.546v1.194h-3.762v-1.194h3.762Zm-2.833-1.568h1.542v6.145c0 .208.032.367.094.478a.506.506 0 0 0 .256.221c.105.04.221.06.349.06.097 0 .185-.007.264-.021.083-.015.145-.027.188-.039l.26 1.206c-.083.028-.201.06-.354.094-.15.034-.335.054-.554.059a2.505 2.505 0 0 1-1.044-.174 1.628 1.628 0 0 1-.737-.605c-.179-.273-.267-.614-.264-1.023v-6.4Zm9.955 8.242c-.653 0-1.214-.144-1.683-.431a2.87 2.87 0 0 1-1.078-1.188c-.25-.509-.375-1.094-.375-1.756 0-.665.128-1.252.383-1.76.256-.511.617-.91 1.083-1.193.469-.287 1.023-.43 1.662-.43.531 0 1.001.097 1.41.293.412.194.74.468.985.823.244.352.383.764.417 1.236h-1.474a1.414 1.414 0 0 0-.426-.789c-.222-.213-.519-.32-.891-.32-.315 0-.592.086-.831.256a1.63 1.63 0 0 0-.558.725c-.131.315-.196.693-.196 1.133 0 .446.065.83.196 1.15.131.319.314.565.55.738.238.17.518.256.839.256a1.4 1.4 0 0 0 .609-.128c.182-.088.334-.215.456-.38.123-.164.206-.364.252-.6h1.474a2.569 2.569 0 0 1-.409 1.231 2.429 2.429 0 0 1-.963.836c-.406.198-.883.298-1.432.298Zm6.926 0c-.639 0-1.193-.141-1.662-.422a2.867 2.867 0 0 1-1.091-1.18c-.255-.506-.383-1.097-.383-1.773 0-.676.128-1.269.383-1.777a2.86 2.86 0 0 1 1.091-1.185c.469-.281 1.023-.422 1.662-.422s1.193.14 1.662.422c.469.281.831.676 1.087 1.185.258.508.387 1.1.387 1.777 0 .676-.129 1.267-.387 1.773-.256.505-.618.899-1.087 1.18-.469.281-1.023.422-1.662.422Zm.009-1.236c.346 0 .636-.095.869-.285.233-.194.406-.452.52-.776.116-.324.174-.685.174-1.082 0-.401-.058-.763-.174-1.087a1.722 1.722 0 0 0-.52-.78c-.233-.193-.523-.29-.869-.29-.356 0-.651.097-.887.29a1.753 1.753 0 0 0-.524.78c-.114.324-.17.686-.17 1.087 0 .397.056.758.17 1.082.117.324.291.582.524.776.236.19.531.285.887.285Zm6.866 1.223c-.515 0-.975-.132-1.381-.396-.406-.265-.727-.648-.963-1.15-.236-.504-.354-1.114-.354-1.833 0-.727.12-1.341.358-1.841.242-.503.567-.882.976-1.138a2.508 2.508 0 0 1 1.368-.388c.383 0 .699.066.946.196.247.128.443.283.588.465.145.179.257.348.337.507h.064v-3.264h1.546V20.5h-1.517v-1.031h-.093c-.08.159-.195.328-.345.507-.151.176-.35.327-.597.452s-.558.187-.933.187Zm.43-1.266c.327 0 .605-.088.835-.264a1.65 1.65 0 0 0 .524-.745c.12-.319.179-.69.179-1.113 0-.423-.059-.79-.179-1.103a1.567 1.567 0 0 0-.519-.73c-.228-.172-.508-.26-.84-.26-.344 0-.631.09-.861.27a1.63 1.63 0 0 0-.52.74 3.123 3.123 0 0 0-.174 1.083c0 .41.058.774.174 1.095.12.319.294.57.525.755.233.181.518.272.856.272Zm7.597 1.279c-.656 0-1.223-.137-1.7-.409a2.764 2.764 0 0 1-1.095-1.168c-.256-.505-.384-1.1-.384-1.785 0-.674.128-1.265.384-1.773.258-.511.619-.91 1.082-1.193.463-.287 1.007-.43 1.632-.43.403 0 .784.065 1.142.195.361.128.679.327.955.597.278.27.497.614.656 1.031.159.415.239.91.239 1.483v.473h-5.366v-1.04h3.887a1.661 1.661 0 0 0-.192-.788 1.397 1.397 0 0 0-.524-.55c-.222-.133-.48-.2-.776-.2-.315 0-.592.077-.831.23-.238.15-.424.35-.558.597a1.715 1.715 0 0 0-.2.805v.908c0 .38.069.707.209.98.139.27.333.477.583.622.25.142.543.213.878.213.225 0 .428-.031.61-.094.182-.065.339-.16.473-.285.133-.125.234-.28.302-.465l1.441.162c-.091.381-.265.713-.52.997-.253.282-.577.5-.972.657a3.73 3.73 0 0 1-1.355.23Z"/><path fill="#fff" d="M512.666 0H390.333v36h122.333V0Z"/><path fill="#1E3145" d="M446.363 20.5v-8.727h1.581v7.402h3.844V20.5h-5.425Zm5.321-8.727h1.786l2.135 3.86h.085l2.135-3.86h1.786l-3.175 5.471V20.5h-1.577v-3.256l-3.175-5.471Zm12.023 8.727v-8.727h1.542v3.264h.064c.08-.16.192-.328.337-.507a1.79 1.79 0 0 1 .588-.465c.247-.13.563-.196.946-.196.506 0 .962.13 1.368.388.409.256.733.635.972 1.138.241.5.362 1.114.362 1.84 0 .72-.118 1.33-.354 1.833-.236.503-.557.886-.963 1.151a2.477 2.477 0 0 1-1.381.396c-.375 0-.686-.062-.933-.187a1.893 1.893 0 0 1-.596-.452 2.957 2.957 0 0 1-.346-.507h-.089V20.5h-1.517Zm1.513-3.273c0 .424.059.794.179 1.113.122.318.296.566.524.745.23.176.508.264.835.264.341 0 .626-.09.856-.272.231-.185.404-.436.52-.755.12-.32.179-.686.179-1.095 0-.406-.058-.767-.174-1.082a1.63 1.63 0 0 0-.52-.742c-.23-.179-.517-.268-.861-.268-.33 0-.609.087-.84.26-.23.173-.404.416-.524.729a3.17 3.17 0 0 0-.174 1.103Zm7.861 3.405c-.415 0-.789-.074-1.121-.221a1.831 1.831 0 0 1-.784-.665c-.19-.293-.286-.654-.286-1.083 0-.369.069-.674.205-.916.136-.241.322-.434.558-.58.236-.144.502-.254.797-.328.298-.076.607-.132.925-.166.383-.04.694-.075.933-.106.239-.034.412-.085.52-.154.111-.07.166-.18.166-.328v-.025c0-.321-.095-.57-.285-.746-.191-.176-.465-.264-.823-.264-.378 0-.677.082-.899.247-.219.165-.366.36-.443.584l-1.441-.205c.114-.398.302-.73.563-.997.261-.27.581-.472.959-.605a3.666 3.666 0 0 1 1.253-.205c.315 0 .629.037.941.111.313.074.598.196.857.367.258.167.466.396.622.686.159.29.239.652.239 1.086V20.5h-1.483v-.9h-.051a1.877 1.877 0 0 1-1.032.891 2.546 2.546 0 0 1-.89.141Zm.4-1.133c.31 0 .578-.061.806-.184.227-.125.402-.29.524-.494.125-.205.187-.428.187-.669v-.771a.717.717 0 0 1-.247.11 3.46 3.46 0 0 1-.383.09c-.142.026-.283.048-.422.068l-.362.051a2.684 2.684 0 0 0-.618.154c-.182.07-.326.17-.431.298a.73.73 0 0 0-.157.486c0 .284.103.498.311.643.207.145.471.218.792.218Zm6.149-7.726V20.5h-1.542v-8.727h1.542Zm3.47 8.859a2.74 2.74 0 0 1-1.12-.221 1.84 1.84 0 0 1-.785-.665c-.19-.293-.285-.654-.285-1.083 0-.369.068-.674.204-.916.137-.241.323-.434.559-.58.236-.144.501-.254.797-.328a6.47 6.47 0 0 1 .924-.166c.384-.04.695-.075.934-.106.238-.034.411-.085.519-.154.111-.07.167-.18.167-.328v-.025c0-.321-.096-.57-.286-.746-.19-.176-.464-.264-.822-.264-.378 0-.678.082-.899.247-.219.165-.367.36-.444.584l-1.44-.205c.114-.398.301-.73.563-.997.261-.27.58-.472.958-.605a3.67 3.67 0 0 1 1.253-.205c.316 0 .629.037.942.111.312.074.598.196.856.367.259.167.466.396.623.686.159.29.238.652.238 1.086V20.5h-1.483v-.9h-.051a1.892 1.892 0 0 1-.396.512 1.9 1.9 0 0 1-.635.379c-.253.094-.55.141-.891.141Zm.401-1.133c.31 0 .578-.061.805-.184.228-.125.402-.29.524-.494a1.26 1.26 0 0 0 .188-.669v-.771a.726.726 0 0 1-.247.11 3.536 3.536 0 0 1-.384.09c-.142.026-.282.048-.422.068l-.362.051c-.23.032-.436.083-.618.154-.182.07-.325.17-.43.298a.73.73 0 0 0-.158.486c0 .284.104.498.311.643.208.145.472.218.793.218Zm6.149-2.834V20.5h-1.543v-6.546h1.475v1.113h.077c.15-.367.39-.658.72-.874.332-.216.743-.324 1.231-.324.452 0 .845.097 1.181.29.338.193.599.473.784.84.187.366.28.81.277 1.333V20.5h-1.543v-3.929c0-.438-.114-.78-.341-1.027-.224-.247-.535-.37-.933-.37-.27 0-.51.059-.72.178a1.234 1.234 0 0 0-.49.507c-.117.222-.175.49-.175.806Zm8.625 3.963c-.653 0-1.214-.144-1.683-.431a2.864 2.864 0 0 1-1.078-1.188c-.25-.509-.375-1.094-.375-1.756 0-.665.127-1.252.383-1.76.256-.511.617-.91 1.083-1.193.468-.287 1.022-.43 1.661-.43.532 0 1.002.097 1.411.293.412.194.74.468.984.823.245.352.384.764.418 1.236h-1.474a1.41 1.41 0 0 0-.427-.789c-.221-.213-.518-.32-.89-.32a1.39 1.39 0 0 0-.831.256 1.63 1.63 0 0 0-.558.725c-.131.315-.196.693-.196 1.133 0 .446.065.83.196 1.15.13.319.314.565.549.738.239.17.519.256.84.256a1.4 1.4 0 0 0 .609-.128c.182-.088.334-.215.456-.38.122-.164.206-.364.252-.6h1.474a2.569 2.569 0 0 1-.409 1.231 2.429 2.429 0 0 1-.963.836c-.406.198-.884.298-1.432.298Zm6.968 0c-.656 0-1.223-.137-1.7-.409a2.776 2.776 0 0 1-1.095-1.168c-.256-.505-.384-1.1-.384-1.785 0-.674.128-1.265.384-1.773.258-.511.619-.91 1.082-1.193.463-.287 1.007-.43 1.632-.43a3.3 3.3 0 0 1 1.142.195c.361.128.679.327.955.597.278.27.497.614.656 1.031.159.415.239.91.239 1.483v.473h-5.365v-1.04h3.886a1.661 1.661 0 0 0-.192-.788 1.39 1.39 0 0 0-.524-.55c-.221-.133-.48-.2-.775-.2a1.5 1.5 0 0 0-.831.23c-.239.15-.425.35-.558.597a1.715 1.715 0 0 0-.201.805v.908c0 .38.07.707.209.98.139.27.334.477.584.622.25.142.542.213.878.213.224 0 .427-.031.609-.094.182-.065.34-.16.473-.285.134-.125.234-.28.303-.465l1.44.162c-.091.381-.264.713-.52.997-.253.282-.577.5-.971.657-.395.153-.847.23-1.356.23Z"/><path fill="#fff" d="M635 0H512.667v36H635V0Z"/><path fill="#1E3145" d="M573.167 14.717h-1.594a1.978 1.978 0 0 0-.251-.694 1.864 1.864 0 0 0-1.078-.84 2.43 2.43 0 0 0-.746-.11c-.474 0-.895.119-1.261.357-.367.236-.654.583-.861 1.04-.207.455-.311 1.01-.311 1.666 0 .668.104 1.23.311 1.688.21.454.497.798.861 1.031.366.23.785.345 1.257.345.261 0 .506-.034.733-.102a2.01 2.01 0 0 0 .618-.311 1.89 1.89 0 0 0 .728-1.185l1.594.009a3.415 3.415 0 0 1-.388 1.167 3.444 3.444 0 0 1-.771.963 3.55 3.55 0 0 1-1.116.648 4.15 4.15 0 0 1-1.419.23c-.767 0-1.452-.177-2.054-.532-.603-.355-1.077-.868-1.424-1.539-.346-.67-.52-1.474-.52-2.412 0-.94.175-1.744.525-2.412.349-.67.825-1.183 1.427-1.538.602-.355 1.284-.533 2.046-.533.485 0 .937.069 1.355.205.417.136.79.337 1.116.6.327.262.595.583.806.964.213.378.352.81.417 1.295Zm.851-2.944h1.786l2.135 3.86h.085l2.135-3.86h1.786l-3.175 5.471V20.5h-1.577v-3.256l-3.175-5.471Zm12.023 8.727v-8.727h1.542v3.264h.064c.08-.16.192-.328.337-.507a1.79 1.79 0 0 1 .588-.465c.247-.13.563-.196.946-.196.506 0 .962.13 1.368.388.409.256.733.635.972 1.138.241.5.362 1.114.362 1.84 0 .72-.118 1.33-.354 1.833-.236.503-.557.886-.963 1.151a2.477 2.477 0 0 1-1.381.396c-.375 0-.686-.062-.933-.187a1.893 1.893 0 0 1-.596-.452 2.957 2.957 0 0 1-.346-.507h-.089V20.5h-1.517Zm1.513-3.273c0 .424.059.794.179 1.113.122.318.296.566.524.745.23.176.508.264.835.264.341 0 .626-.09.856-.272.231-.185.404-.436.52-.755.12-.32.179-.686.179-1.095 0-.406-.058-.767-.174-1.082a1.63 1.63 0 0 0-.52-.742c-.23-.179-.517-.268-.861-.268-.33 0-.609.087-.84.26-.23.173-.404.416-.524.729a3.17 3.17 0 0 0-.174 1.103Zm7.861 3.405c-.415 0-.789-.074-1.121-.221a1.831 1.831 0 0 1-.784-.665c-.19-.293-.286-.654-.286-1.083 0-.369.069-.674.205-.916.136-.241.322-.434.558-.58.236-.144.502-.254.797-.328.298-.076.607-.132.925-.166.383-.04.694-.075.933-.106.239-.034.412-.085.52-.154.111-.07.166-.18.166-.328v-.025c0-.321-.095-.57-.285-.746-.191-.176-.465-.264-.823-.264-.378 0-.677.082-.899.247-.219.165-.366.36-.443.584l-1.441-.205c.114-.398.302-.73.563-.997.261-.27.581-.472.959-.605a3.666 3.666 0 0 1 1.253-.205c.315 0 .629.037.941.111.313.074.598.196.857.367.258.167.466.396.622.686.159.29.239.652.239 1.086V20.5h-1.483v-.9h-.051a1.877 1.877 0 0 1-1.032.891 2.546 2.546 0 0 1-.89.141Zm.4-1.133c.31 0 .578-.061.806-.184.227-.125.402-.29.524-.494.125-.205.187-.428.187-.669v-.771a.717.717 0 0 1-.247.11 3.46 3.46 0 0 1-.383.09c-.142.026-.283.048-.422.068l-.362.051a2.684 2.684 0 0 0-.618.154c-.182.07-.326.17-.431.298a.73.73 0 0 0-.157.486c0 .284.103.498.311.643.207.145.471.218.792.218Zm6.149-7.726V20.5h-1.542v-8.727h1.542Zm3.47 8.859a2.74 2.74 0 0 1-1.12-.221 1.84 1.84 0 0 1-.785-.665c-.19-.293-.285-.654-.285-1.083 0-.369.068-.674.204-.916.137-.241.323-.434.559-.58.236-.144.501-.254.797-.328a6.47 6.47 0 0 1 .924-.166c.384-.04.695-.075.934-.106.238-.034.411-.085.519-.154.111-.07.167-.18.167-.328v-.025c0-.321-.096-.57-.286-.746-.19-.176-.464-.264-.822-.264-.378 0-.678.082-.899.247-.219.165-.367.36-.444.584l-1.44-.205c.114-.398.301-.73.563-.997.261-.27.58-.472.958-.605a3.67 3.67 0 0 1 1.253-.205c.315 0 .629.037.942.111.312.074.598.196.856.367.259.167.466.396.623.686.159.29.238.652.238 1.086V20.5h-1.483v-.9h-.051a1.892 1.892 0 0 1-.396.512 1.9 1.9 0 0 1-.635.379c-.253.094-.55.141-.891.141Zm.401-1.133c.31 0 .578-.061.805-.184.228-.125.402-.29.524-.494a1.26 1.26 0 0 0 .188-.669v-.771a.726.726 0 0 1-.247.11 3.536 3.536 0 0 1-.384.09c-.142.026-.282.048-.422.068l-.362.051c-.23.032-.436.083-.618.154-.182.07-.325.17-.43.298a.73.73 0 0 0-.158.486c0 .284.104.498.311.643.208.145.472.218.793.218Zm6.149-2.834V20.5h-1.543v-6.546h1.475v1.113h.077c.15-.367.39-.658.72-.874.332-.216.743-.324 1.231-.324.452 0 .845.097 1.181.29.338.193.599.473.784.84.187.366.28.81.277 1.333V20.5h-1.543v-3.929c0-.438-.114-.78-.341-1.027-.224-.247-.535-.37-.933-.37-.27 0-.51.059-.72.178a1.234 1.234 0 0 0-.49.507c-.117.222-.175.49-.175.806Zm8.625 3.963c-.653 0-1.214-.144-1.683-.431a2.864 2.864 0 0 1-1.078-1.188c-.25-.509-.375-1.094-.375-1.756 0-.665.127-1.252.383-1.76.256-.511.617-.91 1.083-1.193.468-.287 1.022-.43 1.661-.43.532 0 1.002.097 1.411.293.412.194.74.468.984.823.245.352.384.764.418 1.236h-1.474a1.41 1.41 0 0 0-.427-.789c-.221-.213-.518-.32-.89-.32a1.39 1.39 0 0 0-.831.256 1.63 1.63 0 0 0-.558.725c-.131.315-.196.693-.196 1.133 0 .446.065.83.196 1.15.13.319.313.565.549.738.239.17.519.256.84.256a1.4 1.4 0 0 0 .609-.128c.182-.088.334-.215.456-.38.122-.164.206-.364.252-.6h1.474a2.569 2.569 0 0 1-.409 1.231 2.429 2.429 0 0 1-.963.836c-.406.198-.884.298-1.432.298Zm6.968 0c-.656 0-1.223-.137-1.7-.409a2.776 2.776 0 0 1-1.095-1.168c-.256-.505-.384-1.1-.384-1.785 0-.674.128-1.265.384-1.773.258-.511.619-.91 1.082-1.193.463-.287 1.007-.43 1.632-.43a3.3 3.3 0 0 1 1.142.195c.361.128.679.327.955.597.278.27.497.614.656 1.031.159.415.239.91.239 1.483v.473h-5.365v-1.04h3.886a1.661 1.661 0 0 0-.192-.788 1.39 1.39 0 0 0-.524-.55c-.221-.133-.48-.2-.775-.2a1.5 1.5 0 0 0-.831.23c-.239.15-.425.35-.558.597a1.715 1.715 0 0 0-.201.805v.908c0 .38.07.707.209.98.139.27.334.477.584.622.25.142.542.213.878.213.224 0 .427-.031.609-.094.182-.065.34-.16.473-.285.134-.125.234-.28.303-.465l1.44.162c-.091.381-.264.713-.52.997-.253.282-.577.5-.971.657-.395.153-.847.23-1.356.23Z"/><path fill="#fff" d="M757.333 0H635v36h122.333V0Z"/><path fill="#1E3145" d="m704.338 11.773 2.272 6.869h.089l2.267-6.87h1.739l-3.077 8.728h-1.952l-3.072-8.727h1.734Zm8.652 8.859c-.415 0-.788-.074-1.121-.221a1.837 1.837 0 0 1-.784-.665c-.19-.293-.285-.654-.285-1.083 0-.369.068-.674.204-.916.137-.241.323-.434.558-.58.236-.144.502-.254.797-.328.299-.076.607-.132.925-.166.383-.04.695-.075.933-.106.239-.034.412-.085.52-.154.111-.07.166-.18.166-.328v-.025c0-.321-.095-.57-.285-.746-.191-.176-.465-.264-.823-.264-.378 0-.677.082-.899.247-.219.165-.366.36-.443.584l-1.44-.205c.113-.398.301-.73.562-.997a2.45 2.45 0 0 1 .959-.605 3.666 3.666 0 0 1 1.253-.205c.315 0 .629.037.942.111.312.074.598.196.856.367.259.167.466.396.622.686.159.29.239.652.239 1.086V20.5h-1.483v-.9h-.051a1.892 1.892 0 0 1-.396.512c-.168.156-.38.283-.635.379-.253.094-.55.141-.891.141Zm.401-1.133c.309 0 .578-.061.805-.184.227-.125.402-.29.524-.494a1.26 1.26 0 0 0 .188-.669v-.771a.733.733 0 0 1-.248.11 3.46 3.46 0 0 1-.383.09c-.142.026-.283.048-.422.068l-.362.051c-.23.032-.436.083-.618.154-.182.07-.325.17-.431.298a.73.73 0 0 0-.157.486c0 .284.104.498.311.643.207.145.471.218.793.218Zm4.606 1.001v-6.546h1.496v1.091h.068a1.63 1.63 0 0 1 .614-.873 1.686 1.686 0 0 1 1.001-.311c.085 0 .18.004.286.013.107.005.197.015.268.03v1.418a1.616 1.616 0 0 0-.311-.06 2.857 2.857 0 0 0-.405-.029c-.281 0-.534.061-.758.183-.222.12-.397.286-.525.499a1.412 1.412 0 0 0-.191.737V20.5h-1.543Zm4.758 0v-6.546h1.542V20.5h-1.542Zm.775-7.474a.899.899 0 0 1-.63-.243.783.783 0 0 1-.264-.593c0-.233.088-.43.264-.592a.89.89 0 0 1 .63-.247.88.88 0 0 1 .631.247c.176.162.264.36.264.592 0 .23-.088.428-.264.593a.89.89 0 0 1-.631.243Zm4.237 7.606a2.74 2.74 0 0 1-1.12-.221 1.84 1.84 0 0 1-.785-.665c-.19-.293-.285-.654-.285-1.083 0-.369.068-.674.204-.916.137-.241.323-.434.559-.58.236-.144.501-.254.797-.328a6.47 6.47 0 0 1 .924-.166c.384-.04.695-.075.934-.106.238-.034.411-.085.519-.154.111-.07.167-.18.167-.328v-.025c0-.321-.096-.57-.286-.746-.19-.176-.464-.264-.822-.264-.378 0-.678.082-.899.247-.219.165-.367.36-.444.584l-1.44-.205c.114-.398.301-.73.563-.997.261-.27.58-.472.958-.605a3.67 3.67 0 0 1 1.253-.205c.316 0 .629.037.942.111.312.074.598.196.856.367.259.167.466.396.623.686.159.29.238.652.238 1.086V20.5h-1.483v-.9h-.051a1.892 1.892 0 0 1-.396.512 1.9 1.9 0 0 1-.635.379c-.253.094-.55.141-.891.141Zm.401-1.133c.31 0 .578-.061.805-.184.228-.125.402-.29.524-.494a1.26 1.26 0 0 0 .188-.669v-.771a.726.726 0 0 1-.247.11 3.536 3.536 0 0 1-.384.09c-.142.026-.282.048-.422.068l-.362.051c-.23.032-.436.083-.618.154-.182.07-.325.17-.43.298a.73.73 0 0 0-.158.486c0 .284.104.498.311.643.208.145.472.218.793.218Zm6.149-2.834V20.5h-1.543v-6.546h1.475v1.113h.077c.15-.367.39-.658.72-.874.332-.216.743-.324 1.231-.324.452 0 .845.097 1.181.29.338.193.599.473.784.84.187.366.28.81.277 1.333V20.5h-1.543v-3.929c0-.438-.114-.78-.341-1.027-.224-.247-.535-.37-.933-.37-.27 0-.51.059-.72.178a1.234 1.234 0 0 0-.49.507c-.117.222-.175.49-.175.806Zm8.625 3.963c-.653 0-1.214-.144-1.683-.431a2.864 2.864 0 0 1-1.078-1.188c-.25-.509-.375-1.094-.375-1.756 0-.665.127-1.252.383-1.76.256-.511.617-.91 1.083-1.193.468-.287 1.022-.43 1.661-.43.532 0 1.002.097 1.411.293.412.194.74.468.984.823.245.352.384.764.418 1.236h-1.474a1.41 1.41 0 0 0-.427-.789c-.221-.213-.518-.32-.89-.32a1.39 1.39 0 0 0-.831.256 1.63 1.63 0 0 0-.558.725c-.131.315-.196.693-.196 1.133 0 .446.065.83.196 1.15.13.319.314.565.549.738.239.17.519.256.84.256a1.4 1.4 0 0 0 .609-.128c.182-.088.334-.215.456-.38.122-.164.206-.364.252-.6h1.474a2.569 2.569 0 0 1-.409 1.231 2.429 2.429 0 0 1-.963.836c-.406.198-.884.298-1.432.298Zm6.968 0c-.656 0-1.223-.137-1.7-.409a2.776 2.776 0 0 1-1.095-1.168c-.256-.505-.384-1.1-.384-1.785 0-.674.128-1.265.384-1.773.258-.511.619-.91 1.082-1.193.463-.287 1.007-.43 1.632-.43a3.3 3.3 0 0 1 1.142.195c.361.128.679.327.955.597.278.27.497.614.656 1.031.159.415.239.91.239 1.483v.473h-5.365v-1.04h3.886a1.661 1.661 0 0 0-.192-.788 1.39 1.39 0 0 0-.524-.55c-.221-.133-.48-.2-.775-.2a1.5 1.5 0 0 0-.831.23c-.239.15-.425.35-.558.597a1.715 1.715 0 0 0-.201.805v.908c0 .38.07.707.209.98.139.27.334.477.584.622.25.142.542.213.878.213.224 0 .427-.031.609-.094.182-.065.34-.16.473-.285.134-.125.234-.28.303-.465l1.44.162c-.091.381-.264.713-.52.997-.253.282-.577.5-.971.657-.395.153-.847.23-1.356.23Z"/><path fill="#fff" d="M887.333 0h-130v36h130V0Z"/><path fill="#1E3145" d="M811.451 20.5h-1.687l3.072-8.727h1.952l3.077 8.727h-1.688l-2.331-6.938h-.068l-2.327 6.938Zm.056-3.422h4.602v1.27h-4.602v-1.27Zm9.669 3.537c-.515 0-.975-.132-1.381-.396-.406-.265-.727-.648-.963-1.15-.236-.504-.354-1.114-.354-1.833 0-.727.12-1.341.358-1.841.242-.503.567-.882.976-1.138a2.508 2.508 0 0 1 1.368-.388c.383 0 .699.066.946.196.247.128.443.283.588.465.145.179.257.348.337.507h.064v-3.264h1.546V20.5h-1.517v-1.031h-.093c-.08.159-.195.328-.345.507-.151.176-.35.327-.597.452s-.558.187-.933.187Zm.43-1.266c.327 0 .605-.088.835-.264a1.65 1.65 0 0 0 .524-.745c.12-.319.179-.69.179-1.113 0-.423-.059-.79-.179-1.103a1.567 1.567 0 0 0-.519-.73c-.228-.172-.508-.26-.84-.26-.344 0-.631.09-.861.27a1.63 1.63 0 0 0-.52.74 3.123 3.123 0 0 0-.174 1.083c0 .41.058.774.174 1.095.12.319.294.57.525.755.233.181.518.272.856.272Zm4.699-5.395h1.543v6.921c0 .472-.09.861-.269 1.168a1.654 1.654 0 0 1-.775.686c-.338.15-.749.226-1.232.226-.056 0-.109-.002-.157-.005-.049 0-.101-.001-.158-.004v-1.257c.043.003.081.004.115.004.034.003.07.004.107.004.295 0 .507-.072.635-.217.127-.142.191-.351.191-.626v-6.9Zm.767-.928a.907.907 0 0 1-.635-.243.79.79 0 0 1-.26-.593c0-.233.087-.43.26-.592a.898.898 0 0 1 .635-.247c.245 0 .453.082.627.247.176.162.264.36.264.592 0 .23-.088.428-.264.593a.886.886 0 0 1-.627.243Zm6.534 4.721v-3.793h1.543V20.5h-1.496v-1.163h-.068a1.972 1.972 0 0 1-.729.899c-.335.233-.748.349-1.24.349-.429 0-.808-.095-1.138-.285a1.99 1.99 0 0 1-.767-.84c-.184-.37-.277-.815-.277-1.338v-4.168h1.543v3.93c0 .414.113.744.341.988.227.244.525.367.895.367.227 0 .447-.056.66-.167a1.34 1.34 0 0 0 .524-.494c.139-.221.209-.498.209-.83Zm8.302-2.062-1.406.153a1.125 1.125 0 0 0-.209-.4 1.03 1.03 0 0 0-.392-.303 1.427 1.427 0 0 0-.605-.115c-.321 0-.591.07-.81.209-.215.139-.322.32-.319.54a.566.566 0 0 0 .209.465c.145.12.383.218.716.294l1.116.239c.619.134 1.08.345 1.381.635.304.29.457.669.46 1.138a1.785 1.785 0 0 1-.362 1.09c-.236.313-.564.557-.985.734-.42.176-.903.264-1.449.264-.801 0-1.446-.168-1.934-.503a2.021 2.021 0 0 1-.874-1.41l1.504-.145c.069.295.214.518.435.669.222.15.51.226.865.226.367 0 .661-.076.882-.226.225-.15.337-.337.337-.559a.58.58 0 0 0-.217-.464c-.142-.122-.364-.216-.665-.281l-1.117-.235c-.627-.13-1.092-.35-1.393-.66-.301-.313-.45-.708-.448-1.185a1.68 1.68 0 0 1 .329-1.048c.224-.299.535-.529.933-.69.4-.165.862-.248 1.385-.248.767 0 1.371.164 1.811.49.443.327.717.769.822 1.326Zm4.681-1.73v1.193h-3.762v-1.194h3.762Zm-2.833-1.569h1.542v6.145c0 .208.031.367.094.478a.506.506 0 0 0 .256.221c.105.04.221.06.349.06.097 0 .185-.007.264-.021.083-.015.145-.027.188-.039l.26 1.206c-.083.028-.201.06-.354.094a2.856 2.856 0 0 1-.554.059 2.505 2.505 0 0 1-1.044-.174 1.628 1.628 0 0 1-.737-.605c-.179-.273-.267-.614-.264-1.023v-6.4Zm4.124 8.114v-6.546h1.474v1.113h.077c.136-.375.362-.668.677-.878.316-.213.692-.32 1.129-.32.444 0 .817.108 1.121.324.307.213.523.504.648.874h.068c.145-.364.389-.654.733-.87.347-.218.757-.328 1.232-.328.602 0 1.093.19 1.474.571.381.381.571.936.571 1.667V20.5h-1.547v-4.155c0-.406-.108-.703-.324-.89a1.156 1.156 0 0 0-.792-.286c-.372 0-.664.117-.874.35-.207.23-.311.53-.311.899V20.5h-1.513v-4.219c0-.338-.102-.608-.307-.81-.201-.201-.465-.302-.792-.302-.222 0-.423.057-.605.17a1.19 1.19 0 0 0-.435.473 1.477 1.477 0 0 0-.162.708v3.98h-1.542Zm13.667.128c-.656 0-1.223-.137-1.7-.409a2.773 2.773 0 0 1-1.096-1.168c-.255-.505-.383-1.1-.383-1.785 0-.674.128-1.265.383-1.773.259-.511.62-.91 1.083-1.193.463-.287 1.007-.43 1.632-.43.403 0 .784.065 1.142.195.361.128.679.327.954.597.279.27.498.614.657 1.031.159.415.238.91.238 1.483v.473h-5.365v-1.04h3.887a1.661 1.661 0 0 0-.192-.788 1.397 1.397 0 0 0-.524-.55c-.222-.133-.48-.2-.776-.2-.315 0-.592.077-.831.23-.238.15-.425.35-.558.597a1.703 1.703 0 0 0-.2.805v.908c0 .38.069.707.208.98.14.27.334.477.584.622.25.142.543.213.878.213.225 0 .428-.031.609-.094.182-.065.34-.16.473-.285.134-.125.235-.28.303-.465l1.44.162c-.091.381-.264.713-.52.997-.252.282-.576.5-.971.657-.395.153-.847.23-1.355.23Zm5.758-3.963V20.5h-1.543v-6.546h1.475v1.113h.076c.151-.367.391-.658.721-.874.332-.216.743-.324 1.231-.324.452 0 .845.097 1.181.29.338.193.599.473.784.84.187.366.279.81.277 1.333V20.5h-1.543v-3.929c0-.438-.114-.78-.341-1.027-.224-.247-.535-.37-.933-.37-.27 0-.51.059-.72.178a1.234 1.234 0 0 0-.49.507c-.117.222-.175.49-.175.806Zm9.038-2.71v1.193h-3.762v-1.194h3.762Zm-2.834-1.569h1.543v6.145c0 .208.031.367.094.478.065.107.15.181.256.221.105.04.221.06.349.06.097 0 .185-.007.264-.021.083-.015.145-.027.188-.039l.26 1.206c-.083.028-.201.06-.354.094a2.856 2.856 0 0 1-.554.059 2.505 2.505 0 0 1-1.044-.174 1.628 1.628 0 0 1-.737-.605c-.179-.273-.267-.614-.265-1.023v-6.4Zm9.204 3.299-1.406.153a1.141 1.141 0 0 0-.209-.4 1.038 1.038 0 0 0-.392-.303 1.43 1.43 0 0 0-.605-.115c-.321 0-.591.07-.81.209-.216.139-.322.32-.319.54a.565.565 0 0 0 .208.465c.145.12.384.218.716.294l1.117.239c.619.134 1.079.345 1.38.635.304.29.458.669.461 1.138a1.78 1.78 0 0 1-.363 1.09c-.235.313-.564.557-.984.734-.42.176-.903.264-1.449.264-.801 0-1.446-.168-1.935-.503a2.024 2.024 0 0 1-.873-1.41l1.504-.145c.068.295.213.518.435.669.221.15.51.226.865.226.366 0 .66-.076.882-.226.224-.15.337-.337.337-.559a.582.582 0 0 0-.218-.464c-.142-.122-.363-.216-.664-.281l-1.117-.235c-.628-.13-1.092-.35-1.393-.66-.302-.313-.451-.708-.448-1.185a1.68 1.68 0 0 1 .328-1.048c.225-.299.536-.529.934-.69.4-.165.862-.248 1.384-.248.768 0 1.371.164 1.812.49.443.327.717.769.822 1.326Z"/><path fill="#fff" d="M1009.67 0H887.333v36h122.337V0Z"/><path fill="#1E3145" d="M906.632 20.5h-1.687l3.072-8.727h1.952l3.077 8.727h-1.688l-2.331-6.938h-.068l-2.327 6.938Zm.056-3.422h4.602v1.27h-4.602v-1.27Zm9.669 3.537c-.515 0-.975-.132-1.381-.396-.406-.265-.727-.648-.963-1.15-.236-.504-.354-1.114-.354-1.833 0-.727.12-1.341.358-1.841.242-.503.567-.882.976-1.138a2.508 2.508 0 0 1 1.368-.388c.383 0 .699.066.946.196.247.128.443.283.588.465.145.179.257.348.337.507h.064v-3.264h1.546V20.5h-1.517v-1.031h-.093c-.08.159-.195.328-.345.507-.151.176-.35.327-.597.452s-.558.187-.933.187Zm.43-1.266c.327 0 .605-.088.835-.264a1.65 1.65 0 0 0 .524-.745c.12-.319.179-.69.179-1.113 0-.423-.059-.79-.179-1.103a1.567 1.567 0 0 0-.519-.73c-.228-.172-.508-.26-.84-.26-.344 0-.631.09-.861.27a1.63 1.63 0 0 0-.52.74 3.123 3.123 0 0 0-.174 1.083c0 .41.058.774.174 1.095.12.319.294.57.525.755.232.181.518.272.856.272Zm4.699-5.395h1.543v6.921c0 .472-.09.861-.269 1.168a1.654 1.654 0 0 1-.775.686c-.338.15-.749.226-1.232.226-.056 0-.109-.002-.157-.005-.049 0-.101-.001-.158-.004v-1.257c.043.003.081.004.115.004.034.003.07.004.107.004.295 0 .507-.072.635-.217.127-.142.191-.351.191-.626v-6.9Zm.767-.928a.907.907 0 0 1-.635-.243.79.79 0 0 1-.26-.593c0-.233.087-.43.26-.592a.898.898 0 0 1 .635-.247c.245 0 .453.082.627.247.176.162.264.36.264.592 0 .23-.088.428-.264.593a.886.886 0 0 1-.627.243Zm6.534 4.721v-3.793h1.543V20.5h-1.496v-1.163h-.068a1.972 1.972 0 0 1-.729.899c-.335.233-.749.349-1.24.349-.429 0-.808-.095-1.138-.285a1.99 1.99 0 0 1-.767-.84c-.184-.37-.277-.815-.277-1.338v-4.168h1.543v3.93c0 .414.113.744.341.988.227.244.525.367.895.367.227 0 .447-.056.66-.167a1.34 1.34 0 0 0 .524-.494c.139-.221.209-.498.209-.83Zm8.302-2.062-1.406.153a1.125 1.125 0 0 0-.209-.4 1.03 1.03 0 0 0-.392-.303 1.427 1.427 0 0 0-.605-.115c-.321 0-.591.07-.81.209-.216.139-.322.32-.319.54a.566.566 0 0 0 .209.465c.144.12.383.218.716.294l1.116.239c.619.134 1.08.345 1.381.635.304.29.457.669.46 1.138a1.785 1.785 0 0 1-.362 1.09c-.236.313-.564.557-.985.734-.42.176-.903.264-1.449.264-.801 0-1.446-.168-1.934-.503a2.021 2.021 0 0 1-.874-1.41l1.504-.145c.069.295.214.518.435.669.222.15.51.226.865.226.367 0 .661-.076.882-.226.225-.15.337-.337.337-.559a.584.584 0 0 0-.217-.464c-.142-.122-.364-.216-.665-.281l-1.117-.235c-.627-.13-1.092-.35-1.393-.66-.301-.313-.45-.708-.448-1.185a1.68 1.68 0 0 1 .329-1.048c.224-.299.535-.529.933-.69.4-.165.862-.248 1.385-.248.767 0 1.37.164 1.811.49.443.327.717.769.822 1.326Zm4.681-1.73v1.193h-3.762v-1.194h3.762Zm-2.833-1.569h1.542v6.145c0 .208.031.367.094.478a.506.506 0 0 0 .256.221c.105.04.221.06.349.06.097 0 .185-.007.264-.021.083-.015.145-.027.188-.039l.26 1.206c-.083.028-.201.06-.354.094a2.856 2.856 0 0 1-.554.059 2.505 2.505 0 0 1-1.044-.174 1.628 1.628 0 0 1-.737-.605c-.179-.273-.267-.614-.264-1.023v-6.4Zm6.951 8.242c-.656 0-1.223-.137-1.7-.409a2.773 2.773 0 0 1-1.096-1.168c-.255-.505-.383-1.1-.383-1.785 0-.674.128-1.265.383-1.773.259-.511.62-.91 1.083-1.193.463-.287 1.007-.43 1.632-.43.403 0 .784.065 1.142.195.361.128.679.327.955.597.278.27.497.614.656 1.031.159.415.238.91.238 1.483v.473h-5.365v-1.04h3.887a1.661 1.661 0 0 0-.192-.788 1.397 1.397 0 0 0-.524-.55c-.222-.133-.48-.2-.776-.2-.315 0-.592.077-.831.23-.238.15-.424.35-.558.597a1.715 1.715 0 0 0-.2.805v.908c0 .38.069.707.209.98.139.27.333.477.583.622.25.142.543.213.878.213.225 0 .428-.031.61-.094.181-.065.339-.16.473-.285.133-.125.234-.28.302-.465l1.441.162c-.091.381-.265.713-.52.997-.253.282-.577.5-.972.657-.395.153-.847.23-1.355.23Zm6.644-.013c-.514 0-.974-.132-1.38-.396-.406-.265-.727-.648-.963-1.15-.236-.504-.354-1.114-.354-1.833 0-.727.119-1.341.358-1.841.241-.503.567-.882.976-1.138a2.508 2.508 0 0 1 1.368-.388c.383 0 .699.066.946.196.247.128.443.283.588.465.145.179.257.348.336.507h.064v-3.264h1.547V20.5h-1.517v-1.031h-.094a2.594 2.594 0 0 1-.345.507c-.15.176-.349.327-.596.452s-.559.187-.934.187Zm.431-1.266c.327 0 .605-.088.835-.264a1.65 1.65 0 0 0 .524-.745c.12-.319.179-.69.179-1.113 0-.423-.059-.79-.179-1.103a1.569 1.569 0 0 0-.52-.73c-.227-.172-.507-.26-.839-.26-.344 0-.631.09-.861.27a1.63 1.63 0 0 0-.52.74 3.123 3.123 0 0 0-.175 1.083c0 .41.059.774.175 1.095.119.319.294.57.524.755.233.181.519.272.857.272Zm7.744 1.151v-8.727h1.542v3.264h.064c.08-.16.192-.328.337-.507a1.79 1.79 0 0 1 .588-.465c.247-.13.563-.196.946-.196.506 0 .962.13 1.368.388.409.256.733.635.972 1.138.241.5.362 1.114.362 1.84 0 .72-.118 1.33-.354 1.833-.236.503-.557.886-.963 1.151a2.477 2.477 0 0 1-1.381.396c-.375 0-.686-.062-.933-.187a1.893 1.893 0 0 1-.596-.452 2.957 2.957 0 0 1-.346-.507h-.089V20.5h-1.517Zm1.513-3.273c0 .424.059.794.179 1.113.122.318.296.566.524.745.23.176.508.264.835.264.341 0 .626-.09.856-.272.231-.185.404-.436.52-.755.12-.32.179-.686.179-1.095 0-.406-.058-.767-.174-1.082a1.63 1.63 0 0 0-.52-.742c-.23-.179-.517-.268-.861-.268-.33 0-.609.087-.84.26-.23.173-.404.416-.524.729a3.17 3.17 0 0 0-.174 1.103Zm7.861 3.405c-.415 0-.789-.074-1.121-.221a1.831 1.831 0 0 1-.784-.665c-.19-.293-.286-.654-.286-1.083 0-.369.069-.674.205-.916.136-.241.322-.434.558-.58.236-.144.502-.254.797-.328.298-.076.607-.132.925-.166.383-.04.694-.075.933-.106.239-.034.412-.085.52-.154.111-.07.166-.18.166-.328v-.025c0-.321-.095-.57-.285-.746-.191-.176-.465-.264-.823-.264-.378 0-.677.082-.899.247-.219.165-.366.36-.443.584l-1.441-.205c.114-.398.302-.73.563-.997.261-.27.581-.472.959-.605a3.666 3.666 0 0 1 1.253-.205c.315 0 .629.037.941.111.313.074.598.196.857.367.258.167.466.396.622.686.159.29.239.652.239 1.086V20.5h-1.483v-.9h-.051a1.877 1.877 0 0 1-1.032.891 2.546 2.546 0 0 1-.89.141Zm.4-1.133c.31 0 .578-.061.806-.184.227-.125.402-.29.524-.494.125-.205.187-.428.187-.669v-.771a.717.717 0 0 1-.247.11 3.46 3.46 0 0 1-.383.09c-.142.026-.283.048-.422.068l-.362.051a2.684 2.684 0 0 0-.618.154c-.182.07-.326.17-.431.298a.73.73 0 0 0-.157.486c0 .284.103.498.311.643.207.145.471.218.792.218Zm6.149-7.726V20.5h-1.542v-8.727h1.542Zm3.47 8.859a2.74 2.74 0 0 1-1.12-.221 1.84 1.84 0 0 1-.785-.665c-.19-.293-.285-.654-.285-1.083 0-.369.068-.674.204-.916.137-.241.323-.434.559-.58.236-.144.501-.254.797-.328a6.47 6.47 0 0 1 .924-.166c.384-.04.695-.075.934-.106.238-.034.411-.085.519-.154.111-.07.167-.18.167-.328v-.025c0-.321-.096-.57-.286-.746-.19-.176-.464-.264-.822-.264-.378 0-.678.082-.899.247-.219.165-.367.36-.444.584l-1.44-.205c.114-.398.301-.73.563-.997.261-.27.58-.472.958-.605a3.67 3.67 0 0 1 1.253-.205c.316 0 .629.037.942.111.312.074.598.196.856.367.259.167.466.396.623.686.159.29.238.652.238 1.086V20.5h-1.483v-.9h-.051a1.892 1.892 0 0 1-.396.512 1.9 1.9 0 0 1-.635.379c-.253.094-.55.141-.891.141Zm.401-1.133c.31 0 .578-.061.805-.184.228-.125.402-.29.524-.494a1.26 1.26 0 0 0 .188-.669v-.771a.726.726 0 0 1-.247.11 3.536 3.536 0 0 1-.384.09c-.142.026-.282.048-.422.068l-.362.051c-.23.032-.436.083-.618.154-.182.07-.325.17-.43.298a.73.73 0 0 0-.158.486c0 .284.104.498.311.643.208.145.472.218.793.218Zm6.149-2.834V20.5h-1.543v-6.546h1.475v1.113h.077c.15-.367.39-.658.72-.874.332-.216.743-.324 1.231-.324.452 0 .845.097 1.181.29.338.193.599.473.784.84.187.366.28.81.277 1.333V20.5h-1.543v-3.929c0-.438-.114-.78-.341-1.027-.224-.247-.535-.37-.933-.37-.27 0-.51.059-.72.178a1.234 1.234 0 0 0-.49.507c-.117.222-.175.49-.175.806Zm8.625 3.963c-.653 0-1.214-.144-1.683-.431a2.864 2.864 0 0 1-1.078-1.188c-.25-.509-.375-1.094-.375-1.756 0-.665.127-1.252.383-1.76.256-.511.617-.91 1.083-1.193.468-.287 1.022-.43 1.661-.43.532 0 1.002.097 1.411.293.412.194.74.468.984.823.245.352.384.764.418 1.236h-1.474a1.41 1.41 0 0 0-.427-.789c-.221-.213-.518-.32-.89-.32a1.39 1.39 0 0 0-.831.256 1.63 1.63 0 0 0-.558.725c-.131.315-.196.693-.196 1.133 0 .446.065.83.196 1.15.13.319.314.565.549.738.239.17.519.256.84.256a1.4 1.4 0 0 0 .609-.128c.182-.088.334-.215.456-.38.122-.164.206-.364.252-.6h1.474a2.569 2.569 0 0 1-.409 1.231 2.429 2.429 0 0 1-.963.836c-.406.198-.884.298-1.432.298Zm6.965 0c-.65 0-1.22-.137-1.7-.409a2.795 2.795 0 0 1-1.092-1.168c-.256-.505-.384-1.1-.384-1.785 0-.674.128-1.265.384-1.773.258-.511.622-.91 1.082-1.193.46-.287 1.01-.43 1.63-.43.41 0 .79.065 1.14.195.37.128.68.327.96.597.28.27.5.614.66 1.031.15.415.23.91.23 1.483v.473h-5.361v-1.04h3.891a1.689 1.689 0 0 0-.2-.788 1.38 1.38 0 0 0-.52-.55c-.22-.133-.48-.2-.78-.2-.31 0-.59.077-.83.23-.24.15-.42.35-.56.597-.13.244-.19.512-.2.805v.908c0 .38.07.707.21.98.14.27.34.477.59.622.25.142.54.213.87.213.23 0 .43-.031.61-.094.19-.065.34-.16.48-.285.13-.125.23-.28.3-.465l1.44.162c-.09.381-.26.713-.52.997-.25.282-.58.5-.97.657-.4.153-.85.23-1.36.23Z"/><path fill="#fff" d="M1144.67 0h-135v36h135V0Z"/><path fill="#1E3145" d="M1019.27 14.172a1.177 1.177 0 0 0-.5-.87c-.29-.207-.68-.31-1.14-.31-.33 0-.62.05-.85.149a1.2 1.2 0 0 0-.54.405c-.13.17-.19.365-.2.583 0 .182.05.34.13.473.08.134.2.247.34.341.15.091.31.168.49.23.17.063.35.115.53.158l.82.205c.33.076.64.18.95.31.3.131.58.296.82.495s.44.439.58.72c.14.281.21.61.21.989 0 .511-.13.961-.39 1.35-.26.387-.64.689-1.13.908-.5.216-1.09.324-1.79.324-.68 0-1.27-.105-1.77-.315-.5-.21-.88-.517-1.17-.92-.27-.404-.42-.896-.45-1.475h1.56c.02.304.11.557.28.758.16.202.38.353.64.452.27.1.57.15.9.15.34 0 .64-.052.9-.154.26-.105.47-.25.61-.435.15-.187.23-.406.23-.656a.824.824 0 0 0-.2-.563c-.13-.15-.31-.275-.55-.375a5.31 5.31 0 0 0-.82-.272l-.99-.256c-.72-.185-1.29-.465-1.71-.84-.41-.377-.62-.879-.62-1.504 0-.514.14-.964.42-1.35a2.72 2.72 0 0 1 1.15-.9c.48-.216 1.03-.324 1.64-.324.62 0 1.16.108 1.62.324.47.213.84.51 1.11.89.27.379.4.813.41 1.305h-1.52Zm6.25-.218v1.194h-3.76v-1.194h3.76Zm-2.83-1.568h1.54v6.145c0 .208.03.367.09.478.07.107.15.181.26.221.1.04.22.06.35.06.1 0 .18-.007.26-.021.09-.015.15-.027.19-.039l.26 1.206a2.906 2.906 0 0 1-.91.153c-.38.012-.73-.046-1.04-.174a1.625 1.625 0 0 1-.74-.605c-.18-.273-.27-.614-.26-1.023v-6.4Zm6 8.246c-.41 0-.78-.074-1.12-.221a1.803 1.803 0 0 1-.78-.665c-.19-.293-.29-.654-.29-1.083 0-.369.07-.674.21-.916.14-.241.32-.434.56-.58.23-.144.5-.254.79-.328.3-.076.61-.132.93-.166.38-.04.69-.075.93-.106.24-.034.41-.085.52-.154.11-.07.17-.18.17-.328v-.025c0-.321-.1-.57-.29-.746-.19-.176-.46-.264-.82-.264-.38 0-.68.082-.9.247-.22.165-.37.36-.44.584l-1.44-.205c.11-.398.3-.73.56-.997.26-.27.58-.472.96-.605.38-.136.79-.205 1.25-.205.32 0 .63.037.94.111.32.074.6.196.86.367.26.167.47.396.62.686.16.29.24.652.24 1.086V20.5h-1.48v-.9h-.05c-.1.183-.23.353-.4.512a1.96 1.96 0 0 1-.63.379 2.6 2.6 0 0 1-.9.141Zm.41-1.133c.3 0 .57-.061.8-.184.23-.125.4-.29.52-.494.13-.205.19-.428.19-.669v-.771a.757.757 0 0 1-.24.11c-.12.035-.25.064-.39.09-.14.026-.28.048-.42.068l-.36.051c-.23.032-.44.083-.62.154-.18.07-.33.17-.43.298-.11.125-.16.287-.16.486 0 .284.11.498.31.643.21.145.47.218.8.218Zm7.87-5.544v1.193h-3.76v-1.194h3.76Zm-2.83-1.569h1.54v6.145c0 .208.03.367.09.478.07.107.15.181.26.221.1.04.22.06.35.06.09 0 .18-.007.26-.021.08-.015.15-.027.19-.039l.26 1.206a2.906 2.906 0 0 1-.91.153c-.38.012-.73-.046-1.04-.174a1.625 1.625 0 0 1-.74-.605c-.18-.273-.27-.614-.26-1.023v-6.4Zm8.29 5.361v-3.793h1.54V20.5h-1.49v-1.163h-.07c-.15.366-.39.666-.73.899-.33.233-.75.349-1.24.349-.43 0-.81-.095-1.14-.285a1.982 1.982 0 0 1-.76-.84c-.19-.37-.28-.815-.28-1.338v-4.168h1.54v3.93c0 .414.12.744.34.988.23.244.53.367.9.367.23 0 .45-.056.66-.167.21-.11.39-.275.52-.494.14-.221.21-.498.21-.83Zm8.3-2.062-1.4.153a1.127 1.127 0 0 0-.21-.4c-.1-.126-.23-.226-.39-.303a1.464 1.464 0 0 0-.61-.115c-.32 0-.59.07-.81.209-.21.139-.32.32-.32.54 0 .191.07.346.21.465.15.12.39.218.72.294l1.11.239c.62.134 1.08.345 1.38.635.31.29.46.669.47 1.138-.01.412-.13.775-.37 1.09-.23.313-.56.557-.98.734-.42.176-.9.264-1.45.264-.8 0-1.45-.168-1.94-.503-.48-.338-.77-.808-.87-1.41l1.51-.145c.06.295.21.518.43.669.22.15.51.226.87.226s.66-.076.88-.226c.22-.15.33-.337.33-.559a.59.59 0 0 0-.21-.464c-.15-.122-.37-.216-.67-.281l-1.11-.235c-.63-.13-1.1-.35-1.4-.66-.3-.313-.45-.708-.45-1.185 0-.403.11-.753.33-1.048.23-.299.54-.529.94-.69.4-.165.86-.248 1.38-.248.77 0 1.37.164 1.81.49.45.327.72.769.82 1.326Z"/><path fill="#fff" d="M1267 0h-122.33v36H1267V0Z"/><path fill="#1E3145" d="M1150.65 20.5h-1.69l3.07-8.727h1.96l3.07 8.727h-1.69l-2.33-6.938h-.06l-2.33 6.938Zm.05-3.422h4.61v1.27h-4.61v-1.27Zm12.51-1.393-1.41.153a1.052 1.052 0 0 0-.6-.703 1.385 1.385 0 0 0-.6-.115c-.32 0-.59.07-.81.209-.22.139-.32.32-.32.54 0 .191.07.346.21.465.14.12.38.218.71.294l1.12.239c.62.134 1.08.345 1.38.635.31.29.46.669.46 1.138 0 .412-.12.775-.36 1.09-.24.313-.56.557-.98.734-.43.176-.91.264-1.45.264-.8 0-1.45-.168-1.94-.503a2 2 0 0 1-.87-1.41l1.5-.145c.07.295.22.518.44.669.22.15.51.226.86.226.37 0 .66-.076.88-.226.23-.15.34-.337.34-.559a.57.57 0 0 0-.22-.464c-.14-.122-.36-.216-.66-.281l-1.12-.235c-.63-.13-1.09-.35-1.39-.66-.3-.313-.45-.708-.45-1.185 0-.403.11-.753.33-1.048.22-.299.53-.529.93-.69.4-.165.86-.248 1.39-.248.76 0 1.37.164 1.81.49.44.327.72.769.82 1.326Zm6.59 0-1.41.153a1.127 1.127 0 0 0-.21-.4 1.016 1.016 0 0 0-.39-.303 1.433 1.433 0 0 0-.61-.115c-.32 0-.59.07-.8.209-.22.139-.33.32-.32.54-.01.191.06.346.2.465.15.12.39.218.72.294l1.12.239c.62.134 1.08.345 1.38.635.3.29.45.669.46 1.138-.01.412-.13.775-.36 1.09-.24.313-.57.557-.99.734-.42.176-.9.264-1.45.264-.8 0-1.44-.168-1.93-.503-.49-.338-.78-.808-.88-1.41l1.51-.145c.07.295.21.518.43.669.22.15.51.226.87.226s.66-.076.88-.226c.22-.15.34-.337.34-.559a.599.599 0 0 0-.22-.464c-.14-.122-.36-.216-.67-.281l-1.11-.235c-.63-.13-1.09-.35-1.4-.66-.3-.313-.45-.708-.44-1.185-.01-.403.1-.753.33-1.048.22-.299.53-.529.93-.69.4-.165.86-.248 1.38-.248.77 0 1.37.164 1.81.49.45.327.72.769.83 1.326Zm1.41 4.815v-6.546h1.54V20.5h-1.54Zm.78-7.474a.92.92 0 0 1-.64-.243.8.8 0 0 1-.26-.593c0-.233.09-.43.26-.592a.91.91 0 0 1 .64-.247c.24 0 .45.082.63.247a.8.8 0 0 1 0 1.185.913.913 0 0 1-.63.243Zm5.2 10.065c-.56 0-1.03-.075-1.43-.226-.4-.148-.72-.347-.96-.597s-.41-.527-.5-.83l1.39-.337c.06.128.15.254.27.379.12.128.28.233.48.315.2.086.46.128.77.128.44 0 .8-.106 1.09-.319.28-.211.43-.557.43-1.04v-1.24h-.08c-.08.159-.2.322-.35.49-.15.168-.35.308-.6.422-.25.113-.56.17-.93.17-.51 0-.96-.118-1.37-.353-.41-.24-.73-.594-.97-1.066-.24-.474-.36-1.068-.36-1.781 0-.719.12-1.325.36-1.82.24-.497.56-.873.97-1.129.41-.258.87-.388 1.37-.388.39 0 .7.066.95.196.25.128.45.283.59.465.15.179.26.348.34.507h.09v-1.083h1.52v6.653c0 .559-.14 1.022-.4 1.389-.27.366-.64.64-1.1.822-.46.182-.99.273-1.57.273Zm.01-3.895c.32 0 .6-.08.83-.239.23-.159.41-.387.53-.686.12-.298.18-.656.18-1.074 0-.412-.06-.772-.18-1.082-.12-.31-.29-.55-.52-.72-.23-.173-.51-.26-.84-.26-.35 0-.63.09-.86.268-.23.18-.41.425-.52.738-.12.31-.18.662-.18 1.056 0 .401.06.752.18 1.053.12.298.29.531.52.699.23.165.52.247.86.247Zm6.18-2.531V20.5h-1.54v-6.546h1.47v1.113h.08c.15-.367.39-.658.72-.874.33-.216.74-.324 1.23-.324.45 0 .85.097 1.18.29.34.193.6.473.79.84.18.366.28.81.27 1.333V20.5h-1.54v-3.929c0-.438-.11-.78-.34-1.027-.23-.247-.54-.37-.93-.37-.27 0-.51.059-.72.178-.21.117-.37.286-.49.507-.12.222-.18.49-.18.806Zm8.67 3.963c-.66 0-1.22-.137-1.7-.409a2.776 2.776 0 0 1-1.1-1.168c-.25-.505-.38-1.1-.38-1.785 0-.674.13-1.265.38-1.773.26-.511.62-.91 1.09-1.193.46-.287 1-.43 1.63-.43.4 0 .78.065 1.14.195.36.128.68.327.95.597.28.27.5.614.66 1.031.16.415.24.91.24 1.483v.473h-5.37v-1.04h3.89c0-.295-.07-.558-.19-.788-.13-.233-.3-.416-.53-.55-.22-.133-.48-.2-.77-.2-.32 0-.59.077-.83.23-.24.15-.43.35-.56.597-.13.244-.2.512-.2.805v.908c0 .38.07.707.21.98.14.27.33.477.58.622.25.142.54.213.88.213.22 0 .43-.031.61-.094.18-.065.34-.16.47-.285.14-.125.24-.28.3-.465l1.45.162c-.1.381-.27.713-.52.997-.26.282-.58.5-.98.657-.39.153-.84.23-1.35.23Zm7.11 0c-.65 0-1.22-.137-1.7-.409a2.753 2.753 0 0 1-1.09-1.168c-.26-.505-.39-1.1-.39-1.785 0-.674.13-1.265.39-1.773.26-.511.62-.91 1.08-1.193.46-.287 1.01-.43 1.63-.43.4 0 .79.065 1.14.195.36.128.68.327.96.597.28.27.49.614.65 1.031.16.415.24.91.24 1.483v.473h-5.36v-1.04h3.88c0-.295-.06-.558-.19-.788a1.38 1.38 0 0 0-.52-.55c-.22-.133-.48-.2-.78-.2-.31 0-.59.077-.83.23-.24.15-.42.35-.56.597-.13.244-.19.512-.2.805v.908c0 .38.07.707.21.98.14.27.34.477.59.622.25.142.54.213.87.213.23 0 .43-.031.61-.094.18-.065.34-.16.48-.285.13-.125.23-.28.3-.465l1.44.162c-.09.381-.27.713-.52.997-.25.282-.58.5-.97.657-.4.153-.85.23-1.36.23Z"/><path fill="#fff" d="M1318 0h-51v36h51V0ZM1369 0h-51v36h51V0ZM1420 0h-51v36h51V0Z"/></svg>