<svg xmlns="http://www.w3.org/2000/svg" width="924" height="54" fill="none"><path fill="#424F60" d="M1.982 10H.294l3.072-8.727h1.952L8.395 10H6.707l-2.33-6.938h-.069zm.055-3.422h4.602v1.27H2.037zm10.095 3.55q-.98 0-1.683-.43a2.87 2.87 0 0 1-1.078-1.19q-.376-.762-.375-1.755 0-.998.383-1.76.384-.768 1.083-1.193.702-.43 1.662-.43.796 0 1.41.293.618.29.984.823.367.528.418 1.236h-1.474a1.4 1.4 0 0 0-.426-.789q-.333-.32-.891-.32-.473 0-.831.256-.359.252-.558.725-.196.473-.196 1.133 0 .67.196 1.15t.55.738q.357.255.839.256a1.4 1.4 0 0 0 .61-.128q.272-.132.455-.38.183-.246.252-.6h1.474a2.6 2.6 0 0 1-.409 1.231 2.4 2.4 0 0 1-.963.835q-.61.3-1.432.299m6.926 0q-.981 0-1.683-.43a2.87 2.87 0 0 1-1.078-1.19q-.375-.762-.376-1.755 0-.998.384-1.76.384-.768 1.082-1.193.704-.43 1.662-.43.798 0 1.41.293.618.29.985.823.367.528.418 1.236h-1.475a1.4 1.4 0 0 0-.426-.789q-.332-.32-.89-.32-.474 0-.831.256-.359.252-.558.725-.197.473-.197 1.133 0 .67.197 1.15.195.479.55.738.357.255.839.256a1.4 1.4 0 0 0 .609-.128q.273-.132.456-.38.183-.246.251-.6h1.475a2.6 2.6 0 0 1-.41 1.231 2.4 2.4 0 0 1-.962.835q-.61.3-1.432.299m6.926 0q-.96 0-1.662-.422a2.87 2.87 0 0 1-1.091-1.18q-.384-.759-.384-1.773t.384-1.777a2.86 2.86 0 0 1 1.09-1.185q.704-.422 1.663-.422t1.662.422a2.83 2.83 0 0 1 1.086 1.185q.388.762.388 1.777t-.388 1.773a2.84 2.84 0 0 1-1.086 1.18q-.704.422-1.662.422m.008-1.236q.52 0 .87-.285a1.7 1.7 0 0 0 .52-.776 3.2 3.2 0 0 0 .174-1.082q0-.601-.175-1.087a1.7 1.7 0 0 0-.52-.78q-.348-.29-.869-.29-.532 0-.886.29a1.75 1.75 0 0 0-.524.78q-.17.486-.17 1.087 0 .596.17 1.082.173.486.524.776.354.285.886.285m8.61-1.645V3.455h1.542V10h-1.496V8.837h-.068q-.221.55-.729.899-.502.35-1.24.35a2.24 2.24 0 0 1-1.138-.286 2 2 0 0 1-.767-.84q-.276-.554-.277-1.338V3.455h1.543v3.928q0 .623.34.99.342.366.896.366.34 0 .66-.167.32-.165.524-.494.21-.332.21-.83Zm4.67-1.082V10H37.73V3.454h1.475v1.113h.076q.225-.55.72-.874.499-.324 1.232-.324.678 0 1.18.29.507.29.784.84.282.549.277 1.333V10h-1.542V6.071q0-.657-.341-1.027-.337-.37-.933-.37-.405 0-.72.178a1.24 1.24 0 0 0-.49.507q-.175.333-.175.806Zm9.04-2.71v1.193h-3.764V3.455zm-2.835-1.569h1.543v6.145q0 .312.094.477a.5.5 0 0 0 .255.222 1 1 0 0 0 .35.06q.144 0 .264-.021a2 2 0 0 0 .188-.039l.26 1.206q-.124.043-.354.094-.225.051-.554.06a2.5 2.5 0 0 1-1.044-.175 1.62 1.62 0 0 1-.737-.605q-.27-.41-.265-1.023zm9.204 3.299-1.406.153a1.1 1.1 0 0 0-.21-.4 1.04 1.04 0 0 0-.391-.303 1.4 1.4 0 0 0-.605-.115q-.482 0-.81.209-.324.21-.32.54a.57.57 0 0 0 .21.465q.217.18.715.294l1.117.239q.928.2 1.38.635.456.435.46 1.138a1.78 1.78 0 0 1-.362 1.09q-.354.469-.984.734-.63.264-1.45.264-1.2 0-1.934-.503a2.02 2.02 0 0 1-.873-1.41l1.504-.145q.102.443.435.669.332.225.865.225.549 0 .882-.225.336-.226.336-.559a.58.58 0 0 0-.217-.464q-.213-.183-.665-.281L51.242 7.2q-.941-.195-1.394-.66-.45-.47-.447-1.185a1.68 1.68 0 0 1 .328-1.048q.337-.449.933-.69.601-.248 1.385-.248 1.15 0 1.811.49.666.49.823 1.326m10.236-1.73L62.585 10H60.88l-2.33-6.546h1.644l1.504 4.863h.068l1.509-4.863h1.64ZM65.983 10V3.454h1.543V10zm.776-7.474a.9.9 0 0 1-.631-.243.78.78 0 0 1-.264-.593q0-.35.264-.592a.9.9 0 0 1 .63-.247.88.88 0 0 1 .631.247q.264.243.264.592 0 .345-.264.593a.9.9 0 0 1-.63.243m5.25 7.602q-.984 0-1.7-.41a2.77 2.77 0 0 1-1.095-1.167q-.383-.758-.383-1.785 0-1.011.383-1.773A2.9 2.9 0 0 1 70.298 3.8q.695-.43 1.632-.43.605 0 1.142.195.54.192.954.597.418.405.657 1.031.238.623.238 1.483v.473h-5.365V6.11h3.886a1.66 1.66 0 0 0-.191-.788 1.4 1.4 0 0 0-.524-.55 1.5 1.5 0 0 0-.776-.2q-.472 0-.831.23-.359.226-.558.597-.196.367-.2.805v.908q0 .57.208.98.21.405.584.622.375.213.878.213.337 0 .61-.094.272-.098.472-.285.201-.187.303-.465l1.44.162a2.24 2.24 0 0 1-.52.998q-.378.421-.971.656-.593.23-1.355.23ZM77.543 10l-1.85-6.546h1.573l1.15 4.603h.06l1.176-4.603h1.556l1.176 4.577h.064l1.133-4.577h1.577L83.303 10h-1.606l-1.228-4.423h-.089L79.153 10h-1.611Z"></path><path fill="#fff" d="M178 22.5H6A5.5 5.5 0 0 0 .5 28v20A5.5 5.5 0 0 0 6 53.5h172a5.5 5.5 0 0 0 5.5-5.5V28a5.5 5.5 0 0 0-5.5-5.5"></path><path stroke="#A6AAB1" d="M178 22.5H6A5.5 5.5 0 0 0 .5 28v20A5.5 5.5 0 0 0 6 53.5h172a5.5 5.5 0 0 0 5.5-5.5V28a5.5 5.5 0 0 0-5.5-5.5Z"></path><path fill="#1E3145" d="M14.613 39.165h3.146l-1.547-4.329h-.026zm.923-5.447h1.365L20.528 43h-1.365l-1.014-2.795h-3.926L13.183 43h-1.261zm10.289 4.719q-.13-.637-.546-.988t-1.118-.351q-.599 0-1.001.221a1.84 1.84 0 0 0-.65.585 2.5 2.5 0 0 0-.338.845q-.104.468-.104.975 0 .468.104.91.117.442.35.793.235.337.612.546.377.208.897.208.818 0 1.274-.429.468-.429.572-1.209h1.13q-.181 1.248-.935 1.924-.741.676-2.028.676a3.6 3.6 0 0 1-1.365-.247 2.7 2.7 0 0 1-.988-.702 3.2 3.2 0 0 1-.598-1.079 4.7 4.7 0 0 1-.195-1.391q0-.754.195-1.404a3.3 3.3 0 0 1 .585-1.144 2.7 2.7 0 0 1 1-.767q.6-.285 1.392-.286.571 0 1.066.143.507.13.884.416.39.285.637.728a2.6 2.6 0 0 1 .312 1.027zm6.982 0q-.13-.637-.546-.988t-1.118-.351q-.598 0-1 .221a1.84 1.84 0 0 0-.65.585 2.5 2.5 0 0 0-.339.845q-.105.468-.104.975 0 .468.104.91.117.442.351.793.234.337.611.546.377.208.897.208.819 0 1.274-.429.468-.429.572-1.209h1.131q-.181 1.248-.936 1.924-.741.676-2.028.676a3.6 3.6 0 0 1-1.365-.247 2.7 2.7 0 0 1-.988-.702 3.2 3.2 0 0 1-.598-1.079 4.7 4.7 0 0 1-.195-1.391q0-.754.195-1.404a3.3 3.3 0 0 1 .585-1.144q.403-.494 1.001-.767.598-.285 1.391-.286.572 0 1.066.143.507.13.884.416.39.285.637.728a2.6 2.6 0 0 1 .312 1.027zm3.225 1.209q0 .61.157 1.092.168.468.455.793.285.312.663.481a2.04 2.04 0 0 0 1.624 0 2 2 0 0 0 .677-.481 2.3 2.3 0 0 0 .442-.793q.168-.48.169-1.092 0-.61-.17-1.079a2.3 2.3 0 0 0-.441-.806 1.9 1.9 0 0 0-.676-.494 2.04 2.04 0 0 0-1.625 0 1.9 1.9 0 0 0-.663.494 2.4 2.4 0 0 0-.456.806 3.4 3.4 0 0 0-.156 1.079m-1.17 0q0-.74.209-1.378a3.1 3.1 0 0 1 .623-1.118 2.9 2.9 0 0 1 1.027-.754q.612-.273 1.405-.273.806 0 1.404.273a2.9 2.9 0 0 1 1.026.754q.417.468.625 1.118.207.637.208 1.378 0 .74-.209 1.378a3.2 3.2 0 0 1-.623 1.118q-.416.468-1.028.741-.597.26-1.404.26-.792 0-1.404-.26a3 3 0 0 1-1.026-.741 3.2 3.2 0 0 1-.624-1.118 4.4 4.4 0 0 1-.209-1.378M48.255 43h-1.04v-1.066h-.026q-.351.624-.897.923-.546.285-1.287.286-.663 0-1.105-.169a1.8 1.8 0 0 1-.715-.507 1.95 1.95 0 0 1-.39-.767 4.5 4.5 0 0 1-.104-1.001v-4.42h1.105v4.55q0 .624.364.988.365.364 1.001.364.508 0 .871-.156.378-.156.624-.442.247-.286.364-.663.13-.39.13-.845v-3.796h1.105zm1.66-6.721h1.04v1.066h.026q.69-1.222 2.184-1.222.663 0 1.105.182t.715.507.377.78q.117.442.117.988V43h-1.105v-4.55q0-.624-.364-.988c-.364-.364-.576-.364-1.001-.364a2.3 2.3 0 0 0-.884.156 1.66 1.66 0 0 0-.611.442q-.247.285-.377.676a2.8 2.8 0 0 0-.117.832V43h-1.105zm8.758 0h1.339v.975h-1.34v4.173q0 .195.027.312a.35.35 0 0 0 .13.182.6.6 0 0 0 .247.091q.168.013.429.013h.507V43h-.845a4.6 4.6 0 0 1-.741-.052 1.2 1.2 0 0 1-.494-.221.94.94 0 0 1-.273-.442 2.6 2.6 0 0 1-.091-.754v-4.277h-1.144v-.975h1.144v-2.015h1.105zm7.718 0h1.34v.975h-1.34v4.173q.001.195.026.312.04.117.13.182a.6.6 0 0 0 .247.091q.17.013.43.013h.506V43h-.845a4.6 4.6 0 0 1-.74-.052 1.2 1.2 0 0 1-.495-.221.94.94 0 0 1-.273-.442 2.6 2.6 0 0 1-.09-.754v-4.277h-1.145v-.975h1.144v-2.015h1.105zm5.206 7.618q-.195.495-.39.832-.182.337-.416.546a1.24 1.24 0 0 1-.507.312q-.273.105-.637.104-.195 0-.39-.026a2 2 0 0 1-.377-.091V44.56q.143.065.325.104.195.052.325.052a.9.9 0 0 0 .559-.169.94.94 0 0 0 .351-.455l.455-1.131-2.665-6.682h1.248l1.963 5.499h.026l1.885-5.499h1.17zm3.9-7.618h1.105v.91h.026q.273-.559.858-.806.585-.26 1.287-.26.78 0 1.352.286.584.285.962.78.39.48.585 1.118.195.637.195 1.352t-.195 1.352a3.1 3.1 0 0 1-.572 1.118 2.66 2.66 0 0 1-.962.741q-.572.273-1.339.273-.247 0-.559-.052a3 3 0 0 1-.598-.169q-.3-.117-.572-.312a1.9 1.9 0 0 1-.442-.507h-.026v3.458h-1.105zm5.2 3.302a3.2 3.2 0 0 0-.13-.91 2.3 2.3 0 0 0-.377-.806 1.8 1.8 0 0 0-.65-.559 1.93 1.93 0 0 0-.923-.208q-.56 0-.949.221-.39.22-.637.585a2.4 2.4 0 0 0-.364.806 4.1 4.1 0 0 0 .013 1.885q.118.455.364.806.26.351.663.572.404.208.975.208c.571 0 .698-.074.949-.221a1.76 1.76 0 0 0 .624-.585 2.5 2.5 0 0 0 .338-.832q.104-.468.104-.962m7.134-.585a2.2 2.2 0 0 0-.182-.741 1.7 1.7 0 0 0-.403-.598 1.7 1.7 0 0 0-.598-.403 1.8 1.8 0 0 0-.754-.156 1.9 1.9 0 0 0-.78.156 1.7 1.7 0 0 0-.585.403 1.9 1.9 0 0 0-.39.611 2.3 2.3 0 0 0-.169.728zm1.066 1.872q-.22 1.131-.975 1.703c-.755.572-1.135.572-1.898.572q-.805 0-1.404-.26a2.8 2.8 0 0 1-.988-.728 3.2 3.2 0 0 1-.611-1.118 5.6 5.6 0 0 1-.221-1.417q0-.767.234-1.404a3.4 3.4 0 0 1 .65-1.105 3.1 3.1 0 0 1 1.001-.728q.585-.26 1.274-.26.897 0 1.482.377a2.8 2.8 0 0 1 .949.936q.364.571.494 1.248.142.676.117 1.287H83.97q-.013.442.104.845.117.39.377.702.26.3.663.481c.403.181.585.182.949.182q.702 0 1.144-.325.455-.325.598-.988z"></path><path fill="#1E3145" fill-rule="evenodd" d="m163 35 5 5 5-5z" clip-rule="evenodd"></path><path fill="#fff" d="M268 22.5h-54a5.5 5.5 0 0 0-5.5 5.5v20a5.5 5.5 0 0 0 5.5 5.5h54a5.5 5.5 0 0 0 5.5-5.5V28a5.5 5.5 0 0 0-5.5-5.5"></path><path stroke="#1F65D6" d="M268 22.5h-54a5.5 5.5 0 0 0-5.5 5.5v20a5.5 5.5 0 0 0 5.5 5.5h54a5.5 5.5 0 0 0 5.5-5.5V28a5.5 5.5 0 0 0-5.5-5.5Z"></path><path fill="#1F65D6" d="M219.837 42.5h-1.514l3.402-9.455h1.649l3.402 9.455h-1.514l-2.673-7.737h-.074zm.254-3.702h4.912v1.2h-4.912zm9.32-5.753V42.5h-1.381v-9.455zm3.237 0V42.5h-1.38v-9.455zm5.699 4.728q0-1.736.457-3.195a9.6 9.6 0 0 1 1.334-2.691h1.265q-.342.456-.637 1.121-.295.666-.517 1.46a13 13 0 0 0-.346 1.638 11.4 11.4 0 0 0-.125 1.667q0 1.098.217 2.225.217 1.126.586 2.091.37.965.822 1.574h-1.265a9.6 9.6 0 0 1-1.334-2.691q-.457-1.459-.457-3.2Zm4.493 4.727v-1.034l3.199-3.315q.513-.54.845-.946.338-.411.503-.78.167-.37.167-.785a1.46 1.46 0 0 0-.222-.813 1.45 1.45 0 0 0-.605-.53 1.9 1.9 0 0 0-.863-.19q-.508 0-.886.208a1.4 1.4 0 0 0-.582.586 1.84 1.84 0 0 0-.203.887h-1.362q0-.864.397-1.51t1.089-1.002q.693-.36 1.575-.36.891 0 1.569.356a2.67 2.67 0 0 1 1.067.96q.383.605.383 1.366 0 .526-.199 1.03-.194.503-.678 1.122-.486.614-1.348 1.49l-1.879 1.967v.07h4.256V42.5zm11.167.13q-.992 0-1.754-.342-.757-.342-1.186-.942a2.26 2.26 0 0 1-.425-1.367 2.4 2.4 0 0 1 .245-1.103q.254-.507.687-.845.435-.34.97-.434v-.055a1.9 1.9 0 0 1-1.131-.757 2.2 2.2 0 0 1-.42-1.348 2.2 2.2 0 0 1 .383-1.293q.393-.571 1.076-.9.683-.328 1.555-.328.864 0 1.542.333.683.327 1.076.9.393.568.397 1.288a2.25 2.25 0 0 1-.434 1.348q-.43.586-1.117.757v.055q.53.093.955.434.43.338.684.845.258.503.263 1.103a2.3 2.3 0 0 1-.434 1.367q-.429.6-1.191.942-.757.34-1.741.341Zm0-1.169q.587 0 1.016-.194a1.57 1.57 0 0 0 .665-.549q.235-.356.24-.83a1.55 1.55 0 0 0-.259-.873 1.7 1.7 0 0 0-.678-.596 2.15 2.15 0 0 0-.984-.217q-.558 0-.992.217a1.7 1.7 0 0 0-.683.596 1.5 1.5 0 0 0-.245.872q-.005.476.226.831.235.35.67.55.433.193 1.024.193m0-4.4q.471 0 .836-.188a1.43 1.43 0 0 0 .572-.527q.213-.337.217-.79a1.46 1.46 0 0 0-.212-.775 1.35 1.35 0 0 0-.568-.512 1.85 1.85 0 0 0-.845-.185q-.489 0-.858.185-.365.18-.568.512-.204.332-.199.776a1.45 1.45 0 0 0 .203.79q.209.336.573.526.369.189.849.189Zm7.693.712q0 1.74-.457 3.199a9.5 9.5 0 0 1-1.335 2.691h-1.265q.342-.456.638-1.121.295-.665.517-1.455a13 13 0 0 0 .346-1.643q.124-.849.124-1.671 0-1.095-.217-2.22a12.3 12.3 0 0 0-.586-2.092q-.369-.965-.822-1.574h1.265a9.5 9.5 0 0 1 1.335 2.691q.456 1.459.457 3.195"></path><path fill="#1E3145" d="M300.67 33.045V42.5h-1.311l-4.806-6.934h-.088V42.5h-1.426v-9.455h1.32l4.81 6.944h.088v-6.944zm4.957 9.598q-.997 0-1.741-.457a3.1 3.1 0 0 1-1.154-1.279q-.411-.821-.411-1.92 0-1.104.411-1.93a3.1 3.1 0 0 1 1.154-1.283q.744-.457 1.741-.457t1.74.457 1.154 1.283.411 1.93q0 1.098-.411 1.92a3.1 3.1 0 0 1-1.154 1.28q-.743.456-1.74.456m.004-1.159q.647 0 1.071-.341a2 2 0 0 0 .628-.91q.208-.567.208-1.25a3.6 3.6 0 0 0-.208-1.247 2.03 2.03 0 0 0-.628-.919q-.425-.345-1.071-.346-.651 0-1.08.346a2.06 2.06 0 0 0-.632.919 3.7 3.7 0 0 0-.204 1.246q0 .684.204 1.251.207.568.632.91.429.34 1.08.341m8.152-6.075v1.108h-3.873v-1.108zm-2.835-1.699h1.381v6.708q0 .402.12.605.12.198.309.272.193.07.42.07.166 0 .291-.024.125-.022.194-.037l.249 1.14a2.7 2.7 0 0 1-.895.148 2.4 2.4 0 0 1-1.016-.194 1.74 1.74 0 0 1-.762-.627q-.291-.425-.291-1.067zm13.116 3.43-1.251.222a1.5 1.5 0 0 0-.25-.457 1.2 1.2 0 0 0-.452-.356q-.286-.138-.716-.138-.586 0-.978.263-.393.258-.393.67 0 .354.263.572.264.217.85.355l1.126.259q.98.225 1.459.697.48.471.48 1.223 0 .638-.369 1.136-.365.494-1.02.776-.65.28-1.51.281-1.191 0-1.943-.508-.753-.512-.924-1.454l1.334-.203q.125.521.513.79.387.263 1.011.263.678 0 1.085-.282.406-.285.406-.697a.73.73 0 0 0-.249-.559q-.245-.225-.753-.341l-1.2-.264q-.993-.225-1.468-.72-.471-.494-.471-1.25 0-.629.351-1.1a2.3 2.3 0 0 1 .969-.733q.619-.268 1.418-.268 1.149 0 1.809.498.66.495.873 1.325m4.966-1.73v1.107h-3.873v-1.108zm-2.835-1.7h1.381v6.708q0 .402.12.605.12.198.309.272.194.07.42.07.167 0 .291-.024.125-.022.194-.037l.249 1.14a2.7 2.7 0 0 1-.895.148 2.4 2.4 0 0 1-1.016-.194 1.74 1.74 0 0 1-.762-.627q-.291-.425-.291-1.067zm6.425 8.947a2.9 2.9 0 0 1-1.218-.25 2.06 2.06 0 0 1-.864-.733q-.314-.48-.314-1.178 0-.6.231-.988.231-.387.623-.614.392-.225.878-.341.484-.116.988-.175l1.034-.12q.397-.051.577-.162t.18-.36v-.032q0-.605-.342-.938-.337-.332-1.006-.332-.697 0-1.099.31-.397.304-.549.678l-1.298-.296a2.5 2.5 0 0 1 .674-1.043 2.7 2.7 0 0 1 1.03-.582 4 4 0 0 1 1.223-.184q.425 0 .9.101.481.098.896.36.42.264.688.753.267.485.268 1.26V42.5h-1.348v-.97h-.056a2 2 0 0 1-.401.527 2.1 2.1 0 0 1-.688.43q-.42.17-1.007.17m.3-1.108q.573 0 .979-.226a1.6 1.6 0 0 0 .623-.591 1.53 1.53 0 0 0 .217-.79v-.914q-.073.075-.286.139-.207.06-.475.106l-.522.079-.425.055q-.401.05-.734.17a1.26 1.26 0 0 0-.526.347q-.194.222-.194.59 0 .513.379.776.379.26.964.259m5.038.951v-7.09h1.334v1.126h.074a1.7 1.7 0 0 1 .683-.9q.495-.333 1.118-.333a6 6 0 0 1 .586.032v1.32a3 3 0 0 0-.296-.05 3 3 0 0 0-.424-.033q-.489 0-.873.208a1.55 1.55 0 0 0-.821 1.39v4.33zm8.718-7.09v1.107h-3.873v-1.108zm-2.834-1.7h1.38v6.708q0 .402.12.605.12.198.31.272.194.07.42.07.165 0 .29-.024.126-.022.194-.037l.25 1.14a2.7 2.7 0 0 1-.896.148 2.4 2.4 0 0 1-1.016-.194 1.75 1.75 0 0 1-.761-.627q-.291-.425-.291-1.067zm7.341 8.933q-1.047 0-1.805-.448a3.04 3.04 0 0 1-1.163-1.27q-.406-.821-.406-1.924 0-1.09.406-1.92a3.15 3.15 0 0 1 1.145-1.298q.738-.465 1.726-.466.6 0 1.164.198.563.199 1.011.623.447.425.706 1.104.258.674.258 1.639v.489h-5.636v-1.034h4.284q0-.545-.222-.965a1.67 1.67 0 0 0-.623-.67 1.74 1.74 0 0 0-.932-.244 1.8 1.8 0 0 0-1.016.286 1.9 1.9 0 0 0-.665.739 2.1 2.1 0 0 0-.231.983v.808q0 .71.25 1.21.253.498.706.761.453.26 1.057.259.392 0 .716-.111a1.48 1.48 0 0 0 .918-.9l1.307.235a2.4 2.4 0 0 1-.563 1.011q-.402.43-1.011.67a3.8 3.8 0 0 1-1.381.235m7.228-.005a2.75 2.75 0 0 1-1.532-.438q-.669-.444-1.053-1.26-.378-.822-.378-1.972t.383-1.966q.387-.818 1.062-1.251.673-.434 1.528-.434.66 0 1.062.221.406.217.627.508.226.291.351.513h.083v-3.514h1.381V42.5h-1.348v-1.103h-.116a3.6 3.6 0 0 1-.36.517 2 2 0 0 1-.637.508q-.407.216-1.053.217Zm.305-1.177q.596 0 1.007-.314.416-.318.627-.881.217-.564.217-1.311 0-.74-.212-1.293-.212-.554-.623-.863-.411-.31-1.016-.31-.623 0-1.039.324a1.97 1.97 0 0 0-.627.881 3.6 3.6 0 0 0-.208 1.26q0 .71.212 1.28.213.567.628.9.42.327 1.034.327m9.021-3.688q0-1.736.457-3.195a9.5 9.5 0 0 1 1.334-2.691h1.265q-.342.456-.637 1.121-.296.666-.517 1.46a13 13 0 0 0-.346 1.638 11 11 0 0 0-.125 1.667q0 1.098.217 2.225.217 1.126.586 2.091t.822 1.574h-1.265a9.5 9.5 0 0 1-1.334-2.691q-.457-1.459-.457-3.2Zm7.784 4.884q-1.093-.004-1.869-.577-.776-.572-1.187-1.667c-.411-1.095-.411-1.608-.411-2.636q0-1.537.411-2.626.415-1.09 1.191-1.662.78-.573 1.865-.573 1.086 0 1.861.577.775.573 1.186 1.662.416 1.085.416 2.622 0 1.547-.411 2.641-.411 1.09-1.187 1.666-.775.573-1.865.573m0-1.233q.96 0 1.501-.937.544-.937.544-2.71 0-1.177-.249-1.99-.244-.816-.706-1.237a1.55 1.55 0 0 0-1.09-.424q-.955 0-1.5.942-.545.94-.549 2.71 0 1.18.244 1.998.25.813.707 1.233.457.415 1.098.415m7.773-3.651q0 1.74-.457 3.199a9.5 9.5 0 0 1-1.334 2.691h-1.265q.342-.456.637-1.121.296-.665.517-1.455a13 13 0 0 0 .347-1.643q.124-.849.124-1.671 0-1.095-.217-2.22a12.3 12.3 0 0 0-.586-2.092q-.369-.965-.822-1.574h1.265a9.5 9.5 0 0 1 1.334 2.691q.457 1.459.457 3.195m32.171-4.728V42.5h-1.426v-9.455zm3.347 5.245v4.21h-1.38v-7.09h1.325v1.153h.087q.245-.563.767-.905.526-.34 1.325-.341.725 0 1.269.304.545.3.845.896t.3 1.473v4.51h-1.38v-4.344q0-.771-.402-1.205-.401-.439-1.103-.439-.48 0-.854.208a1.5 1.5 0 0 0-.586.61q-.213.396-.213.96m9.83 6.87v-9.75h1.348v1.149h.115q.12-.222.346-.513.227-.29.628-.508.402-.22 1.062-.221a2.77 2.77 0 0 1 1.533.434q.673.434 1.057 1.25.387.819.388 1.967 0 1.15-.383 1.972-.384.817-1.053 1.26a2.73 2.73 0 0 1-1.528.438q-.646 0-1.057-.216a2 2 0 0 1-.637-.508 4 4 0 0 1-.356-.517h-.083v3.762h-1.38Zm1.352-6.205q0 .747.217 1.31t.628.882q.411.315 1.007.314.618 0 1.034-.328.415-.332.628-.9.216-.567.217-1.278 0-.702-.213-1.26a1.93 1.93 0 0 0-.628-.883q-.416-.323-1.038-.323-.6 0-1.016.31a1.9 1.9 0 0 0-.623.863q-.213.554-.213 1.293m6.671 3.545v-7.09h1.334v1.126h.074q.195-.573.683-.9.495-.333 1.118-.333a6 6 0 0 1 .586.032v1.32a3 3 0 0 0-.295-.05 3 3 0 0 0-.425-.033q-.489 0-.873.208a1.55 1.55 0 0 0-.821 1.39v4.33zm7.722.143q-.996 0-1.74-.457a3.1 3.1 0 0 1-1.154-1.279q-.411-.821-.411-1.92 0-1.104.411-1.93a3.1 3.1 0 0 1 1.154-1.283q.744-.457 1.74-.457.997 0 1.741.457.743.456 1.154 1.283.411.826.411 1.93 0 1.098-.411 1.92a3.1 3.1 0 0 1-1.154 1.28q-.744.456-1.741.456m.005-1.159q.647 0 1.071-.341.424-.342.628-.91.207-.567.208-1.25 0-.68-.208-1.247a2.04 2.04 0 0 0-.628-.919q-.424-.345-1.071-.346-.651 0-1.08.346a2.07 2.07 0 0 0-.633.919 3.7 3.7 0 0 0-.203 1.246q0 .684.203 1.251.209.568.633.91.429.34 1.08.341m7.815 3.823q-.845 0-1.455-.222a2.8 2.8 0 0 1-.988-.586 2.5 2.5 0 0 1-.572-.799l1.186-.49q.125.205.333.43.212.231.572.393.365.16.937.161.786 0 1.298-.383.512-.378.512-1.21v-1.394h-.088a3 3 0 0 1-.36.504 1.95 1.95 0 0 1-.637.48q-.406.203-1.057.203-.84 0-1.514-.393-.669-.397-1.062-1.167-.387-.777-.388-1.907c-.001-1.13.128-1.4.383-1.94q.389-.807 1.062-1.236.675-.434 1.528-.434.66 0 1.067.221.406.217.632.508.231.291.356.513h.101v-1.15h1.353v7.248q0 .915-.425 1.5-.424.586-1.149.868a4.4 4.4 0 0 1-1.625.282m-.014-4.058q.595 0 1.006-.277.415-.282.628-.803.217-.527.217-1.26 0-.717-.212-1.26a1.9 1.9 0 0 0-.624-.85q-.41-.31-1.015-.31-.624 0-1.039.324a1.95 1.95 0 0 0-.628.867 3.5 3.5 0 0 0-.208 1.228q0 .697.213 1.224.212.526.628.822.42.294 1.034.295m5.064 1.251v-7.09h1.334v1.126h.074a1.7 1.7 0 0 1 .683-.9q.495-.333 1.117-.333a6 6 0 0 1 .587.032v1.32a3 3 0 0 0-.296-.05 3 3 0 0 0-.424-.033q-.49 0-.873.208a1.55 1.55 0 0 0-.822 1.39v4.33zm7.791.143q-1.047 0-1.805-.448a3.04 3.04 0 0 1-1.163-1.27q-.406-.821-.406-1.924 0-1.09.406-1.92a3.16 3.16 0 0 1 1.145-1.298q.738-.465 1.727-.466.6 0 1.163.198.563.199 1.011.623.447.425.706 1.104.26.674.259 1.639v.489h-5.637v-1.034h4.284q0-.545-.221-.965a1.7 1.7 0 0 0-.624-.67 1.74 1.74 0 0 0-.932-.244 1.8 1.8 0 0 0-1.016.286 1.9 1.9 0 0 0-.665.739 2.1 2.1 0 0 0-.23.983v.808q0 .71.249 1.21.254.498.706.761.453.26 1.057.259.392 0 .716-.111a1.5 1.5 0 0 0 .919-.9l1.306.235a2.37 2.37 0 0 1-.563 1.011q-.402.43-1.011.67a3.8 3.8 0 0 1-1.381.235m9.888-5.503-1.251.222a1.5 1.5 0 0 0-.25-.457 1.2 1.2 0 0 0-.452-.356q-.286-.138-.716-.138-.586 0-.978.263-.393.258-.393.67 0 .354.264.572.262.217.849.355l1.126.259q.98.225 1.459.697.48.471.48 1.223 0 .638-.369 1.136-.365.494-1.02.776-.65.28-1.51.281-1.191 0-1.943-.508-.753-.512-.924-1.454l1.334-.203q.125.521.513.79.387.263 1.011.263.678 0 1.085-.282.406-.285.406-.697a.73.73 0 0 0-.249-.559q-.245-.225-.753-.341l-1.2-.264q-.993-.225-1.468-.72-.471-.494-.471-1.25 0-.629.351-1.1a2.3 2.3 0 0 1 .969-.733q.619-.268 1.418-.268 1.149 0 1.809.498.66.495.873 1.325m6.97 0-1.252.222a1.5 1.5 0 0 0-.249-.457 1.2 1.2 0 0 0-.452-.356q-.287-.138-.716-.138-.587 0-.978.263-.393.258-.393.67 0 .354.263.572.264.217.85.355l1.126.259q.98.225 1.459.697.48.471.48 1.223 0 .638-.369 1.136-.364.494-1.021.776-.65.28-1.509.281-1.191 0-1.944-.508-.752-.512-.923-1.454l1.334-.203q.125.521.513.79.387.263 1.011.263.678 0 1.085-.282.406-.285.406-.697a.72.72 0 0 0-.25-.559q-.244-.225-.752-.341l-1.2-.264q-.993-.225-1.468-.72-.471-.494-.471-1.25 0-.629.351-1.1a2.3 2.3 0 0 1 .969-.733q.62-.268 1.417-.268 1.15 0 1.81.498.66.495.873 1.325m5.498.633q0-1.736.457-3.195a9.5 9.5 0 0 1 1.334-2.691h1.265q-.342.456-.637 1.121-.296.666-.517 1.46a13 13 0 0 0-.346 1.638 11 11 0 0 0-.125 1.667q0 1.098.217 2.225.216 1.126.586 2.091.369.965.822 1.574h-1.265a9.5 9.5 0 0 1-1.334-2.691q-.457-1.459-.457-3.2Zm7.784 4.884q-1.093-.004-1.869-.577-.776-.572-1.187-1.667c-.411-1.095-.411-1.608-.411-2.636q0-1.537.411-2.626.415-1.09 1.191-1.662.78-.573 1.865-.573 1.086 0 1.861.577.775.573 1.186 1.662.416 1.084.416 2.622 0 1.547-.411 2.641-.411 1.09-1.187 1.666-.775.573-1.865.573m0-1.233q.96 0 1.501-.937.544-.937.544-2.71 0-1.177-.249-1.99-.244-.816-.706-1.237a1.55 1.55 0 0 0-1.09-.424q-.956 0-1.5.942-.545.94-.549 2.71 0 1.18.244 1.998.25.813.707 1.233.457.415 1.098.415m7.773-3.651q0 1.74-.457 3.199a9.5 9.5 0 0 1-1.334 2.691h-1.265q.342-.456.637-1.121.296-.665.517-1.455a13 13 0 0 0 .347-1.643q.124-.849.124-1.671 0-1.095-.217-2.22a12.3 12.3 0 0 0-.586-2.092q-.369-.965-.822-1.574h1.265a9.5 9.5 0 0 1 1.334 2.691q.457 1.459.457 3.195m31.078 4.727v-9.455h3.37q1.098 0 1.823.379.73.379 1.09 1.048.36.665.36 1.537 0 .868-.365 1.528-.36.655-1.089 1.02-.725.366-1.824.365h-2.553v-1.228h2.424q.693 0 1.126-.198a1.3 1.3 0 0 0 .642-.577q.203-.38.203-.91a1.95 1.95 0 0 0-.208-.928 1.34 1.34 0 0 0-.641-.6q-.435-.212-1.141-.212h-1.791V42.5zm4.667-4.266 2.336 4.266h-1.625l-2.29-4.266zm6.568 4.41q-1.048 0-1.805-.449a3.04 3.04 0 0 1-1.163-1.27q-.407-.821-.407-1.924 0-1.09.407-1.92a3.15 3.15 0 0 1 1.145-1.298q.738-.466 1.726-.466.6 0 1.163.198.564.199 1.011.623.448.425.707 1.104.258.674.258 1.639v.489h-5.636v-1.034h4.284q0-.545-.222-.965a1.7 1.7 0 0 0-.623-.67 1.74 1.74 0 0 0-.933-.244 1.8 1.8 0 0 0-1.015.286 1.9 1.9 0 0 0-.665.739 2.1 2.1 0 0 0-.231.983v.808q0 .71.249 1.21.255.498.707.761.452.26 1.057.259.393 0 .715-.111a1.48 1.48 0 0 0 .919-.9l1.307.235a2.4 2.4 0 0 1-.564 1.011q-.4.43-1.011.67a3.8 3.8 0 0 1-1.38.235Zm6.637.013a2.9 2.9 0 0 1-1.218-.25 2.06 2.06 0 0 1-.864-.733q-.314-.48-.314-1.178 0-.6.231-.988.231-.387.623-.614.392-.225.878-.341.484-.116.988-.175l1.034-.12q.397-.051.577-.162t.18-.36v-.032q0-.606-.342-.938-.337-.332-1.006-.332-.697 0-1.099.31-.397.304-.549.678l-1.298-.296a2.5 2.5 0 0 1 .674-1.043 2.7 2.7 0 0 1 1.03-.582 4 4 0 0 1 1.223-.184q.424 0 .9.101.481.097.896.36.42.264.688.753.267.484.268 1.26V42.5h-1.348v-.97h-.056a2 2 0 0 1-.401.527 2.1 2.1 0 0 1-.688.43q-.42.17-1.007.17m.3-1.108q.573 0 .979-.226a1.6 1.6 0 0 0 .623-.591 1.53 1.53 0 0 0 .217-.79v-.914q-.073.075-.286.139-.208.06-.475.106l-.522.079-.425.055q-.4.05-.734.17a1.26 1.26 0 0 0-.526.347q-.194.222-.194.59 0 .513.379.776.378.26.964.259m7.693 1.09a2.75 2.75 0 0 1-1.533-.44q-.669-.442-1.053-1.26-.378-.82-.378-1.97t.383-1.967q.389-.818 1.062-1.251.674-.434 1.528-.434.66 0 1.062.221.406.217.628.508.225.291.35.513h.083v-3.514h1.381V42.5h-1.348v-1.103h-.116a3.6 3.6 0 0 1-.36.517 2 2 0 0 1-.637.508q-.406.216-1.052.217m.304-1.178q.596 0 1.007-.314.415-.318.628-.881.216-.564.217-1.311 0-.74-.213-1.293a1.9 1.9 0 0 0-.623-.863q-.41-.31-1.016-.31-.622 0-1.038.324a1.97 1.97 0 0 0-.628.881 3.6 3.6 0 0 0-.208 1.26q0 .71.212 1.28.213.567.628.9.42.327 1.034.327m6.051 3.698q-.31 0-.563-.05a1.8 1.8 0 0 1-.378-.102l.332-1.131q.378.101.674.087a.8.8 0 0 0 .522-.221q.23-.208.406-.679l.171-.47-2.595-7.184h1.478l1.795 5.503h.074l1.796-5.503h1.482l-2.922 8.037a3.2 3.2 0 0 1-.517.938q-.315.387-.748.581-.434.195-1.007.194m13.306-9.75v1.108h-4.007v-1.108zm-2.908 7.091v-7.913q0-.664.291-1.103.291-.443.771-.66.48-.222 1.043-.222.416 0 .711.07.295.065.438.12l-.323 1.117a6 6 0 0 0-.249-.065 1.4 1.4 0 0 0-.369-.041q-.504 0-.72.249-.213.249-.213.72V42.5zm7.04.143q-.997 0-1.74-.457a3.1 3.1 0 0 1-1.155-1.279q-.41-.821-.41-1.92 0-1.104.41-1.93.411-.826 1.155-1.283.743-.457 1.74-.457c.997 0 1.245.152 1.74.457a3.07 3.07 0 0 1 1.155 1.283q.41.826.41 1.93 0 1.098-.41 1.92a3.1 3.1 0 0 1-1.155 1.28q-.743.456-1.74.456m.005-1.159q.645 0 1.071-.341.424-.342.627-.91.208-.567.208-1.25a3.6 3.6 0 0 0-.208-1.247 2.03 2.03 0 0 0-.627-.919q-.426-.346-1.071-.346-.65 0-1.081.346a2.06 2.06 0 0 0-.632.919 3.7 3.7 0 0 0-.203 1.246q0 .684.203 1.251.207.568.632.91.43.34 1.081.341m4.841 1.016v-7.09h1.334v1.126h.074a1.7 1.7 0 0 1 .683-.9q.495-.333 1.118-.333a6 6 0 0 1 .586.032v1.32a3 3 0 0 0-.296-.05 3 3 0 0 0-.424-.033q-.49 0-.873.208a1.55 1.55 0 0 0-.822 1.39v4.33zm8.43 0v-7.09h1.334v1.126h.074a1.7 1.7 0 0 1 .683-.9 1.96 1.96 0 0 1 1.117-.333 6 6 0 0 1 .587.032v1.32a3 3 0 0 0-.296-.05 3 3 0 0 0-.425-.033q-.49 0-.872.208a1.54 1.54 0 0 0-.822 1.39v4.33zm7.791.143q-1.047 0-1.805-.448a3.04 3.04 0 0 1-1.163-1.27q-.406-.821-.406-1.924 0-1.09.406-1.92a3.15 3.15 0 0 1 1.145-1.298q.738-.466 1.726-.466.6 0 1.164.198.563.199 1.011.623.447.425.706 1.104.259.674.259 1.639v.489h-5.637v-1.034h4.284q0-.545-.222-.965a1.67 1.67 0 0 0-.623-.67 1.74 1.74 0 0 0-.932-.244 1.8 1.8 0 0 0-1.016.286 1.9 1.9 0 0 0-.665.739 2.1 2.1 0 0 0-.231.983v.808q0 .71.25 1.21.253.498.706.761.453.26 1.057.259.392 0 .716-.111a1.48 1.48 0 0 0 .918-.9l1.307.235a2.4 2.4 0 0 1-.563 1.011q-.402.43-1.011.67a3.8 3.8 0 0 1-1.381.235m10.437-7.234L612.63 42.5h-1.478l-2.576-7.09h1.482l1.796 5.456h.074l1.791-5.457zm1.297 7.091v-7.09h1.381v7.09zm.697-8.185a.88.88 0 0 1-.618-.24.78.78 0 0 1-.254-.582q0-.34.254-.581a.87.87 0 0 1 .618-.245q.36 0 .614.245.26.24.259.581a.77.77 0 0 1-.259.582.86.86 0 0 1-.614.24m5.597 8.328q-1.049 0-1.805-.448a3.04 3.04 0 0 1-1.164-1.27q-.406-.821-.406-1.924 0-1.09.406-1.92a3.16 3.16 0 0 1 1.145-1.298q.739-.466 1.727-.466.6 0 1.163.198.564.199 1.011.623.448.425.706 1.104.26.674.259 1.639v.489h-5.637v-1.034h4.284q0-.545-.221-.965a1.7 1.7 0 0 0-.624-.67 1.74 1.74 0 0 0-.932-.244q-.582 0-1.016.286a1.9 1.9 0 0 0-.664.739 2.1 2.1 0 0 0-.231.983v.808q0 .71.249 1.21.254.498.706.761.453.26 1.057.259.393 0 .716-.111a1.48 1.48 0 0 0 .919-.9l1.306.235a2.36 2.36 0 0 1-.563 1.011q-.402.43-1.011.67a3.8 3.8 0 0 1-1.38.235m6.098-.143-2.087-7.09h1.427l1.389 5.207h.07l1.394-5.208h1.426l1.385 5.184h.07l1.38-5.184h1.426l-2.082 7.091h-1.408l-1.44-5.12h-.106l-1.441 5.12zm13.032-4.727q0-1.736.457-3.195a9.5 9.5 0 0 1 1.335-2.691h1.264q-.341.456-.637 1.121-.295.665-.517 1.46a13 13 0 0 0-.346 1.638 11.4 11.4 0 0 0-.125 1.667q0 1.098.217 2.225.217 1.126.587 2.091t.821 1.574h-1.264a9.5 9.5 0 0 1-1.335-2.691q-.457-1.459-.457-3.2Zm4.493 4.727v-1.034l3.2-3.315q.512-.54.844-.946a3.6 3.6 0 0 0 .504-.78q.166-.37.166-.785a1.46 1.46 0 0 0-.222-.813 1.45 1.45 0 0 0-.605-.53 1.9 1.9 0 0 0-.863-.19q-.507 0-.886.208a1.4 1.4 0 0 0-.582.586 1.85 1.85 0 0 0-.203.887h-1.362q0-.864.397-1.51t1.09-1.002q.692-.36 1.574-.36.891 0 1.569.356a2.67 2.67 0 0 1 1.067.96q.383.605.383 1.366 0 .526-.199 1.03-.194.503-.678 1.122-.485.614-1.348 1.49l-1.879 1.967v.07h4.256V42.5zm11.168.13q-.993 0-1.755-.342-.756-.342-1.186-.942a2.27 2.27 0 0 1-.425-1.367 2.41 2.41 0 0 1 .933-1.948 2.14 2.14 0 0 1 .969-.434v-.055a1.9 1.9 0 0 1-1.131-.757 2.2 2.2 0 0 1-.42-1.348 2.2 2.2 0 0 1 .383-1.293q.392-.572 1.076-.9.683-.328 1.556-.328.863 0 1.541.333a2.66 2.66 0 0 1 1.076.9q.393.568.397 1.288a2.25 2.25 0 0 1-.434 1.348 1.92 1.92 0 0 1-1.117.757v.055q.53.093.956.434.43.338.683.845.258.504.263 1.103a2.3 2.3 0 0 1-.434 1.367q-.429.6-1.191.942-.758.34-1.74.341Zm0-1.169q.586 0 1.015-.194a1.57 1.57 0 0 0 .665-.549q.236-.356.24-.83a1.55 1.55 0 0 0-.259-.873 1.7 1.7 0 0 0-.678-.596 2.15 2.15 0 0 0-.983-.217 2.2 2.2 0 0 0-.993.217 1.7 1.7 0 0 0-.683.596 1.53 1.53 0 0 0-.245.872q-.005.476.226.831.235.35.67.55.434.193 1.025.193m0-4.4q.47 0 .835-.188a1.44 1.44 0 0 0 .79-1.316 1.47 1.47 0 0 0-.213-.776 1.34 1.34 0 0 0-.568-.512 1.84 1.84 0 0 0-.844-.185q-.49 0-.859.185-.365.18-.568.512-.203.333-.198.776-.006.452.203.79.207.336.572.526.369.189.85.189Zm7.692.712q0 1.74-.457 3.199a9.6 9.6 0 0 1-1.334 2.691h-1.265q.341-.456.637-1.121.295-.665.517-1.455.222-.794.346-1.643.125-.849.125-1.671 0-1.095-.217-2.22a12.3 12.3 0 0 0-.587-2.092q-.37-.965-.821-1.574h1.265a9.6 9.6 0 0 1 1.334 2.691q.457 1.459.457 3.195m38.616-1.653h-1.44a2.2 2.2 0 0 0-.309-.813 2.3 2.3 0 0 0-.554-.595 2.4 2.4 0 0 0-.734-.37 2.9 2.9 0 0 0-.854-.124q-.817 0-1.464.41-.642.412-1.015 1.206-.37.794-.37 1.939 0 1.154.37 1.948.374.795 1.02 1.2.646.406 1.454.406.448 0 .849-.12.407-.124.734-.364a2.22 2.22 0 0 0 .873-1.39l1.44.005a3.9 3.9 0 0 1-.447 1.283 3.6 3.6 0 0 1-.845 1.007 3.8 3.8 0 0 1-1.173.65q-.66.231-1.44.231-1.228 0-2.188-.581-.96-.587-1.515-1.676-.549-1.09-.549-2.6 0-1.514.554-2.598.554-1.09 1.514-1.672.96-.585 2.184-.586.752 0 1.403.217.656.213 1.177.628.522.412.864 1.006a3.9 3.9 0 0 1 .461 1.353m4.583 6.523q-.997 0-1.74-.457a3.1 3.1 0 0 1-1.154-1.279q-.411-.821-.411-1.92 0-1.104.411-1.93.41-.826 1.154-1.283.743-.457 1.74-.457t1.741.457 1.154 1.283.411 1.93q0 1.098-.411 1.92a3.1 3.1 0 0 1-1.154 1.28q-.744.456-1.741.456m.005-1.159q.647 0 1.071-.341.424-.342.628-.91.208-.567.208-1.25 0-.68-.208-1.247a2.04 2.04 0 0 0-.628-.919q-.424-.345-1.071-.346-.651 0-1.08.346a2.07 2.07 0 0 0-.633.919 3.7 3.7 0 0 0-.203 1.246q0 .684.203 1.251.208.568.633.91.429.34 1.08.341m4.841 1.016v-7.09h1.325v1.153h.088q.222-.585.725-.914.503-.332 1.205-.332.711 0 1.191.332.485.333.715.914h.074q.255-.567.808-.905.554-.34 1.32-.341.965 0 1.575.605.614.604.614 1.823V42.5h-1.381v-4.626q0-.72-.392-1.043a1.43 1.43 0 0 0-.937-.323q-.675 0-1.048.415-.374.412-.374 1.057v4.52h-1.376v-4.713q0-.577-.36-.928t-.937-.351q-.393 0-.725.208a1.53 1.53 0 0 0-.531.567 1.74 1.74 0 0 0-.198.845V42.5zm11.49 2.66v-9.75h1.348v1.149h.115q.12-.222.346-.513.226-.29.628-.508.402-.22 1.062-.221.858 0 1.533.434.673.434 1.057 1.25.387.819.388 1.967 0 1.15-.384 1.972-.383.817-1.052 1.26a2.73 2.73 0 0 1-1.528.438q-.646 0-1.057-.216a2 2 0 0 1-.637-.508 4 4 0 0 1-.356-.517h-.083v3.762h-1.38Zm1.352-6.205q0 .747.217 1.31t.628.882q.411.315 1.007.314.618 0 1.034-.328.415-.332.628-.9.216-.567.216-1.278 0-.702-.212-1.26a1.93 1.93 0 0 0-.628-.883q-.416-.323-1.038-.323-.601 0-1.016.31a1.9 1.9 0 0 0-.623.863q-.213.554-.213 1.293m8.052-5.91V42.5h-1.381v-9.455zm4.913 9.598q-1.049 0-1.805-.448a3.04 3.04 0 0 1-1.164-1.27q-.406-.821-.406-1.924 0-1.09.406-1.92a3.16 3.16 0 0 1 1.145-1.298q.739-.465 1.727-.466.6 0 1.163.198.563.199 1.011.623.448.425.706 1.104.26.674.259 1.639v.489h-5.637v-1.034h4.284q0-.545-.221-.965a1.7 1.7 0 0 0-.624-.67 1.74 1.74 0 0 0-.932-.244q-.582 0-1.016.286a1.9 1.9 0 0 0-.665.739q-.23.453-.23.983v.808q0 .71.249 1.21.254.498.706.761.453.26 1.057.259.393 0 .716-.111a1.48 1.48 0 0 0 .919-.9l1.306.235a2.36 2.36 0 0 1-.563 1.011q-.402.43-1.011.67a3.8 3.8 0 0 1-1.38.235m7.883-7.234v1.108h-3.873v-1.108zm-2.834-1.699h1.38v6.708q0 .402.12.605.12.198.31.272.194.07.42.07.165 0 .29-.024.125-.022.194-.037l.25 1.14a2.7 2.7 0 0 1-.896.148 2.4 2.4 0 0 1-1.016-.194 1.75 1.75 0 0 1-.761-.627q-.291-.425-.291-1.067zm7.341 8.933q-1.047 0-1.805-.448a3.04 3.04 0 0 1-1.163-1.27q-.406-.821-.406-1.924 0-1.09.406-1.92a3.15 3.15 0 0 1 1.145-1.298q.738-.465 1.726-.466.6 0 1.164.198.563.199 1.011.623.447.425.706 1.104.258.674.258 1.639v.489h-5.636v-1.034h4.284q0-.545-.222-.965a1.67 1.67 0 0 0-.623-.67 1.74 1.74 0 0 0-.932-.244 1.8 1.8 0 0 0-1.016.286 1.9 1.9 0 0 0-.665.739 2.1 2.1 0 0 0-.231.983v.808q0 .71.25 1.21.253.498.706.761.453.26 1.057.259.392 0 .716-.111a1.48 1.48 0 0 0 .918-.9l1.307.235a2.4 2.4 0 0 1-.563 1.011q-.402.43-1.011.67a3.8 3.8 0 0 1-1.381.235m7.228-.005a2.75 2.75 0 0 1-1.532-.438q-.669-.444-1.053-1.26-.378-.822-.378-1.972t.383-1.966q.387-.818 1.062-1.251.673-.434 1.528-.434.66 0 1.061.221.407.217.628.508.226.291.351.513h.083v-3.514h1.381V42.5h-1.348v-1.103h-.116a3.6 3.6 0 0 1-.36.517 2 2 0 0 1-.637.508q-.406.216-1.053.217Zm.305-1.177q.596 0 1.007-.314.416-.318.627-.881.217-.564.217-1.311 0-.74-.212-1.293-.212-.555-.623-.863-.411-.31-1.016-.31-.623 0-1.039.324a1.97 1.97 0 0 0-.627.881 3.6 3.6 0 0 0-.208 1.26q0 .71.212 1.28.213.567.628.9.42.327 1.034.327m9.021-3.688q0-1.736.457-3.195a9.5 9.5 0 0 1 1.334-2.691h1.265q-.342.456-.637 1.121-.296.666-.517 1.46a13 13 0 0 0-.346 1.638 11 11 0 0 0-.125 1.667q0 1.098.217 2.225.216 1.126.586 2.091.369.965.822 1.574h-1.265a9.5 9.5 0 0 1-1.334-2.691q-.457-1.459-.457-3.2Zm7.784 4.884q-1.093-.004-1.869-.577-.776-.572-1.187-1.667c-.411-1.095-.411-1.608-.411-2.636q0-1.537.411-2.626.415-1.09 1.191-1.662.78-.573 1.865-.573 1.086 0 1.861.577.775.573 1.186 1.662.416 1.084.416 2.622 0 1.547-.411 2.641-.411 1.09-1.187 1.666-.775.573-1.865.573m0-1.233q.96 0 1.501-.937.544-.937.544-2.71 0-1.177-.249-1.99-.244-.816-.706-1.237a1.55 1.55 0 0 0-1.09-.424q-.955 0-1.5.942-.545.94-.549 2.71 0 1.18.244 1.998.25.813.707 1.233.456.415 1.098.415m7.773-3.651q0 1.74-.457 3.199a9.5 9.5 0 0 1-1.334 2.691h-1.265q.342-.456.637-1.121.296-.665.517-1.455a13 13 0 0 0 .347-1.643q.124-.849.124-1.671 0-1.095-.217-2.22a12.3 12.3 0 0 0-.586-2.092q-.369-.965-.822-1.574h1.265a9.5 9.5 0 0 1 1.334 2.691q.457 1.459.457 3.195m30.411 4.727v-9.455h1.426v4.11h4.714v-4.11h1.431V42.5h-1.431v-4.123h-4.714V42.5zm11.601.157q-.674 0-1.219-.25a2.05 2.05 0 0 1-.863-.733q-.314-.48-.314-1.178 0-.6.231-.988a1.7 1.7 0 0 1 .623-.614 3.3 3.3 0 0 1 .877-.341 9 9 0 0 1 .988-.175l1.034-.12q.397-.051.577-.162t.18-.36v-.032q0-.605-.341-.938-.337-.332-1.007-.332-.697 0-1.098.31-.397.304-.55.678l-1.297-.296q.23-.645.674-1.043a2.7 2.7 0 0 1 1.029-.582 4 4 0 0 1 1.224-.184q.424 0 .9.101.48.098.896.36.42.264.687.753.268.485.268 1.26V42.5h-1.348v-.97h-.055a2 2 0 0 1-.402.527 2.1 2.1 0 0 1-.688.43q-.42.17-1.006.17m.3-1.108q.573 0 .979-.226.41-.227.623-.591a1.53 1.53 0 0 0 .217-.79v-.914q-.074.075-.286.139a5 5 0 0 1-.476.106l-.522.079-.424.055a3.4 3.4 0 0 0-.734.17q-.328.12-.527.347-.193.222-.193.59 0 .513.378.776.379.26.965.259m10.351-4.409-1.251.222a1.5 1.5 0 0 0-.249-.457 1.24 1.24 0 0 0-.452-.356q-.287-.138-.716-.138-.586 0-.979.263-.392.258-.392.67 0 .354.263.572t.849.355l1.127.259q.978.225 1.459.697.48.471.48 1.223 0 .638-.37 1.136-.365.494-1.02.776-.651.28-1.509.281-1.191 0-1.944-.508-.752-.512-.923-1.454l1.334-.203q.125.521.512.79.389.263 1.011.263.679 0 1.085-.282.407-.285.407-.697a.73.73 0 0 0-.25-.559q-.245-.225-.752-.341l-1.201-.264q-.992-.225-1.468-.72-.47-.494-.47-1.25 0-.629.35-1.1.35-.47.97-.733.619-.268 1.417-.268 1.15 0 1.81.498.66.495.872 1.325m8.084 5.503q-1.03 0-1.773-.466a3.1 3.1 0 0 1-1.136-1.297q-.397-.827-.397-1.893 0-1.08.407-1.907.406-.83 1.144-1.297.74-.466 1.741-.466.808 0 1.44.3.633.296 1.02.83.393.537.467 1.252h-1.344a1.6 1.6 0 0 0-.507-.859q-.393-.36-1.053-.36-.577 0-1.011.305-.429.3-.669.859-.24.554-.24 1.31 0 .776.235 1.34.236.563.665.872.433.31 1.02.31.393 0 .711-.144.323-.148.54-.42.222-.272.309-.656h1.344q-.075.688-.448 1.228c-.373.54-.583.644-1.002.85q-.623.31-1.463.31Zm7.376 0q-.997 0-1.741-.457a3.1 3.1 0 0 1-1.154-1.279q-.411-.821-.411-1.92 0-1.104.411-1.93a3.1 3.1 0 0 1 1.154-1.283q.744-.457 1.741-.457t1.74.457 1.154 1.283.411 1.93q0 1.098-.411 1.92a3.1 3.1 0 0 1-1.154 1.28q-.743.456-1.74.456m.004-1.159q.647 0 1.071-.341a2 2 0 0 0 .628-.91q.208-.567.208-1.25a3.6 3.6 0 0 0-.208-1.247 2.03 2.03 0 0 0-.628-.919q-.424-.345-1.071-.346-.651 0-1.08.346a2.06 2.06 0 0 0-.632.919 3.7 3.7 0 0 0-.204 1.246q0 .684.204 1.251.207.568.632.91.429.34 1.08.341m4.842 1.016v-7.09h1.325v1.153h.087q.222-.585.725-.914.504-.332 1.205-.332.711 0 1.191.332.485.333.716.914h.074a2 2 0 0 1 .808-.905q.554-.34 1.32-.341.965 0 1.574.605.614.604.614 1.823V42.5h-1.38v-4.626q0-.72-.393-1.043a1.43 1.43 0 0 0-.937-.323q-.673 0-1.048.415-.374.412-.374 1.057v4.52h-1.375v-4.713q0-.577-.36-.928-.361-.351-.938-.351-.392 0-.724.208a1.5 1.5 0 0 0-.531.567 1.73 1.73 0 0 0-.199.845V42.5zm11.489 0v-7.09h1.325v1.153h.088q.22-.585.725-.914.503-.332 1.204-.332.711 0 1.191.332.486.333.716.914h.074a2 2 0 0 1 .808-.905q.553-.34 1.32-.341.965 0 1.574.605.615.604.614 1.823V42.5h-1.38v-4.626q0-.72-.392-1.043a1.43 1.43 0 0 0-.938-.323q-.673 0-1.047.415-.375.412-.374 1.057v4.52h-1.376v-4.713q0-.577-.36-.928t-.937-.351q-.393 0-.725.208a1.5 1.5 0 0 0-.531.567 1.74 1.74 0 0 0-.199.845V42.5zm14.545.143q-1.047 0-1.805-.448a3.04 3.04 0 0 1-1.163-1.27q-.406-.821-.406-1.924 0-1.09.406-1.92a3.16 3.16 0 0 1 1.145-1.298q.738-.465 1.727-.466.6 0 1.163.198.563.199 1.011.623.447.425.706 1.104.26.674.259 1.639v.489h-5.637v-1.034h4.284q0-.545-.221-.965a1.7 1.7 0 0 0-.624-.67 1.74 1.74 0 0 0-.932-.244 1.8 1.8 0 0 0-1.016.286 1.9 1.9 0 0 0-.665.739 2.1 2.1 0 0 0-.23.983v.808q0 .71.249 1.21.254.498.706.761.453.26 1.057.259.392 0 .716-.111a1.5 1.5 0 0 0 .919-.9l1.306.235a2.37 2.37 0 0 1-.563 1.011q-.402.43-1.011.67a3.8 3.8 0 0 1-1.381.235m5.955-4.353v4.21h-1.381v-7.09h1.325v1.153h.088q.244-.563.766-.905.527-.34 1.325-.341.725 0 1.27.304.544.3.845.896t.3 1.473v4.51h-1.381v-4.344q0-.771-.401-1.205-.402-.439-1.104-.439-.48 0-.854.208a1.5 1.5 0 0 0-.586.61q-.212.396-.212.96m9.699-2.88v1.107h-3.873v-1.108zm-2.835-1.7h1.381v6.708q0 .402.12.605.12.198.309.272.194.07.42.07.166 0 .291-.024.125-.022.194-.037l.249 1.14a2.7 2.7 0 0 1-.896.148 2.4 2.4 0 0 1-1.015-.194 1.74 1.74 0 0 1-.762-.627q-.291-.425-.291-1.067zm9.561 3.43-1.251.222a1.5 1.5 0 0 0-.249-.457 1.24 1.24 0 0 0-.453-.356q-.286-.138-.715-.138-.586 0-.979.263-.392.258-.392.67 0 .354.263.572.262.217.849.355l1.127.259q.978.226 1.458.697t.481 1.223q0 .638-.37 1.136-.365.495-1.02.776-.65.28-1.51.281-1.191 0-1.943-.508-.753-.512-.923-1.454l1.334-.203q.125.521.512.79.389.263 1.011.263.679 0 1.085-.282.406-.285.406-.697a.73.73 0 0 0-.249-.559q-.245-.225-.753-.341l-1.2-.264q-.993-.225-1.468-.72-.471-.494-.471-1.25 0-.629.351-1.1.35-.47.97-.733.618-.268 1.417-.268 1.149 0 1.809.498.66.495.873 1.325m5.498.633q0-1.736.457-3.195a9.6 9.6 0 0 1 1.334-2.691h1.265q-.341.456-.637 1.121-.295.666-.517 1.46a13 13 0 0 0-.346 1.638 11.4 11.4 0 0 0-.125 1.667q0 1.098.217 2.225.217 1.126.587 2.091t.821 1.574H912.3a9.6 9.6 0 0 1-1.334-2.691q-.457-1.459-.457-3.2Zm8.08-4.728V42.5h-1.431v-8.023h-.055l-2.262 1.477v-1.367l2.359-1.542zm5.231 4.728q0 1.74-.457 3.199a9.5 9.5 0 0 1-1.335 2.691h-1.264q.341-.456.637-1.121.295-.665.517-1.455a13 13 0 0 0 .346-1.643q.125-.849.125-1.671 0-1.095-.217-2.22a12.3 12.3 0 0 0-.587-2.092q-.37-.965-.821-1.574h1.264a9.5 9.5 0 0 1 1.335 2.691q.457 1.459.457 3.195"></path></svg>