<svg
        xmlns="http://www.w3.org/2000/svg"
        width="208"
        height="32"
        fill="none"
      >
        <mask id="a" fill="#fff">
          <path d="M0 6a6 6 0 0 1 6-6h20a6 6 0 0 1 6 6v20a6 6 0 0 1-6 6H6a6 6 0 0 1-6-6z"></path>
        </mask>
        <path
          fill="#fff"
          d="M0 6a6 6 0 0 1 6-6h20a6 6 0 0 1 6 6v20a6 6 0 0 1-6 6H6a6 6 0 0 1-6-6z"
        ></path>
        <path
          fill="#CFD1D5"
          d="M6 0v1h20v-2H6zm26 6h-1v20h2V6zm-6 26v-1H6v2h20zM0 26h1V6h-2v20zm6 6v-1a5 5 0 0 1-5-5h-2a7 7 0 0 0 7 7zm26-6h-1a5 5 0 0 1-5 5v2a7 7 0 0 0 7-7zM26 0v1a5 5 0 0 1 5 5h2a7 7 0 0 0-7-7zM6 0v-1a7 7 0 0 0-7 7h2a5 5 0 0 1 5-5z"
          mask="url(#a)"
        ></path>
        <g
          fill="#1E3145"
          fill-rule="evenodd"
          clip-path="url(#b)"
          clip-rule="evenodd"
        >
          <path d="M16.002 12.876a3.124 3.124 0 0 1 2.21 5.335 3.122 3.122 0 0 1-5.335-2.21c0-.828.329-1.622.916-2.209a3.12 3.12 0 0 1 2.209-.916m0 1.25c-.5 0-.972.197-1.325.55a1.87 1.87 0 0 0 0 2.65c.353.356.825.55 1.325.55s.972-.197 1.325-.55c.356-.353.55-.825.55-1.325s-.197-.972-.55-1.325a1.85 1.85 0 0 0-1.325-.55m2.044-5.894a1.87 1.87 0 0 1 2 .829c.21.33.306.709.287 1.1l-.047.894a.7.7 0 0 0 .041.256.6.6 0 0 0 .36.36.7.7 0 0 0 .255.04l.895-.047c.387-.018.769.08 1.097.29s.581.51.731.87c.15.358.181.75.097 1.13a1.87 1.87 0 0 1-.573.982l-.665.6a.7.7 0 0 0-.153.21.65.65 0 0 0 0 .513.6.6 0 0 0 .153.21l.665.601a1.873 1.873 0 0 1-.256 2.98 1.9 1.9 0 0 1-1.096.289l-.895-.047a.7.7 0 0 0-.256.04.6.6 0 0 0-.359.36.6.6 0 0 0-.04.256l.043.897a1.877 1.877 0 0 1-3.259 1.354l-.603-.67a.63.63 0 0 0-.935 0l-.602.666a1.87 1.87 0 0 1-1.39.616l.002.003a1.8 1.8 0 0 1-.716-.144c-.36-.147-.659-.4-.865-.729a1.86 1.86 0 0 1-.291-1.093l.047-.9a.63.63 0 0 0-.656-.66l-.897.048a1.87 1.87 0 0 1-1.828-1.156 1.87 1.87 0 0 1 .472-2.113l.665-.6a.627.627 0 0 0 0-.932l-.665-.605a1.86 1.86 0 0 1-.57-.979 1.86 1.86 0 0 1 .098-1.128c.147-.36.4-.66.727-.866.329-.21.707-.309 1.094-.29l.898.047a.7.7 0 0 0 .259-.041.63.63 0 0 0 .4-.618l-.044-.9a1.875 1.875 0 0 1 3.263-1.35l.6.665a.63.63 0 0 0 .929 0l.604-.665c.26-.288.6-.485.979-.573m.278 1.22a.6.6 0 0 0-.328.19l-.606.666a1.88 1.88 0 0 1-2.784 0l-.601-.663a.635.635 0 0 0-.703-.157.625.625 0 0 0-.384.61l.044.894a1.9 1.9 0 0 1-.122.769 1.8 1.8 0 0 1-.425.653c-.187.188-.41.331-.656.425a1.9 1.9 0 0 1-.773.122l-.893-.044a.625.625 0 0 0-.606.384.64.64 0 0 0 .16.707l.665.602a1.89 1.89 0 0 1 .62 1.394 1.9 1.9 0 0 1-.62 1.394l-.666.6a.6.6 0 0 0-.19.328.65.65 0 0 0 .03.378.63.63 0 0 0 .61.388l.897-.047h.097l.003-.003q.347-.001.672.125a1.9 1.9 0 0 1 1.078 1.078c.094.247.137.506.122.769l-.047.896a.63.63 0 0 0 .388.607c.118.05.25.062.378.03a.6.6 0 0 0 .325-.19l.602-.665a1.88 1.88 0 0 1 2.788 0l.6.666a.64.64 0 0 0 .7.153.62.62 0 0 0 .384-.61l-.043-.89a1.85 1.85 0 0 1 .547-1.422 1.85 1.85 0 0 1 1.422-.547l.893.047a.6.6 0 0 0 .366-.097.63.63 0 0 0 .244-.29.6.6 0 0 0 .031-.379.6.6 0 0 0-.19-.328l-.667-.6a1.88 1.88 0 0 1-.456-2.156 1.9 1.9 0 0 1 .456-.631l.667-.6a.628.628 0 0 0-.085-.997.64.64 0 0 0-.366-.097l-.893.047a1.85 1.85 0 0 1-.77-.125 1.8 1.8 0 0 1-.65-.426 1.9 1.9 0 0 1-.424-.652 1.84 1.84 0 0 1-.122-.77l.047-.893a.64.64 0 0 0-.097-.368.625.625 0 0 0-.669-.275"></path>
          <path d="M16.002 12.876a3.124 3.124 0 0 1 2.21 5.335 3.122 3.122 0 0 1-5.335-2.21c0-.828.329-1.622.916-2.209a3.12 3.12 0 0 1 2.209-.916m0 1.25c-.5 0-.972.197-1.325.55a1.87 1.87 0 0 0 0 2.65c.353.356.825.55 1.325.55s.972-.197 1.325-.55c.356-.353.55-.825.55-1.325s-.197-.972-.55-1.325a1.85 1.85 0 0 0-1.325-.55m2.044-5.894a1.87 1.87 0 0 1 2 .829c.21.33.306.709.287 1.1l-.047.894a.7.7 0 0 0 .041.256.6.6 0 0 0 .36.36.7.7 0 0 0 .255.04l.895-.047c.387-.018.769.08 1.097.29s.581.51.731.87c.15.358.181.75.097 1.13a1.87 1.87 0 0 1-.573.982l-.665.6a.7.7 0 0 0-.153.21.65.65 0 0 0 0 .513.6.6 0 0 0 .153.21l.665.601a1.873 1.873 0 0 1-.256 2.98 1.9 1.9 0 0 1-1.096.289l-.895-.047a.7.7 0 0 0-.256.04.6.6 0 0 0-.359.36.6.6 0 0 0-.04.256l.043.897a1.877 1.877 0 0 1-3.259 1.354l-.603-.67a.63.63 0 0 0-.935 0l-.602.666a1.87 1.87 0 0 1-1.39.616l.002.003a1.8 1.8 0 0 1-.716-.144c-.36-.147-.659-.4-.865-.729a1.86 1.86 0 0 1-.291-1.093l.047-.9a.63.63 0 0 0-.656-.66l-.897.048a1.87 1.87 0 0 1-1.828-1.156 1.87 1.87 0 0 1 .472-2.113l.665-.6a.627.627 0 0 0 0-.932l-.665-.605a1.86 1.86 0 0 1-.57-.979 1.86 1.86 0 0 1 .098-1.128c.147-.36.4-.66.727-.866.329-.21.707-.309 1.094-.29l.898.047a.7.7 0 0 0 .259-.041.63.63 0 0 0 .4-.618l-.044-.9a1.875 1.875 0 0 1 3.263-1.35l.6.665a.63.63 0 0 0 .929 0l.604-.665c.26-.288.6-.485.979-.573m.278 1.22a.6.6 0 0 0-.328.19l-.606.666a1.88 1.88 0 0 1-2.784 0l-.601-.663a.635.635 0 0 0-.703-.157.625.625 0 0 0-.384.61l.044.894a1.9 1.9 0 0 1-.122.769 1.8 1.8 0 0 1-.425.653c-.187.188-.41.331-.656.425a1.9 1.9 0 0 1-.773.122l-.893-.044a.625.625 0 0 0-.606.384.64.64 0 0 0 .16.707l.665.602a1.89 1.89 0 0 1 .62 1.394 1.9 1.9 0 0 1-.62 1.394l-.666.6a.6.6 0 0 0-.19.328.65.65 0 0 0 .03.378.63.63 0 0 0 .61.388l.897-.047h.097l.003-.003q.347-.001.672.125a1.9 1.9 0 0 1 1.078 1.078c.094.247.137.506.122.769l-.047.896a.63.63 0 0 0 .388.607c.118.05.25.062.378.03a.6.6 0 0 0 .325-.19l.602-.665a1.88 1.88 0 0 1 2.788 0l.6.666a.64.64 0 0 0 .7.153.62.62 0 0 0 .384-.61l-.043-.89a1.85 1.85 0 0 1 .547-1.422 1.85 1.85 0 0 1 1.422-.547l.893.047a.6.6 0 0 0 .366-.097.63.63 0 0 0 .244-.29.6.6 0 0 0 .031-.379.6.6 0 0 0-.19-.328l-.667-.6a1.88 1.88 0 0 1-.456-2.156 1.9 1.9 0 0 1 .456-.631l.667-.6a.628.628 0 0 0-.085-.997.64.64 0 0 0-.366-.097l-.893.047a1.85 1.85 0 0 1-.77-.125 1.8 1.8 0 0 1-.65-.426 1.9 1.9 0 0 1-.424-.652 1.84 1.84 0 0 1-.122-.77l.047-.893a.64.64 0 0 0-.097-.368.625.625 0 0 0-.669-.275"></path>
        </g>
        <path
          fill="#1F68DD"
          d="M40 6a6 6 0 0 1 6-6h156a6 6 0 0 1 6 6v20a6 6 0 0 1-6 6H46a6 6 0 0 1-6-6z"
        ></path>
        <g clip-path="url(#c)">
          <path
            fill="#fff"
            d="M62.25 16c0 .345-.28.625-.625.625h-5v5a.625.625 0 1 1-1.25 0v-5h-5a.625.625 0 1 1 0-1.25h5v-5a.625.625 0 1 1 1.25 0v5h5c.345 0 .625.28.625.625"
          ></path>
        </g>
        <path
          fill="#fff"
          d="M76.864 11.046V20.5h-1.312l-4.805-6.934h-.088V20.5h-1.426v-9.454h1.32l4.81 6.943h.088v-6.944h1.413Zm5.026 9.597q-1.048 0-1.805-.448a3.04 3.04 0 0 1-1.164-1.27q-.406-.821-.406-1.924 0-1.09.406-1.92a3.16 3.16 0 0 1 1.145-1.298q.739-.465 1.727-.466.6 0 1.163.198.564.199 1.011.623.448.425.707 1.104.258.674.258 1.639v.489h-5.637v-1.034h4.284q0-.545-.221-.965a1.67 1.67 0 0 0-.623-.67 1.74 1.74 0 0 0-.933-.244q-.582 0-1.016.286a1.9 1.9 0 0 0-.664.739q-.231.453-.231.983v.808q0 .71.25 1.21.252.498.706.761.452.26 1.057.259.392 0 .715-.111a1.49 1.49 0 0 0 .919-.9l1.306.235a2.37 2.37 0 0 1-.563 1.011 2.7 2.7 0 0 1-1.01.67 3.8 3.8 0 0 1-1.381.235m6.098-.143-2.087-7.09h1.427l1.39 5.206h.069l1.394-5.207h1.427l1.384 5.184h.07l1.38-5.184h1.427L93.785 20.5h-1.408l-1.44-5.12h-.106l-1.44 5.12zm14.168 0-2.087-7.09h1.427l1.39 5.206h.069l1.394-5.207h1.426l1.385 5.184h.07l1.38-5.184h1.426l-2.082 7.091h-1.408l-1.44-5.12H105l-1.44 5.12zm11.961.143q-.997 0-1.74-.457a3.1 3.1 0 0 1-1.154-1.279q-.411-.821-.411-1.92 0-1.104.411-1.93.41-.826 1.154-1.283.743-.457 1.74-.457t1.741.457q.743.457 1.154 1.283t.411 1.93q0 1.099-.411 1.92a3.1 3.1 0 0 1-1.154 1.28q-.744.456-1.741.456m.005-1.159q.647 0 1.071-.341.424-.342.628-.91.208-.567.208-1.25 0-.68-.208-1.247a2.04 2.04 0 0 0-.628-.919q-.424-.346-1.071-.346-.651 0-1.08.346a2.07 2.07 0 0 0-.633.919 3.7 3.7 0 0 0-.203 1.246q0 .684.203 1.251.209.568.633.91.429.34 1.08.341m4.842 1.016v-7.09h1.334v1.126h.074a1.7 1.7 0 0 1 .683-.9 1.96 1.96 0 0 1 1.117-.333 6 6 0 0 1 .586.032v1.32a3 3 0 0 0-.295-.05 3 3 0 0 0-.425-.033q-.49 0-.872.208a1.54 1.54 0 0 0-.822 1.39v4.33zm6.258-2.405-.009-1.685h.24l2.825-3h1.653l-3.222 3.415h-.217zm-1.269 2.405v-9.454h1.38V20.5zm4.478 0-2.539-3.37.951-.965 3.282 4.335zm2.758 2.66v-9.75h1.348v1.149h.116q.12-.222.346-.513.226-.29.628-.508.4-.22 1.061-.221.86 0 1.533.434.674.434 1.057 1.25.388.818.388 1.967t-.383 1.972q-.383.816-1.053 1.26a2.72 2.72 0 0 1-1.528.439q-.646 0-1.057-.217a2 2 0 0 1-.637-.508 4 4 0 0 1-.355-.517h-.084v3.762zm1.353-6.206q0 .749.217 1.312.216.563.628.881.41.315 1.006.314.618 0 1.034-.327.415-.333.628-.9.217-.57.217-1.28 0-.7-.212-1.26a1.93 1.93 0 0 0-.628-.882q-.416-.323-1.039-.323-.6 0-1.016.31-.41.31-.623.863-.212.554-.212 1.292m8.734 3.703a2.9 2.9 0 0 1-1.219-.25 2.05 2.05 0 0 1-.863-.733q-.314-.48-.314-1.178 0-.6.231-.987.231-.389.623-.614.393-.226.877-.342a9 9 0 0 1 .988-.175l1.034-.12q.397-.051.577-.162t.18-.36v-.033q0-.604-.341-.937-.337-.332-1.007-.332-.696 0-1.098.31-.397.304-.55.678l-1.297-.296a2.5 2.5 0 0 1 .674-1.043 2.7 2.7 0 0 1 1.03-.582 4 4 0 0 1 1.223-.184q.424 0 .9.101.48.097.896.36.42.264.688.753.267.485.267 1.26V20.5h-1.348v-.97h-.055a2 2 0 0 1-.402.527 2.1 2.1 0 0 1-.687.43q-.421.17-1.007.17m.3-1.108q.573 0 .979-.226a1.6 1.6 0 0 0 .623-.591 1.53 1.53 0 0 0 .217-.79v-.914q-.074.075-.286.139a5 5 0 0 1-.476.106l-.521.079-.425.055q-.402.05-.734.17-.328.12-.526.347-.195.222-.194.59 0 .514.378.777.379.258.965.258m5.038 3.61v-9.75h1.348v1.15h.115q.12-.222.347-.513.226-.29.627-.508.402-.22 1.062-.221.86 0 1.533.434.674.434 1.057 1.25.388.818.388 1.967t-.383 1.972q-.384.816-1.053 1.26a2.72 2.72 0 0 1-1.528.439q-.646 0-1.057-.217a2 2 0 0 1-.637-.508 4 4 0 0 1-.356-.517h-.083v3.762zm1.353-6.204q0 .747.217 1.31.216.564.627.882.411.315 1.007.314.618 0 1.034-.327.415-.333.628-.9.217-.57.217-1.28a3.5 3.5 0 0 0-.213-1.26 1.9 1.9 0 0 0-.628-.882q-.415-.323-1.038-.323-.6 0-1.016.31-.41.31-.623.863-.212.554-.212 1.292Zm9.726 3.688q-1.047 0-1.805-.448a3.04 3.04 0 0 1-1.163-1.27q-.406-.821-.406-1.924 0-1.09.406-1.92a3.16 3.16 0 0 1 1.145-1.298q.738-.466 1.727-.466.6 0 1.163.198.563.199 1.011.623.447.425.706 1.104.26.674.259 1.639v.489h-5.637v-1.034h4.284q0-.545-.221-.965a1.7 1.7 0 0 0-.624-.67 1.74 1.74 0 0 0-.932-.244 1.8 1.8 0 0 0-1.016.286 1.9 1.9 0 0 0-.665.739 2.1 2.1 0 0 0-.23.983v.808q0 .71.249 1.21.254.498.706.761.453.26 1.057.259.393 0 .716-.111a1.5 1.5 0 0 0 .919-.9l1.306.235a2.37 2.37 0 0 1-.563 1.011q-.402.43-1.011.67a3.8 3.8 0 0 1-1.381.235m4.574-.143v-7.09h1.334v1.126h.074q.194-.573.684-.9a1.95 1.95 0 0 1 1.117-.333 6 6 0 0 1 .586.032v1.32a3 3 0 0 0-.295-.05 3 3 0 0 0-.425-.033q-.489 0-.873.208a1.55 1.55 0 0 0-.821 1.39v4.33zm8.43 2.66v-9.75h1.348v1.149h.115q.12-.222.347-.513.226-.29.627-.508.402-.22 1.062-.221.86 0 1.533.434.674.434 1.057 1.25.388.818.388 1.967t-.383 1.972q-.384.816-1.053 1.26a2.72 2.72 0 0 1-1.528.439q-.646 0-1.057-.217a2 2 0 0 1-.637-.508 4 4 0 0 1-.356-.517h-.083v3.762zm1.353-6.206q0 .749.217 1.312.216.563.627.881.411.315 1.007.314.618 0 1.034-.327.415-.333.628-.9.216-.57.217-1.28a3.5 3.5 0 0 0-.213-1.26 1.9 1.9 0 0 0-.628-.882q-.415-.323-1.038-.323-.6 0-1.016.31-.41.31-.623.863-.213.554-.212 1.292m8.734 3.703q-.674 0-1.219-.25a2.05 2.05 0 0 1-.863-.733q-.314-.48-.314-1.178 0-.6.231-.987a1.7 1.7 0 0 1 .623-.614q.393-.227.877-.342a9 9 0 0 1 .988-.175l1.034-.12q.397-.051.577-.162t.18-.36v-.033q0-.604-.341-.937-.337-.332-1.007-.332-.697 0-1.098.31-.397.304-.55.678l-1.297-.296a2.5 2.5 0 0 1 .674-1.043 2.7 2.7 0 0 1 1.029-.582 4 4 0 0 1 1.224-.184q.424 0 .9.101.48.098.896.36.42.264.687.753.268.485.268 1.26V20.5h-1.348v-.97h-.055a2 2 0 0 1-.402.527 2.1 2.1 0 0 1-.688.43q-.42.17-1.006.17m.3-1.108q.573 0 .979-.226.41-.226.623-.591a1.53 1.53 0 0 0 .217-.79v-.914q-.074.075-.286.139a5 5 0 0 1-.476.106l-.521.079-.425.055a3.4 3.4 0 0 0-.734.17q-.328.12-.526.347-.194.222-.194.59 0 .514.378.777.379.258.965.258m8.025 1.094q-1.03 0-1.773-.466a3.1 3.1 0 0 1-1.136-1.297q-.397-.826-.397-1.893 0-1.08.406-1.907a3.1 3.1 0 0 1 1.145-1.297q.74-.465 1.741-.466.807 0 1.44.3.633.296 1.02.83.392.537.467 1.252h-1.344a1.6 1.6 0 0 0-.508-.859q-.392-.36-1.052-.36-.578 0-1.011.305-.43.3-.67.858-.24.555-.24 1.311 0 .777.236 1.34.235.563.665.872.433.31 1.02.31.391 0 .711-.144.323-.149.54-.42.222-.273.309-.656h1.344q-.075.688-.448 1.228c-.373.54-.583.644-1.002.85q-.623.31-1.463.31Zm5.658-2.548-.009-1.685h.24l2.825-3h1.653l-3.222 3.415h-.217zm-1.269 2.405v-9.454h1.38V20.5zm4.478 0-2.539-3.37.951-.965 3.282 4.335z"
        ></path>
        <defs>
          <clipPath id="b">
            <path fill="#fff" d="M8.191 8.186h15.616v15.627H8.191z"></path>
          </clipPath>
          <clipPath id="c">
            <path fill="#fff" d="M49.75 9.75h12.5v12.5h-12.5z"></path>
          </clipPath>
        </defs>
      </svg>