<svg width="325" height="32" viewBox="0 0 325 32" fill="none" xmlns="http://www.w3.org/2000/svg">
<rect x="0.5" y="0.5" width="149" height="31" rx="5.5" fill="white"/>
<rect x="0.5" y="0.5" width="149" height="31" rx="5.5" stroke="#CFD1D5"/>
<path d="M10.3995 16.7252C10.657 17.3095 11.0314 17.8391 11.5013 18.2839C11.9712 18.7287 12.5273 19.0799 13.138 19.3175C13.7486 19.555 14.4018 19.6743 15.0603 19.6685C15.7187 19.6627 16.3696 19.5319 16.9756 19.2836C17.5816 19.0352 18.131 18.6743 18.5923 18.2213C19.0537 17.7683 19.418 17.2321 19.6644 16.6434C19.9108 16.0546 20.0345 15.4249 20.0285 14.79C20.0224 14.1552 19.8868 13.5278 19.6292 12.9435C19.3716 12.3592 18.9972 11.8295 18.5274 11.3848C18.0575 10.94 17.5014 10.5888 16.8907 10.3512C16.2801 10.1137 15.6269 9.99439 14.9684 10.0002C14.3099 10.006 13.6591 10.1368 13.0531 10.3851C12.447 10.6334 11.8977 10.9944 11.4363 11.4474C10.975 11.9004 10.6107 12.4366 10.3643 13.0253C10.1179 13.614 9.99418 14.2438 10.0002 14.8786C10.0062 15.5135 10.1419 16.1409 10.3995 16.7252Z" stroke="#1E3145" stroke-width="1.5" stroke-linecap="round" stroke-linejoin="round"/>
<path d="M18.5586 18.25L22.4476 21.9999" stroke="#1E3145" stroke-width="1.5" stroke-linecap="round" stroke-linejoin="round"/>
<path d="M38.3153 13.4091C38.2599 12.9413 38.0353 12.5781 37.6413 12.3196C37.2474 12.0611 36.7642 11.9318 36.1918 11.9318C35.7732 11.9318 35.407 11.9995 35.093 12.1349C34.7822 12.2704 34.5391 12.4566 34.3636 12.6935C34.1913 12.9305 34.1051 13.1998 34.1051 13.5014C34.1051 13.7538 34.1651 13.9708 34.2852 14.1523C34.4083 14.3308 34.5652 14.4801 34.756 14.6001C34.9469 14.7171 35.1469 14.814 35.3562 14.891C35.5655 14.9648 35.7578 15.0249 35.9332 15.071L36.8935 15.3295C37.1397 15.3942 37.4136 15.4834 37.7152 15.5973C38.0199 15.7112 38.3107 15.8666 38.5877 16.0636C38.8678 16.2575 39.0986 16.5067 39.2802 16.8114C39.4618 17.1161 39.5526 17.4901 39.5526 17.9332C39.5526 18.4441 39.4187 18.9058 39.1509 19.3182C38.8862 19.7306 38.4985 20.0584 37.9876 20.3015C37.4798 20.5446 36.8627 20.6662 36.1364 20.6662C35.4593 20.6662 34.873 20.5569 34.3775 20.3384C33.8851 20.1199 33.4973 19.8152 33.2141 19.4244C32.9341 19.0335 32.7756 18.5795 32.7386 18.0625H33.9205C33.9512 18.4195 34.0713 18.715 34.2805 18.9489C34.4929 19.1797 34.7607 19.352 35.0838 19.4659C35.41 19.5767 35.7609 19.6321 36.1364 19.6321C36.5734 19.6321 36.9658 19.5613 37.3136 19.4197C37.6613 19.2751 37.9368 19.075 38.1399 18.8196C38.343 18.5611 38.4446 18.2595 38.4446 17.9148C38.4446 17.6009 38.3569 17.3454 38.1815 17.1484C38.006 16.9515 37.7752 16.7914 37.489 16.6683C37.2028 16.5452 36.8935 16.4375 36.5611 16.3452L35.3977 16.0128C34.6591 15.8004 34.0743 15.4973 33.6435 15.1033C33.2126 14.7094 32.9972 14.1939 32.9972 13.5568C32.9972 13.0275 33.1403 12.5658 33.4265 12.1719C33.7158 11.7749 34.1036 11.4671 34.5898 11.2486C35.0792 11.027 35.6255 10.9162 36.2287 10.9162C36.8381 10.9162 37.3797 11.0254 37.8537 11.244C38.3277 11.4594 38.7031 11.7549 38.9801 12.1303C39.2602 12.5058 39.4079 12.9321 39.4233 13.4091H38.3153ZM44.2602 20.6477C43.577 20.6477 42.9876 20.4969 42.4921 20.1953C41.9997 19.8906 41.6196 19.4659 41.3518 18.9212C41.0872 18.3733 40.9548 17.7363 40.9548 17.0099C40.9548 16.2836 41.0872 15.6435 41.3518 15.0895C41.6196 14.5324 41.992 14.0985 42.469 13.7876C42.9491 13.4737 43.5093 13.3168 44.1494 13.3168C44.5187 13.3168 44.8834 13.3783 45.2435 13.5014C45.6036 13.6245 45.9314 13.8246 46.2268 14.1016C46.5223 14.3755 46.7577 14.7386 46.9332 15.1911C47.1086 15.6435 47.1963 16.2005 47.1963 16.8622V17.3239H41.7304V16.3821H46.0883C46.0883 15.982 46.0083 15.625 45.8483 15.3111C45.6913 14.9972 45.4666 14.7494 45.1743 14.5678C44.885 14.3862 44.5434 14.2955 44.1494 14.2955C43.7155 14.2955 43.34 14.4032 43.023 14.6186C42.7091 14.831 42.4675 15.108 42.2982 15.4496C42.1289 15.7912 42.0443 16.1574 42.0443 16.5483V17.1761C42.0443 17.7116 42.1366 18.1656 42.3213 18.538C42.509 18.9073 42.7691 19.1889 43.1015 19.3828C43.4339 19.5736 43.8201 19.669 44.2602 19.669C44.5464 19.669 44.805 19.629 45.0358 19.549C45.2697 19.4659 45.4713 19.3428 45.6405 19.1797C45.8098 19.0135 45.9406 18.8073 46.0329 18.5611L47.0855 18.8565C46.9747 19.2135 46.7885 19.5275 46.5269 19.7983C46.2653 20.0661 45.9421 20.2753 45.5574 20.4261C45.1727 20.5739 44.7403 20.6477 44.2602 20.6477ZM50.9403 20.6662C50.4909 20.6662 50.0831 20.5816 49.7169 20.4123C49.3506 20.2399 49.0598 19.9922 48.8444 19.669C48.6289 19.3428 48.5212 18.9489 48.5212 18.4872C48.5212 18.081 48.6012 17.7517 48.7613 17.4993C48.9213 17.2438 49.1352 17.0438 49.403 16.8991C49.6707 16.7545 49.9662 16.6468 50.2893 16.576C50.6156 16.5021 50.9433 16.4437 51.2726 16.4006C51.7035 16.3452 52.0528 16.3036 52.3206 16.2759C52.5914 16.2451 52.7884 16.1944 52.9115 16.1236C53.0377 16.0528 53.1008 15.9297 53.1008 15.7543V15.7173C53.1008 15.2618 52.9761 14.9079 52.7268 14.6555C52.4806 14.4032 52.1067 14.277 51.605 14.277C51.0849 14.277 50.6771 14.3909 50.3817 14.6186C50.0862 14.8464 49.8785 15.0895 49.7584 15.348L48.7243 14.9787C48.909 14.5478 49.1552 14.2124 49.463 13.9723C49.7738 13.7292 50.1124 13.5599 50.4786 13.4645C50.8479 13.366 51.2111 13.3168 51.5681 13.3168C51.7958 13.3168 52.0574 13.3445 52.3529 13.3999C52.6514 13.4522 52.9392 13.5614 53.2162 13.7276C53.4962 13.8938 53.7286 14.1446 53.9133 14.4801C54.0979 14.8156 54.1903 15.2649 54.1903 15.8281V20.5H53.1008V19.5398H53.0454C52.9715 19.6937 52.8484 19.8583 52.676 20.0337C52.5037 20.2092 52.2744 20.3584 51.9882 20.4815C51.702 20.6046 51.3527 20.6662 50.9403 20.6662ZM51.1064 19.6875C51.5373 19.6875 51.9005 19.6029 52.1959 19.4336C52.4945 19.2643 52.7191 19.0458 52.8699 18.7781C53.0238 18.5103 53.1008 18.2287 53.1008 17.9332V16.9361C53.0546 16.9915 52.953 17.0423 52.7961 17.0884C52.6422 17.1315 52.4637 17.17 52.2606 17.2038C52.0605 17.2346 51.8651 17.2623 51.6743 17.2869C51.4865 17.3085 51.3342 17.3269 51.2172 17.3423C50.9341 17.3793 50.6694 17.4393 50.4232 17.5224C50.1801 17.6024 49.9831 17.724 49.8323 17.8871C49.6846 18.0471 49.6107 18.2656 49.6107 18.5426C49.6107 18.9212 49.7507 19.2074 50.0308 19.4013C50.314 19.5921 50.6725 19.6875 51.1064 19.6875ZM56.1788 20.5V13.4091H57.2314V14.4801H57.3052C57.4345 14.1293 57.6684 13.8446 58.0069 13.6261C58.3455 13.4076 58.7271 13.2983 59.1518 13.2983C59.2318 13.2983 59.3319 13.2998 59.4519 13.3029C59.5719 13.306 59.6627 13.3106 59.7243 13.3168V14.4247C59.6873 14.4155 59.6027 14.4016 59.4703 14.3832C59.3411 14.3616 59.2041 14.3509 59.0595 14.3509C58.7148 14.3509 58.407 14.4232 58.1362 14.5678C57.8684 14.7094 57.6561 14.9064 57.4991 15.1587C57.3452 15.408 57.2683 15.6927 57.2683 16.0128V20.5H56.1788ZM63.6806 20.6477C63.0158 20.6477 62.4434 20.4908 61.9632 20.1768C61.4831 19.8629 61.1138 19.4305 60.8553 18.8796C60.5968 18.3287 60.4675 17.6993 60.4675 16.9915C60.4675 16.2713 60.5998 15.6358 60.8645 15.0849C61.1323 14.5309 61.5047 14.0985 61.9817 13.7876C62.4618 13.4737 63.022 13.3168 63.6621 13.3168C64.1607 13.3168 64.61 13.4091 65.0101 13.5938C65.4102 13.7784 65.738 14.0369 65.9934 14.3693C66.2489 14.7017 66.4074 15.0895 66.4689 15.5327H65.3794C65.2963 15.2095 65.1117 14.9233 64.8255 14.674C64.5423 14.4216 64.1607 14.2955 63.6806 14.2955C63.2559 14.2955 62.8835 14.4062 62.5634 14.6278C62.2464 14.8464 61.9986 15.1557 61.8201 15.5558C61.6447 15.9528 61.557 16.419 61.557 16.9545C61.557 17.5024 61.6432 17.9794 61.8155 18.3857C61.9909 18.7919 62.2372 19.1074 62.5542 19.332C62.8742 19.5567 63.2497 19.669 63.6806 19.669C63.9637 19.669 64.2207 19.6198 64.4515 19.5213C64.6824 19.4228 64.8778 19.2812 65.0378 19.0966C65.1979 18.9119 65.3117 18.6903 65.3794 18.4318H66.4689C66.4074 18.8504 66.255 19.2274 66.0119 19.5629C65.7718 19.8952 65.4533 20.1599 65.0563 20.3569C64.6623 20.5508 64.2038 20.6477 63.6806 20.6477ZM69.1511 16.2344V20.5H68.0616V11.0455H69.1511V14.517H69.2434C69.4096 14.1508 69.6589 13.86 69.9913 13.6445C70.3268 13.426 70.773 13.3168 71.3301 13.3168C71.8133 13.3168 72.2364 13.4137 72.5996 13.6076C72.9628 13.7984 73.2444 14.0923 73.4444 14.4893C73.6475 14.8833 73.7491 15.3849 73.7491 15.9943V20.5H72.6596V16.0682C72.6596 15.505 72.5134 15.0695 72.2211 14.7617C71.9318 14.4509 71.5301 14.2955 71.0162 14.2955C70.6592 14.2955 70.3391 14.3709 70.0559 14.5217C69.7759 14.6725 69.5543 14.8925 69.3912 15.1818C69.2311 15.4711 69.1511 15.822 69.1511 16.2344Z" fill="#616B7A"/>
<mask id="path-5-inside-1_3_7186" fill="white">
<path d="M158 6C158 2.68629 160.686 0 164 0H220C223.314 0 226 2.68629 226 6V26C226 29.3137 223.314 32 220 32H164C160.686 32 158 29.3137 158 26V6Z"/>
</mask>
<path d="M158 6C158 2.68629 160.686 0 164 0H220C223.314 0 226 2.68629 226 6V26C226 29.3137 223.314 32 220 32H164C160.686 32 158 29.3137 158 26V6Z" fill="white"/>
<path d="M164 0V1H220V0V-1H164V0ZM226 6H225V26H226H227V6H226ZM220 32V31H164V32V33H220V32ZM158 26H159V6H158H157V26H158ZM164 32V31C161.239 31 159 28.7614 159 26H158H157C157 29.866 160.134 33 164 33V32ZM226 26H225C225 28.7614 222.761 31 220 31V32V33C223.866 33 227 29.866 227 26H226ZM220 0V1C222.761 1 225 3.23858 225 6H226H227C227 2.13401 223.866 -1 220 -1V0ZM164 0V-1C160.134 -1 157 2.13401 157 6H158H159C159 3.23858 161.239 1 164 1V0Z" fill="#CFD1D5" mask="url(#path-5-inside-1_3_7186)"/>
<g clip-path="url(#clip0_3_7186)">
<path d="M179 16C179 16.3452 178.72 16.625 178.375 16.625H169.625C169.28 16.625 169 16.3452 169 16C169 15.6548 169.28 15.375 169.625 15.375H178.375C178.72 15.375 179 15.6548 179 16ZM175.875 19.75H172.125C171.78 19.75 171.5 20.0298 171.5 20.375C171.5 20.7202 171.78 21 172.125 21H175.875C176.22 21 176.5 20.7202 176.5 20.375C176.5 20.0298 176.22 19.75 175.875 19.75ZM180.875 11H167.125C166.78 11 166.5 11.2798 166.5 11.625C166.5 11.9702 166.78 12.25 167.125 12.25H180.875C181.22 12.25 181.5 11.9702 181.5 11.625C181.5 11.2798 181.22 11 180.875 11Z" fill="#1E3145"/>
</g>
<path d="M187.303 20.5V11.0455H193.166V12.2734H188.729V15.1541H192.746V16.3775H188.729V20.5H187.303ZM194.809 20.5V13.4091H196.19V20.5H194.809ZM195.506 12.315C195.266 12.315 195.06 12.235 194.888 12.0749C194.718 11.9118 194.634 11.7179 194.634 11.4933C194.634 11.2655 194.718 11.0716 194.888 10.9116C195.06 10.7485 195.266 10.6669 195.506 10.6669C195.746 10.6669 195.951 10.7485 196.12 10.9116C196.293 11.0716 196.379 11.2655 196.379 11.4933C196.379 11.7179 196.293 11.9118 196.12 12.0749C195.951 12.235 195.746 12.315 195.506 12.315ZM199.427 11.0455V20.5H198.047V11.0455H199.427ZM204.594 13.4091V14.517H200.721V13.4091H204.594ZM201.759 11.7102H203.14V18.418C203.14 18.6857 203.18 18.8873 203.26 19.0227C203.34 19.1551 203.443 19.2459 203.569 19.2951C203.698 19.3413 203.838 19.3643 203.989 19.3643C204.1 19.3643 204.197 19.3567 204.28 19.3413C204.363 19.3259 204.428 19.3136 204.474 19.3043L204.723 20.4446C204.643 20.4754 204.529 20.5062 204.382 20.5369C204.234 20.5708 204.049 20.5893 203.828 20.5923C203.464 20.5985 203.126 20.5339 202.812 20.3984C202.498 20.263 202.244 20.0537 202.05 19.7706C201.856 19.4875 201.759 19.132 201.759 18.7042V11.7102ZM209.101 20.6431C208.402 20.6431 207.8 20.4938 207.296 20.1953C206.794 19.8937 206.406 19.4705 206.132 18.9258C205.861 18.378 205.726 17.7363 205.726 17.0007C205.726 16.2744 205.861 15.6342 206.132 15.0803C206.406 14.5263 206.788 14.0939 207.277 13.783C207.77 13.4722 208.345 13.3168 209.004 13.3168C209.404 13.3168 209.792 13.3829 210.167 13.5153C210.543 13.6476 210.88 13.8554 211.178 14.1385C211.477 14.4216 211.712 14.7894 211.884 15.2418C212.057 15.6912 212.143 16.2375 212.143 16.8807V17.37H206.506V16.3359H210.79C210.79 15.9728 210.716 15.6512 210.569 15.3711C210.421 15.0879 210.213 14.8648 209.946 14.7017C209.681 14.5386 209.37 14.457 209.013 14.457C208.625 14.457 208.287 14.5524 207.997 14.7433C207.711 14.931 207.49 15.1772 207.333 15.4819C207.179 15.7835 207.102 16.1113 207.102 16.4652V17.2731C207.102 17.747 207.185 18.1502 207.351 18.4826C207.52 18.815 207.756 19.0689 208.057 19.2443C208.359 19.4167 208.711 19.5028 209.115 19.5028C209.376 19.5028 209.615 19.4659 209.83 19.392C210.046 19.3151 210.232 19.2012 210.389 19.0504C210.546 18.8996 210.666 18.7134 210.749 18.4918L212.055 18.7273C211.951 19.112 211.763 19.449 211.492 19.7383C211.224 20.0245 210.887 20.2476 210.481 20.4077C210.078 20.5646 209.618 20.6431 209.101 20.6431ZM213.674 20.5V13.4091H215.009V14.5355H215.083C215.212 14.1539 215.44 13.8538 215.766 13.6353C216.095 13.4137 216.467 13.3029 216.883 13.3029C216.969 13.3029 217.071 13.306 217.188 13.3121C217.308 13.3183 217.402 13.326 217.469 13.3352V14.6555C217.414 14.6402 217.315 14.6232 217.174 14.6048C217.032 14.5832 216.891 14.5724 216.749 14.5724C216.423 14.5724 216.132 14.6417 215.877 14.7802C215.624 14.9156 215.424 15.1049 215.276 15.348C215.129 15.5881 215.055 15.862 215.055 16.1697V20.5H213.674Z" fill="#1E3145"/>
<mask id="path-9-inside-2_3_7186" fill="white">
<path d="M234 6C234 2.68629 236.686 0 240 0H319C322.314 0 325 2.68629 325 6V26C325 29.3137 322.314 32 319 32H240C236.686 32 234 29.3137 234 26V6Z"/>
</mask>
<path d="M234 6C234 2.68629 236.686 0 240 0H319C322.314 0 325 2.68629 325 6V26C325 29.3137 322.314 32 319 32H240C236.686 32 234 29.3137 234 26V6Z" fill="white"/>
<path d="M240 0V1H319V0V-1H240V0ZM325 6H324V26H325H326V6H325ZM319 32V31H240V32V33H319V32ZM234 26H235V6H234H233V26H234ZM240 32V31C237.239 31 235 28.7614 235 26H234H233C233 29.866 236.134 33 240 33V32ZM325 26H324C324 28.7614 321.761 31 319 31V32V33C322.866 33 326 29.866 326 26H325ZM319 0V1C321.761 1 324 3.23858 324 6H325H326C326 2.13401 322.866 -1 319 -1V0ZM240 0V-1C236.134 -1 233 2.13401 233 6H234H235C235 3.23858 237.239 1 240 1V0Z" fill="#CFD1D5" mask="url(#path-9-inside-2_3_7186)"/>
<g clip-path="url(#clip1_3_7186)">
<path d="M249.375 9.75V22.25C249.375 22.5952 249.095 22.875 248.75 22.875H243.75C243.405 22.875 243.125 22.5952 243.125 22.25V9.75C243.125 9.40481 243.405 9.125 243.75 9.125H248.75C249.095 9.125 249.375 9.40481 249.375 9.75ZM256.875 9.75V22.25C256.875 22.5952 256.595 22.875 256.25 22.875H251.25C250.905 22.875 250.625 22.5952 250.625 22.25V9.75C250.625 9.40481 250.905 9.125 251.25 9.125H256.25C256.595 9.125 256.875 9.40481 256.875 9.75ZM255.625 10.375H251.875V21.625H255.625V10.375Z" fill="#1E3145"/>
</g>
<path d="M271.096 14.12H269.656C269.601 13.8123 269.498 13.5414 269.347 13.3075C269.196 13.0736 269.011 12.8751 268.793 12.712C268.574 12.5489 268.33 12.4258 268.059 12.3427C267.791 12.2596 267.506 12.218 267.205 12.218C266.66 12.218 266.172 12.355 265.741 12.6289C265.314 12.9028 264.975 13.3045 264.726 13.8338C264.479 14.3632 264.356 15.0095 264.356 15.7727C264.356 16.5421 264.479 17.1915 264.726 17.7209C264.975 18.2502 265.315 18.6503 265.746 18.9212C266.177 19.192 266.662 19.3274 267.2 19.3274C267.499 19.3274 267.782 19.2874 268.05 19.2074C268.32 19.1243 268.565 19.0027 268.784 18.8427C269.002 18.6826 269.187 18.4872 269.338 18.2564C269.491 18.0225 269.598 17.7547 269.656 17.4531L271.096 17.4577C271.019 17.9225 270.87 18.3503 270.649 18.7411C270.43 19.1289 270.148 19.4644 269.804 19.7475C269.462 20.0276 269.071 20.2446 268.631 20.3984C268.191 20.5523 267.711 20.6293 267.191 20.6293C266.372 20.6293 265.643 20.4354 265.003 20.0476C264.363 19.6567 263.858 19.0981 263.488 18.3718C263.122 17.6455 262.939 16.7791 262.939 15.7727C262.939 14.7633 263.124 13.8969 263.493 13.1737C263.862 12.4473 264.367 11.8903 265.007 11.5025C265.647 11.1116 266.375 10.9162 267.191 10.9162C267.693 10.9162 268.16 10.9885 268.594 11.1332C269.031 11.2747 269.424 11.484 269.771 11.761C270.119 12.0349 270.407 12.3704 270.635 12.7674C270.863 13.1613 271.016 13.6122 271.096 14.12ZM275.679 20.6431C275.015 20.6431 274.435 20.4908 273.939 20.1861C273.444 19.8814 273.059 19.4551 272.785 18.9073C272.511 18.3595 272.374 17.7193 272.374 16.9869C272.374 16.2513 272.511 15.6081 272.785 15.0572C273.059 14.5063 273.444 14.0785 273.939 13.7738C274.435 13.4691 275.015 13.3168 275.679 13.3168C276.344 13.3168 276.924 13.4691 277.42 13.7738C277.915 14.0785 278.3 14.5063 278.574 15.0572C278.848 15.6081 278.985 16.2513 278.985 16.9869C278.985 17.7193 278.848 18.3595 278.574 18.9073C278.3 19.4551 277.915 19.8814 277.42 20.1861C276.924 20.4908 276.344 20.6431 275.679 20.6431ZM275.684 19.4844C276.115 19.4844 276.472 19.3705 276.755 19.1428C277.038 18.915 277.247 18.6119 277.383 18.2333C277.521 17.8548 277.591 17.4377 277.591 16.9822C277.591 16.5298 277.521 16.1143 277.383 15.7358C277.247 15.3542 277.038 15.0479 276.755 14.8171C276.472 14.5863 276.115 14.4709 275.684 14.4709C275.25 14.4709 274.89 14.5863 274.604 14.8171C274.321 15.0479 274.11 15.3542 273.971 15.7358C273.836 16.1143 273.768 16.5298 273.768 16.9822C273.768 17.4377 273.836 17.8548 273.971 18.2333C274.11 18.6119 274.321 18.915 274.604 19.1428C274.89 19.3705 275.25 19.4844 275.684 19.4844ZM281.906 11.0455V20.5H280.526V11.0455H281.906ZM288.255 17.5593V13.4091H289.64V20.5H288.282V19.272H288.209C288.045 19.6506 287.784 19.966 287.424 20.2184C287.067 20.4677 286.622 20.5923 286.09 20.5923C285.634 20.5923 285.231 20.4923 284.88 20.2923C284.532 20.0891 284.258 19.7891 284.058 19.392C283.861 18.995 283.763 18.5041 283.763 17.9194V13.4091H285.143V17.7532C285.143 18.2364 285.277 18.6211 285.545 18.9073C285.813 19.1935 286.16 19.3366 286.588 19.3366C286.847 19.3366 287.104 19.272 287.359 19.1428C287.618 19.0135 287.832 18.8181 288.001 18.5565C288.173 18.2949 288.258 17.9625 288.255 17.5593ZM291.494 20.5V13.4091H292.819V14.5632H292.907C293.055 14.1723 293.296 13.8677 293.632 13.6491C293.967 13.4276 294.369 13.3168 294.837 13.3168C295.311 13.3168 295.708 13.4276 296.028 13.6491C296.351 13.8707 296.589 14.1754 296.743 14.5632H296.817C296.986 14.1847 297.256 13.883 297.625 13.6584C297.994 13.4306 298.434 13.3168 298.945 13.3168C299.589 13.3168 300.113 13.5183 300.52 13.9215C300.929 14.3247 301.134 14.9325 301.134 15.745V20.5H299.753V15.8743C299.753 15.3942 299.622 15.0464 299.361 14.831C299.099 14.6155 298.787 14.5078 298.424 14.5078C297.974 14.5078 297.625 14.6463 297.376 14.9233C297.126 15.1972 297.002 15.5496 297.002 15.9805V20.5H295.626V15.7866C295.626 15.4019 295.506 15.0926 295.266 14.8587C295.026 14.6248 294.714 14.5078 294.329 14.5078C294.067 14.5078 293.826 14.5771 293.604 14.7156C293.386 14.851 293.209 15.0402 293.073 15.2834C292.941 15.5265 292.875 15.8081 292.875 16.1282V20.5H291.494ZM304.364 16.2898V20.5H302.984V13.4091H304.309V14.5632H304.396C304.559 14.1877 304.815 13.8861 305.163 13.6584C305.513 13.4306 305.955 13.3168 306.487 13.3168C306.971 13.3168 307.394 13.4183 307.757 13.6214C308.12 13.8215 308.402 14.12 308.602 14.517C308.802 14.9141 308.902 15.4049 308.902 15.9897V20.5H307.522V16.1559C307.522 15.6419 307.388 15.2403 307.12 14.951C306.852 14.6586 306.484 14.5124 306.017 14.5124C305.697 14.5124 305.412 14.5817 305.163 14.7202C304.916 14.8587 304.721 15.0618 304.576 15.3295C304.435 15.5942 304.364 15.9143 304.364 16.2898ZM316.067 15.1403L314.816 15.3619C314.763 15.2018 314.68 15.0495 314.566 14.9048C314.456 14.7602 314.305 14.6417 314.114 14.5494C313.923 14.457 313.685 14.4109 313.398 14.4109C313.007 14.4109 312.681 14.4986 312.42 14.674C312.158 14.8464 312.027 15.0695 312.027 15.3434C312.027 15.5804 312.115 15.7712 312.29 15.9158C312.466 16.0605 312.749 16.179 313.14 16.2713L314.266 16.5298C314.919 16.6806 315.405 16.913 315.725 17.2269C316.045 17.5408 316.205 17.9486 316.205 18.4503C316.205 18.875 316.082 19.2536 315.836 19.5859C315.593 19.9152 315.253 20.1738 314.816 20.3615C314.382 20.5492 313.878 20.6431 313.306 20.6431C312.512 20.6431 311.864 20.4738 311.362 20.1353C310.861 19.7937 310.553 19.3089 310.439 18.6811L311.773 18.478C311.856 18.8258 312.027 19.0889 312.286 19.2674C312.544 19.4428 312.881 19.5305 313.297 19.5305C313.749 19.5305 314.111 19.4367 314.382 19.2489C314.652 19.0581 314.788 18.8258 314.788 18.5518C314.788 18.3303 314.705 18.1441 314.539 17.9933C314.376 17.8424 314.125 17.7286 313.786 17.6516L312.586 17.3885C311.924 17.2377 311.435 16.9976 311.118 16.6683C310.804 16.339 310.647 15.922 310.647 15.4173C310.647 14.9987 310.764 14.6325 310.998 14.3185C311.232 14.0046 311.555 13.7599 311.967 13.5845C312.38 13.406 312.852 13.3168 313.384 13.3168C314.151 13.3168 314.754 13.483 315.194 13.8153C315.634 14.1446 315.925 14.5863 316.067 15.1403Z" fill="#1E3145"/>
<defs>
<clipPath id="clip0_3_7186">
<rect width="15" height="10" fill="white" transform="translate(166.5 11)"/>
</clipPath>
<clipPath id="clip1_3_7186">
<rect width="13.75" height="13.75" fill="white" transform="translate(243.125 9.125)"/>
</clipPath>
</defs>
</svg>
