<svg xmlns="http://www.w3.org/2000/svg" width="200" height="240" viewBox="0 0 200 240" fill="none" aria-hidden="true">
  <rect width="200" height="240" rx="12" fill="#E8F4F9"/>
  <ellipse cx="100" cy="118" rx="48" ry="52" fill="#D4E8F0"/>
  <path d="M52 200c8-36 32-52 48-52s40 16 48 52v32H52v-32z" fill="#B8D4E3"/>
  <ellipse cx="100" cy="102" rx="34" ry="38" fill="#F5D0C5"/>
  <path d="M78 98c4-12 14-20 22-20s18 8 22 20" stroke="#C4A090" stroke-width="2" stroke-linecap="round" fill="none"/>
  <ellipse cx="88" cy="96" rx="4" ry="5" fill="#3D3D3D"/>
  <ellipse cx="112" cy="96" rx="4" ry="5" fill="#3D3D3D"/>
  <path d="M92 112c6 4 14 4 20 0" stroke="#C4A090" stroke-width="2" stroke-linecap="round" fill="none"/>
  <path d="M66 88c6-18 20-30 34-30s28 12 34 30" stroke="#8B6914" stroke-width="8" stroke-linecap="round" fill="none" opacity="0.35"/>
</svg>
