<svg width="120" height="78" viewBox="0 0 120 78" fill="none" xmlns="http://www.w3.org/2000/svg">
<g filter="url(#filter0_dd_683_187182)">
<rect x="6" y="3" width="98" height="62" rx="4" fill="url(#paint0_radial_683_187182)"/>
<path fill-rule="evenodd" clip-rule="evenodd" d="M85.8182 21.4654C84.7783 22.3505 83.4293 22.8849 81.9553 22.8849C78.6663 22.8849 76 20.2244 76 16.9425C76 13.6605 78.6663 11 81.9553 11C83.4293 11 84.7783 11.5344 85.8182 12.4196C86.8581 11.5344 88.2071 11 89.6811 11C92.9701 11 95.6364 13.6605 95.6364 16.9425C95.6364 20.2244 92.9701 22.8849 89.6811 22.8849C88.2071 22.8849 86.8581 22.3505 85.8182 21.4654Z" fill="#ED0006"/>
<path fill-rule="evenodd" clip-rule="evenodd" d="M85.8184 21.4654C87.0988 20.3754 87.9108 18.7535 87.9108 16.9425C87.9108 15.1314 87.0988 13.5095 85.8184 12.4196C86.8583 11.5344 88.2072 11 89.6813 11C92.9703 11 95.6365 13.6605 95.6365 16.9425C95.6365 20.2244 92.9703 22.8849 89.6813 22.8849C88.2072 22.8849 86.8583 22.3505 85.8184 21.4654Z" fill="#F9A000"/>
<path fill-rule="evenodd" clip-rule="evenodd" d="M85.817 12.4196C87.0974 13.5095 87.9094 15.1313 87.9094 16.9424C87.9094 18.7535 87.0974 20.3753 85.817 21.4653C84.5366 20.3753 83.7246 18.7535 83.7246 16.9424C83.7246 15.1313 84.5366 13.5095 85.817 12.4196Z" fill="#FF5E00"/>
<rect x="14.25" y="13.25" width="11.5" height="8.5" rx="0.75" fill="#D7D4D4" stroke="#B2B2B2" stroke-width="0.5"/>
<path d="M17.6207 14.25C17.4826 14.25 17.3707 14.3619 17.3707 14.5C17.3707 14.6381 17.4826 14.75 17.6207 14.75V14.5V14.25ZM14 16.6V16.85H17.6207V16.6V16.35H14V16.6ZM17.6207 16.6V16.85C18.7649 16.85 19.5 16.2814 19.5 15.55C19.5 14.8186 18.7649 14.25 17.6207 14.25V14.5V14.75C18.6489 14.75 19 15.2314 19 15.55C19 15.8686 18.6489 16.35 17.6207 16.35V16.6Z" fill="#B2B2B2"/>
<path d="M17.6207 21.0503C17.4826 21.0503 17.3707 20.9384 17.3707 20.8003C17.3707 20.6622 17.4826 20.5503 17.6207 20.5503V20.8003V21.0503ZM14 18.7003V18.4503H17.6207V18.7003V18.9503H14V18.7003ZM17.6207 18.7003V18.4503C18.7649 18.4503 19.5 19.0189 19.5 19.7503C19.5 20.4817 18.7649 21.0503 17.6207 21.0503V20.8003V20.5503C18.6489 20.5503 19 20.0689 19 19.7503C19 19.4317 18.6489 18.9503 17.6207 18.9503V18.7003Z" fill="#B2B2B2"/>
<path d="M17.5 16.5996V18.6996" stroke="#B2B2B2" stroke-width="0.5"/>
<path d="M22.3793 14.25C22.5174 14.25 22.6293 14.3619 22.6293 14.5C22.6293 14.6381 22.5174 14.75 22.3793 14.75V14.5V14.25ZM26 16.6V16.85H22.3793V16.6V16.35H26V16.6ZM22.3793 16.6V16.85C21.2351 16.85 20.5 16.2814 20.5 15.55C20.5 14.8186 21.2351 14.25 22.3793 14.25V14.5V14.75C21.3511 14.75 21 15.2314 21 15.55C21 15.8686 21.3511 16.35 22.3793 16.35V16.6Z" fill="#B2B2B2"/>
<path d="M22.3793 21.0503C22.5174 21.0503 22.6293 20.9384 22.6293 20.8003C22.6293 20.6622 22.5174 20.5503 22.3793 20.5503V20.8003V21.0503ZM26 18.7003V18.4503H22.3793V18.7003V18.9503H26V18.7003ZM22.3793 18.7003V18.4503C21.2351 18.4503 20.5 19.0189 20.5 19.7503C20.5 20.4817 21.2351 21.0503 22.3793 21.0503V20.8003V20.5503C21.3511 20.5503 21 20.0689 21 19.7503C21 19.4317 21.3511 18.9503 22.3793 18.9503V18.7003Z" fill="#B2B2B2"/>
<path d="M22.5 16.6006V18.7006" stroke="#B2B2B2" stroke-width="0.5"/>
<mask id="path-12-outside-1_683_187182" maskUnits="userSpaceOnUse" x="15" y="35" width="81" height="7" fill="black">
<rect fill="white" x="15" y="35" width="81" height="7"/>
<path d="M15.708 39.215V38.438H16.485V39.215H15.708ZM20.0053 39.215V38.438H20.7823V39.215H20.0053ZM24.3025 39.215V38.438H25.0795V39.215H24.3025ZM28.5998 39.215V38.438H29.3768V39.215H28.5998ZM37.1943 39.215V38.438H37.9713V39.215H37.1943ZM41.4916 39.215V38.438H42.2686V39.215H41.4916ZM45.7889 39.215V38.438H46.5659V39.215H45.7889ZM50.0861 39.215V38.438H50.8631V39.215H50.0861ZM58.6807 39.215V38.438H59.4577V39.215H58.6807ZM62.9779 39.215V38.438H63.7549V39.215H62.9779ZM67.2752 39.215V38.438H68.0522V39.215H67.2752ZM71.5725 39.215V38.438H72.3495V39.215H71.5725ZM82.134 41H79.012V40.51H80.447V36.681L79.376 37.808L79.033 37.5L80.447 36.03H80.972V40.51H82.134V41ZM84.0302 40.475H86.5292V41H83.1412V40.622C83.5426 40.202 83.8949 39.8427 84.1982 39.544C84.5062 39.2453 84.7652 38.984 84.9752 38.76C85.1899 38.5313 85.3602 38.3237 85.4862 38.137C85.6122 37.9503 85.6916 37.759 85.7242 37.563C85.7662 37.3437 85.7499 37.1477 85.6752 36.975C85.6052 36.8023 85.4932 36.667 85.3392 36.569C85.1852 36.471 85.0009 36.4267 84.7862 36.436C84.4969 36.4407 84.2659 36.527 84.0932 36.695C83.9252 36.8583 83.8412 37.0777 83.8412 37.353H83.3162C83.3162 37.0683 83.3769 36.8187 83.4982 36.604C83.6242 36.3893 83.7969 36.2213 84.0162 36.1C84.2402 35.974 84.4969 35.911 84.7862 35.911C85.1222 35.911 85.4092 35.9903 85.6472 36.149C85.8899 36.303 86.0672 36.5107 86.1792 36.772C86.2912 37.0333 86.3169 37.3273 86.2562 37.654C86.2189 37.85 86.1372 38.0553 86.0112 38.27C85.8852 38.48 85.7312 38.6923 85.5492 38.907C85.3719 39.1217 85.1852 39.3293 84.9892 39.53C84.7979 39.726 84.6159 39.9057 84.4432 40.069C84.2752 40.2323 84.1376 40.3677 84.0302 40.475ZM89.0765 36.436C88.7778 36.4407 88.5305 36.5317 88.3345 36.709C88.1432 36.8863 88.0475 37.1127 88.0475 37.388H87.5575C87.5575 37.0987 87.6228 36.8443 87.7535 36.625C87.8842 36.401 88.0638 36.226 88.2925 36.1C88.5212 35.974 88.7825 35.911 89.0765 35.911C89.3798 35.911 89.6482 35.967 89.8815 36.079C90.1148 36.191 90.2968 36.3473 90.4275 36.548C90.5582 36.7487 90.6212 36.9797 90.6165 37.241C90.6165 37.4697 90.5582 37.682 90.4415 37.878C90.3295 38.074 90.1778 38.235 89.9865 38.361C90.2292 38.4823 90.4228 38.6527 90.5675 38.872C90.7168 39.0913 90.7915 39.3363 90.7915 39.607C90.7915 39.901 90.7192 40.1623 90.5745 40.391C90.4345 40.615 90.2385 40.7923 89.9865 40.923C89.7345 41.049 89.4452 41.112 89.1185 41.112C88.7965 41.112 88.5072 41.042 88.2505 40.902C87.9938 40.7573 87.7932 40.5637 87.6485 40.321C87.5038 40.0783 87.4362 39.81 87.4455 39.516H87.9425C87.9425 39.8427 88.0475 40.104 88.2575 40.3C88.4722 40.4913 88.7592 40.587 89.1185 40.587C89.4732 40.587 89.7532 40.4983 89.9585 40.321C90.1638 40.1437 90.2665 39.9057 90.2665 39.607C90.2665 39.4203 90.2175 39.2523 90.1195 39.103C90.0215 38.9537 89.8885 38.8347 89.7205 38.746C89.5525 38.6573 89.3635 38.613 89.1535 38.613H88.6565V38.144H89.1115C89.2935 38.144 89.4592 38.1043 89.6085 38.025C89.7578 37.941 89.8745 37.8313 89.9585 37.696C90.0472 37.556 90.0915 37.4043 90.0915 37.241C90.0915 37.003 89.9958 36.8093 89.8045 36.66C89.6178 36.5107 89.3752 36.436 89.0765 36.436ZM94.4308 39.887V41H93.9058V39.887H91.5748V39.397L93.6118 36.03H94.4308V39.397H95.3338V39.887H94.4308ZM93.9058 36.485L92.1768 39.397H93.9058V36.485Z"/>
</mask>
<path d="M15.708 39.215V38.438H16.485V39.215H15.708ZM20.0053 39.215V38.438H20.7823V39.215H20.0053ZM24.3025 39.215V38.438H25.0795V39.215H24.3025ZM28.5998 39.215V38.438H29.3768V39.215H28.5998ZM37.1943 39.215V38.438H37.9713V39.215H37.1943ZM41.4916 39.215V38.438H42.2686V39.215H41.4916ZM45.7889 39.215V38.438H46.5659V39.215H45.7889ZM50.0861 39.215V38.438H50.8631V39.215H50.0861ZM58.6807 39.215V38.438H59.4577V39.215H58.6807ZM62.9779 39.215V38.438H63.7549V39.215H62.9779ZM67.2752 39.215V38.438H68.0522V39.215H67.2752ZM71.5725 39.215V38.438H72.3495V39.215H71.5725ZM82.134 41H79.012V40.51H80.447V36.681L79.376 37.808L79.033 37.5L80.447 36.03H80.972V40.51H82.134V41ZM84.0302 40.475H86.5292V41H83.1412V40.622C83.5426 40.202 83.8949 39.8427 84.1982 39.544C84.5062 39.2453 84.7652 38.984 84.9752 38.76C85.1899 38.5313 85.3602 38.3237 85.4862 38.137C85.6122 37.9503 85.6916 37.759 85.7242 37.563C85.7662 37.3437 85.7499 37.1477 85.6752 36.975C85.6052 36.8023 85.4932 36.667 85.3392 36.569C85.1852 36.471 85.0009 36.4267 84.7862 36.436C84.4969 36.4407 84.2659 36.527 84.0932 36.695C83.9252 36.8583 83.8412 37.0777 83.8412 37.353H83.3162C83.3162 37.0683 83.3769 36.8187 83.4982 36.604C83.6242 36.3893 83.7969 36.2213 84.0162 36.1C84.2402 35.974 84.4969 35.911 84.7862 35.911C85.1222 35.911 85.4092 35.9903 85.6472 36.149C85.8899 36.303 86.0672 36.5107 86.1792 36.772C86.2912 37.0333 86.3169 37.3273 86.2562 37.654C86.2189 37.85 86.1372 38.0553 86.0112 38.27C85.8852 38.48 85.7312 38.6923 85.5492 38.907C85.3719 39.1217 85.1852 39.3293 84.9892 39.53C84.7979 39.726 84.6159 39.9057 84.4432 40.069C84.2752 40.2323 84.1376 40.3677 84.0302 40.475ZM89.0765 36.436C88.7778 36.4407 88.5305 36.5317 88.3345 36.709C88.1432 36.8863 88.0475 37.1127 88.0475 37.388H87.5575C87.5575 37.0987 87.6228 36.8443 87.7535 36.625C87.8842 36.401 88.0638 36.226 88.2925 36.1C88.5212 35.974 88.7825 35.911 89.0765 35.911C89.3798 35.911 89.6482 35.967 89.8815 36.079C90.1148 36.191 90.2968 36.3473 90.4275 36.548C90.5582 36.7487 90.6212 36.9797 90.6165 37.241C90.6165 37.4697 90.5582 37.682 90.4415 37.878C90.3295 38.074 90.1778 38.235 89.9865 38.361C90.2292 38.4823 90.4228 38.6527 90.5675 38.872C90.7168 39.0913 90.7915 39.3363 90.7915 39.607C90.7915 39.901 90.7192 40.1623 90.5745 40.391C90.4345 40.615 90.2385 40.7923 89.9865 40.923C89.7345 41.049 89.4452 41.112 89.1185 41.112C88.7965 41.112 88.5072 41.042 88.2505 40.902C87.9938 40.7573 87.7932 40.5637 87.6485 40.321C87.5038 40.0783 87.4362 39.81 87.4455 39.516H87.9425C87.9425 39.8427 88.0475 40.104 88.2575 40.3C88.4722 40.4913 88.7592 40.587 89.1185 40.587C89.4732 40.587 89.7532 40.4983 89.9585 40.321C90.1638 40.1437 90.2665 39.9057 90.2665 39.607C90.2665 39.4203 90.2175 39.2523 90.1195 39.103C90.0215 38.9537 89.8885 38.8347 89.7205 38.746C89.5525 38.6573 89.3635 38.613 89.1535 38.613H88.6565V38.144H89.1115C89.2935 38.144 89.4592 38.1043 89.6085 38.025C89.7578 37.941 89.8745 37.8313 89.9585 37.696C90.0472 37.556 90.0915 37.4043 90.0915 37.241C90.0915 37.003 89.9958 36.8093 89.8045 36.66C89.6178 36.5107 89.3752 36.436 89.0765 36.436ZM94.4308 39.887V41H93.9058V39.887H91.5748V39.397L93.6118 36.03H94.4308V39.397H95.3338V39.887H94.4308ZM93.9058 36.485L92.1768 39.397H93.9058V36.485Z" fill="white"/>
<path d="M15.708 39.215H15.608V39.315H15.708V39.215ZM15.708 38.438V38.338H15.608V38.438H15.708ZM16.485 38.438H16.585V38.338H16.485V38.438ZM16.485 39.215V39.315H16.585V39.215H16.485ZM15.708 39.215H15.808V38.438H15.708H15.608V39.215H15.708ZM15.708 38.438V38.538H16.485V38.438V38.338H15.708V38.438ZM16.485 38.438H16.385V39.215H16.485H16.585V38.438H16.485ZM16.485 39.215V39.115H15.708V39.215V39.315H16.485V39.215ZM20.0053 39.215H19.9053V39.315H20.0053V39.215ZM20.0053 38.438V38.338H19.9053V38.438H20.0053ZM20.7823 38.438H20.8823V38.338H20.7823V38.438ZM20.7823 39.215V39.315H20.8823V39.215H20.7823ZM20.0053 39.215H20.1053V38.438H20.0053H19.9053V39.215H20.0053ZM20.0053 38.438V38.538H20.7823V38.438V38.338H20.0053V38.438ZM20.7823 38.438H20.6823V39.215H20.7823H20.8823V38.438H20.7823ZM20.7823 39.215V39.115H20.0053V39.215V39.315H20.7823V39.215ZM24.3025 39.215H24.2025V39.315H24.3025V39.215ZM24.3025 38.438V38.338H24.2025V38.438H24.3025ZM25.0795 38.438H25.1795V38.338H25.0795V38.438ZM25.0795 39.215V39.315H25.1795V39.215H25.0795ZM24.3025 39.215H24.4025V38.438H24.3025H24.2025V39.215H24.3025ZM24.3025 38.438V38.538H25.0795V38.438V38.338H24.3025V38.438ZM25.0795 38.438H24.9795V39.215H25.0795H25.1795V38.438H25.0795ZM25.0795 39.215V39.115H24.3025V39.215V39.315H25.0795V39.215ZM28.5998 39.215H28.4998V39.315H28.5998V39.215ZM28.5998 38.438V38.338H28.4998V38.438H28.5998ZM29.3768 38.438H29.4768V38.338H29.3768V38.438ZM29.3768 39.215V39.315H29.4768V39.215H29.3768ZM28.5998 39.215H28.6998V38.438H28.5998H28.4998V39.215H28.5998ZM28.5998 38.438V38.538H29.3768V38.438V38.338H28.5998V38.438ZM29.3768 38.438H29.2768V39.215H29.3768H29.4768V38.438H29.3768ZM29.3768 39.215V39.115H28.5998V39.215V39.315H29.3768V39.215ZM37.1943 39.215H37.0943V39.315H37.1943V39.215ZM37.1943 38.438V38.338H37.0943V38.438H37.1943ZM37.9713 38.438H38.0713V38.338H37.9713V38.438ZM37.9713 39.215V39.315H38.0713V39.215H37.9713ZM37.1943 39.215H37.2943V38.438H37.1943H37.0943V39.215H37.1943ZM37.1943 38.438V38.538H37.9713V38.438V38.338H37.1943V38.438ZM37.9713 38.438H37.8713V39.215H37.9713H38.0713V38.438H37.9713ZM37.9713 39.215V39.115H37.1943V39.215V39.315H37.9713V39.215ZM41.4916 39.215H41.3916V39.315H41.4916V39.215ZM41.4916 38.438V38.338H41.3916V38.438H41.4916ZM42.2686 38.438H42.3686V38.338H42.2686V38.438ZM42.2686 39.215V39.315H42.3686V39.215H42.2686ZM41.4916 39.215H41.5916V38.438H41.4916H41.3916V39.215H41.4916ZM41.4916 38.438V38.538H42.2686V38.438V38.338H41.4916V38.438ZM42.2686 38.438H42.1686V39.215H42.2686H42.3686V38.438H42.2686ZM42.2686 39.215V39.115H41.4916V39.215V39.315H42.2686V39.215ZM45.7889 39.215H45.6889V39.315H45.7889V39.215ZM45.7889 38.438V38.338H45.6889V38.438H45.7889ZM46.5659 38.438H46.6659V38.338H46.5659V38.438ZM46.5659 39.215V39.315H46.6659V39.215H46.5659ZM45.7889 39.215H45.8889V38.438H45.7889H45.6889V39.215H45.7889ZM45.7889 38.438V38.538H46.5659V38.438V38.338H45.7889V38.438ZM46.5659 38.438H46.4659V39.215H46.5659H46.6659V38.438H46.5659ZM46.5659 39.215V39.115H45.7889V39.215V39.315H46.5659V39.215ZM50.0861 39.215H49.9861V39.315H50.0861V39.215ZM50.0861 38.438V38.338H49.9861V38.438H50.0861ZM50.8631 38.438H50.9631V38.338H50.8631V38.438ZM50.8631 39.215V39.315H50.9631V39.215H50.8631ZM50.0861 39.215H50.1861V38.438H50.0861H49.9861V39.215H50.0861ZM50.0861 38.438V38.538H50.8631V38.438V38.338H50.0861V38.438ZM50.8631 38.438H50.7631V39.215H50.8631H50.9631V38.438H50.8631ZM50.8631 39.215V39.115H50.0861V39.215V39.315H50.8631V39.215ZM58.6807 39.215H58.5807V39.315H58.6807V39.215ZM58.6807 38.438V38.338H58.5807V38.438H58.6807ZM59.4577 38.438H59.5577V38.338H59.4577V38.438ZM59.4577 39.215V39.315H59.5577V39.215H59.4577ZM58.6807 39.215H58.7807V38.438H58.6807H58.5807V39.215H58.6807ZM58.6807 38.438V38.538H59.4577V38.438V38.338H58.6807V38.438ZM59.4577 38.438H59.3577V39.215H59.4577H59.5577V38.438H59.4577ZM59.4577 39.215V39.115H58.6807V39.215V39.315H59.4577V39.215ZM62.9779 39.215H62.8779V39.315H62.9779V39.215ZM62.9779 38.438V38.338H62.8779V38.438H62.9779ZM63.7549 38.438H63.8549V38.338H63.7549V38.438ZM63.7549 39.215V39.315H63.8549V39.215H63.7549ZM62.9779 39.215H63.0779V38.438H62.9779H62.8779V39.215H62.9779ZM62.9779 38.438V38.538H63.7549V38.438V38.338H62.9779V38.438ZM63.7549 38.438H63.6549V39.215H63.7549H63.8549V38.438H63.7549ZM63.7549 39.215V39.115H62.9779V39.215V39.315H63.7549V39.215ZM67.2752 39.215H67.1752V39.315H67.2752V39.215ZM67.2752 38.438V38.338H67.1752V38.438H67.2752ZM68.0522 38.438H68.1522V38.338H68.0522V38.438ZM68.0522 39.215V39.315H68.1522V39.215H68.0522ZM67.2752 39.215H67.3752V38.438H67.2752H67.1752V39.215H67.2752ZM67.2752 38.438V38.538H68.0522V38.438V38.338H67.2752V38.438ZM68.0522 38.438H67.9522V39.215H68.0522H68.1522V38.438H68.0522ZM68.0522 39.215V39.115H67.2752V39.215V39.315H68.0522V39.215ZM71.5725 39.215H71.4725V39.315H71.5725V39.215ZM71.5725 38.438V38.338H71.4725V38.438H71.5725ZM72.3495 38.438H72.4495V38.338H72.3495V38.438ZM72.3495 39.215V39.315H72.4495V39.215H72.3495ZM71.5725 39.215H71.6725V38.438H71.5725H71.4725V39.215H71.5725ZM71.5725 38.438V38.538H72.3495V38.438V38.338H71.5725V38.438ZM72.3495 38.438H72.2495V39.215H72.3495H72.4495V38.438H72.3495ZM72.3495 39.215V39.115H71.5725V39.215V39.315H72.3495V39.215ZM82.134 41V41.1H82.234V41H82.134ZM79.012 41H78.912V41.1H79.012V41ZM79.012 40.51V40.41H78.912V40.51H79.012ZM80.447 40.51V40.61H80.547V40.51H80.447ZM80.447 36.681H80.547V36.4306L80.3745 36.6121L80.447 36.681ZM79.376 37.808L79.3092 37.8824L79.3815 37.9474L79.4485 37.8769L79.376 37.808ZM79.033 37.5L78.9609 37.4307L78.8892 37.5053L78.9662 37.5744L79.033 37.5ZM80.447 36.03V35.93H80.4044L80.3749 35.9607L80.447 36.03ZM80.972 36.03H81.072V35.93H80.972V36.03ZM80.972 40.51H80.872V40.61H80.972V40.51ZM82.134 40.51H82.234V40.41H82.134V40.51ZM82.134 41V40.9H79.012V41V41.1H82.134V41ZM79.012 41H79.112V40.51H79.012H78.912V41H79.012ZM79.012 40.51V40.61H80.447V40.51V40.41H79.012V40.51ZM80.447 40.51H80.547V36.681H80.447H80.347V40.51H80.447ZM80.447 36.681L80.3745 36.6121L79.3035 37.7391L79.376 37.808L79.4485 37.8769L80.5195 36.7499L80.447 36.681ZM79.376 37.808L79.4428 37.7336L79.0998 37.4256L79.033 37.5L78.9662 37.5744L79.3092 37.8824L79.376 37.808ZM79.033 37.5L79.1051 37.5693L80.5191 36.0993L80.447 36.03L80.3749 35.9607L78.9609 37.4307L79.033 37.5ZM80.447 36.03V36.13H80.972V36.03V35.93H80.447V36.03ZM80.972 36.03H80.872V40.51H80.972H81.072V36.03H80.972ZM80.972 40.51V40.61H82.134V40.51V40.41H80.972V40.51ZM82.134 40.51H82.034V41H82.134H82.234V40.51H82.134ZM84.0303 40.475L83.9595 40.4043L83.7888 40.575H84.0303V40.475ZM86.5293 40.475H86.6292V40.375H86.5293V40.475ZM86.5293 41V41.1H86.6292V41H86.5293ZM83.1413 41H83.0413V41.1H83.1413V41ZM83.1413 40.622L83.0689 40.5529L83.0413 40.5819V40.622H83.1413ZM84.1982 39.544L84.1286 39.4722L84.1281 39.4727L84.1982 39.544ZM84.9753 38.76L84.9023 38.6916L84.9023 38.6916L84.9753 38.76ZM85.4863 38.137L85.5691 38.1929V38.1929L85.4863 38.137ZM85.7243 37.563L85.626 37.5442L85.6256 37.5466L85.7243 37.563ZM85.6752 36.975L85.5826 37.0126L85.5835 37.0147L85.6752 36.975ZM85.3392 36.569L85.2856 36.6534V36.6534L85.3392 36.569ZM84.7862 36.436L84.7879 36.536L84.7906 36.5359L84.7862 36.436ZM84.0932 36.695L84.163 36.7667L84.163 36.7667L84.0932 36.695ZM83.8412 37.353V37.453H83.9412V37.353H83.8412ZM83.3162 37.353H83.2162V37.453H83.3162V37.353ZM83.4982 36.604L83.412 36.5534L83.4112 36.5548L83.4982 36.604ZM84.0163 36.1L84.0647 36.1875L84.0653 36.1872L84.0163 36.1ZM85.6472 36.149L85.5918 36.2322L85.5937 36.2334L85.6472 36.149ZM86.1792 36.772L86.0873 36.8114L86.1792 36.772ZM86.2562 37.654L86.3545 37.6727L86.3546 37.6723L86.2562 37.654ZM86.0112 38.27L86.097 38.3215L86.0975 38.3206L86.0112 38.27ZM85.5492 38.907L85.473 38.8423L85.4722 38.8433L85.5492 38.907ZM84.9893 39.53L84.9177 39.4601L84.9177 39.4601L84.9893 39.53ZM84.4432 40.069L84.3745 39.9963L84.3735 39.9973L84.4432 40.069ZM84.0303 40.475V40.575H86.5293V40.475V40.375H84.0303V40.475ZM86.5293 40.475H86.4292V41H86.5293H86.6292V40.475H86.5293ZM86.5293 41V40.9H83.1413V41V41.1H86.5293V41ZM83.1413 41H83.2412V40.622H83.1413H83.0413V41H83.1413ZM83.1413 40.622L83.2135 40.6911C83.6144 40.2716 83.966 39.913 84.2684 39.6153L84.1982 39.544L84.1281 39.4727C83.8238 39.7723 83.4707 40.1324 83.0689 40.5529L83.1413 40.622ZM84.1982 39.544L84.2679 39.6158C84.5766 39.3164 84.8368 39.0539 85.0482 38.8284L84.9753 38.76L84.9023 38.6916C84.6937 38.9141 84.4359 39.1743 84.1286 39.4722L84.1982 39.544ZM84.9753 38.76L85.0482 38.8284C85.2652 38.5973 85.4392 38.3854 85.5691 38.1929L85.4863 38.137L85.4034 38.0811C85.2813 38.262 85.1147 38.4654 84.9023 38.6916L84.9753 38.76ZM85.4863 38.137L85.5691 38.1929C85.7021 37.996 85.7876 37.7914 85.8229 37.5794L85.7243 37.563L85.6256 37.5466C85.5956 37.7266 85.5224 37.9047 85.4034 38.0811L85.4863 38.137ZM85.7243 37.563L85.8225 37.5818C85.8675 37.3465 85.8511 37.1296 85.767 36.9353L85.6752 36.975L85.5835 37.0147C85.6488 37.1657 85.665 37.3408 85.626 37.5442L85.7243 37.563ZM85.6752 36.975L85.7679 36.9374C85.6903 36.7459 85.5649 36.594 85.3929 36.4846L85.3392 36.569L85.2856 36.6534C85.4216 36.74 85.5202 36.8587 85.5826 37.0126L85.6752 36.975ZM85.3392 36.569L85.3929 36.4846C85.2187 36.3738 85.0133 36.326 84.7819 36.3361L84.7862 36.436L84.7906 36.5359C84.9885 36.5273 85.1518 36.5682 85.2856 36.6534L85.3392 36.569ZM84.7862 36.436L84.7846 36.336C84.4753 36.341 84.218 36.4341 84.0235 36.6233L84.0932 36.695L84.163 36.7667C84.3138 36.6199 84.5186 36.5403 84.7879 36.536L84.7862 36.436ZM84.0932 36.695L84.0235 36.6233C83.8328 36.8088 83.7412 37.0558 83.7412 37.353H83.8412H83.9412C83.9412 37.0996 84.0177 36.9079 84.163 36.7667L84.0932 36.695ZM83.8412 37.353V37.253H83.3162V37.353V37.453H83.8412V37.353ZM83.3162 37.353H83.4163C83.4163 37.0829 83.4737 36.8507 83.5853 36.6532L83.4982 36.604L83.4112 36.5548C83.2801 36.7867 83.2162 37.0538 83.2162 37.353H83.3162ZM83.4982 36.604L83.5845 36.6546C83.7013 36.4555 83.8609 36.3002 84.0647 36.1875L84.0163 36.1L83.9678 36.0125C83.7329 36.1424 83.5471 36.3231 83.412 36.5534L83.4982 36.604ZM84.0163 36.1L84.0653 36.1872C84.2725 36.0706 84.5119 36.011 84.7862 36.011V35.911V35.811C84.4819 35.811 84.208 35.8774 83.9672 36.0128L84.0163 36.1ZM84.7862 35.911V36.011C85.106 36.011 85.3729 36.0863 85.5918 36.2322L85.6472 36.149L85.7027 36.0658C85.4456 35.8944 85.1385 35.811 84.7862 35.811V35.911ZM85.6472 36.149L85.5937 36.2334C85.8195 36.3768 85.9834 36.5688 86.0873 36.8114L86.1792 36.772L86.2712 36.7326C86.1511 36.4525 85.9603 36.2292 85.7008 36.0646L85.6472 36.149ZM86.1792 36.772L86.0873 36.8114C86.1903 37.0517 86.2156 37.3252 86.1579 37.6357L86.2562 37.654L86.3546 37.6723C86.4182 37.3295 86.3922 37.015 86.2712 36.7326L86.1792 36.772ZM86.2562 37.654L86.158 37.6353C86.1233 37.8177 86.0466 38.0122 85.925 38.2194L86.0112 38.27L86.0975 38.3206C86.2279 38.0984 86.3146 37.8823 86.3545 37.6727L86.2562 37.654ZM86.0112 38.27L85.9255 38.2186C85.8027 38.4233 85.652 38.6312 85.473 38.8423L85.5492 38.907L85.6255 38.9717C85.8105 38.7535 85.9678 38.5367 86.097 38.3214L86.0112 38.27ZM85.5492 38.907L85.4722 38.8433C85.2966 39.0558 85.1118 39.2614 84.9177 39.4601L84.9893 39.53L85.0608 39.5999C85.2587 39.3972 85.4472 39.1875 85.6263 38.9707L85.5492 38.907ZM84.9893 39.53L84.9177 39.4601C84.7271 39.6553 84.5461 39.8341 84.3745 39.9964L84.4432 40.069L84.512 40.1416C84.6857 39.9773 84.8687 39.7967 85.0608 39.5999L84.9893 39.53ZM84.4432 40.069L84.3735 39.9973C84.2054 40.1608 84.0673 40.2965 83.9595 40.4043L84.0303 40.475L84.101 40.5457C84.2078 40.4388 84.3451 40.3039 84.513 40.1407L84.4432 40.069ZM89.0765 36.436V36.336L89.075 36.336L89.0765 36.436ZM88.3345 36.709L88.2674 36.6348L88.2665 36.6357L88.3345 36.709ZM88.0475 37.388V37.488H88.1475V37.388H88.0475ZM87.5575 37.388H87.4575V37.488H87.5575V37.388ZM87.7535 36.625L87.8394 36.6762L87.8399 36.6754L87.7535 36.625ZM88.2925 36.1L88.2443 36.0124V36.0124L88.2925 36.1ZM89.8815 36.079L89.8382 36.1692V36.1692L89.8815 36.079ZM90.4275 36.548L90.3437 36.6026V36.6026L90.4275 36.548ZM90.6165 37.241L90.5165 37.2392V37.241H90.6165ZM90.4415 37.878L90.3556 37.8268L90.3547 37.8284L90.4415 37.878ZM89.9865 38.361L89.9315 38.2775L89.7867 38.3729L89.9418 38.4504L89.9865 38.361ZM90.5675 38.872L90.484 38.9271L90.4849 38.9283L90.5675 38.872ZM90.5745 40.391L90.49 40.3375L90.4897 40.338L90.5745 40.391ZM89.9865 40.923L90.0312 41.0125L90.0325 41.0118L89.9865 40.923ZM88.2505 40.902L88.2014 40.9891L88.2026 40.9898L88.2505 40.902ZM87.6485 40.321L87.5626 40.3722V40.3722L87.6485 40.321ZM87.4455 39.516V39.416H87.3486L87.3456 39.5128L87.4455 39.516ZM87.9425 39.516H88.0425V39.416H87.9425V39.516ZM88.2575 40.3L88.1893 40.3731L88.191 40.3747L88.2575 40.3ZM89.9585 40.321L90.0239 40.3967V40.3967L89.9585 40.321ZM90.1195 39.103L90.2031 39.0481V39.0481L90.1195 39.103ZM89.7205 38.746L89.7672 38.6576V38.6576L89.7205 38.746ZM88.6565 38.613H88.5565V38.713H88.6565V38.613ZM88.6565 38.144V38.044H88.5565V38.144H88.6565ZM89.6085 38.025L89.6554 38.1133L89.6575 38.1122L89.6085 38.025ZM89.9585 37.696L89.874 37.6425L89.8736 37.6433L89.9585 37.696ZM89.8045 36.66L89.742 36.7381L89.743 36.7388L89.8045 36.66ZM89.0765 36.436L89.075 36.336C88.7554 36.341 88.4838 36.4391 88.2674 36.6348L88.3345 36.709L88.4016 36.7832C88.5773 36.6242 88.8003 36.5403 89.0781 36.536L89.0765 36.436ZM88.3345 36.709L88.2665 36.6357C88.0535 36.8331 87.9475 37.0866 87.9475 37.388H88.0475H88.1475C88.1475 37.1388 88.2328 36.9396 88.4025 36.7823L88.3345 36.709ZM88.0475 37.388V37.288H87.5575V37.388V37.488H88.0475V37.388ZM87.5575 37.388H87.6575C87.6575 37.1142 87.7192 36.8781 87.8394 36.6762L87.7535 36.625L87.6676 36.5738C87.5265 36.8106 87.4575 37.0831 87.4575 37.388H87.5575ZM87.7535 36.625L87.8399 36.6754C87.9614 36.4671 88.1278 36.3049 88.3408 36.1876L88.2925 36.1L88.2443 36.0124C87.9999 36.1471 87.807 36.3349 87.6671 36.5746L87.7535 36.625ZM88.2925 36.1L88.3408 36.1876C88.5529 36.0707 88.7972 36.011 89.0765 36.011V35.911V35.811C88.7678 35.811 88.4895 35.8773 88.2443 36.0124L88.2925 36.1ZM89.0765 35.911V36.011C89.3674 36.011 89.6205 36.0647 89.8382 36.1692L89.8815 36.079L89.9248 35.9888C89.6758 35.8693 89.3923 35.811 89.0765 35.811V35.911ZM89.8815 36.079L89.8382 36.1692C90.0564 36.2739 90.2238 36.4185 90.3437 36.6026L90.4275 36.548L90.5113 36.4934C90.3698 36.2762 90.1732 36.1081 89.9248 35.9888L89.8815 36.079ZM90.4275 36.548L90.3437 36.6026C90.4625 36.785 90.5209 36.9959 90.5165 37.2392L90.6165 37.241L90.7165 37.2428C90.7215 36.9634 90.6539 36.7124 90.5113 36.4934L90.4275 36.548ZM90.6165 37.241H90.5165C90.5165 37.4517 90.463 37.6464 90.3556 37.8269L90.4415 37.878L90.5274 37.9291C90.6533 37.7176 90.7165 37.4876 90.7165 37.241H90.6165ZM90.4415 37.878L90.3547 37.8284C90.2506 38.0105 90.1099 38.16 89.9315 38.2775L89.9865 38.361L90.0415 38.4445C90.2458 38.31 90.4084 38.1375 90.5283 37.9276L90.4415 37.878ZM89.9865 38.361L89.9418 38.4504C90.1693 38.5642 90.3494 38.7229 90.484 38.9271L90.5675 38.872L90.651 38.8169C90.4963 38.5824 90.2891 38.4005 90.0312 38.2716L89.9865 38.361ZM90.5675 38.872L90.4849 38.9283C90.6227 39.1307 90.6915 39.356 90.6915 39.607H90.7915H90.8915C90.8915 39.3167 90.811 39.052 90.6502 38.8157L90.5675 38.872ZM90.7915 39.607H90.6915C90.6915 39.8838 90.6237 40.1262 90.49 40.3375L90.5745 40.391L90.659 40.4445C90.8147 40.1984 90.8915 39.9182 90.8915 39.607H90.7915ZM90.5745 40.391L90.4897 40.338C90.3599 40.5457 90.1778 40.7112 89.9405 40.8342L89.9865 40.923L90.0325 41.0118C90.2992 40.8735 90.5091 40.6843 90.6593 40.444L90.5745 40.391ZM89.9865 40.923L89.9418 40.8336C89.7057 40.9516 89.4321 41.012 89.1185 41.012V41.112V41.212C89.4582 41.212 89.7633 41.1464 90.0312 41.0124L89.9865 40.923ZM89.1185 41.112V41.012C88.8115 41.012 88.5389 40.9454 88.2984 40.8142L88.2505 40.902L88.2026 40.9898C88.4754 41.1386 88.7815 41.212 89.1185 41.212V41.112ZM88.2505 40.902L88.2996 40.8149C88.0575 40.6784 87.8698 40.4968 87.7344 40.2698L87.6485 40.321L87.5626 40.3722C87.7166 40.6305 87.9302 40.8363 88.2014 40.9891L88.2505 40.902ZM87.6485 40.321L87.7344 40.2698C87.5999 40.0442 87.5367 39.7949 87.5455 39.5192L87.4455 39.516L87.3456 39.5128C87.3356 39.8251 87.4078 40.1124 87.5626 40.3722L87.6485 40.321ZM87.4455 39.516V39.616H87.9425V39.516V39.416H87.4455V39.516ZM87.9425 39.516H87.8425C87.8425 39.8662 87.9561 40.1555 88.1893 40.3731L88.2575 40.3L88.3257 40.2269C88.1389 40.0525 88.0425 39.8191 88.0425 39.516H87.9425ZM88.2575 40.3L88.191 40.3747C88.4282 40.5861 88.741 40.687 89.1185 40.687V40.587V40.487C88.7774 40.487 88.5162 40.3966 88.3241 40.2253L88.2575 40.3ZM89.1185 40.587V40.687C89.4897 40.687 89.7954 40.594 90.0239 40.3967L89.9585 40.321L89.8932 40.2453C89.711 40.4027 89.4567 40.487 89.1185 40.487V40.587ZM89.9585 40.321L90.0239 40.3967C90.2536 40.1983 90.3665 39.9314 90.3665 39.607H90.2665H90.1665C90.1665 39.8799 90.0741 40.089 89.8932 40.2453L89.9585 40.321ZM90.2665 39.607H90.3665C90.3665 39.4018 90.3123 39.2145 90.2031 39.0481L90.1195 39.103L90.0359 39.1579C90.1227 39.2901 90.1665 39.4389 90.1665 39.607H90.2665ZM90.1195 39.103L90.2031 39.0481C90.0953 38.8838 89.9492 38.7536 89.7672 38.6576L89.7205 38.746L89.6738 38.8344C89.8279 38.9157 89.9478 39.0236 90.0359 39.1579L90.1195 39.103ZM89.7205 38.746L89.7672 38.6576C89.5833 38.5605 89.378 38.513 89.1535 38.513V38.613V38.713C89.349 38.713 89.5217 38.7541 89.6738 38.8344L89.7205 38.746ZM89.1535 38.613V38.513H88.6565V38.613V38.713H89.1535V38.613ZM88.6565 38.613H88.7565V38.144H88.6565H88.5565V38.613H88.6565ZM88.6565 38.144V38.244H89.1115V38.144V38.044H88.6565V38.144ZM89.1115 38.144V38.244C89.3086 38.244 89.4906 38.2009 89.6554 38.1133L89.6085 38.025L89.5616 37.9367C89.4278 38.0078 89.2784 38.044 89.1115 38.044V38.144ZM89.6085 38.025L89.6575 38.1122C89.8204 38.0205 89.9499 37.8995 90.0435 37.7487L89.9585 37.696L89.8736 37.6433C89.7991 37.7632 89.6953 37.8615 89.5595 37.9378L89.6085 38.025ZM89.9585 37.696L90.043 37.7495C90.1416 37.5937 90.1915 37.4236 90.1915 37.241H90.0915H89.9915C89.9915 37.3851 89.9527 37.5183 89.874 37.6425L89.9585 37.696ZM90.0915 37.241H90.1915C90.1915 36.9715 90.0811 36.749 89.866 36.5812L89.8045 36.66L89.743 36.7388C89.9106 36.8697 89.9915 37.0345 89.9915 37.241H90.0915ZM89.8045 36.66L89.867 36.5819C89.6585 36.4152 89.3921 36.336 89.0765 36.336V36.436V36.536C89.3583 36.536 89.5772 36.6062 89.742 36.7381L89.8045 36.66ZM94.4308 39.887V39.787H94.3308V39.887H94.4308ZM94.4308 41V41.1H94.5308V41H94.4308ZM93.9058 41H93.8058V41.1H93.9058V41ZM93.9058 39.887H94.0058V39.787H93.9058V39.887ZM91.5748 39.887H91.4748V39.987H91.5748V39.887ZM91.5748 39.397L91.4892 39.3452L91.4748 39.3691V39.397H91.5748ZM93.6118 36.03V35.93H93.5554L93.5262 35.9782L93.6118 36.03ZM94.4308 36.03H94.5308V35.93H94.4308V36.03ZM94.4308 39.397H94.3308V39.497H94.4308V39.397ZM95.3338 39.397H95.4338V39.297H95.3338V39.397ZM95.3338 39.887V39.987H95.4338V39.887H95.3338ZM93.9058 36.485H94.0058V36.1207L93.8198 36.4339L93.9058 36.485ZM92.1768 39.397L92.0908 39.3459L92.0011 39.497H92.1768V39.397ZM93.9058 39.397V39.497H94.0058V39.397H93.9058ZM94.4308 39.887H94.3308V41H94.4308H94.5308V39.887H94.4308ZM94.4308 41V40.9H93.9058V41V41.1H94.4308V41ZM93.9058 41H94.0058V39.887H93.9058H93.8058V41H93.9058ZM93.9058 39.887V39.787H91.5748V39.887V39.987H93.9058V39.887ZM91.5748 39.887H91.6748V39.397H91.5748H91.4748V39.887H91.5748ZM91.5748 39.397L91.6603 39.4488L93.6973 36.0818L93.6118 36.03L93.5262 35.9782L91.4892 39.3452L91.5748 39.397ZM93.6118 36.03V36.13H94.4308V36.03V35.93H93.6118V36.03ZM94.4308 36.03H94.3308V39.397H94.4308H94.5308V36.03H94.4308ZM94.4308 39.397V39.497H95.3338V39.397V39.297H94.4308V39.397ZM95.3338 39.397H95.2338V39.887H95.3338H95.4338V39.397H95.3338ZM95.3338 39.887V39.787H94.4308V39.887V39.987H95.3338V39.887ZM93.9058 36.485L93.8198 36.4339L92.0908 39.3459L92.1768 39.397L92.2628 39.4481L93.9918 36.5361L93.9058 36.485ZM92.1768 39.397V39.497H93.9058V39.397V39.297H92.1768V39.397ZM93.9058 39.397H94.0058V36.485H93.9058H93.8058V39.397H93.9058Z" fill="white" mask="url(#path-12-outside-1_683_187182)"/>
<mask id="path-14-outside-2_683_187182" maskUnits="userSpaceOnUse" x="13" y="51" width="18" height="6" fill="black">
<rect fill="white" x="13" y="51" width="18" height="6"/>
<path d="M13.306 53.852C13.306 53.136 13.436 52.588 13.696 52.208C13.96 51.824 14.334 51.63 14.818 51.626C15.294 51.622 15.658 51.812 15.91 52.196C16.166 52.58 16.294 53.132 16.294 53.852C16.294 54.572 16.166 55.124 15.91 55.508C15.658 55.892 15.294 56.082 14.818 56.078C14.334 56.074 13.96 55.88 13.696 55.496C13.436 55.112 13.306 54.564 13.306 53.852ZM13.756 53.852C13.756 54.432 13.848 54.878 14.032 55.19C14.216 55.502 14.478 55.658 14.818 55.658C15.15 55.658 15.404 55.502 15.58 55.19C15.756 54.878 15.844 54.432 15.844 53.852C15.844 53.268 15.756 52.822 15.58 52.514C15.404 52.202 15.15 52.046 14.818 52.046C14.478 52.046 14.216 52.202 14.032 52.514C13.848 52.822 13.756 53.268 13.756 53.852ZM14.536 54.188V53.654H15.064V54.188H14.536ZM17.0237 54.776C17.0237 54.524 17.0857 54.302 17.2097 54.11C17.3377 53.914 17.5117 53.764 17.7317 53.66C17.5637 53.564 17.4317 53.438 17.3357 53.282C17.2437 53.122 17.1977 52.942 17.1977 52.742C17.1977 52.526 17.2517 52.336 17.3597 52.172C17.4717 52.004 17.6237 51.874 17.8157 51.782C18.0077 51.686 18.2297 51.638 18.4817 51.638C18.7297 51.638 18.9497 51.686 19.1417 51.782C19.3337 51.878 19.4837 52.01 19.5917 52.178C19.6997 52.342 19.7537 52.532 19.7537 52.748C19.7537 52.944 19.7057 53.122 19.6097 53.282C19.5177 53.438 19.3897 53.564 19.2257 53.66C19.4457 53.764 19.6177 53.914 19.7417 54.11C19.8697 54.302 19.9337 54.526 19.9337 54.782C19.9337 55.03 19.8717 55.25 19.7477 55.442C19.6237 55.63 19.4517 55.778 19.2317 55.886C19.0157 55.994 18.7657 56.048 18.4817 56.048C18.1937 56.048 17.9397 55.994 17.7197 55.886C17.5037 55.778 17.3337 55.628 17.2097 55.436C17.0857 55.244 17.0237 55.024 17.0237 54.776ZM17.6477 52.742C17.6477 52.958 17.7257 53.134 17.8817 53.27C18.0377 53.406 18.2377 53.474 18.4817 53.474C18.7217 53.474 18.9177 53.406 19.0697 53.27C19.2257 53.134 19.3037 52.958 19.3037 52.742C19.3037 52.542 19.2257 52.378 19.0697 52.25C18.9177 52.122 18.7217 52.058 18.4817 52.058C18.2377 52.058 18.0377 52.122 17.8817 52.25C17.7257 52.378 17.6477 52.542 17.6477 52.742ZM18.4817 53.918C18.1857 53.918 17.9437 53.998 17.7557 54.158C17.5677 54.318 17.4737 54.524 17.4737 54.776C17.4737 55.024 17.5677 55.228 17.7557 55.388C17.9437 55.548 18.1857 55.628 18.4817 55.628C18.7777 55.628 19.0177 55.548 19.2017 55.388C19.3897 55.228 19.4837 55.024 19.4837 54.776C19.4837 54.524 19.3897 54.318 19.2017 54.158C19.0177 53.998 18.7777 53.918 18.4817 53.918ZM22.4993 51.794H22.9433L21.4493 56.03H21.0053L22.4993 51.794ZM24.885 55.55H27.027V56H24.123V55.676C24.467 55.316 24.769 55.008 25.029 54.752C25.293 54.496 25.515 54.272 25.695 54.08C25.879 53.884 26.025 53.706 26.133 53.546C26.241 53.386 26.309 53.222 26.337 53.054C26.373 52.866 26.359 52.698 26.295 52.55C26.235 52.402 26.139 52.286 26.007 52.202C25.875 52.118 25.717 52.08 25.533 52.088C25.285 52.092 25.087 52.166 24.939 52.31C24.795 52.45 24.723 52.638 24.723 52.874H24.273C24.273 52.63 24.325 52.416 24.429 52.232C24.537 52.048 24.685 51.904 24.873 51.8C25.065 51.692 25.285 51.638 25.533 51.638C25.821 51.638 26.067 51.706 26.271 51.842C26.479 51.974 26.631 52.152 26.727 52.376C26.823 52.6 26.845 52.852 26.793 53.132C26.761 53.3 26.691 53.476 26.583 53.66C26.475 53.84 26.343 54.022 26.187 54.206C26.035 54.39 25.875 54.568 25.707 54.74C25.543 54.908 25.387 55.062 25.239 55.202C25.095 55.342 24.977 55.458 24.885 55.55ZM27.8166 54.776C27.8166 54.524 27.8786 54.302 28.0026 54.11C28.1306 53.914 28.3046 53.764 28.5246 53.66C28.3566 53.564 28.2246 53.438 28.1286 53.282C28.0366 53.122 27.9906 52.942 27.9906 52.742C27.9906 52.526 28.0446 52.336 28.1526 52.172C28.2646 52.004 28.4166 51.874 28.6086 51.782C28.8006 51.686 29.0226 51.638 29.2746 51.638C29.5226 51.638 29.7426 51.686 29.9346 51.782C30.1266 51.878 30.2766 52.01 30.3846 52.178C30.4926 52.342 30.5466 52.532 30.5466 52.748C30.5466 52.944 30.4986 53.122 30.4026 53.282C30.3106 53.438 30.1826 53.564 30.0186 53.66C30.2386 53.764 30.4106 53.914 30.5346 54.11C30.6626 54.302 30.7266 54.526 30.7266 54.782C30.7266 55.03 30.6646 55.25 30.5406 55.442C30.4166 55.63 30.2446 55.778 30.0246 55.886C29.8086 55.994 29.5586 56.048 29.2746 56.048C28.9866 56.048 28.7326 55.994 28.5126 55.886C28.2966 55.778 28.1266 55.628 28.0026 55.436C27.8786 55.244 27.8166 55.024 27.8166 54.776ZM28.4406 52.742C28.4406 52.958 28.5186 53.134 28.6746 53.27C28.8306 53.406 29.0306 53.474 29.2746 53.474C29.5146 53.474 29.7106 53.406 29.8626 53.27C30.0186 53.134 30.0966 52.958 30.0966 52.742C30.0966 52.542 30.0186 52.378 29.8626 52.25C29.7106 52.122 29.5146 52.058 29.2746 52.058C29.0306 52.058 28.8306 52.122 28.6746 52.25C28.5186 52.378 28.4406 52.542 28.4406 52.742ZM29.2746 53.918C28.9786 53.918 28.7366 53.998 28.5486 54.158C28.3606 54.318 28.2666 54.524 28.2666 54.776C28.2666 55.024 28.3606 55.228 28.5486 55.388C28.7366 55.548 28.9786 55.628 29.2746 55.628C29.5706 55.628 29.8106 55.548 29.9946 55.388C30.1826 55.228 30.2766 55.024 30.2766 54.776C30.2766 54.524 30.1826 54.318 29.9946 54.158C29.8106 53.998 29.5706 53.918 29.2746 53.918Z"/>
</mask>
<path d="M13.306 53.852C13.306 53.136 13.436 52.588 13.696 52.208C13.96 51.824 14.334 51.63 14.818 51.626C15.294 51.622 15.658 51.812 15.91 52.196C16.166 52.58 16.294 53.132 16.294 53.852C16.294 54.572 16.166 55.124 15.91 55.508C15.658 55.892 15.294 56.082 14.818 56.078C14.334 56.074 13.96 55.88 13.696 55.496C13.436 55.112 13.306 54.564 13.306 53.852ZM13.756 53.852C13.756 54.432 13.848 54.878 14.032 55.19C14.216 55.502 14.478 55.658 14.818 55.658C15.15 55.658 15.404 55.502 15.58 55.19C15.756 54.878 15.844 54.432 15.844 53.852C15.844 53.268 15.756 52.822 15.58 52.514C15.404 52.202 15.15 52.046 14.818 52.046C14.478 52.046 14.216 52.202 14.032 52.514C13.848 52.822 13.756 53.268 13.756 53.852ZM14.536 54.188V53.654H15.064V54.188H14.536ZM17.0237 54.776C17.0237 54.524 17.0857 54.302 17.2097 54.11C17.3377 53.914 17.5117 53.764 17.7317 53.66C17.5637 53.564 17.4317 53.438 17.3357 53.282C17.2437 53.122 17.1977 52.942 17.1977 52.742C17.1977 52.526 17.2517 52.336 17.3597 52.172C17.4717 52.004 17.6237 51.874 17.8157 51.782C18.0077 51.686 18.2297 51.638 18.4817 51.638C18.7297 51.638 18.9497 51.686 19.1417 51.782C19.3337 51.878 19.4837 52.01 19.5917 52.178C19.6997 52.342 19.7537 52.532 19.7537 52.748C19.7537 52.944 19.7057 53.122 19.6097 53.282C19.5177 53.438 19.3897 53.564 19.2257 53.66C19.4457 53.764 19.6177 53.914 19.7417 54.11C19.8697 54.302 19.9337 54.526 19.9337 54.782C19.9337 55.03 19.8717 55.25 19.7477 55.442C19.6237 55.63 19.4517 55.778 19.2317 55.886C19.0157 55.994 18.7657 56.048 18.4817 56.048C18.1937 56.048 17.9397 55.994 17.7197 55.886C17.5037 55.778 17.3337 55.628 17.2097 55.436C17.0857 55.244 17.0237 55.024 17.0237 54.776ZM17.6477 52.742C17.6477 52.958 17.7257 53.134 17.8817 53.27C18.0377 53.406 18.2377 53.474 18.4817 53.474C18.7217 53.474 18.9177 53.406 19.0697 53.27C19.2257 53.134 19.3037 52.958 19.3037 52.742C19.3037 52.542 19.2257 52.378 19.0697 52.25C18.9177 52.122 18.7217 52.058 18.4817 52.058C18.2377 52.058 18.0377 52.122 17.8817 52.25C17.7257 52.378 17.6477 52.542 17.6477 52.742ZM18.4817 53.918C18.1857 53.918 17.9437 53.998 17.7557 54.158C17.5677 54.318 17.4737 54.524 17.4737 54.776C17.4737 55.024 17.5677 55.228 17.7557 55.388C17.9437 55.548 18.1857 55.628 18.4817 55.628C18.7777 55.628 19.0177 55.548 19.2017 55.388C19.3897 55.228 19.4837 55.024 19.4837 54.776C19.4837 54.524 19.3897 54.318 19.2017 54.158C19.0177 53.998 18.7777 53.918 18.4817 53.918ZM22.4993 51.794H22.9433L21.4493 56.03H21.0053L22.4993 51.794ZM24.885 55.55H27.027V56H24.123V55.676C24.467 55.316 24.769 55.008 25.029 54.752C25.293 54.496 25.515 54.272 25.695 54.08C25.879 53.884 26.025 53.706 26.133 53.546C26.241 53.386 26.309 53.222 26.337 53.054C26.373 52.866 26.359 52.698 26.295 52.55C26.235 52.402 26.139 52.286 26.007 52.202C25.875 52.118 25.717 52.08 25.533 52.088C25.285 52.092 25.087 52.166 24.939 52.31C24.795 52.45 24.723 52.638 24.723 52.874H24.273C24.273 52.63 24.325 52.416 24.429 52.232C24.537 52.048 24.685 51.904 24.873 51.8C25.065 51.692 25.285 51.638 25.533 51.638C25.821 51.638 26.067 51.706 26.271 51.842C26.479 51.974 26.631 52.152 26.727 52.376C26.823 52.6 26.845 52.852 26.793 53.132C26.761 53.3 26.691 53.476 26.583 53.66C26.475 53.84 26.343 54.022 26.187 54.206C26.035 54.39 25.875 54.568 25.707 54.74C25.543 54.908 25.387 55.062 25.239 55.202C25.095 55.342 24.977 55.458 24.885 55.55ZM27.8166 54.776C27.8166 54.524 27.8786 54.302 28.0026 54.11C28.1306 53.914 28.3046 53.764 28.5246 53.66C28.3566 53.564 28.2246 53.438 28.1286 53.282C28.0366 53.122 27.9906 52.942 27.9906 52.742C27.9906 52.526 28.0446 52.336 28.1526 52.172C28.2646 52.004 28.4166 51.874 28.6086 51.782C28.8006 51.686 29.0226 51.638 29.2746 51.638C29.5226 51.638 29.7426 51.686 29.9346 51.782C30.1266 51.878 30.2766 52.01 30.3846 52.178C30.4926 52.342 30.5466 52.532 30.5466 52.748C30.5466 52.944 30.4986 53.122 30.4026 53.282C30.3106 53.438 30.1826 53.564 30.0186 53.66C30.2386 53.764 30.4106 53.914 30.5346 54.11C30.6626 54.302 30.7266 54.526 30.7266 54.782C30.7266 55.03 30.6646 55.25 30.5406 55.442C30.4166 55.63 30.2446 55.778 30.0246 55.886C29.8086 55.994 29.5586 56.048 29.2746 56.048C28.9866 56.048 28.7326 55.994 28.5126 55.886C28.2966 55.778 28.1266 55.628 28.0026 55.436C27.8786 55.244 27.8166 55.024 27.8166 54.776ZM28.4406 52.742C28.4406 52.958 28.5186 53.134 28.6746 53.27C28.8306 53.406 29.0306 53.474 29.2746 53.474C29.5146 53.474 29.7106 53.406 29.8626 53.27C30.0186 53.134 30.0966 52.958 30.0966 52.742C30.0966 52.542 30.0186 52.378 29.8626 52.25C29.7106 52.122 29.5146 52.058 29.2746 52.058C29.0306 52.058 28.8306 52.122 28.6746 52.25C28.5186 52.378 28.4406 52.542 28.4406 52.742ZM29.2746 53.918C28.9786 53.918 28.7366 53.998 28.5486 54.158C28.3606 54.318 28.2666 54.524 28.2666 54.776C28.2666 55.024 28.3606 55.228 28.5486 55.388C28.7366 55.548 28.9786 55.628 29.2746 55.628C29.5706 55.628 29.8106 55.548 29.9946 55.388C30.1826 55.228 30.2766 55.024 30.2766 54.776C30.2766 54.524 30.1826 54.318 29.9946 54.158C29.8106 53.998 29.5706 53.918 29.2746 53.918Z" fill="white"/>
<path d="M13.696 52.208L13.6136 52.1513L13.6135 52.1515L13.696 52.208ZM14.818 51.626L14.8188 51.726H14.8188L14.818 51.626ZM15.91 52.196L15.8264 52.2509L15.8268 52.2515L15.91 52.196ZM15.91 55.508L15.8268 55.4525L15.8264 55.4531L15.91 55.508ZM14.818 56.078L14.8188 55.978H14.8188L14.818 56.078ZM13.696 55.496L13.6132 55.5521L13.6136 55.5527L13.696 55.496ZM14.032 55.19L13.9459 55.2408V55.2408L14.032 55.19ZM15.58 55.19L15.4929 55.1409V55.1409L15.58 55.19ZM15.58 52.514L15.4929 52.5631L15.4932 52.5636L15.58 52.514ZM14.032 52.514L14.1178 52.5653L14.1181 52.5648L14.032 52.514ZM14.536 54.188H14.436V54.288H14.536V54.188ZM14.536 53.654V53.554H14.436V53.654H14.536ZM15.064 53.654H15.164V53.554H15.064V53.654ZM15.064 54.188V54.288H15.164V54.188H15.064ZM13.306 53.852H13.406C13.406 53.1458 13.5346 52.621 13.7785 52.2645L13.696 52.208L13.6135 52.1515C13.3374 52.555 13.206 53.1262 13.206 53.852H13.306ZM13.696 52.208L13.7784 52.2647C14.0231 51.9088 14.366 51.7297 14.8188 51.726L14.818 51.626L14.8172 51.526C14.302 51.5303 13.8969 51.7392 13.6136 52.1513L13.696 52.208ZM14.818 51.626L14.8188 51.726C15.2623 51.7223 15.5938 51.8965 15.8264 52.2509L15.91 52.196L15.9936 52.1411C15.7222 51.7275 15.3257 51.5217 14.8172 51.526L14.818 51.626ZM15.91 52.196L15.8268 52.2515C16.0673 52.6122 16.194 53.1415 16.194 53.852H16.294H16.394C16.394 53.1225 16.2647 52.5478 15.9932 52.1405L15.91 52.196ZM16.294 53.852H16.194C16.194 54.5625 16.0673 55.0918 15.8268 55.4525L15.91 55.508L15.9932 55.5635C16.2647 55.1562 16.394 54.5815 16.394 53.852H16.294ZM15.91 55.508L15.8264 55.4531C15.5938 55.8075 15.2623 55.9817 14.8188 55.978L14.818 56.078L14.8172 56.178C15.3257 56.1823 15.7222 55.9765 15.9936 55.5629L15.91 55.508ZM14.818 56.078L14.8188 55.978C14.366 55.9743 14.0231 55.7952 13.7784 55.4393L13.696 55.496L13.6136 55.5527C13.8969 55.9648 14.302 56.1737 14.8172 56.178L14.818 56.078ZM13.696 55.496L13.7788 55.4399C13.5345 55.0792 13.406 54.554 13.406 53.852H13.306H13.206C13.206 54.574 13.3375 55.1448 13.6132 55.5521L13.696 55.496ZM13.756 53.852H13.656C13.656 54.4402 13.7489 54.9068 13.9459 55.2408L14.032 55.19L14.1181 55.1392C13.9471 54.8492 13.856 54.4238 13.856 53.852H13.756ZM14.032 55.19L13.9459 55.2408C14.1464 55.5809 14.4399 55.758 14.818 55.758V55.658V55.558C14.5161 55.558 14.2856 55.4231 14.1181 55.1392L14.032 55.19ZM14.818 55.658V55.758C15.1894 55.758 15.4751 55.5795 15.6671 55.2391L15.58 55.19L15.4929 55.1409C15.3329 55.4245 15.1106 55.558 14.818 55.558V55.658ZM15.58 55.19L15.6671 55.2391C15.8553 54.9056 15.944 54.4397 15.944 53.852H15.844H15.744C15.744 54.4243 15.6567 54.8504 15.4929 55.1409L15.58 55.19ZM15.844 53.852H15.944C15.944 53.2606 15.8553 52.7943 15.6668 52.4644L15.58 52.514L15.4932 52.5636C15.6567 52.8497 15.744 53.2754 15.744 53.852H15.844ZM15.58 52.514L15.6671 52.4649C15.4751 52.1245 15.1894 51.946 14.818 51.946V52.046V52.146C15.1106 52.146 15.3329 52.2795 15.4929 52.5631L15.58 52.514ZM14.818 52.046V51.946C14.4399 51.946 14.1464 52.1231 13.9459 52.4632L14.032 52.514L14.1181 52.5648C14.2856 52.2809 14.5161 52.146 14.818 52.146V52.046ZM14.032 52.514L13.9462 52.4627C13.7488 52.7931 13.656 53.2601 13.656 53.852H13.756H13.856C13.856 53.2759 13.9472 52.8509 14.1178 52.5653L14.032 52.514ZM14.536 54.188H14.636V53.654H14.536H14.436V54.188H14.536ZM14.536 53.654V53.754H15.064V53.654V53.554H14.536V53.654ZM15.064 53.654H14.964V54.188H15.064H15.164V53.654H15.064ZM15.064 54.188V54.088H14.536V54.188V54.288H15.064V54.188ZM17.2097 54.11L17.1259 54.0553L17.1257 54.0557L17.2097 54.11ZM17.7317 53.66L17.7744 53.7504L17.9479 53.6684L17.7813 53.5732L17.7317 53.66ZM17.3357 53.282L17.2489 53.3319L17.2505 53.3344L17.3357 53.282ZM17.3597 52.172L17.2765 52.1165L17.2761 52.117L17.3597 52.172ZM17.8157 51.782L17.8589 51.8722L17.8604 51.8714L17.8157 51.782ZM19.1417 51.782L19.0969 51.8714V51.8714L19.1417 51.782ZM19.5917 52.178L19.5075 52.2321L19.5081 52.233L19.5917 52.178ZM19.6097 53.282L19.5239 53.2305L19.5235 53.2312L19.6097 53.282ZM19.2257 53.66L19.1751 53.5737L19.0116 53.6694L19.1829 53.7504L19.2257 53.66ZM19.7417 54.11L19.6571 54.1635L19.6585 54.1655L19.7417 54.11ZM19.7477 55.442L19.8311 55.4971L19.8317 55.4963L19.7477 55.442ZM19.2317 55.886L19.1876 55.7962L19.1869 55.7966L19.2317 55.886ZM17.7197 55.886L17.6749 55.9754L17.6756 55.9758L17.7197 55.886ZM17.2097 55.436L17.2937 55.3817V55.3817L17.2097 55.436ZM17.8817 53.27L17.8159 53.3454V53.3454L17.8817 53.27ZM19.0697 53.27L19.0039 53.1946L19.003 53.1955L19.0697 53.27ZM19.0697 52.25L19.0052 52.3265L19.0062 52.3273L19.0697 52.25ZM17.8817 52.25L17.9451 52.3273V52.3273L17.8817 52.25ZM17.7557 54.158L17.6908 54.0818V54.0818L17.7557 54.158ZM17.7557 55.388L17.6908 55.4642V55.4642L17.7557 55.388ZM19.2017 55.388L19.1368 55.3118L19.136 55.3125L19.2017 55.388ZM19.2017 54.158L19.136 54.2335L19.1368 54.2342L19.2017 54.158ZM17.0237 54.776H17.1237C17.1237 54.5412 17.1812 54.3384 17.2937 54.1643L17.2097 54.11L17.1257 54.0557C16.9902 54.2656 16.9237 54.5068 16.9237 54.776H17.0237ZM17.2097 54.11L17.2934 54.1647C17.4109 53.9848 17.5704 53.8468 17.7744 53.7504L17.7317 53.66L17.6889 53.5696C17.4529 53.6812 17.2644 53.8432 17.1259 54.0553L17.2097 54.11ZM17.7317 53.66L17.7813 53.5732C17.627 53.485 17.5075 53.3705 17.4208 53.2296L17.3357 53.282L17.2505 53.3344C17.3558 53.5055 17.5003 53.643 17.682 53.7468L17.7317 53.66ZM17.3357 53.282L17.4223 53.2322C17.3398 53.0886 17.2977 52.926 17.2977 52.742H17.1977H17.0977C17.0977 52.958 17.1475 53.1554 17.249 53.3318L17.3357 53.282ZM17.1977 52.742H17.2977C17.2977 52.5435 17.347 52.3731 17.4432 52.227L17.3597 52.172L17.2761 52.117C17.1563 52.2989 17.0977 52.5085 17.0977 52.742H17.1977ZM17.3597 52.172L17.4429 52.2275C17.5443 52.0753 17.6822 51.9569 17.8589 51.8722L17.8157 51.782L17.7724 51.6918C17.5652 51.7911 17.399 51.9327 17.2765 52.1165L17.3597 52.172ZM17.8157 51.782L17.8604 51.8714C18.0363 51.7835 18.2425 51.738 18.4817 51.738V51.638V51.538C18.2168 51.538 17.979 51.5885 17.7709 51.6926L17.8157 51.782ZM18.4817 51.638V51.738C18.7165 51.738 18.9208 51.7834 19.0969 51.8714L19.1417 51.782L19.1864 51.6926C18.9785 51.5886 18.7428 51.538 18.4817 51.538V51.638ZM19.1417 51.782L19.0969 51.8714C19.2741 51.96 19.41 52.0803 19.5075 52.2321L19.5917 52.178L19.6758 52.1239C19.5573 51.9397 19.3932 51.796 19.1864 51.6926L19.1417 51.782ZM19.5917 52.178L19.5081 52.233C19.6043 52.3791 19.6537 52.5495 19.6537 52.748H19.7537H19.8537C19.8537 52.5145 19.795 52.3049 19.6752 52.123L19.5917 52.178ZM19.7537 52.748H19.6537C19.6537 52.9268 19.6101 53.0869 19.5239 53.2306L19.6097 53.282L19.6954 53.3334C19.8012 53.1571 19.8537 52.9612 19.8537 52.748H19.7537ZM19.6097 53.282L19.5235 53.2312C19.4406 53.3718 19.3252 53.4859 19.1751 53.5737L19.2257 53.66L19.2762 53.7463C19.4541 53.6421 19.5947 53.5042 19.6958 53.3328L19.6097 53.282ZM19.2257 53.66L19.1829 53.7504C19.3867 53.8467 19.5438 53.9843 19.6571 54.1635L19.7417 54.11L19.8262 54.0565C19.6915 53.8437 19.5047 53.6813 19.2684 53.5696L19.2257 53.66ZM19.7417 54.11L19.6585 54.1655C19.7743 54.3393 19.8337 54.5435 19.8337 54.782H19.9337H20.0337C20.0337 54.5085 19.965 54.2647 19.8249 54.0545L19.7417 54.11ZM19.9337 54.782H19.8337C19.8337 55.0125 19.7763 55.2133 19.6637 55.3877L19.7477 55.442L19.8317 55.4963C19.967 55.2867 20.0337 55.0475 20.0337 54.782H19.9337ZM19.7477 55.442L19.6642 55.3869C19.5508 55.5588 19.3931 55.6954 19.1876 55.7962L19.2317 55.886L19.2757 55.9758C19.5103 55.8606 19.6965 55.7012 19.8311 55.4971L19.7477 55.442ZM19.2317 55.886L19.1869 55.7966C18.9871 55.8965 18.7529 55.948 18.4817 55.948V56.048V56.148C18.7785 56.148 19.0442 56.0915 19.2764 55.9754L19.2317 55.886ZM18.4817 56.048V55.948C18.2063 55.948 17.9678 55.8964 17.7637 55.7962L17.7197 55.886L17.6756 55.9758C17.9115 56.0916 18.181 56.148 18.4817 56.148V56.048ZM17.7197 55.886L17.7644 55.7966C17.5634 55.6961 17.4074 55.5579 17.2937 55.3817L17.2097 55.436L17.1257 55.4903C17.2599 55.6981 17.4439 55.8599 17.6749 55.9754L17.7197 55.886ZM17.2097 55.436L17.2937 55.3817C17.181 55.2073 17.1237 55.0065 17.1237 54.776H17.0237H16.9237C16.9237 55.0415 16.9903 55.2807 17.1257 55.4903L17.2097 55.436ZM17.6477 52.742H17.5477C17.5477 52.9855 17.6371 53.1895 17.8159 53.3454L17.8817 53.27L17.9474 53.1946C17.8142 53.0785 17.7477 52.9305 17.7477 52.742H17.6477ZM17.8817 53.27L17.8159 53.3454C17.9933 53.5 18.2181 53.574 18.4817 53.574V53.474V53.374C18.2573 53.374 18.082 53.312 17.9474 53.1946L17.8817 53.27ZM18.4817 53.474V53.574C18.7417 53.574 18.9628 53.4998 19.1363 53.3445L19.0697 53.27L19.003 53.1955C18.8725 53.3122 18.7017 53.374 18.4817 53.374V53.474ZM19.0697 53.27L19.1354 53.3454C19.3142 53.1895 19.4037 52.9855 19.4037 52.742H19.3037H19.2037C19.2037 52.9305 19.1371 53.0785 19.0039 53.1946L19.0697 53.27ZM19.3037 52.742H19.4037C19.4037 52.5117 19.312 52.3195 19.1331 52.1727L19.0697 52.25L19.0062 52.3273C19.1393 52.4365 19.2037 52.5723 19.2037 52.742H19.3037ZM19.0697 52.25L19.1341 52.1735C18.9605 52.0273 18.7401 51.958 18.4817 51.958V52.058V52.158C18.7032 52.158 18.8748 52.2167 19.0052 52.3265L19.0697 52.25ZM18.4817 52.058V51.958C18.2195 51.958 17.9956 52.0271 17.8182 52.1727L17.8817 52.25L17.9451 52.3273C18.0797 52.2169 18.2558 52.158 18.4817 52.158V52.058ZM17.8817 52.25L17.8182 52.1727C17.6393 52.3195 17.5477 52.5117 17.5477 52.742H17.6477H17.7477C17.7477 52.5723 17.812 52.4365 17.9451 52.3273L17.8817 52.25ZM18.4817 53.918V53.818C18.1668 53.818 17.9004 53.9035 17.6908 54.0818L17.7557 54.158L17.8205 54.2342C17.9869 54.0925 18.2045 54.018 18.4817 54.018V53.918ZM17.7557 54.158L17.6908 54.0818C17.48 54.2613 17.3737 54.4954 17.3737 54.776H17.4737H17.5737C17.5737 54.5526 17.6553 54.3747 17.8205 54.2342L17.7557 54.158ZM17.4737 54.776H17.3737C17.3737 55.0532 17.4804 55.2851 17.6908 55.4642L17.7557 55.388L17.8205 55.3118C17.6549 55.1709 17.5737 54.9948 17.5737 54.776H17.4737ZM17.7557 55.388L17.6908 55.4642C17.9004 55.6425 18.1668 55.728 18.4817 55.728V55.628V55.528C18.2045 55.528 17.9869 55.4535 17.8205 55.3118L17.7557 55.388ZM18.4817 55.628V55.728C18.7964 55.728 19.0614 55.6425 19.2673 55.4635L19.2017 55.388L19.136 55.3125C18.9739 55.4535 18.7589 55.528 18.4817 55.528V55.628ZM19.2017 55.388L19.2665 55.4642C19.4769 55.2851 19.5837 55.0532 19.5837 54.776H19.4837H19.3837C19.3837 54.9948 19.3024 55.1709 19.1368 55.3118L19.2017 55.388ZM19.4837 54.776H19.5837C19.5837 54.4954 19.4773 54.2613 19.2665 54.0818L19.2017 54.158L19.1368 54.2342C19.302 54.3747 19.3837 54.5526 19.3837 54.776H19.4837ZM19.2017 54.158L19.2673 54.0825C19.0614 53.9035 18.7964 53.818 18.4817 53.818V53.918V54.018C18.7589 54.018 18.9739 54.0925 19.136 54.2335L19.2017 54.158ZM22.4993 51.794V51.694H22.4285L22.405 51.7607L22.4993 51.794ZM22.9433 51.794L23.0376 51.8273L23.0846 51.694H22.9433V51.794ZM21.4493 56.03V56.13H21.5201L21.5436 56.0633L21.4493 56.03ZM21.0053 56.03L20.911 55.9967L20.864 56.13H21.0053V56.03ZM22.4993 51.794V51.894H22.9433V51.794V51.694H22.4993V51.794ZM22.9433 51.794L22.849 51.7607L21.355 55.9967L21.4493 56.03L21.5436 56.0633L23.0376 51.8273L22.9433 51.794ZM21.4493 56.03V55.93H21.0053V56.03V56.13H21.4493V56.03ZM21.0053 56.03L21.0996 56.0633L22.5936 51.8273L22.4993 51.794L22.405 51.7607L20.911 55.9967L21.0053 56.03ZM24.885 55.55L24.8143 55.4793L24.6435 55.65H24.885V55.55ZM27.027 55.55H27.127V55.45H27.027V55.55ZM27.027 56V56.1H27.127V56H27.027ZM24.123 56H24.023V56.1H24.123V56ZM24.123 55.676L24.0507 55.6069L24.023 55.6359V55.676H24.123ZM25.029 54.752L24.9594 54.6802L24.9588 54.6807L25.029 54.752ZM25.695 54.08L25.6221 54.0116L25.622 54.0116L25.695 54.08ZM26.133 53.546L26.2159 53.6019V53.6019L26.133 53.546ZM26.337 53.054L26.2387 53.0352L26.2383 53.0376L26.337 53.054ZM26.295 52.55L26.2023 52.5876L26.2032 52.5897L26.295 52.55ZM26.007 52.202L25.9533 52.2864V52.2864L26.007 52.202ZM25.533 52.088L25.5346 52.188L25.5373 52.1879L25.533 52.088ZM24.939 52.31L25.0087 52.3817L25.0087 52.3817L24.939 52.31ZM24.723 52.874V52.974H24.823V52.874H24.723ZM24.273 52.874H24.173V52.974H24.273V52.874ZM24.429 52.232L24.3427 52.1814L24.3419 52.1828L24.429 52.232ZM24.873 51.8L24.9214 51.8875L24.922 51.8872L24.873 51.8ZM26.271 51.842L26.2155 51.9252L26.2174 51.9264L26.271 51.842ZM26.793 53.132L26.8912 53.1507L26.8913 53.1503L26.793 53.132ZM26.583 53.66L26.6687 53.7115L26.6692 53.7106L26.583 53.66ZM26.187 54.206L26.1107 54.1413L26.1099 54.1423L26.187 54.206ZM25.707 54.74L25.6354 54.6701L25.6354 54.6701L25.707 54.74ZM25.239 55.202L25.1702 55.1293L25.1693 55.1303L25.239 55.202ZM24.885 55.55V55.65H27.027V55.55V55.45H24.885V55.55ZM27.027 55.55H26.927V56H27.027H27.127V55.55H27.027ZM27.027 56V55.9H24.123V56V56.1H27.027V56ZM24.123 56H24.223V55.676H24.123H24.023V56H24.123ZM24.123 55.676L24.1953 55.7451C24.5388 55.3856 24.8401 55.0783 25.0991 54.8233L25.029 54.752L24.9588 54.6807C24.6979 54.9377 24.3951 55.2464 24.0507 55.6069L24.123 55.676ZM25.029 54.752L25.0986 54.8238C25.3633 54.5671 25.5865 54.3419 25.7679 54.1484L25.695 54.08L25.622 54.0116C25.4434 54.2021 25.2226 54.4249 24.9594 54.6802L25.029 54.752ZM25.695 54.08L25.7679 54.1484C25.9542 53.9499 26.104 53.7677 26.2159 53.6019L26.133 53.546L26.0501 53.4901C25.946 53.6443 25.8037 53.8181 25.6221 54.0116L25.695 54.08ZM26.133 53.546L26.2159 53.6019C26.3308 53.4316 26.405 53.2544 26.4356 53.0704L26.337 53.054L26.2383 53.0376C26.213 53.1896 26.1511 53.3404 26.0501 53.4901L26.133 53.546ZM26.337 53.054L26.4352 53.0728C26.4742 52.8689 26.4601 52.6799 26.3868 52.5103L26.295 52.55L26.2032 52.5897C26.2578 52.7161 26.2717 52.8631 26.2388 53.0352L26.337 53.054ZM26.295 52.55L26.3876 52.5124C26.32 52.3456 26.2106 52.213 26.0607 52.1176L26.007 52.202L25.9533 52.2864C26.0674 52.359 26.1499 52.4584 26.2023 52.5876L26.295 52.55ZM26.007 52.202L26.0607 52.1176C25.9085 52.0208 25.7294 51.9794 25.5286 51.9881L25.533 52.088L25.5373 52.1879C25.7046 52.1806 25.8415 52.2152 25.9533 52.2864L26.007 52.202ZM25.533 52.088L25.5314 51.988C25.2633 51.9923 25.0391 52.0731 24.8692 52.2383L24.939 52.31L25.0087 52.3817C25.1349 52.2589 25.3066 52.1917 25.5346 52.188L25.533 52.088ZM24.939 52.31L24.8693 52.2383C24.7025 52.4004 24.623 52.6161 24.623 52.874H24.723H24.823C24.823 52.6599 24.8874 52.4996 25.0087 52.3817L24.939 52.31ZM24.723 52.874V52.774H24.273V52.874V52.974H24.723V52.874ZM24.273 52.874H24.373C24.373 52.6446 24.4217 52.448 24.516 52.2812L24.429 52.232L24.3419 52.1828C24.2282 52.384 24.173 52.6154 24.173 52.874H24.273ZM24.429 52.232L24.5152 52.2826C24.6141 52.1142 24.749 51.9829 24.9214 51.8875L24.873 51.8L24.8246 51.7125C24.621 51.8251 24.4599 51.9818 24.3427 52.1814L24.429 52.232ZM24.873 51.8L24.922 51.8872C25.0972 51.7886 25.2999 51.738 25.533 51.738V51.638V51.538C25.27 51.538 25.0327 51.5954 24.8239 51.7128L24.873 51.8ZM25.533 51.638V51.738C25.8047 51.738 26.0306 51.802 26.2155 51.9252L26.271 51.842L26.3264 51.7588C26.1033 51.61 25.8372 51.538 25.533 51.538V51.638ZM26.271 51.842L26.2174 51.9264C26.4086 52.0478 26.5471 52.2101 26.6351 52.4154L26.727 52.376L26.8189 52.3366C26.7148 52.0939 26.5494 51.9002 26.3246 51.7576L26.271 51.842ZM26.727 52.376L26.6351 52.4154C26.722 52.6183 26.7437 52.8498 26.6946 53.1137L26.793 53.132L26.8913 53.1503C26.9463 52.8542 26.9239 52.5817 26.8189 52.3366L26.727 52.376ZM26.793 53.132L26.6947 53.1133C26.6653 53.2677 26.6003 53.4329 26.4967 53.6094L26.583 53.66L26.6692 53.7106C26.7816 53.5191 26.8566 53.3323 26.8912 53.1507L26.793 53.132ZM26.583 53.66L26.4972 53.6086C26.3924 53.7833 26.2637 53.9609 26.1107 54.1413L26.187 54.206L26.2632 54.2707C26.4222 54.0831 26.5575 53.8967 26.6687 53.7114L26.583 53.66ZM26.187 54.206L26.1099 54.1423C25.9597 54.3242 25.8015 54.5001 25.6354 54.6701L25.707 54.74L25.7785 54.8099C25.9484 54.6359 26.1103 54.4558 26.2641 54.2697L26.187 54.206ZM25.707 54.74L25.6354 54.6701C25.4722 54.8373 25.3172 54.9904 25.1702 55.1294L25.239 55.202L25.3077 55.2746C25.4568 55.1336 25.6137 54.9787 25.7785 54.8099L25.707 54.74ZM25.239 55.202L25.1693 55.1303C25.0251 55.2705 24.9067 55.3868 24.8143 55.4793L24.885 55.55L24.9557 55.6207C25.0472 55.5292 25.1649 55.4135 25.3087 55.2737L25.239 55.202ZM28.0026 54.11L27.9189 54.0553L27.9186 54.0557L28.0026 54.11ZM28.5246 53.66L28.5674 53.7504L28.7409 53.6684L28.5742 53.5732L28.5246 53.66ZM28.1286 53.282L28.0419 53.3319L28.0435 53.3344L28.1286 53.282ZM28.1526 52.172L28.0694 52.1165L28.0691 52.117L28.1526 52.172ZM28.6086 51.782L28.6518 51.8722L28.6533 51.8714L28.6086 51.782ZM29.9346 51.782L29.8899 51.8714V51.8714L29.9346 51.782ZM30.3846 52.178L30.3005 52.2321L30.3011 52.233L30.3846 52.178ZM30.4026 53.282L30.3169 53.2305L30.3165 53.2312L30.4026 53.282ZM30.0186 53.66L29.9681 53.5737L29.8046 53.6694L29.9759 53.7504L30.0186 53.66ZM30.5346 54.11L30.4501 54.1635L30.4514 54.1655L30.5346 54.11ZM30.5406 55.442L30.6241 55.4971L30.6246 55.4963L30.5406 55.442ZM30.0246 55.886L29.9806 55.7962L29.9799 55.7966L30.0246 55.886ZM28.5126 55.886L28.4679 55.9754L28.4686 55.9758L28.5126 55.886ZM28.0026 55.436L28.0866 55.3817V55.3817L28.0026 55.436ZM28.6746 53.27L28.6089 53.3454V53.3454L28.6746 53.27ZM29.8626 53.27L29.7969 53.1946L29.7959 53.1955L29.8626 53.27ZM29.8626 52.25L29.7982 52.3265L29.7992 52.3273L29.8626 52.25ZM28.6746 52.25L28.7381 52.3273L28.7381 52.3273L28.6746 52.25ZM28.5486 54.158L28.4838 54.0818V54.0818L28.5486 54.158ZM28.5486 55.388L28.4838 55.4642V55.4642L28.5486 55.388ZM29.9946 55.388L29.9298 55.3118L29.929 55.3125L29.9946 55.388ZM29.9946 54.158L29.929 54.2335L29.9298 54.2342L29.9946 54.158ZM27.8166 54.776H27.9166C27.9166 54.5412 27.9741 54.3384 28.0866 54.1643L28.0026 54.11L27.9186 54.0557C27.7831 54.2656 27.7166 54.5068 27.7166 54.776H27.8166ZM28.0026 54.11L28.0864 54.1647C28.2038 53.9848 28.3634 53.8468 28.5674 53.7504L28.5246 53.66L28.4819 53.5696C28.2459 53.6812 28.0574 53.8432 27.9189 54.0553L28.0026 54.11ZM28.5246 53.66L28.5742 53.5732C28.4199 53.485 28.3005 53.3705 28.2138 53.2296L28.1286 53.282L28.0435 53.3344C28.1487 53.5055 28.2933 53.643 28.475 53.7468L28.5246 53.66ZM28.1286 53.282L28.2153 53.2322C28.1328 53.0886 28.0906 52.926 28.0906 52.742H27.9906H27.8906C27.8906 52.958 27.9405 53.1554 28.0419 53.3318L28.1286 53.282ZM27.9906 52.742H28.0906C28.0906 52.5435 28.14 52.3731 28.2361 52.227L28.1526 52.172L28.0691 52.117C27.9493 52.2989 27.8906 52.5085 27.8906 52.742H27.9906ZM28.1526 52.172L28.2358 52.2275C28.3373 52.0753 28.4751 51.9569 28.6518 51.8722L28.6086 51.782L28.5654 51.6918C28.3581 51.7911 28.1919 51.9327 28.0694 52.1165L28.1526 52.172ZM28.6086 51.782L28.6533 51.8714C28.8292 51.7835 29.0355 51.738 29.2746 51.738V51.638V51.538C29.0098 51.538 28.772 51.5885 28.5639 51.6926L28.6086 51.782ZM29.2746 51.638V51.738C29.5095 51.738 29.7138 51.7834 29.8899 51.8714L29.9346 51.782L29.9793 51.6926C29.7715 51.5886 29.5357 51.538 29.2746 51.538V51.638ZM29.9346 51.782L29.8899 51.8714C30.0671 51.96 30.2029 52.0803 30.3005 52.2321L30.3846 52.178L30.4687 52.1239C30.3503 51.9397 30.1862 51.796 29.9793 51.6926L29.9346 51.782ZM30.3846 52.178L30.3011 52.233C30.3973 52.3791 30.4466 52.5495 30.4466 52.748H30.5466H30.6466C30.6466 52.5145 30.588 52.3049 30.4681 52.123L30.3846 52.178ZM30.5466 52.748H30.4466C30.4466 52.9268 30.4031 53.0869 30.3169 53.2306L30.4026 53.282L30.4884 53.3334C30.5942 53.1571 30.6466 52.9612 30.6466 52.748H30.5466ZM30.4026 53.282L30.3165 53.2312C30.2336 53.3718 30.1182 53.4859 29.9681 53.5737L30.0186 53.66L30.0691 53.7463C30.2471 53.6421 30.3877 53.5042 30.4888 53.3328L30.4026 53.282ZM30.0186 53.66L29.9759 53.7504C30.1796 53.8467 30.3368 53.9843 30.4501 54.1635L30.5346 54.11L30.6191 54.0565C30.4845 53.8437 30.2976 53.6813 30.0614 53.5696L30.0186 53.66ZM30.5346 54.11L30.4514 54.1655C30.5673 54.3393 30.6266 54.5435 30.6266 54.782H30.7266H30.8266C30.8266 54.5085 30.758 54.2647 30.6178 54.0545L30.5346 54.11ZM30.7266 54.782H30.6266C30.6266 55.0125 30.5693 55.2133 30.4566 55.3877L30.5406 55.442L30.6246 55.4963C30.76 55.2867 30.8266 55.0475 30.8266 54.782H30.7266ZM30.5406 55.442L30.4571 55.3869C30.3438 55.5588 30.186 55.6954 29.9806 55.7962L30.0246 55.886L30.0687 55.9758C30.3032 55.8606 30.4894 55.7012 30.6241 55.4971L30.5406 55.442ZM30.0246 55.886L29.9799 55.7966C29.78 55.8965 29.5458 55.948 29.2746 55.948V56.048V56.148C29.5714 56.148 29.8372 56.0915 30.0693 55.9754L30.0246 55.886ZM29.2746 56.048V55.948C28.9992 55.948 28.7608 55.8964 28.5567 55.7962L28.5126 55.886L28.4686 55.9758C28.7045 56.0916 28.974 56.148 29.2746 56.148V56.048ZM28.5126 55.886L28.5573 55.7966C28.3564 55.6961 28.2004 55.5579 28.0866 55.3817L28.0026 55.436L27.9186 55.4903C28.0529 55.6981 28.2368 55.8599 28.4679 55.9754L28.5126 55.886ZM28.0026 55.436L28.0866 55.3817C27.974 55.2073 27.9166 55.0065 27.9166 54.776H27.8166H27.7166C27.7166 55.0415 27.7833 55.2807 27.9186 55.4903L28.0026 55.436ZM28.4406 52.742H28.3406C28.3406 52.9855 28.4301 53.1895 28.6089 53.3454L28.6746 53.27L28.7403 53.1946C28.6072 53.0785 28.5406 52.9305 28.5406 52.742H28.4406ZM28.6746 53.27L28.6089 53.3454C28.7863 53.5 29.011 53.574 29.2746 53.574V53.474V53.374C29.0502 53.374 28.875 53.312 28.7403 53.1946L28.6746 53.27ZM29.2746 53.474V53.574C29.5346 53.574 29.7558 53.4998 29.9293 53.3445L29.8626 53.27L29.7959 53.1955C29.6654 53.3122 29.4946 53.374 29.2746 53.374V53.474ZM29.8626 53.27L29.9283 53.3454C30.1072 53.1895 30.1966 52.9855 30.1966 52.742H30.0966H29.9966C29.9966 52.9305 29.9301 53.0785 29.7969 53.1946L29.8626 53.27ZM30.0966 52.742H30.1966C30.1966 52.5117 30.105 52.3195 29.9261 52.1727L29.8626 52.25L29.7992 52.3273C29.9323 52.4365 29.9966 52.5723 29.9966 52.742H30.0966ZM29.8626 52.25L29.927 52.1735C29.7535 52.0273 29.5331 51.958 29.2746 51.958V52.058V52.158C29.4962 52.158 29.6678 52.2167 29.7982 52.3265L29.8626 52.25ZM29.2746 52.058V51.958C29.0125 51.958 28.7886 52.0271 28.6112 52.1727L28.6746 52.25L28.7381 52.3273C28.8726 52.2169 29.0487 52.158 29.2746 52.158V52.058ZM28.6746 52.25L28.6112 52.1727C28.4323 52.3195 28.3406 52.5117 28.3406 52.742H28.4406H28.5406C28.5406 52.5723 28.605 52.4365 28.7381 52.3273L28.6746 52.25ZM29.2746 53.918V53.818C28.9598 53.818 28.6933 53.9035 28.4838 54.0818L28.5486 54.158L28.6134 54.2342C28.7799 54.0925 28.9974 54.018 29.2746 54.018V53.918ZM28.5486 54.158L28.4838 54.0818C28.273 54.2613 28.1666 54.4954 28.1666 54.776H28.2666H28.3666C28.3666 54.5526 28.4483 54.3747 28.6134 54.2342L28.5486 54.158ZM28.2666 54.776H28.1666C28.1666 55.0532 28.2734 55.2851 28.4838 55.4642L28.5486 55.388L28.6134 55.3118C28.4479 55.1709 28.3666 54.9948 28.3666 54.776H28.2666ZM28.5486 55.388L28.4838 55.4642C28.6933 55.6425 28.9598 55.728 29.2746 55.728V55.628V55.528C28.9974 55.528 28.7799 55.4535 28.6134 55.3118L28.5486 55.388ZM29.2746 55.628V55.728C29.5894 55.728 29.8544 55.6425 30.0602 55.4635L29.9946 55.388L29.929 55.3125C29.7669 55.4535 29.5519 55.528 29.2746 55.528V55.628ZM29.9946 55.388L30.0594 55.4642C30.2699 55.2851 30.3766 55.0532 30.3766 54.776H30.2766H30.1766C30.1766 54.9948 30.0954 55.1709 29.9298 55.3118L29.9946 55.388ZM30.2766 54.776H30.3766C30.3766 54.4954 30.2703 54.2613 30.0594 54.0818L29.9946 54.158L29.9298 54.2342C30.095 54.3747 30.1766 54.5526 30.1766 54.776H30.2766ZM29.9946 54.158L30.0602 54.0825C29.8544 53.9035 29.5894 53.818 29.2746 53.818V53.918V54.018C29.5519 54.018 29.7669 54.0925 29.929 54.2335L29.9946 54.158Z" fill="white" mask="url(#path-14-outside-2_683_187182)"/>
</g>
<ellipse cx="99.9989" cy="59.5789" rx="11.5789" ry="11.0526" fill="white"/>
<path fill-rule="evenodd" clip-rule="evenodd" d="M97.557 39.4548C98.6082 37.5152 101.392 37.5152 102.443 39.4549L119.66 71.2233C120.664 73.0748 119.323 75.3261 117.217 75.3261H82.7827C80.6767 75.3261 79.3362 73.0748 80.3396 71.2233L97.557 39.4548ZM97.2638 63.7891H102.729V69.5517H97.2638V63.7891ZM102.729 49.3682H97.2638V60.905H102.729V49.3682Z" fill="#FA8200"/>
<defs>
<filter id="filter0_dd_683_187182" x="0" y="0" width="110" height="74" filterUnits="userSpaceOnUse" color-interpolation-filters="sRGB">
<feFlood flood-opacity="0" result="BackgroundImageFix"/>
<feColorMatrix in="SourceAlpha" type="matrix" values="0 0 0 0 0 0 0 0 0 0 0 0 0 0 0 0 0 0 127 0" result="hardAlpha"/>
<feMorphology radius="1" operator="dilate" in="SourceAlpha" result="effect1_dropShadow_683_187182"/>
<feOffset/>
<feComposite in2="hardAlpha" operator="out"/>
<feColorMatrix type="matrix" values="0 0 0 0 0 0 0 0 0 0 0 0 0 0 0 0 0 0 0.05 0"/>
<feBlend mode="normal" in2="BackgroundImageFix" result="effect1_dropShadow_683_187182"/>
<feColorMatrix in="SourceAlpha" type="matrix" values="0 0 0 0 0 0 0 0 0 0 0 0 0 0 0 0 0 0 127 0" result="hardAlpha"/>
<feOffset dy="3"/>
<feGaussianBlur stdDeviation="3"/>
<feComposite in2="hardAlpha" operator="out"/>
<feColorMatrix type="matrix" values="0 0 0 0 0 0 0 0 0 0 0 0 0 0 0 0 0 0 0.2 0"/>
<feBlend mode="normal" in2="effect1_dropShadow_683_187182" result="effect2_dropShadow_683_187182"/>
<feBlend mode="normal" in="SourceGraphic" in2="effect2_dropShadow_683_187182" result="shape"/>
</filter>
<radialGradient id="paint0_radial_683_187182" cx="0" cy="0" r="1" gradientUnits="userSpaceOnUse" gradientTransform="translate(97.5 69.5) rotate(-175.486) scale(76.2365 76.2365)">
<stop stop-color="#6B9FEC"/>
<stop offset="0.287111" stop-color="#6B9FEC"/>
<stop offset="0.662163" stop-color="#6B9FEC"/>
<stop offset="1" stop-color="#4482E6"/>
</radialGradient>
</defs>
</svg>
