<svg width="32" height="32" viewBox="0 0 32 32" fill="none" xmlns="http://www.w3.org/2000/svg">
<g clip-path="url(#clip0_4801_2051)">
<path d="M18.6464 17.5709C19.7187 16.6908 20.375 15.2478 20.375 13.5C20.375 10.5812 18.554 8.5 16 8.5C13.446 8.5 11.625 10.5812 11.625 13.5C11.625 15.2478 12.2813 16.6908 13.3536 17.5709C9.69629 18.5312 8.5 21.4176 8.5 22.8824C8.5 23.2161 8.77973 23.5 9.12859 23.5H22.8714C23.2203 23.5 23.5 23.2161 23.5 22.8824C23.5 21.4176 22.3037 18.5312 18.6464 17.5709ZM12.875 13.5C12.875 11.2921 14.16 9.75 16 9.75C17.84 9.75 19.125 11.2921 19.125 13.5C19.125 15.7079 17.84 17.25 16 17.25C14.16 17.25 12.875 15.7079 12.875 13.5ZM9.8489 22.25C10.2083 20.9169 11.6608 18.5 16 18.5C20.3392 18.5 21.7917 20.9169 22.1511 22.25H9.8489Z" fill="#1E3145"/>
</g>
<defs>
<clipPath id="clip0_4801_2051">
<rect width="15" height="15" fill="white" transform="translate(8.5 8.5)"/>
</clipPath>
</defs>
</svg>
