<svg width="32" height="32" viewBox="0 0 32 32" fill="none" xmlns="http://www.w3.org/2000/svg">
<g clip-path="url(#clip0_4801_2047)">
<path d="M23.5 10.375H8.5C8.15483 10.375 7.875 10.6548 7.875 11V21C7.875 21.3452 8.15483 21.625 8.5 21.625H23.5C23.8452 21.625 24.125 21.3452 24.125 21V11C24.125 10.6548 23.8452 10.375 23.5 10.375ZM9.125 11.625H11C11 12.6589 10.1589 13.5 9.125 13.5V11.625ZM9.125 20.375V18.5C10.1589 18.5 11 19.3411 11 20.375H9.125ZM22.875 20.375H21C21 19.3411 21.8411 18.5 22.875 18.5V20.375ZM22.875 17.25C21.152 17.25 19.75 18.6518 19.75 20.375H12.25C12.25 18.6518 10.848 17.25 9.125 17.25V14.75C10.848 14.75 12.25 13.3482 12.25 11.625H19.75C19.75 13.3482 21.152 14.75 22.875 14.75V17.25ZM22.875 13.5C21.8411 13.5 21 12.6589 21 11.625H22.875V13.5ZM16 12.25C14.1894 12.25 12.875 13.8271 12.875 16C12.875 18.1729 14.1894 19.75 16 19.75C17.8106 19.75 19.125 18.1729 19.125 16C19.125 13.8271 17.8106 12.25 16 12.25ZM16 18.5C14.8962 18.5 14.125 17.472 14.125 16C14.125 14.528 14.8962 13.5 16 13.5C17.1038 13.5 17.875 14.528 17.875 16C17.875 17.472 17.1038 18.5 16 18.5Z" fill="#1E3145"/>
</g>
<defs>
<clipPath id="clip0_4801_2047">
<rect width="16.25" height="11.25" fill="white" transform="translate(7.875 10.375)"/>
</clipPath>
</defs>
</svg>
