<svg width="182" height="104" viewBox="0 0 182 104" fill="none" xmlns="http://www.w3.org/2000/svg">
<g clip-path="url(#clip0_19481_15340)">
<path d="M54.9316 9.70774C55.828 14.7174 52.4431 18.7897 47.3773 18.7897C42.3115 18.7897 37.4745 14.7266 36.5781 9.71695C35.6816 4.70734 39.0713 0.630371 44.137 0.630371C49.2028 0.630371 54.0399 4.69349 54.9316 9.70774Z" stroke="#CFD9E1" stroke-width="1.34" stroke-miterlimit="10"/>
<path d="M68.2608 9.70774C69.1948 14.7174 65.7911 18.7897 60.7206 18.7897C55.6501 18.7897 50.8225 14.7266 49.926 9.71695C49.0296 4.70734 52.4192 0.630371 57.485 0.630371C62.5508 0.630371 67.3881 4.69349 68.2608 9.70774Z" stroke="#CFD9E1" stroke-width="1.34" stroke-miterlimit="10"/>
<path d="M81.6283 9.70774C82.5244 14.7174 79.1397 18.7897 74.069 18.7897C68.9989 18.7897 64.1664 14.7266 63.2747 9.71695C62.3829 4.70734 65.7677 0.630371 70.8334 0.630371C75.8997 0.630371 80.7366 4.69349 81.6283 9.70774Z" stroke="#CFD9E1" stroke-width="1.34" stroke-miterlimit="10"/>
<path d="M94.9775 9.70774C95.8735 14.7174 92.4888 18.7897 87.4042 18.7897C82.3202 18.7897 77.5017 14.7266 76.61 9.71695C75.7183 4.70734 79.1169 0.630371 84.1826 0.630371C89.2489 0.630371 94.0858 4.69349 94.9775 9.70774Z" stroke="#CFD9E1" stroke-width="1.34" stroke-miterlimit="10"/>
<path d="M108.325 9.70774C109.216 14.7174 105.832 18.7897 100.766 18.7897C95.6998 18.7897 90.8629 14.7266 89.9712 9.71695C89.0795 4.70734 92.4642 0.630371 97.5305 0.630371C102.596 0.630371 107.433 4.69349 108.325 9.70774Z" stroke="#CFD9E1" stroke-width="1.34" stroke-miterlimit="10"/>
<path d="M121.673 9.70774C122.565 14.7174 119.18 18.7897 114.115 18.7897C109.049 18.7897 104.211 14.7174 103.32 9.70774C102.428 4.6981 105.808 0.630371 110.879 0.630371C115.949 0.630371 120.777 4.69349 121.673 9.70774Z" stroke="#CFD9E1" stroke-width="1.34" stroke-miterlimit="10"/>
<path d="M135.026 9.70774C135.914 14.7174 132.528 18.7897 127.463 18.7897C122.397 18.7897 117.56 14.7266 116.668 9.71695C115.776 4.70734 119.152 0.630371 124.227 0.630371C129.302 0.630371 134.125 4.69349 135.026 9.70774Z" stroke="#CFD9E1" stroke-width="1.34" stroke-miterlimit="10"/>
<path d="M9.89941 101.28L26.4181 8.88086L42.9414 101.28L26.4181 94.4969L9.89941 101.28Z" fill="#CFD9E1"/>
<path d="M26.4227 94.4961L9.89941 101.279H42.9414L26.4227 94.4961Z" fill="#F2F4F6"/>
<path d="M168.078 101.539H42.9418L26.4232 8.88086H151.559L168.078 101.539Z" fill="#F2F4F6"/>
<path d="M154.884 93.0284H53.1059L38.9824 13.8298H140.765L154.884 93.0284Z" fill="white"/>
<path d="M67.1447 50.1316H55.4675L53.4085 38.584H65.0852L67.1447 50.1316Z" fill="#F2F4F6"/>
<path d="M84.6635 50.1316H72.9864L70.9276 38.584H82.6046L84.6635 50.1316Z" fill="#F2F4F6"/>
<path d="M102.185 50.1316H90.5039L88.4451 38.584H100.127L102.185 50.1316Z" fill="#F2F4F6"/>
<path d="M119.704 50.1316H108.027L105.968 38.584H117.645L119.704 50.1316Z" fill="#F2F4F6"/>
<path d="M137.222 50.1316H125.545L123.486 38.584H135.163L137.222 50.1316Z" fill="#F2F4F6"/>
<path d="M70.0858 66.6325H58.4088L56.3498 55.0801H68.0269L70.0858 66.6325Z" fill="#F2F4F6"/>
<path d="M87.6096 66.6325H75.9281L73.8693 55.0801H85.5457L87.6096 66.6325Z" fill="#F2F4F6"/>
<path d="M105.127 66.6325H93.4456L91.3861 55.0801H103.068L105.127 66.6325Z" fill="#F2F4F6"/>
<path d="M140.166 66.6325H128.484L126.426 55.0801H138.102L140.166 66.6325Z" fill="#F2F4F6"/>
<path d="M73.0332 83.1288H61.3513L59.2923 71.5811H70.9692L73.0332 83.1288Z" fill="#F2F4F6"/>
<path d="M90.5501 83.1288H78.8686L76.8097 71.5811H88.4868L90.5501 83.1288Z" fill="#F2F4F6"/>
<path d="M108.068 83.1288H96.3867L94.3322 71.5811H106.009L108.068 83.1288Z" fill="#F2F4F6"/>
<path d="M125.586 83.1288H113.909L111.85 71.5811H123.527L125.586 83.1288Z" fill="#F2F4F6"/>
<path d="M143.406 28.6787H41.6287L38.9861 13.8298H140.764L143.406 28.6787Z" fill="#5D62AC"/>
<path d="M54.9316 9.70801C55.8281 14.7177 52.4431 18.79 47.3773 18.79" stroke="#F3F5F7" stroke-width="1.34" stroke-miterlimit="10"/>
<path d="M68.2614 9.70801C69.1948 14.7177 65.7911 18.79 60.7209 18.79" stroke="#F3F5F7" stroke-width="1.34" stroke-miterlimit="10"/>
<path d="M81.6277 9.70801C82.5244 14.7177 79.1397 18.79 74.069 18.79" stroke="#F3F5F7" stroke-width="1.34" stroke-miterlimit="10"/>
<path d="M94.9775 9.70801C95.8742 14.7177 92.4889 18.79 87.4049 18.79" stroke="#F3F5F7" stroke-width="1.34" stroke-miterlimit="10"/>
<path d="M108.326 9.70801C109.218 14.7177 105.832 18.79 100.767 18.79" stroke="#F3F5F7" stroke-width="1.34" stroke-miterlimit="10"/>
<path d="M121.673 9.70801C122.565 14.7177 119.18 18.79 114.114 18.79" stroke="#F3F5F7" stroke-width="1.34" stroke-miterlimit="10"/>
<path d="M135.026 9.70801C135.914 14.7177 132.528 18.79 127.463 18.79" stroke="#F3F5F7" stroke-width="1.34" stroke-miterlimit="10"/>
<path d="M53.1049 93.0328L38.9861 13.8298" stroke="#371F38" stroke-width="0.9" stroke-miterlimit="10"/>
<path d="M116.486 68.1856C120.616 68.1856 123.964 64.8752 123.964 60.7909C123.964 56.7069 120.616 53.396 116.486 53.396C112.357 53.396 109.009 56.7069 109.009 60.7909C109.009 64.8752 112.357 68.1856 116.486 68.1856Z" fill="#69C4A6"/>
<path d="M113.267 60.5078L114.968 62.7515L120.777 58.8276" stroke="white" stroke-width="2" stroke-miterlimit="10"/>
<mask id="mask0_19481_15340" style="mask-type:luminance" maskUnits="userSpaceOnUse" x="127" y="24" width="56" height="30">
<path d="M182 24.6753H127.758V53.3956H182V24.6753Z" fill="white"/>
</mask>
<g mask="url(#mask0_19481_15340)">
<path d="M148.565 44.6899L153.358 46.5108L148.236 48.5502C147.483 48.8497 146.768 48.0445 147.151 47.3295L148.565 44.6899Z" fill="#19B3E8"/>
<path d="M139.76 34.4865C138.314 34.8252 137.931 36.7091 139.13 37.5871L158.531 51.7957C159.289 52.3512 160.35 52.201 160.926 51.4568L181.639 24.6753L139.76 34.4865Z" fill="#9DDAF3"/>
<path fill-rule="evenodd" clip-rule="evenodd" d="M149.672 45.3054L181.638 24.6753L144.234 41.3232L144.232 41.3222L144.232 41.3236L147.206 48.4066C147.526 49.167 148.623 49.0966 148.842 48.3016L149.672 45.3054Z" fill="#028DDE"/>
<path fill-rule="evenodd" clip-rule="evenodd" d="M132.905 39.9483C132.948 39.7119 133.173 39.555 133.409 39.5979C133.991 39.7037 134.468 40.0034 134.83 40.4357C134.985 40.6196 134.961 40.8941 134.777 41.0488C134.594 41.2035 134.32 41.1798 134.166 40.9958C133.923 40.7062 133.621 40.521 133.254 40.4542C133.019 40.4113 132.862 40.1848 132.905 39.9483ZM131.931 40.1492C132.027 40.3694 131.927 40.626 131.707 40.7223C131.525 40.8023 131.334 40.8998 131.133 41.0166C130.948 41.1235 130.778 41.2315 130.621 41.3403C130.423 41.4767 130.153 41.4269 130.017 41.2291C129.881 41.0312 129.931 40.7602 130.128 40.6238C130.306 40.5012 130.495 40.381 130.698 40.2634C130.924 40.1319 131.145 40.0193 131.36 39.9251C131.579 39.8286 131.835 39.9291 131.931 40.1492ZM129.402 41.7826C129.596 41.9244 129.638 42.1966 129.497 42.3906C129.254 42.7228 129.117 43.0472 129.059 43.3565C129.016 43.5928 128.79 43.7488 128.554 43.7049C128.318 43.661 128.163 43.4339 128.206 43.1976C128.29 42.7461 128.486 42.3023 128.796 41.8771C128.938 41.683 129.209 41.6407 129.402 41.7826ZM135.131 41.9749C135.367 41.9344 135.591 42.0936 135.631 42.3306C135.71 42.7913 135.737 43.2885 135.716 43.8063C135.706 44.0464 135.504 44.233 135.265 44.2231C135.025 44.2131 134.839 44.0104 134.849 43.7702C134.868 43.3051 134.843 42.8698 134.776 42.4771C134.736 42.2402 134.894 42.0154 135.131 41.9749ZM142.567 43.9583C142.754 44.1091 142.783 44.3831 142.633 44.5702C142.492 44.7458 142.348 44.9143 142.201 45.0759C142.039 45.2534 141.765 45.2659 141.588 45.1039C141.411 44.9419 141.398 44.6666 141.56 44.4891C141.695 44.3409 141.827 44.1859 141.957 44.0243C142.108 43.8371 142.381 43.8076 142.567 43.9583ZM128.706 44.5299C128.918 44.4174 129.181 44.4983 129.293 44.7107C129.453 45.0139 129.684 45.3115 129.983 45.5931C130.157 45.7578 130.165 46.0333 130.001 46.2081C129.837 46.3831 129.562 46.3912 129.387 46.2265C129.032 45.8907 128.738 45.5188 128.526 45.1183C128.414 44.9059 128.495 44.6425 128.706 44.5299ZM135.117 45.1953C135.35 45.2533 135.491 45.4893 135.434 45.7225C135.321 46.1792 135.174 46.6408 134.994 47.0994C134.943 47.2312 134.834 47.3235 134.707 47.3591C134.852 47.3653 134.998 47.368 135.144 47.3671C135.384 47.3657 135.58 47.5593 135.581 47.7996C135.582 48.04 135.39 48.236 135.15 48.2374C134.701 48.2401 134.259 48.2121 133.829 48.1566C133.592 48.1259 133.424 47.9077 133.455 47.6694C133.485 47.431 133.703 47.2627 133.941 47.2934C134.101 47.3141 134.262 47.3306 134.426 47.3427C134.207 47.2527 134.1 47.0024 134.186 46.7807C134.353 46.3575 134.488 45.9321 134.592 45.5127C134.65 45.2794 134.885 45.1374 135.117 45.1953ZM140.985 45.6624C141.131 45.853 141.095 46.1261 140.905 46.2725C140.546 46.5487 140.178 46.7926 139.802 47.0062C139.593 47.1247 139.329 47.0512 139.21 46.8421C139.092 46.633 139.166 46.3675 139.374 46.249C139.715 46.0552 140.05 45.8337 140.376 45.5824C140.567 45.4359 140.839 45.4717 140.985 45.6624ZM130.683 46.6716C130.793 46.4578 131.055 46.3734 131.267 46.4832C131.608 46.6585 131.978 46.813 132.373 46.9418C132.601 47.0162 132.725 47.2618 132.651 47.4903C132.577 47.7188 132.332 47.8437 132.104 47.7693C131.668 47.6268 131.254 47.4548 130.871 47.2575C130.658 47.1477 130.574 46.8854 130.683 46.6716ZM138.46 47.1789C138.537 47.4065 138.415 47.6535 138.188 47.7306C137.763 47.875 137.335 47.9863 136.907 48.0675C136.672 48.1122 136.445 47.957 136.4 47.7209C136.356 47.4847 136.51 47.2571 136.746 47.2123C137.134 47.1386 137.524 47.0374 137.91 46.9063C138.137 46.8292 138.383 46.9513 138.46 47.1789ZM133.997 48.225C134.201 48.3501 134.266 48.6178 134.142 48.8231C133.894 49.2306 133.616 49.627 133.309 50.0054C133.158 50.1918 132.885 50.2198 132.699 50.068C132.513 49.9163 132.485 49.6422 132.636 49.4558C132.918 49.1094 133.172 48.7455 133.4 48.3702C133.525 48.165 133.792 48.1 133.997 48.225ZM132.009 50.7677C132.162 50.9531 132.136 51.2274 131.951 51.3803C131.582 51.6853 131.186 51.9657 130.762 52.2153C130.555 52.3369 130.289 52.2674 130.168 52.0602C130.047 51.8529 130.116 51.5863 130.323 51.4646C130.706 51.2393 131.065 50.9857 131.399 50.709C131.583 50.556 131.857 50.5823 132.009 50.7677ZM129.274 52.4621C129.348 52.6907 129.223 52.936 128.994 53.0099C128.766 53.0838 128.532 53.1494 128.292 53.2063C128.059 53.2615 127.825 53.1168 127.77 52.8829C127.715 52.649 127.859 52.4145 128.093 52.3593C128.309 52.3078 128.521 52.2485 128.728 52.1816C128.956 52.1078 129.2 52.2333 129.274 52.4621Z" fill="#9DDAF3"/>
</g>
<mask id="mask1_19481_15340" style="mask-type:alpha" maskUnits="userSpaceOnUse" x="0" y="53" width="50" height="51">
<path d="M49.9242 53.5757H0.000610352V104H49.9242V53.5757Z" fill="#D9D9D9"/>
</mask>
<g mask="url(#mask1_19481_15340)">
<path d="M10.1988 60.2765C10.4599 59.6428 11.7506 59.6474 12.0078 60.2826C12.3901 61.2265 12.8982 62.1942 13.5382 62.8377C14.1695 63.4725 15.1194 63.9837 16.0488 64.372C16.682 64.6361 16.6721 65.925 16.0353 66.181C15.0663 66.5698 14.0709 67.093 13.4216 67.7586C12.834 68.3618 12.3693 69.2467 12.0154 70.1304C11.7579 70.774 10.4015 70.7922 10.1295 70.155C9.74828 69.2619 9.25486 68.3656 8.64636 67.7586C7.98819 67.1025 6.99047 66.5799 6.02504 66.1885C5.39123 65.932 5.39123 64.6651 6.02504 64.4079C6.99047 64.0165 7.98819 63.494 8.64636 62.8377C9.29246 62.1933 9.80882 61.2227 10.1988 60.2765Z" fill="#13B5EA"/>
<path d="M3.41608 70.7567C3.54846 70.441 4.19712 70.4428 4.32759 70.7599C4.51191 71.2074 4.75426 71.6618 5.05738 71.9663C5.35634 72.2669 5.80203 72.5109 6.24254 72.6981C6.55834 72.8317 6.55347 73.4796 6.23584 73.6095C5.77597 73.7973 5.30842 74.0469 5.00063 74.3627C4.72331 74.647 4.50221 75.0604 4.33202 75.4777C4.20109 75.7985 3.51905 75.808 3.38097 75.4897C3.19778 75.068 2.96312 74.6489 2.67577 74.3627C2.36365 74.0513 1.89469 73.8017 1.43618 73.6133C1.11999 73.4828 1.11999 72.8462 1.43618 72.7163C1.89469 72.5273 2.36365 72.2777 2.67577 71.9663C2.98183 71.6612 3.22811 71.2055 3.41608 70.7567Z" fill="#B350C7"/>
<path d="M22.9533 61.9575C23.0857 61.6414 23.7344 61.6437 23.8648 61.9606C24.0491 62.4081 24.2915 62.8623 24.5946 63.1675C24.8935 63.4681 25.3392 63.7114 25.7798 63.8986C26.0956 64.0322 26.0907 64.6802 25.7731 64.81C25.3132 64.9979 24.8456 65.2475 24.5379 65.5632C24.2605 65.8475 24.0395 66.261 23.8692 66.6783C23.7383 66.9991 23.0563 67.0085 22.9182 66.6902C22.735 66.2692 22.5004 65.8494 22.213 65.5632C21.9009 65.2519 21.4319 65.0023 20.9734 64.8138C20.6572 64.6833 20.6572 64.0467 20.9734 63.9169C21.4319 63.7278 21.9009 63.4782 22.213 63.1675C22.5191 62.8619 22.7653 62.4062 22.9533 61.9575Z" fill="#B350C7"/>
<path d="M25.7129 94.374C26.7157 89.4146 22.6085 84.8528 16.539 84.1848C10.4696 83.5168 4.73628 86.9956 3.73339 91.9549C2.73049 96.9142 6.83775 101.476 12.9072 102.144C18.9767 102.812 24.71 99.3333 25.7129 94.374Z" fill="#B45602"/>
<mask id="mask2_19481_15340" style="mask-type:alpha" maskUnits="userSpaceOnUse" x="3" y="84" width="23" height="19">
<path d="M25.7116 94.3764C26.7145 89.4171 22.6072 84.8552 16.5377 84.1872C10.4683 83.5192 4.735 86.998 3.7321 91.9573C2.72921 96.9167 6.83647 101.479 12.9059 102.147C18.9754 102.815 24.7087 99.3358 25.7116 94.3764Z" fill="#B45602"/>
</mask>
<g mask="url(#mask2_19481_15340)">
<path d="M8.68058 97.7158L8.21863 101.827" stroke="#E5860C" stroke-width="7"/>
<path d="M11.5095 99.3008L11.1904 102.481" stroke="#E5860C" stroke-width="2"/>
<path d="M22.6336 97.52L22.3145 100.7" stroke="#E5860C" stroke-width="3"/>
</g>
<path d="M26.0899 91.9462C27.0928 86.9869 22.9855 82.425 16.916 81.757C10.8466 81.089 5.1133 84.5678 4.1104 89.5272C3.1075 94.4865 7.21477 99.0484 13.2842 99.7164C19.3537 100.384 25.087 96.9056 26.0899 91.9462Z" fill="#F1A200"/>
<path d="M24.2708 91.6673C25.0803 87.6644 21.6602 83.9708 16.6319 83.4173C11.6035 82.8639 6.87102 85.6603 6.06153 89.6632C5.25204 93.6661 8.67211 97.3598 13.7005 97.9132C18.7288 98.4666 23.4613 95.6703 24.2708 91.6673Z" fill="#F0BF08"/>
<path d="M20.5303 91.1527C21.0099 88.7809 18.9984 86.594 16.0374 86.2681C13.0765 85.9423 10.2873 87.6008 9.80766 89.9726C9.32803 92.3444 11.3396 94.5313 14.3005 94.8572C17.2615 95.183 20.0507 93.5245 20.5303 91.1527Z" fill="#E5860C"/>
<path d="M26.8385 89.7968C27.8414 84.8375 23.7341 80.2756 17.6646 79.6076C11.5952 78.9396 5.86189 82.4184 4.859 87.3778C3.8561 92.3371 7.96336 96.899 14.0328 97.567C20.1023 98.235 25.8356 94.7562 26.8385 89.7968Z" fill="#B45602"/>
<mask id="mask3_19481_15340" style="mask-type:alpha" maskUnits="userSpaceOnUse" x="4" y="79" width="23" height="19">
<path d="M26.8404 89.7968C27.8433 84.8375 23.736 80.2756 17.6665 79.6076C11.5971 78.9396 5.86378 82.4184 4.86089 87.3778C3.85799 92.3371 7.96525 96.899 14.0347 97.567C20.1042 98.235 25.8375 94.7562 26.8404 89.7968Z" fill="#B45602"/>
</mask>
<g mask="url(#mask3_19481_15340)">
<path d="M9.80875 93.1396L9.3468 97.2499" stroke="#E5860C" stroke-width="7"/>
<path d="M12.6388 94.7212L12.3197 97.9017" stroke="#E5860C" stroke-width="2"/>
<path d="M23.7624 92.9429L23.4432 96.1228" stroke="#E5860C" stroke-width="3"/>
</g>
<path d="M27.2155 87.3686C28.2184 82.4093 24.1112 77.8474 18.0417 77.1794C11.9722 76.5114 6.23897 79.9902 5.23607 84.9495C4.23317 89.9089 8.34044 94.4707 14.4099 95.1387C20.4794 95.8068 26.2126 92.3279 27.2155 87.3686Z" fill="#F1A200"/>
<path d="M25.3989 87.0902C26.2084 83.0873 22.7884 79.3936 17.76 78.8402C12.7316 78.2868 7.99913 81.0831 7.18964 85.0861C6.38016 89.089 9.80023 92.7826 14.8286 93.3361C19.8569 93.8895 24.5895 91.0931 25.3989 87.0902Z" fill="#F0BF08"/>
<path d="M21.6565 86.5756C22.1361 84.2038 20.1246 82.0169 17.1636 81.691C14.2027 81.3651 11.4135 83.0236 10.9339 85.3954C10.4542 87.7672 12.4658 89.9541 15.4267 90.28C18.3877 90.6059 21.1769 88.9474 21.6565 86.5756Z" fill="#E5860C"/>
<path d="M35.0619 101.585C39.5901 99.3057 40.6458 93.2655 37.42 88.0943C34.1941 82.9231 27.9082 80.5792 23.3799 82.8589C18.8517 85.1387 17.796 91.1789 21.0219 96.3501C24.2478 101.521 30.5337 103.865 35.0619 101.585Z" fill="#B45602"/>
<mask id="mask4_19481_15340" style="mask-type:alpha" maskUnits="userSpaceOnUse" x="19" y="81" width="21" height="22">
<path d="M35.0624 101.585C39.5906 99.3057 40.6464 93.2655 37.4205 88.0943C34.1946 82.9231 27.9087 80.5792 23.3805 82.8589C18.8523 85.1387 17.7965 91.1789 21.0224 96.3501C24.2483 101.521 30.5342 103.865 35.0624 101.585Z" fill="#B45602"/>
</mask>
<g mask="url(#mask4_19481_15340)">
<path d="M21.9008 90.3008L18.376 92.4797" stroke="#E5860C" stroke-width="7"/>
<path d="M22.4018 93.499L19.6984 95.2147" stroke="#E5860C" stroke-width="2"/>
<path d="M30.6811 101.119L27.9778 102.835" stroke="#E5860C" stroke-width="3"/>
</g>
<path d="M37.2101 100.381C41.7383 98.1016 42.7941 92.0614 39.5682 86.8902C36.3423 81.719 30.0564 79.3751 25.5282 81.6548C21 83.9346 19.9443 89.9748 23.1701 95.146C26.396 100.317 32.6819 102.661 37.2101 100.381Z" fill="#F1A200"/>
<path d="M36.3059 98.7826C39.9609 96.9425 40.7572 91.9778 38.0847 87.6936C35.4122 83.4095 30.2827 81.4282 26.6278 83.2683C22.9729 85.1084 22.1765 90.0731 24.849 94.3573C27.5215 98.6414 32.651 100.623 36.3059 98.7826Z" fill="#F0BF08"/>
<path d="M34.3969 95.5341C36.5625 94.4438 37.0423 91.5148 35.4685 88.9921C33.8948 86.4693 30.8635 85.3081 28.6978 86.3984C26.5322 87.4887 26.0524 90.4177 27.6262 92.9404C29.1999 95.4632 32.2312 96.6244 34.3969 95.5341Z" fill="#E5860C"/>
</g>
</g>
<defs>
<clipPath id="clip0_19481_15340">
<rect width="182" height="104" fill="white"/>
</clipPath>
</defs>
</svg>