<svg width="32" height="32" viewBox="0 0 32 32" fill="none" xmlns="http://www.w3.org/2000/svg">
<g clip-path="url(#clip0_4801_2042)">
<path d="M22.25 10.0625H21V8.8125C21 8.46731 20.7202 8.1875 20.375 8.1875C20.0298 8.1875 19.75 8.46731 19.75 8.8125V10.0625H12.25V8.8125C12.25 8.46731 11.9702 8.1875 11.625 8.1875C11.2798 8.1875 11 8.46731 11 8.8125V10.0625H9.75C9.40485 10.0625 9.125 10.3423 9.125 10.6875V21.9375C9.125 22.973 9.96446 23.8125 11 23.8125H21C22.0355 23.8125 22.875 22.973 22.875 21.9375V10.6875C22.875 10.3423 22.5952 10.0625 22.25 10.0625ZM21.625 21.9375C21.625 22.2827 21.3452 22.5625 21 22.5625H11C10.6548 22.5625 10.375 22.2827 10.375 21.9375V15.0625H21.625V21.9375ZM21.625 13.8125H10.375V11.3125H21.625V13.8125ZM11.625 18.1875V16.9375C11.625 16.5923 11.9048 16.3125 12.25 16.3125H13.5C13.8452 16.3125 14.125 16.5923 14.125 16.9375V18.1875C14.125 18.5327 13.8452 18.8125 13.5 18.8125H12.25C11.9048 18.8125 11.625 18.5327 11.625 18.1875Z" fill="#1E3145"/>
</g>
<defs>
<clipPath id="clip0_4801_2042">
<rect width="13.75" height="15.625" fill="white" transform="translate(9.125 8.1875)"/>
</clipPath>
</defs>
</svg>
