<svg width="32" height="32" viewBox="0 0 32 32" fill="none" xmlns="http://www.w3.org/2000/svg">
<path d="M14.75 11C14.75 11.6904 14.1903 12.25 13.5 12.25C12.8096 12.25 12.25 11.6904 12.25 11C12.25 10.3097 12.8096 9.75 13.5 9.75C14.1903 9.75 14.75 10.3097 14.75 11ZM18.5 19.75C17.8096 19.75 17.25 20.3097 17.25 21C17.25 21.6904 17.8096 22.25 18.5 22.25C19.1903 22.25 19.75 21.6904 19.75 21C19.75 20.3097 19.1903 19.75 18.5 19.75ZM13.5 19.75C12.8096 19.75 12.25 20.3097 12.25 21C12.25 21.6904 12.8096 22.25 13.5 22.25C14.1903 22.25 14.75 21.6904 14.75 21C14.75 20.3097 14.1903 19.75 13.5 19.75ZM13.5 14.75C12.8096 14.75 12.25 15.3097 12.25 16C12.25 16.6904 12.8096 17.25 13.5 17.25C14.1903 17.25 14.75 16.6904 14.75 16C14.75 15.3097 14.1903 14.75 13.5 14.75ZM18.5 14.75C17.8096 14.75 17.25 15.3097 17.25 16C17.25 16.6904 17.8096 17.25 18.5 17.25C19.1903 17.25 19.75 16.6904 19.75 16C19.75 15.3097 19.1903 14.75 18.5 14.75ZM18.5 9.75C17.8096 9.75 17.25 10.3097 17.25 11C17.25 11.6904 17.8096 12.25 18.5 12.25C19.1903 12.25 19.75 11.6904 19.75 11C19.75 10.3097 19.1903 9.75 18.5 9.75Z" fill="#1E3145"/>
</svg>
