<svg width="32" height="32" viewBox="0 0 32 32" fill="none" xmlns="http://www.w3.org/2000/svg">
<g clip-path="url(#clip0_4801_2088)">
<path d="M22.875 12.5625H20.3162L20.9814 9.90169C21.065 9.5666 20.8615 9.22725 20.5267 9.14363C20.1928 9.05971 19.8525 9.26356 19.7686 9.59834L19.0276 12.5625H14.6912L15.3564 9.90169C15.44 9.5666 15.2365 9.22725 14.9017 9.14363C14.5675 9.05971 14.2275 9.26356 14.1436 9.59834L13.4026 12.5625H10.375C10.0298 12.5625 9.75 12.8424 9.75 13.1875C9.75 13.5327 10.0298 13.8125 10.375 13.8125H13.0901L11.9963 18.1875H9.125C8.77985 18.1875 8.5 18.4674 8.5 18.8125C8.5 19.1577 8.77985 19.4375 9.125 19.4375H11.6838L11.0186 22.0983C10.935 22.4334 11.1385 22.7728 11.4733 22.8564C11.8031 22.9393 12.1465 22.7405 12.2314 22.4017L12.9724 19.4375H17.3088L16.6436 22.0983C16.56 22.4334 16.7635 22.7728 17.0983 22.8564C17.4281 22.9393 17.7715 22.7405 17.8564 22.4017L18.5974 19.4375H21.625C21.9702 19.4375 22.25 19.1577 22.25 18.8125C22.25 18.4674 21.9702 18.1875 21.625 18.1875H18.9099L20.0037 13.8125H22.875C23.2202 13.8125 23.5 13.5327 23.5 13.1875C23.5 12.8424 23.2202 12.5625 22.875 12.5625ZM17.6213 18.1875H13.2849L14.3787 13.8125H18.7151L17.6213 18.1875Z" fill="#1E3145"/>
</g>
<defs>
<clipPath id="clip0_4801_2088">
<rect width="15" height="13.7504" fill="white" transform="translate(8.5 9.12476)"/>
</clipPath>
</defs>
</svg>
