<svg width="32" height="32" viewBox="0 0 32 32" fill="none" xmlns="http://www.w3.org/2000/svg">
<g clip-path="url(#clip0_4801_2081)">
<path d="M16 8.5C11.8578 8.5 8.5 11.8579 8.5 16C8.5 20.1421 11.8578 23.5 16 23.5C20.1422 23.5 23.5 20.1421 23.5 16C23.5 11.8579 20.1422 8.5 16 8.5ZM16 11.9375C16.5178 11.9375 16.9375 12.3572 16.9375 12.875C16.9375 13.3928 16.5178 13.8125 16 13.8125C15.4822 13.8125 15.0625 13.3928 15.0625 12.875C15.0625 12.3572 15.4822 11.9375 16 11.9375ZM17.25 20.375H14.75C14.4048 20.375 14.125 20.0952 14.125 19.75C14.125 19.4048 14.4048 19.125 14.75 19.125H15.375V16H14.75C14.4048 16 14.125 15.7202 14.125 15.375C14.125 15.0298 14.4048 14.75 14.75 14.75H16C16.3452 14.75 16.625 15.0298 16.625 15.375V19.125H17.25C17.5952 19.125 17.875 19.4048 17.875 19.75C17.875 20.0952 17.5952 20.375 17.25 20.375Z" fill="#1E3145"/>
</g>
<defs>
<clipPath id="clip0_4801_2081">
<rect width="15" height="15" fill="white" transform="translate(8.5 8.5)"/>
</clipPath>
</defs>
</svg>
