<svg width="32" height="32" viewBox="0 0 32 32" fill="none" xmlns="http://www.w3.org/2000/svg">
<g clip-path="url(#clip0_4801_2148)">
<path d="M16 8.5C11.8646 8.5 8.5 11.8644 8.5 16C8.5 20.1356 11.8646 23.5 16.0018 23.5C16.6848 23.4979 17.3089 23.1452 17.6714 22.5567C18.0361 21.9642 18.0703 21.2428 17.7624 20.6271L17.0114 19.125H20.3326C22.0727 19.125 23.4936 17.7242 23.5 16C23.5 11.8644 20.1354 8.5 16 8.5ZM20.3326 17.875H16C15.7833 17.875 15.5822 17.9872 15.4684 18.1715C15.3546 18.3557 15.3442 18.5858 15.4409 18.7795L16.6442 21.1862C16.7574 21.4123 16.7434 21.6796 16.607 21.9012C16.5426 22.0057 16.3543 22.2489 16 22.25C12.5536 22.25 9.75 19.4462 9.75 16C9.75 12.5538 12.5536 9.75 16 9.75C19.4464 9.75 22.25 12.5538 22.25 15.9977C22.246 17.0153 21.368 17.875 20.3326 17.875ZM13.5 16C13.5 16.6903 12.9404 17.25 12.25 17.25C11.5596 17.25 11 16.6903 11 16C11 15.3096 11.5596 14.75 12.25 14.75C12.9404 14.75 13.5 15.3096 13.5 16ZM15.375 12.875C15.375 13.5653 14.8154 14.125 14.125 14.125C13.4346 14.125 12.875 13.5653 12.875 12.875C12.875 12.1846 13.4346 11.625 14.125 11.625C14.8154 11.625 15.375 12.1846 15.375 12.875ZM19.125 12.875C19.125 13.5653 18.5654 14.125 17.875 14.125C17.1847 14.125 16.625 13.5653 16.625 12.875C16.625 12.1846 17.1847 11.625 17.875 11.625C18.5654 11.625 19.125 12.1846 19.125 12.875Z" fill="#1E3145"/>
</g>
<defs>
<clipPath id="clip0_4801_2148">
<rect width="15" height="15" fill="white" transform="translate(8.5 8.5)"/>
</clipPath>
</defs>
</svg>
