<svg width="32" height="32" viewBox="0 0 32 32" fill="none" xmlns="http://www.w3.org/2000/svg">
<g clip-path="url(#clip0_4801_2149)">
<path d="M22.875 10.6875H19.125V8.8125C19.125 8.46731 18.8452 8.1875 18.5 8.1875H13.5C13.1548 8.1875 12.875 8.46731 12.875 8.8125V10.6875H9.125C8.77983 10.6875 8.5 10.9673 8.5 11.3125V14.4375C8.5 14.7827 8.77983 15.0625 9.125 15.0625H9.83291L11.0063 23.2759C11.0503 23.5838 11.314 23.8125 11.6251 23.8125H20.3749C20.686 23.8125 20.9497 23.5838 20.9937 23.2759L22.1671 15.0625H22.875C23.2202 15.0625 23.5 14.7827 23.5 14.4375V11.3125C23.5 10.9673 23.2202 10.6875 22.875 10.6875ZM14.125 10.654V9.4375H17.875V10.654C17.875 10.6653 17.8773 10.6762 17.8778 10.6875H14.1222C14.1227 10.6762 14.125 10.6653 14.125 10.654ZM12.167 22.5625L11.0957 15.0625H13.4991L13.9086 22.5625H12.167ZM16.8394 22.5625H15.1605L14.751 15.0625H17.2491L16.8394 22.5625ZM19.833 22.5625H18.0913L18.501 15.0625H20.9043L19.833 22.5625ZM22.25 13.8125H9.75V11.9375H22.25V13.8125Z" fill="#1E3145"/>
</g>
<defs>
<clipPath id="clip0_4801_2149">
<rect width="15" height="15.625" fill="white" transform="translate(8.5 8.1875)"/>
</clipPath>
</defs>
</svg>
