<svg width="32" height="32" viewBox="0 0 32 32" fill="none" xmlns="http://www.w3.org/2000/svg">
<g clip-path="url(#clip0_4801_2154)">
<path d="M24.6881 15.7286C24.5706 15.4845 21.7435 9.74976 16.0001 9.74976C10.2567 9.74976 7.42952 15.4845 7.31203 15.7286C7.22932 15.9 7.22932 16.0995 7.31203 16.2709C7.42952 16.515 10.2567 22.2498 16.0001 22.2498C21.7435 22.2498 24.5706 16.515 24.6881 16.2709C24.7708 16.0995 24.7708 15.9 24.6881 15.7286ZM16.0001 20.9998C11.7102 20.9998 9.19496 17.0793 8.584 15.9998C9.19496 14.9202 11.7102 10.9998 16.0001 10.9998C20.2905 10.9998 22.8058 14.9213 23.4162 15.9998C22.8052 17.0793 20.2899 20.9998 16.0001 20.9998ZM16.0001 12.5623C14.1046 12.5623 12.5626 14.1043 12.5626 15.9998C12.5626 17.8952 14.1046 19.4373 16.0001 19.4373C17.8955 19.4373 19.4376 17.8952 19.4376 15.9998C19.4376 14.1043 17.8955 12.5623 16.0001 12.5623ZM16.0001 18.1873C14.794 18.1873 13.8126 17.206 13.8126 15.9998C13.8126 14.7935 14.794 13.8123 16.0001 13.8123C17.2061 13.8123 18.1876 14.7935 18.1876 15.9998C18.1876 17.206 17.2061 18.1873 16.0001 18.1873Z" fill="#1E3145"/>
</g>
<defs>
<clipPath id="clip0_4801_2154">
<rect width="17.5002" height="12.5" fill="white" transform="translate(7.25 9.74976)"/>
</clipPath>
</defs>
</svg>
